<?xml version="1.0" standalone="no"?>
<!DOCTYPE svg PUBLIC "-//W3C//DTD SVG 1.1//EN" "http://www.w3.org/Graphics/SVG/1.1/DTD/svg11.dtd" >
<svg xmlns="http://www.w3.org/2000/svg" xmlns:xlink="http://www.w3.org/1999/xlink" version="1.1">
<metadata>
Created by FontForge 20170731 at Thu Nov 15 20:14:07 2018
 By Aleksey,,,
Copyright (c) 2018 by Eduardo Manso. All rights reserved. |DCNT
</metadata>
<defs>
<font id="Steradian-Medium" horiz-adv-x="659" >
  <font-face 
    font-family="Steradian Medium"
    font-weight="500"
    font-stretch="normal"
    units-per-em="1000"
    panose-1="0 0 0 0 0 0 0 0 0 0"
    ascent="700"
    descent="-300"
    x-height="507"
    cap-height="703"
    bbox="-242 -276 1380 966"
    underline-thickness="36"
    underline-position="-196"
    unicode-range="U+000D-FF19"
  />
<missing-glyph horiz-adv-x="869" 
d="M773 352q0 -146 -103 -249t-247 -103q-146 0 -249 103t-103 249q0 145 103 248t249 103q144 0 247 -103t103 -248zM95 352q0 -134 96 -232q97 -96 232 -96t230 96q96 98 96 232q0 135 -96 231t-230 96q-135 0 -232 -96q-96 -96 -96 -231zM456 352l140 -140h-71l-105 104
l-105 -104h-72l140 140l-135 136h72l100 -99l100 100h73z" />
    <glyph glyph-name="fi" unicode="fi" horiz-adv-x="653" 
d="M239 395v-395h-125v395h-82v112h82v50q0 97 48 147t142 50q39 0 71 -8v-110q-25 6 -50 6q-45 0 -65.5 -20.5t-20.5 -66.5v-48h124v-112h-124zM434 661q0 34 22.5 56t58.5 22t59 -22t23 -56t-23 -56.5t-59 -22.5t-58.5 22.5t-22.5 56.5zM578 507v-507h-125v507h125z" />
    <glyph glyph-name="fl" unicode="fl" horiz-adv-x="653" 
d="M239 395v-395h-125v395h-82v112h82v50q0 97 48 147t142 50q39 0 71 -8v-110q-25 6 -50 6q-45 0 -65.5 -20.5t-20.5 -66.5v-48h124v-112h-124zM453 0v741h125v-741h-125z" />
    <glyph glyph-name=".notdef" horiz-adv-x="869" 
d="M773 352q0 -146 -103 -249t-247 -103q-146 0 -249 103t-103 249q0 145 103 248t249 103q144 0 247 -103t103 -248zM95 352q0 -134 96 -232q97 -96 232 -96t230 96q96 98 96 232q0 135 -96 231t-230 96q-135 0 -232 -96q-96 -96 -96 -231zM456 352l140 -140h-71l-105 104
l-105 -104h-72l140 140l-135 136h72l100 -99l100 100h73z" />
    <glyph glyph-name=".null" horiz-adv-x="0" 
 />
    <glyph glyph-name="nonmarkingreturn" horiz-adv-x="333" 
 />
    <glyph glyph-name="NULL" horiz-adv-x="0" 
 />
    <glyph glyph-name="NULL" horiz-adv-x="0" 
 />
    <glyph glyph-name="CR" unicode="&#xd;" horiz-adv-x="236" 
 />
    <glyph glyph-name="space" unicode=" " horiz-adv-x="236" 
 />
    <glyph glyph-name="exclam" unicode="!" horiz-adv-x="288" 
d="M210 460l-25 -232h-82l-25 232v243h132v-243zM231 72q0 -36 -25 -60.5t-62 -24.5t-62 24.5t-25 60.5q0 37 24.5 61.5t62.5 24.5t62.5 -24.5t24.5 -61.5z" />
    <glyph glyph-name="quotedbl" unicode="&#x22;" horiz-adv-x="405" 
d="M179 678l-26 -245h-76l-27 245v25h129v-25zM354 678l-26 -245h-76l-27 245v25h129v-25z" />
    <glyph glyph-name="numbersign" unicode="#" horiz-adv-x="673" 
d="M483 294h104l-23 -99h-105l-38 -151h-102l37 151h-118l-37 -151h-103l38 151h-104l23 99h106l29 114h-105l25 99h105l37 151h103l-38 -151h118l38 151h102l-38 -151h105l-25 -99h-105zM410 408h-118l-29 -114h118z" />
    <glyph glyph-name="dollar" unicode="$" horiz-adv-x="565" 
d="M343 -9v-106l-125 -29v138q-87 19 -135 79.5t-51 156.5h133q2 -61 35 -94t90 -33q51 0 78.5 24.5t27.5 70.5q0 32 -18.5 52t-71.5 38l-86 30q-92 32 -130.5 77.5t-38.5 118.5q0 74 45.5 126.5t121.5 69.5v103l125 29v-132q79 -17 124 -74t51 -147h-135q-6 113 -104 113
q-43 0 -69.5 -22.5t-26.5 -60.5q0 -34 18 -53.5t65 -34.5l96 -32q90 -30 128.5 -75t38.5 -117q0 -90 -49 -146.5t-137 -69.5z" />
    <glyph glyph-name="percent" unicode="%" horiz-adv-x="770" 
d="M375 543q0 -71 -49 -119q-49 -47 -122 -47q-74 0 -123 47q-48 48 -48 119t48 118q49 47 123 47q73 0 122 -47q49 -46 49 -118zM63 0l539 703h103l-539 -703h-103zM124 542q0 -34 22.5 -56.5t57.5 -22.5q34 0 56 22.5t22 56.5t-22.5 57.5t-55.5 23.5q-34 0 -57 -23.5
t-23 -57.5zM737 161q0 -71 -49 -119q-49 -47 -122 -47q-74 0 -123 47q-47 47 -47 119q0 71 48 118q49 47 122 47q74 0 122 -48q49 -46 49 -117zM487 160q0 -34 22.5 -56.5t56.5 -22.5t56.5 22.5t22.5 56.5t-22.5 57.5t-56.5 23.5t-56.5 -23.5t-22.5 -57.5z" />
    <glyph glyph-name="ampersand" unicode="&#x26;" horiz-adv-x="699" 
d="M459 262l74 130h135l-130 -216l161 -176h-156l-70 77q-81 -90 -212 -90q-93 0 -158 56q-65 57 -65 139q0 144 153 205q-72 86 -72 162q0 68 56 118q56 49 137 49q80 0 132 -46q53 -45 53 -111q0 -117 -143 -181zM313 612q-32 0 -52.5 -21t-20.5 -51q0 -21 10.5 -40.5
t41.5 -54.5q49 26 69.5 49.5t20.5 51.5q0 29 -19 47.5t-50 18.5zM166 192q0 -41 32 -69.5t79 -28.5q75 0 122 65l-143 157q-48 -24 -69 -53.5t-21 -70.5z" />
    <glyph glyph-name="quotesingle" unicode="'" horiz-adv-x="229" 
d="M179 678l-26 -245h-76l-27 245v25h129v-25z" />
    <glyph glyph-name="parenleft" unicode="(" horiz-adv-x="324" 
d="M298 -140h-129q-124 202 -124 477q0 260 124 473h129q-128 -230 -128 -473q0 -264 128 -477z" />
    <glyph glyph-name="parenright" unicode=")" horiz-adv-x="324" 
d="M155 -140h-129q128 213 128 477q0 243 -128 473h129q124 -213 124 -473q0 -275 -124 -477z" />
    <glyph glyph-name="asterisk" unicode="*" horiz-adv-x="465" 
d="M232 451l-66 -110l-90 62l78 95l-118 33l38 101l113 -49l-10 120h113l-9 -119l111 48l37 -102l-121 -33l79 -95l-89 -63z" />
    <glyph glyph-name="plus" unicode="+" horiz-adv-x="570" 
d="M335 300v-179h-100v179h-179v100h179v179h100v-179h179v-100h-179z" />
    <glyph glyph-name="comma" unicode="," horiz-adv-x="269" 
d="M208 25l-89 -189h-91l75 156q-25 9 -40.5 31.5t-15.5 48.5q0 37 24.5 61.5t61.5 24.5q38 0 63 -24.5t25 -60.5q0 -21 -13 -48z" />
    <glyph glyph-name="hyphen" unicode="-" horiz-adv-x="366" 
d="M61 206v113h244v-113h-244z" />
    <glyph glyph-name="period" unicode="." horiz-adv-x="264" 
d="M219 72q0 -36 -25 -60.5t-62 -24.5t-62 24.5t-25 60.5q0 37 24.5 61.5t62.5 24.5t62.5 -24.5t24.5 -61.5z" />
    <glyph glyph-name="slash" unicode="/" horiz-adv-x="421" 
d="M30 -140l237 950h125l-237 -950h-125z" />
    <glyph glyph-name="zero" unicode="0" horiz-adv-x="637" 
d="M579 457v-210q0 -123 -72 -192q-73 -68 -189 -68t-189 68q-71 69 -71 192v210q0 122 71 190q72 69 189 69t189 -69q72 -68 72 -190zM317 592q-60 0 -94.5 -36t-34.5 -100v-209q0 -64 34 -99.5t95 -35.5q62 0 96.5 35.5t34.5 99.5v209q0 65 -34.5 100.5t-96.5 35.5z" />
    <glyph glyph-name="one" unicode="1" horiz-adv-x="370" 
d="M285 703v-703h-131v583h-140l30 120h241z" />
    <glyph glyph-name="two" unicode="2" horiz-adv-x="605" 
d="M561 120v-120h-511v101l280 264q74 69 74 131q0 43 -29 69.5t-77 26.5q-53 0 -86 -32.5t-38 -87.5h-134q6 109 78 176q73 68 187 68q107 0 171 -58q66 -58 66 -152q0 -61 -28 -113q-28 -53 -108 -126l-159 -147h314z" />
    <glyph glyph-name="three" unicode="3" horiz-adv-x="592" 
d="M39 206h132q5 -43 39.5 -70.5t84.5 -27.5q51 0 84.5 30t33.5 75q0 50 -32.5 77.5t-90.5 27.5h-74v96h78q44 0 71.5 25.5t27.5 68.5q0 39 -28 63.5t-74 24.5q-47 0 -76 -24.5t-32 -66.5h-132q5 92 71 151q68 60 173 60q103 0 165 -54q63 -54 63 -134q0 -113 -92 -157
q115 -44 115 -171q0 -90 -69 -152q-67 -61 -180 -61q-111 0 -182 60q-68 61 -76 159z" />
    <glyph glyph-name="four" unicode="4" horiz-adv-x="603" 
d="M23 133v99l268 471h151l-263 -453h198v140l128 30v-170h71v-117h-71v-133h-128v133h-354z" />
    <glyph glyph-name="five" unicode="5" horiz-adv-x="584" 
d="M76 309l35 394h391v-120h-283l-14 -146q52 21 101 21q110 0 174 -63q64 -61 64 -168q0 -103 -72 -172q-71 -68 -178 -68t-181 62q-73 61 -81 160h134q6 -45 40 -73.5t83 -28.5q52 0 89 35q36 34 36 85q0 52 -34.5 85t-90.5 33q-70 0 -107 -49z" />
    <glyph glyph-name="six" unicode="6" horiz-adv-x="586" 
d="M300 -13q-110 0 -184 71q-74 72 -74 176q0 102 66 203l177 266h152l-174 -245q30 8 62 8q98 0 166 -68t68 -165q0 -103 -75 -175q-76 -71 -184 -71zM172 233q0 -55 36.5 -92t91.5 -37t91.5 37t36.5 92q0 54 -37 88q-36 36 -91 36q-54 0 -92 -36q-36 -35 -36 -88z" />
    <glyph glyph-name="seven" unicode="7" horiz-adv-x="533" 
d="M77 0l283 583h-335v120h485v-103l-287 -600h-146z" />
    <glyph glyph-name="eight" unicode="8" horiz-adv-x="596" 
d="M551 204q0 -94 -71 -156q-70 -61 -182 -61q-113 0 -183 61t-70 156q0 54 27.5 100.5t77.5 75.5q-74 57 -74 146q0 81 62 135q62 55 161 55q98 0 159 -55q63 -54 63 -135q0 -90 -74 -147q49 -28 76.5 -74t27.5 -101zM195 516q0 -39 29.5 -65t74.5 -26q46 0 74.5 25.5
t28.5 65.5t-28.5 65.5t-74.5 25.5q-45 0 -74.5 -26t-29.5 -65zM174 210q0 -47 35 -78.5t89 -31.5t89 31t35 79q0 49 -34 80t-90 31q-54 0 -89 -31.5t-35 -79.5z" />
    <glyph glyph-name="nine" unicode="9" horiz-adv-x="586" 
d="M286 716q110 0 184 -72q74 -71 74 -175q0 -102 -66 -203l-177 -266h-152l174 245q-30 -8 -62 -8q-98 0 -166 68t-68 165q0 104 75 174q75 72 184 72zM414 470q0 55 -36.5 92t-91.5 37t-91.5 -37t-36.5 -92q0 -53 36 -89q38 -35 92 -35t91 35q37 36 37 89z" />
    <glyph glyph-name="colon" unicode=":" horiz-adv-x="289" 
d="M231 72q0 -36 -25 -60.5t-62 -24.5t-62 24.5t-25 60.5q0 37 24.5 61.5t62.5 24.5t62.5 -24.5t24.5 -61.5zM231 434q0 -36 -25 -60.5t-62 -24.5t-62 24.5t-25 60.5q0 37 24.5 61.5t62.5 24.5t62.5 -24.5t24.5 -61.5z" />
    <glyph glyph-name="semicolon" unicode=";" horiz-adv-x="297" 
d="M224 25l-89 -189h-91l75 156q-25 9 -40.5 31.5t-15.5 48.5q0 37 24.5 61.5t61.5 24.5q38 0 63 -24.5t25 -60.5q0 -21 -13 -48zM237 434q0 -36 -25 -60.5t-62 -24.5t-62 24.5t-25 60.5q0 37 24.5 61.5t62.5 24.5t62.5 -24.5t24.5 -61.5z" />
    <glyph glyph-name="less" unicode="&#x3c;" horiz-adv-x="570" 
d="M485 86l-419 203v101l419 203v-121l-277 -132l277 -134v-120z" />
    <glyph glyph-name="equal" unicode="=" horiz-adv-x="570" 
d="M514 408h-458v100h458v-100zM514 192h-458v100h458v-100z" />
    <glyph glyph-name="greater" unicode="&#x3e;" horiz-adv-x="570" 
d="M85 593l419 -203v-101l-419 -203v121l277 132l-277 134v120z" />
    <glyph glyph-name="question" unicode="?" horiz-adv-x="557" 
d="M198 228v56l113 93q68 56 68 132q0 41 -28 66t-75 25q-52 0 -83.5 -29.5t-32.5 -80.5h-130q4 103 73 164q70 62 180 62q103 0 167 -55q65 -54 65 -142q0 -121 -102 -208l-97 -83h-118zM345 72q0 -36 -25 -60.5t-62 -24.5t-62 24.5t-25 60.5q0 37 24.5 61.5t62.5 24.5
t62.5 -24.5t24.5 -61.5z" />
    <glyph glyph-name="at" unicode="@" horiz-adv-x="909" 
d="M389 79q-64 0 -108 44q-42 45 -42 117q0 88 56 150q55 61 135 61q83 0 120 -60l12 51h108l-50 -210q-23 -96 52 -96q46 0 75.5 48.5t29.5 124.5q0 125 -91 204q-92 80 -230 80q-140 0 -235 -90q-93 -88 -93 -233q0 -142 93 -227q92 -85 234 -85q90 0 138 22v-82
q-57 -22 -138 -22q-175 0 -294 108q-121 110 -121 286q0 180 121 292q57 54 134 83.5t161 29.5q173 0 292 -104q118 -103 118 -261q0 -114 -57 -185q-57 -69 -156 -69q-49 0 -86 22.5t-49 61.5q-50 -61 -129 -61zM354 248q0 -87 68 -87q42 0 71 38t29 91q0 33 -20.5 54
t-54.5 21q-39 0 -66 -34.5t-27 -82.5z" />
    <glyph glyph-name="A" unicode="A" horiz-adv-x="691" 
d="M15 0l261 703h140l259 -703h-141l-51 147h-283l-51 -147h-134zM239 257h205l-102 294z" />
    <glyph glyph-name="B" unicode="B" horiz-adv-x="676" 
d="M398 0h-313v703h277q107 0 172 -48t65 -131q0 -109 -104 -158q67 -20 104 -64.5t37 -105.5q0 -89 -67 -143q-67 -53 -171 -53zM464 505q0 42 -31.5 66.5t-84.5 24.5h-132v-187h135q52 0 82.5 25.5t30.5 70.5zM500 209q0 44 -32.5 69.5t-87.5 25.5h-164v-197h164
q55 0 87.5 27t32.5 75z" />
    <glyph glyph-name="C" unicode="C" horiz-adv-x="804" 
d="M632 285h137q-23 -133 -123 -215q-100 -83 -239 -83q-157 0 -261 105q-104 106 -104 260q0 153 104 259q104 105 261 105q137 0 234 -79q99 -78 126 -206h-140q-25 74 -84 117.5t-137 43.5q-98 0 -162 -70q-65 -70 -65 -170q0 -104 64 -172q65 -68 163 -68q84 0 145 47
t81 126z" />
    <glyph glyph-name="D" unicode="D" horiz-adv-x="764" 
d="M343 0h-258v703h258q165 0 271 -95q106 -94 106 -254q0 -161 -106 -258q-105 -96 -271 -96zM339 579h-123v-455h123q112 0 177 61q67 61 67 169q0 104 -66 164.5t-178 60.5z" />
    <glyph glyph-name="E" unicode="E" horiz-adv-x="585" 
d="M532 120v-120h-447v703h442v-120h-311v-169h287v-114h-287v-180h316z" />
    <glyph glyph-name="F" unicode="F" horiz-adv-x="563" 
d="M216 287v-287h-131v703h442v-120h-311v-179h287v-117h-287z" />
    <glyph glyph-name="G" unicode="G" horiz-adv-x="810" 
d="M405 363h347v-363h-110v106q-82 -119 -248 -119q-151 0 -252 104q-99 105 -99 261t103 259q103 105 260 105q127 0 221 -70q95 -70 126 -186h-144q-26 62 -80 97t-123 35q-98 0 -162 -69q-64 -68 -64 -171q0 -106 64 -176q64 -69 167 -69q85 0 142.5 40t75.5 112h-224
v104z" />
    <glyph glyph-name="H" unicode="H" horiz-adv-x="715" 
d="M216 297v-297h-131v703h131v-282h284v282h130v-703h-130v297h-284z" />
    <glyph glyph-name="I" unicode="I" horiz-adv-x="300" 
d="M216 703v-703h-131v703h131z" />
    <glyph glyph-name="J" unicode="J" horiz-adv-x="585" 
d="M376 234v469h131v-473q0 -108 -69 -176q-68 -67 -177 -67q-107 0 -175 68t-68 177h131q0 -57 30 -89.5t83 -32.5t83.5 33.5t30.5 90.5z" />
    <glyph glyph-name="K" unicode="K" horiz-adv-x="633" 
d="M85 0v703h131v-316l259 316h155l-282 -339l285 -364h-166l-251 324v-324h-131z" />
    <glyph glyph-name="L" unicode="L" horiz-adv-x="529" 
d="M513 120v-120h-428v703h131v-583h297z" />
    <glyph glyph-name="M" unicode="M" horiz-adv-x="943" 
d="M211 491v-491h-126v703h160l229 -486l231 486h154v-703h-127v486l-234 -487h-52z" />
    <glyph glyph-name="N" unicode="N" horiz-adv-x="720" 
d="M208 481v-481h-123v703h124l302 -483v483h124v-703h-126z" />
    <glyph glyph-name="O" unicode="O" horiz-adv-x="827" 
d="M42 352q0 156 105 259q107 105 266 105t266 -105q106 -103 106 -259q0 -155 -106 -260q-107 -105 -266 -105t-266 105q-105 105 -105 260zM648 352q0 103 -67 171q-67 69 -168 69t-168 -69q-66 -69 -66 -171q0 -104 66 -173q66 -68 168 -68t168 68q67 68 67 173z" />
    <glyph glyph-name="P" unicode="P" horiz-adv-x="648" 
d="M216 240v-240h-131v703h267q118 0 194 -62q76 -61 76 -166q0 -107 -76 -171q-74 -64 -194 -64h-136zM345 587h-129v-232h129q63 0 101.5 32.5t38.5 86.5q0 52 -38.5 82.5t-101.5 30.5z" />
    <glyph glyph-name="Q" unicode="Q" horiz-adv-x="828" 
d="M42 352q0 156 105 259q107 105 266 105t266 -105q106 -103 106 -259q0 -81 -32.5 -153t-91.5 -124l115 -155h-143l-71 95q-66 -28 -149 -28q-159 0 -266 105q-105 105 -105 260zM486 119l-172 232h143l127 -172q66 68 66 173q0 101 -68 171q-67 70 -169 70t-169 -70
q-67 -68 -67 -171q0 -105 66 -174q67 -69 170 -69q34 0 73 10z" />
    <glyph glyph-name="R" unicode="R" horiz-adv-x="675" 
d="M216 265v-265h-131v703h268q117 0 191 -59t74 -157q0 -81 -49.5 -137.5t-137.5 -76.5l222 -273h-162l-212 265h-63zM346 589h-130v-217h130q60 0 97.5 30t37.5 81q0 49 -37 77.5t-98 28.5z" />
    <glyph glyph-name="S" unicode="S" horiz-adv-x="618" 
d="M305 716q114 0 182 -59.5t74 -167.5h-135q-3 55 -34.5 84t-88.5 29q-51 0 -82 -22.5t-31 -60.5q0 -34 19.5 -53t71.5 -34l109 -32q96 -27 139 -73.5t43 -119.5q0 -104 -68 -162t-188 -58q-127 0 -200 63.5t-76 179.5h133q2 -61 39 -94t102 -33q61 0 93.5 24.5t32.5 70.5
q0 33 -22 53t-83 38l-101 30q-93 28 -134 74t-41 121q0 90 69 146q71 56 177 56z" />
    <glyph glyph-name="T" unicode="T" horiz-adv-x="556" 
d="M343 583v-583h-130v583h-197v120h524v-120h-197z" />
    <glyph glyph-name="U" unicode="U" horiz-adv-x="692" 
d="M483 242v461h131v-465q0 -111 -76 -181t-193 -70q-116 0 -192 70q-75 71 -75 181v465h131v-461q0 -59 36.5 -95t95.5 -36q63 0 102.5 36.5t39.5 94.5z" />
    <glyph glyph-name="V" unicode="V" horiz-adv-x="663" 
d="M642 703l-241 -703h-140l-240 703h145l168 -522l170 522h138z" />
    <glyph glyph-name="W" unicode="W" horiz-adv-x="1013" 
d="M508 473l-144 -473h-140l-203 703h142l139 -515l149 515h121l146 -511l141 511h134l-205 -703h-138z" />
    <glyph glyph-name="X" unicode="X" horiz-adv-x="670" 
d="M331 257l-182 -257h-148l254 358l-242 345h153l168 -244l173 244h146l-242 -341l261 -362h-157z" />
    <glyph glyph-name="Y" unicode="Y" horiz-adv-x="651" 
d="M392 253v-253h-131v245l-240 458h147l160 -317l165 317h137z" />
    <glyph glyph-name="Z" unicode="Z" horiz-adv-x="594" 
d="M553 120v-120h-513v105l344 478h-337v120h500v-112l-342 -471h348z" />
    <glyph glyph-name="bracketleft" unicode="[" horiz-adv-x="362" 
d="M82 810h248v-116h-122v-718h122v-116h-248v950z" />
    <glyph glyph-name="backslash" unicode="\" horiz-adv-x="421" 
d="M29 810h125l237 -950h-125z" />
    <glyph glyph-name="bracketright" unicode="]" horiz-adv-x="362" 
d="M32 694v116h248v-950h-248v116h122v718h-122z" />
    <glyph glyph-name="asciicircum" unicode="^" horiz-adv-x="570" 
d="M40 284l185 419h121l183 -419h-132l-112 265l-112 -265h-133z" />
    <glyph glyph-name="underscore" unicode="_" horiz-adv-x="440" 
d="M-1 -212v108h442v-108h-442z" />
    <glyph glyph-name="grave" unicode="`" horiz-adv-x="288" 
d="M244 570h-119l-83 147h121z" />
    <glyph glyph-name="a" unicode="a" horiz-adv-x="553" 
d="M486 0h-119v64q-55 -77 -155 -77q-75 0 -121 40q-47 41 -47 105t42 104t131 61l146 34v6q0 35 -25 56.5t-66 21.5q-39 0 -65 -20t-32 -54h-120q4 76 67 128q62 51 152 51q99 0 155.5 -53t56.5 -144v-323zM241 88q51 0 86 38q36 37 36 89v26l-114 -26q-82 -19 -82 -69
q0 -58 74 -58z" />
    <glyph glyph-name="b" unicode="b" 
d="M192 77v-77h-119v741h125v-306q66 85 177 85q107 0 176 -75q70 -74 70 -190t-70 -192t-179 -76q-114 0 -180 90zM490 254q0 64 -42 108t-106 44t-106 -44t-42 -108q0 -66 41 -110q42 -43 107 -43q66 0 106 43q42 44 42 110z" />
    <glyph glyph-name="c" unicode="c" horiz-adv-x="605" 
d="M310 520q101 0 172 -61q72 -59 89 -155h-125q-14 46 -50.5 73t-85.5 27q-64 0 -106 -43t-42 -107t42 -108q42 -43 106 -43q49 0 87 28.5t51 74.5h124q-16 -96 -90 -158q-71 -61 -172 -61q-119 0 -196 76q-77 77 -77 191q0 112 77 189q79 77 196 77z" />
    <glyph glyph-name="d" unicode="d" 
d="M284 -13q-106 0 -177 75q-69 75 -69 190q0 116 70 192t178 76t175 -82v303h125v-741h-118v81q-67 -94 -184 -94zM168 253q0 -65 42 -109q42 -43 107 -43q64 0 106 43q42 44 42 109t-42 109t-106 44q-65 0 -107 -44t-42 -109z" />
    <glyph glyph-name="e" unicode="e" horiz-adv-x="606" 
d="M305 91q93 0 130 72h122q-25 -82 -92 -129t-161 -47q-115 0 -191 76t-76 191q0 111 77 188q78 78 192 78q115 0 189 -74t74 -185v-40h-412q9 -59 49 -94.5t99 -35.5zM306 416q-52 0 -89.5 -28t-53.5 -78h283q-14 50 -51 78t-89 28z" />
    <glyph glyph-name="f" unicode="f" horiz-adv-x="379" 
d="M239 395v-395h-125v395h-82v112h82v50q0 97 48 147t142 50q45 0 76 -9v-110q-34 7 -55 7q-45 0 -65.5 -20.5t-20.5 -66.5v-48h124v-112h-124z" />
    <glyph glyph-name="g" unicode="g" horiz-adv-x="631" 
d="M43 -23h124q2 -45 38.5 -72t94.5 -27q61 0 97.5 34t36.5 91v94q-62 -73 -161 -73q-102 0 -168 69q-65 71 -65 178t66 178q68 71 171 71q102 0 164 -80v67h118v-492q0 -111 -70 -175q-69 -66 -188 -66q-109 0 -182 58q-72 57 -76 145zM169 272q0 -60 37.5 -99t96.5 -39
t96 39q38 41 38 99t-38.5 97.5t-95.5 39.5q-59 0 -96 -39q-38 -40 -38 -98z" />
    <glyph glyph-name="h" unicode="h" horiz-adv-x="603" 
d="M198 289v-289h-125v741h125v-292q55 71 150 71q85 0 136 -53t51 -140v-327h-125v298q0 50 -27 78.5t-76 28.5q-50 0 -79.5 -32t-29.5 -84z" />
    <glyph glyph-name="i" unicode="i" horiz-adv-x="273" 
d="M55 661q0 34 22.5 56t58.5 22t59 -22t23 -56t-23 -56.5t-59 -22.5t-58.5 22.5t-22.5 56.5zM199 507v-507h-125v507h125z" />
    <glyph glyph-name="j" unicode="j" horiz-adv-x="280" 
d="M221 663q0 -32 -22 -53.5t-56 -21.5t-55.5 21.5t-21.5 53.5q0 33 21.5 54.5t55.5 21.5t56 -21.5t22 -54.5zM81 -28v535h125v-536q0 -197 -190 -197q-32 0 -45 3v110q4 0 12.5 -1t10.5 -1q45 0 66 21t21 66z" />
    <glyph glyph-name="k" unicode="k" horiz-adv-x="538" 
d="M198 247v-247h-125v741h125v-442l168 208h145l-187 -227l221 -280h-154z" />
    <glyph glyph-name="l" unicode="l" horiz-adv-x="273" 
d="M74 0v741h125v-741h-125z" />
    <glyph glyph-name="m" unicode="m" horiz-adv-x="921" 
d="M198 289v-289h-125v507h119v-66q51 79 151 79q110 0 159 -90q57 90 168 90q84 0 133 -54q51 -52 51 -139v-327h-125v298q0 50 -26 78.5t-73 28.5t-75.5 -32t-28.5 -84v-289h-125v298q0 49 -26 78t-73 29t-75.5 -32t-28.5 -84z" />
    <glyph glyph-name="n" unicode="n" horiz-adv-x="603" 
d="M198 289v-289h-125v507h119v-66q56 79 156 79q85 0 136 -53t51 -140v-327h-125v294q0 53 -26.5 82t-76.5 29t-79.5 -32t-29.5 -84z" />
    <glyph glyph-name="o" unicode="o" horiz-adv-x="619" 
d="M37 254q0 112 77 189t195 77q117 0 196 -77q78 -77 78 -189q0 -114 -78 -191q-77 -76 -196 -76t-195 76q-77 77 -77 191zM459 254q0 64 -43 107t-107 43t-106 -43t-42 -107t42 -108q42 -43 106 -43q65 0 107 43q43 43 43 108z" />
    <glyph glyph-name="p" unicode="p" 
d="M198 -212h-125v719h119v-79q67 92 183 92q107 0 176 -75q70 -74 70 -190t-70 -192t-179 -76q-107 0 -174 82v-281zM490 254q0 64 -42 108t-106 44t-106 -44t-42 -108q0 -66 41 -110q42 -43 107 -43q66 0 106 43q42 44 42 110z" />
    <glyph glyph-name="q" unicode="q" 
d="M284 -13q-106 0 -177 75q-69 75 -69 190q0 116 70 192t178 76q116 0 182 -91v78h118v-719h-125v284q-66 -85 -177 -85zM168 253q0 -65 42 -109q42 -43 107 -43q64 0 106 43q42 44 42 109t-42 109t-106 44q-65 0 -107 -44t-42 -109z" />
    <glyph glyph-name="r" unicode="r" horiz-adv-x="393" 
d="M339 399q-65 0 -103 -41.5t-38 -111.5v-246h-125v507h119v-90q51 99 153 99q14 0 28 -2v-119q-15 4 -34 4z" />
    <glyph glyph-name="s" unicode="s" horiz-adv-x="508" 
d="M255 520q91 0 145 -43t60 -121h-128q-2 67 -79 67q-33 0 -54 -13.5t-21 -35.5t16 -34.5t61 -22.5l50 -11q89 -20 126.5 -55.5t37.5 -96.5q0 -78 -56.5 -122.5t-152.5 -44.5q-106 0 -165 45.5t-62 131.5h131q2 -80 92 -80q40 0 62.5 15.5t22.5 43.5q0 22 -15.5 35.5
t-54.5 22.5l-60 14q-88 21 -124 55.5t-36 93.5q0 71 56 113q56 43 148 43z" />
    <glyph glyph-name="t" unicode="t" horiz-adv-x="398" 
d="M23 507h81v150l125 29v-179h125v-112h-125v-219q0 -42 16.5 -60t53.5 -18t71 21v-110q-45 -22 -99 -22q-167 0 -167 179v229h-81v112z" />
    <glyph glyph-name="u" unicode="u" horiz-adv-x="594" 
d="M290 101q48 0 76.5 32.5t28.5 84.5v289h126v-507h-120v66q-51 -79 -150 -79q-83 0 -133 53t-50 140v327h125v-294q0 -52 25.5 -82t71.5 -30z" />
    <glyph glyph-name="v" unicode="v" horiz-adv-x="549" 
d="M532 507l-188 -507h-140l-187 507h132l127 -353l127 353h129z" />
    <glyph glyph-name="w" unicode="w" horiz-adv-x="862" 
d="M431 341l-116 -341h-127l-172 507h125l115 -352l116 352h120l117 -353l116 353h121l-173 -507h-125z" />
    <glyph glyph-name="x" unicode="x" horiz-adv-x="526" 
d="M259 166l-117 -166h-134l181 256l-174 251h141l111 -160l111 160h132l-175 -248l185 -259h-144z" />
    <glyph glyph-name="y" unicode="y" horiz-adv-x="548" 
d="M275 154l126 353h130l-264 -719h-126l72 201l-198 518h133z" />
    <glyph glyph-name="z" unicode="z" horiz-adv-x="515" 
d="M482 112v-112h-450v84l277 311h-261v112h420v-89l-266 -306h280z" />
    <glyph glyph-name="braceleft" unicode="{" horiz-adv-x="362" 
d="M174 361q60 -28 60 -123v-186q0 -86 63 -86q7 0 31 2v-116q-26 -2 -36 -2q-183 0 -183 188v193q0 41 -14.5 59t-46.5 18h-18v105h18q32 0 46.5 18t14.5 58v143q0 188 183 188q10 0 36 -2v-116q-24 2 -31 2q-63 0 -63 -86v-136q0 -96 -60 -121z" />
    <glyph glyph-name="bar" unicode="|" horiz-adv-x="290" 
d="M82 -140v950h126v-950h-126z" />
    <glyph glyph-name="braceright" unicode="}" horiz-adv-x="362" 
d="M188 361q-60 25 -60 121v136q0 86 -63 86q-7 0 -31 -2v116q26 2 36 2q183 0 183 -188v-143q0 -40 14.5 -58t46.5 -18h18v-105h-18q-32 0 -46.5 -18t-14.5 -59v-193q0 -188 -183 -188q-10 0 -36 2v116q24 -2 31 -2q63 0 63 86v186q0 95 60 123z" />
    <glyph glyph-name="asciitilde" unicode="~" horiz-adv-x="570" 
d="M312 418q56 -25 88 -25q36 0 62 15t55 56v-124q-38 -64 -126 -64q-51 0 -112 30q-53 27 -98 27q-76 0 -124 -76v120q15 30 52 51.5t78 21.5q48 0 125 -32z" />
    <glyph glyph-name="uni00A0" unicode="&#xa0;" horiz-adv-x="236" 
 />
    <glyph glyph-name="exclamdown" unicode="&#xa1;" horiz-adv-x="276" 
d="M225 435q0 -37 -24.5 -61.5t-62.5 -24.5t-62.5 24.5t-24.5 61.5q0 36 25 60.5t62 24.5t62 -24.5t25 -60.5zM97 279h82l25 -232v-243h-132v243z" />
    <glyph glyph-name="cent" unicode="&#xa2;" horiz-adv-x="608" 
d="M373 96v-103l-125 -30v134q-93 21 -150 92q-56 73 -56 168t57 166q57 72 149 93v106l125 28v-133q80 -16 134.5 -72.5t68.5 -137.5h-125q-14 46 -50.5 73t-85.5 27q-64 0 -106 -43q-42 -44 -42 -107q0 -65 42 -108t106 -43q49 0 87 28.5t51 74.5h124
q-15 -82 -69.5 -139.5t-134.5 -73.5z" />
    <glyph glyph-name="sterling" unicode="&#xa3;" horiz-adv-x="678" 
d="M630 120v-120h-581v103q39 9 70 50q31 40 31 92q0 19 -1 24h-100v104h88q-9 57 -9 92q0 118 67.5 184.5t182.5 66.5q114 0 183 -66q69 -64 69 -183h-130q0 59 -31.5 92t-87.5 33q-57 0 -89.5 -34.5t-32.5 -96.5q0 -21 10 -88h171v-104h-159v-9q0 -83 -46 -140h395z" />
    <glyph glyph-name="currency" unicode="&#xa4;" horiz-adv-x="660" 
d="M237 170l-63 -87h-127l114 158q-30 48 -30 105q0 58 31 106l-115 160h127l64 -89q43 23 93 23t91 -23l64 89h127l-115 -158q32 -50 32 -108q0 -56 -31 -106l114 -157h-127l-63 87q-41 -23 -92 -23t-94 23zM331 249q41 0 69 28t28 69t-28 69t-69 28t-69 -28t-28 -69
t28 -69t69 -28z" />
    <glyph glyph-name="yen" unicode="&#xa5;" horiz-adv-x="666" 
d="M399 129v-129h-131v129h-180v90h180v26l-14 26h-166v90h119l-179 342h147l160 -317l165 317h137l-181 -342h123v-90h-170l-10 -18v-34h180v-90h-180z" />
    <glyph glyph-name="brokenbar" unicode="&#xa6;" horiz-adv-x="295" 
d="M85 410v400h125v-400h-125zM210 -140h-125v400h125v-400z" />
    <glyph glyph-name="section" unicode="&#xa7;" horiz-adv-x="582" 
d="M490 250h-135l-110 46q-115 48 -157 97t-42 121q0 90 66 146q68 56 172 56q114 0 183.5 -60.5t73.5 -164.5h-130q-2 54 -34 83t-88 29q-51 0 -81 -25.5t-30 -67.5q0 -36 26 -62q26 -25 129 -70l157 -69v-59zM92 240h136l110 -46q114 -47 157 -98q42 -50 42 -120
q0 -90 -66 -146q-67 -56 -171 -56q-115 0 -185 61q-69 59 -74 164h130q3 -55 35 -84t88 -29q50 0 80 25.5t30 67.5q0 35 -26 61q-24 24 -129 71l-157 69v60z" />
    <glyph glyph-name="dieresis" unicode="&#xa8;" horiz-adv-x="374" 
d="M171 639q0 -27 -18.5 -46t-45.5 -19t-46 19t-19 46q0 28 18.5 47t46.5 19q27 0 45.5 -19t18.5 -47zM333 639q0 -27 -18.5 -46t-45.5 -19q-28 0 -47 19t-19 46q0 28 19 47t47 19q27 0 45.5 -19t18.5 -47z" />
    <glyph glyph-name="copyright" unicode="&#xa9;" horiz-adv-x="811" 
d="M769 351q0 -150 -107 -257t-256 -107q-150 0 -257 107t-107 257q0 152 106 258q107 107 258 107q149 0 256 -107t107 -258zM112 351q0 -120 86 -208q88 -86 208 -86q121 0 207 86q86 88 86 208q0 122 -86 208q-85 87 -207 87q-121 0 -208 -87q-86 -88 -86 -208zM407 549
q77 0 131 -45t66 -117h-108q-10 30 -33.5 46.5t-55.5 16.5q-41 0 -68 -28t-27 -71q0 -42 27 -70t68 -28q33 0 56.5 17t32.5 47h108q-12 -72 -66 -119q-54 -45 -131 -45q-89 0 -146 57t-57 142q0 86 57 141q58 56 146 56z" />
    <glyph glyph-name="ordfeminine" unicode="&#xaa;" horiz-adv-x="363" 
d="M295 455h-73v28q-25 -35 -72 -35q-38 0 -61.5 20.5t-23.5 53.5q0 65 91 84l62 13v3q0 13 -10 21.5t-26 8.5q-34 0 -39 -30h-75q2 40 35 67t80 27q53 0 82.5 -27t29.5 -74v-160zM168 509q20 0 35 15.5t15 34.5v7l-45 -11q-30 -7 -30 -25q0 -21 25 -21zM69 309v79h226v-79
h-226z" />
    <glyph glyph-name="guillemotleft" unicode="&#xab;" horiz-adv-x="499" 
d="M268 35h-121l-109 219l109 220h121l-109 -220zM456 35h-121l-109 219l109 220h121l-109 -220z" />
    <glyph glyph-name="logicalnot" unicode="&#xac;" horiz-adv-x="570" 
d="M410 301h-359v99h459v-279h-100v180z" />
    <glyph glyph-name="uni00AD" unicode="&#xad;" horiz-adv-x="363" 
d="M60 239v113h244v-113h-244z" />
    <glyph glyph-name="registered" unicode="&#xae;" horiz-adv-x="597" 
d="M298 217q-104 0 -177 72q-72 73 -72 177q0 105 72 177q73 73 177 73q105 0 177 -73q73 -72 73 -177q0 -104 -73 -177q-72 -72 -177 -72zM298 653q-77 0 -131 -54t-54 -133q0 -78 54 -132t131 -54q78 0 132 54t54 132q0 79 -54 133t-132 54zM271 420v-68h-70v232h114
q38 0 64.5 -22.5t26.5 -56.5q0 -47 -45 -73l56 -80h-80l-47 68h-19zM307 524h-36v-50h36q12 0 20 7t8 18q0 25 -28 25z" />
    <glyph glyph-name="overscore" unicode="&#xaf;" horiz-adv-x="363" 
d="M322 677v-85h-280v85h280z" />
    <glyph glyph-name="degree" unicode="&#xb0;" horiz-adv-x="380" 
d="M342 566q0 -63 -44 -107t-108 -44q-63 0 -107 44t-44 107q0 62 44 106q46 44 107 44q63 0 107 -44q45 -44 45 -106zM118 565q0 -29 21.5 -50.5t50.5 -21.5q30 0 51 21t21 51t-21 51.5t-51 21.5q-29 0 -50.5 -21.5t-21.5 -51.5z" />
    <glyph glyph-name="plusminus" unicode="&#xb1;" horiz-adv-x="570" 
d="M335 328v-152h-100v152h-179v99h179v152h100v-152h179v-99h-179zM514 3h-459v100h459v-100z" />
    <glyph glyph-name="twosuperior" unicode="&#xb2;" horiz-adv-x="327" 
d="M296 576v-84h-260v70l129 118q30 29 30 53q0 15 -10 24t-27 9t-27.5 -11t-11.5 -28h-90q3 54 40 88.5t94 34.5q56 0 90 -30t34 -79q0 -31 -15 -57.5t-55 -63.5l-48 -44h127z" />
    <glyph glyph-name="threesuperior" unicode="&#xb3;" horiz-adv-x="324" 
d="M27 597h87q6 -38 46 -38q21 0 33 11t12 30q0 43 -52 43h-29v63h26q46 0 46 36q0 35 -36 35t-41 -37h-88q3 49 38.5 79.5t92.5 30.5q55 0 88.5 -26.5t33.5 -68.5q0 -53 -45 -78q55 -23 55 -83q0 -47 -37 -77.5t-97 -30.5q-59 0 -94.5 30t-38.5 81z" />
    <glyph glyph-name="acute" unicode="&#xb4;" horiz-adv-x="288" 
d="M246 717l-83 -147h-120l82 147h121z" />
    <glyph glyph-name="mu" unicode="&#xb5;" horiz-adv-x="610" 
d="M301 101q48 0 76.5 32.5t28.5 84.5v289h126v-507h-120v66q-51 -79 -149 -79q-32 0 -59 15v-214h-125v719h125v-294q0 -52 25.5 -82t71.5 -30z" />
    <glyph glyph-name="paragraph" unicode="&#xb6;" horiz-adv-x="653" 
d="M263 703h111v-843h-103v419h-8q-105 0 -169 58q-65 59 -65 158q0 95 65 151q66 57 169 57zM560 703v-843h-103v843h103z" />
    <glyph glyph-name="middot" unicode="&#xb7;" horiz-adv-x="274" 
d="M224 355q0 -36 -25 -60.5t-62 -24.5t-62 24.5t-25 60.5q0 37 24.5 61.5t62.5 24.5t62.5 -24.5t24.5 -61.5z" />
    <glyph glyph-name="cedilla" unicode="&#xb8;" horiz-adv-x="394" 
d="M122 -139l-72 33l76 123h86l-41 -66q53 -1 84.5 -30.5t31.5 -78.5q0 -47 -35.5 -78.5t-88.5 -31.5q-54 0 -88.5 28t-39.5 74l88 1q1 -14 11.5 -22.5t26.5 -8.5q17 0 28 10.5t11 27.5t-10.5 27.5t-28.5 10.5q-23 0 -39 -19z" />
    <glyph glyph-name="onesuperior" unicode="&#xb9;" horiz-adv-x="218" 
d="M170 844v-352h-88v268h-68l21 84h135z" />
    <glyph glyph-name="ordmasculine" unicode="&#xba;" horiz-adv-x="397" 
d="M334 585q0 -57 -39 -98q-39 -39 -97 -39q-57 0 -96 39q-39 41 -39 98q0 55 39 92q39 39 96 39t97 -38q39 -38 39 -93zM144 583q0 -25 15.5 -42t39.5 -17q25 0 40.5 16.5t15.5 42.5q0 25 -15.5 41.5t-40.5 16.5q-24 0 -39.5 -17t-15.5 -41zM68 309v79h262v-79h-262z" />
    <glyph glyph-name="guillemotright" unicode="&#xbb;" horiz-adv-x="499" 
d="M460 254l-109 -219h-121l109 219l-109 220h121zM273 254l-109 -219h-121l109 219l-109 220h121z" />
    <glyph glyph-name="onequarter" unicode="&#xbc;" horiz-adv-x="705" 
d="M365 56v71l127 225h101l-125 -216h69v54l87 19v-73h26v-80h-26v-56h-87v56h-172zM210 703v-352h-88v268h-68l21 84h135zM29 0l539 703h103l-539 -703h-103z" />
    <glyph glyph-name="onehalf" unicode="&#xbd;" horiz-adv-x="735" 
d="M687 84v-84h-260v70l129 118q30 29 30 53q0 15 -10 24t-27 9t-27.5 -11t-11.5 -28h-90q3 54 40 88.5t94 34.5q56 0 90 -30t34 -79q0 -31 -15 -57.5t-55 -63.5l-48 -44h127zM210 703v-352h-88v268h-68l21 84h135zM29 0l539 703h103l-539 -703h-103z" />
    <glyph glyph-name="threequarters" unicode="&#xbe;" horiz-adv-x="730" 
d="M393 56v71l127 225h101l-125 -216h69v54l87 19v-73h26v-80h-26v-56h-87v56h-172zM58 0l539 703h103l-539 -703h-103zM42 456h87q6 -38 46 -38q21 0 33 11t12 30q0 43 -52 43h-29v63h26q46 0 46 36q0 35 -36 35t-41 -37h-88q3 49 38.5 79.5t92.5 30.5q55 0 88.5 -26.5
t33.5 -68.5q0 -53 -45 -78q55 -23 55 -83q0 -47 -37 -77.5t-97 -30.5q-59 0 -94.5 30t-38.5 81z" />
    <glyph glyph-name="questiondown" unicode="&#xbf;" horiz-adv-x="547" 
d="M205 435q0 36 25 60.5t62 24.5t62 -24.5t25 -60.5q0 -37 -24.5 -61.5t-62.5 -24.5t-62.5 24.5t-24.5 61.5zM352 279v-56l-113 -93q-68 -56 -68 -132q0 -41 28 -66t75 -25q52 0 83.5 29.5t32.5 80.5h130q-4 -103 -73 -164q-70 -62 -180 -62q-104 0 -168 55q-64 54 -64 142
q0 121 102 208l97 83h118z" />
    <glyph glyph-name="Agrave" unicode="&#xc0;" horiz-adv-x="691" 
d="M15 0l261 703h140l259 -703h-141l-51 147h-283l-51 -147h-134zM239 257h205l-102 294zM405 763h-119l-83 147h121z" />
    <glyph glyph-name="Aacute" unicode="&#xc1;" horiz-adv-x="691" 
d="M15 0l261 703h140l259 -703h-141l-51 147h-283l-51 -147h-134zM239 257h205l-102 294zM489 910l-83 -147h-120l82 147h121z" />
    <glyph glyph-name="Acircumflex" unicode="&#xc2;" horiz-adv-x="691" 
d="M15 0l261 703h140l259 -703h-141l-51 147h-283l-51 -147h-134zM239 257h205l-102 294zM282 763h-109l107 147h131l107 -147h-111l-62 84z" />
    <glyph glyph-name="Atilde" unicode="&#xc3;" horiz-adv-x="691" 
d="M15 0l261 703h140l259 -703h-141l-51 147h-283l-51 -147h-134zM239 257h205l-102 294zM369 869q21 -18 31 -18q12 0 17.5 10t8.5 37h84q-10 -135 -104 -135q-38 0 -73 33q-20 20 -35 20q-16 0 -23.5 -11.5t-10.5 -37.5h-84q8 137 110 137q39 0 79 -35z" />
    <glyph glyph-name="Adieresis" unicode="&#xc4;" horiz-adv-x="691" 
d="M15 0l261 703h140l259 -703h-141l-51 147h-283l-51 -147h-134zM239 257h205l-102 294zM330 831q0 -27 -18.5 -46t-45.5 -19t-46 19t-19 46q0 28 18.5 47t46.5 19q27 0 45.5 -19t18.5 -47zM492 831q0 -27 -18.5 -46t-45.5 -19q-28 0 -47 19t-19 46q0 28 19 47t47 19
q27 0 45.5 -19t18.5 -47z" />
    <glyph glyph-name="Aring" unicode="&#xc5;" horiz-adv-x="691" 
d="M15 0l261 703h140l259 -703h-141l-51 147h-283l-51 -147h-134zM239 257h205l-102 294zM457 859q0 -45 -32.5 -75.5t-79.5 -30.5t-79 30.5t-32 75.5t32 76t79 31q46 0 79 -31t33 -76zM305 859q0 -17 11.5 -29t28.5 -12q18 0 30 12t12 29q0 18 -12 30t-30 12
q-17 0 -28.5 -12t-11.5 -30z" />
    <glyph glyph-name="AE" unicode="&#xc6;" horiz-adv-x="935" 
d="M882 120v-120h-447v147h-238l-83 -147h-137l398 703h502v-120h-311v-169h287v-114h-287v-180h316zM435 257v311l-176 -311h176z" />
    <glyph glyph-name="Ccedilla" unicode="&#xc7;" horiz-adv-x="804" 
d="M632 285h137q-21 -122 -110 -204t-216 -92l-23 -38q53 -1 84.5 -30.5t31.5 -78.5q0 -47 -35.5 -78.5t-88.5 -31.5q-54 0 -88.5 28t-39.5 74l88 1q1 -14 11.5 -22.5t26.5 -8.5q17 0 28 10.5t11 27.5t-10.5 27.5t-28.5 10.5q-23 0 -39 -19l-72 33l59 96q-139 16 -228 119
q-88 101 -88 243q0 153 104 259q104 105 261 105q137 0 234 -79q99 -78 126 -206h-140q-25 74 -84 117.5t-137 43.5q-98 0 -162 -70q-65 -70 -65 -170q0 -104 64 -172q65 -68 163 -68q84 0 145 47t81 126z" />
    <glyph glyph-name="Egrave" unicode="&#xc8;" horiz-adv-x="585" 
d="M366 763h-119l-83 147h121zM532 120v-120h-447v703h442v-120h-311v-169h287v-114h-287v-180h316z" />
    <glyph glyph-name="Eacute" unicode="&#xc9;" horiz-adv-x="585" 
d="M532 120v-120h-447v703h442v-120h-311v-169h287v-114h-287v-180h316zM450 910l-83 -147h-120l82 147h121z" />
    <glyph glyph-name="Ecircumflex" unicode="&#xca;" horiz-adv-x="585" 
d="M242 763h-109l107 147h131l107 -147h-111l-62 84zM532 120v-120h-447v703h442v-120h-311v-169h287v-114h-287v-180h316z" />
    <glyph glyph-name="Edieresis" unicode="&#xcb;" horiz-adv-x="585" 
d="M532 120v-120h-447v703h442v-120h-311v-169h287v-114h-287v-180h316zM291 831q0 -27 -18.5 -46t-45.5 -19t-46 19t-19 46q0 28 18.5 47t46.5 19q27 0 45.5 -19t18.5 -47zM453 831q0 -27 -18.5 -46t-45.5 -19q-28 0 -47 19t-19 46q0 28 19 47t47 19q27 0 45.5 -19
t18.5 -47z" />
    <glyph glyph-name="Igrave" unicode="&#xcc;" horiz-adv-x="300" 
d="M216 703v-703h-131v703h131zM210 763h-119l-83 147h121z" />
    <glyph glyph-name="Iacute" unicode="&#xcd;" horiz-adv-x="300" 
d="M216 703v-703h-131v703h131zM294 910l-83 -147h-120l82 147h121z" />
    <glyph glyph-name="Icircumflex" unicode="&#xce;" horiz-adv-x="300" 
d="M216 703v-703h-131v703h131zM87 763h-109l107 147h131l107 -147h-111l-62 84z" />
    <glyph glyph-name="Idieresis" unicode="&#xcf;" horiz-adv-x="300" 
d="M216 703v-703h-131v703h131zM135 831q0 -27 -18.5 -46t-45.5 -19t-46 19t-19 46q0 28 18.5 47t46.5 19q27 0 45.5 -19t18.5 -47zM297 831q0 -27 -18.5 -46t-45.5 -19q-28 0 -47 19t-19 46q0 28 19 47t47 19q27 0 45.5 -19t18.5 -47z" />
    <glyph glyph-name="Eth" unicode="&#xd0;" horiz-adv-x="783" 
d="M362 0h-258v302h-83v96h83v305h258q165 0 271 -95q106 -94 106 -254q0 -161 -106 -258q-105 -96 -271 -96zM405 302h-170v-178h123q112 0 177 61q67 61 67 169q0 104 -66 164.5t-178 60.5h-123v-181h170v-96z" />
    <glyph glyph-name="Ntilde" unicode="&#xd1;" horiz-adv-x="720" 
d="M385 869q21 -18 31 -18q12 0 17.5 10t8.5 37h84q-10 -135 -104 -135q-38 0 -73 33q-20 20 -35 20q-16 0 -23.5 -11.5t-10.5 -37.5h-84q8 137 110 137q39 0 79 -35zM208 481v-481h-123v703h124l302 -483v483h124v-703h-126z" />
    <glyph glyph-name="Ograve" unicode="&#xd2;" horiz-adv-x="827" 
d="M473 763h-119l-83 147h121zM42 352q0 156 105 259q107 105 266 105t266 -105q106 -103 106 -259q0 -155 -106 -260q-107 -105 -266 -105t-266 105q-105 105 -105 260zM648 352q0 103 -67 171q-67 69 -168 69t-168 -69q-66 -69 -66 -171q0 -104 66 -173q66 -68 168 -68
t168 68q67 68 67 173z" />
    <glyph glyph-name="Oacute" unicode="&#xd3;" horiz-adv-x="827" 
d="M558 910l-83 -147h-120l82 147h121zM42 352q0 156 105 259q107 105 266 105t266 -105q106 -103 106 -259q0 -155 -106 -260q-107 -105 -266 -105t-266 105q-105 105 -105 260zM648 352q0 103 -67 171q-67 69 -168 69t-168 -69q-66 -69 -66 -171q0 -104 66 -173
q66 -68 168 -68t168 68q67 68 67 173z" />
    <glyph glyph-name="Ocircumflex" unicode="&#xd4;" horiz-adv-x="827" 
d="M350 763h-109l107 147h131l107 -147h-111l-62 84zM42 352q0 156 105 259q107 105 266 105t266 -105q106 -103 106 -259q0 -155 -106 -260q-107 -105 -266 -105t-266 105q-105 105 -105 260zM648 352q0 103 -67 171q-67 69 -168 69t-168 -69q-66 -69 -66 -171
q0 -104 66 -173q66 -68 168 -68t168 68q67 68 67 173z" />
    <glyph glyph-name="Otilde" unicode="&#xd5;" horiz-adv-x="827" 
d="M42 352q0 156 105 259q107 105 266 105t266 -105q106 -103 106 -259q0 -155 -106 -260q-107 -105 -266 -105t-266 105q-105 105 -105 260zM648 352q0 103 -67 171q-67 69 -168 69t-168 -69q-66 -69 -66 -171q0 -104 66 -173q66 -68 168 -68t168 68q67 68 67 173zM438 869
q21 -18 31 -18q12 0 17.5 10t8.5 37h84q-10 -135 -104 -135q-38 0 -73 33q-20 20 -35 20q-16 0 -23.5 -11.5t-10.5 -37.5h-84q8 137 110 137q39 0 79 -35z" />
    <glyph glyph-name="Odieresis" unicode="&#xd6;" horiz-adv-x="827" 
d="M42 352q0 156 105 259q107 105 266 105t266 -105q106 -103 106 -259q0 -155 -106 -260q-107 -105 -266 -105t-266 105q-105 105 -105 260zM648 352q0 103 -67 171q-67 69 -168 69t-168 -69q-66 -69 -66 -171q0 -104 66 -173q66 -68 168 -68t168 68q67 68 67 173zM398 831
q0 -27 -18.5 -46t-45.5 -19t-46 19t-19 46q0 28 18.5 47t46.5 19q27 0 45.5 -19t18.5 -47zM560 831q0 -27 -18.5 -46t-45.5 -19q-28 0 -47 19t-19 46q0 28 19 47t47 19q27 0 45.5 -19t18.5 -47z" />
    <glyph glyph-name="multiply" unicode="&#xd7;" horiz-adv-x="570" 
d="M285 278l-146 -145l-70 70l146 146l-145 144l71 71l145 -144l144 144l70 -71l-144 -144l145 -146l-71 -70z" />
    <glyph glyph-name="Oslash" unicode="&#xd8;" horiz-adv-x="829" 
d="M230 32l-52 -65h-134l102 129q-102 105 -102 256q0 156 105 259q107 105 266 105q101 0 186 -45l52 65h133l-101 -129q102 -102 102 -255q0 -155 -106 -260q-107 -105 -266 -105q-100 0 -185 45zM415 592q-101 0 -168 -69q-66 -69 -66 -171q0 -89 50 -154l294 368
q-49 26 -110 26zM415 111q102 0 168 68q67 68 67 173q0 86 -51 152l-293 -368q52 -25 109 -25z" />
    <glyph glyph-name="Ugrave" unicode="&#xd9;" horiz-adv-x="692" 
d="M406 763h-119l-83 147h121zM483 242v461h131v-465q0 -111 -76 -181t-193 -70q-116 0 -192 70q-75 71 -75 181v465h131v-461q0 -59 36.5 -95t95.5 -36q63 0 102.5 36.5t39.5 94.5z" />
    <glyph glyph-name="Uacute" unicode="&#xda;" horiz-adv-x="692" 
d="M483 242v461h131v-465q0 -111 -76 -181t-193 -70q-116 0 -192 70q-75 71 -75 181v465h131v-461q0 -59 36.5 -95t95.5 -36q63 0 102.5 36.5t39.5 94.5zM489 910l-83 -147h-120l82 147h121z" />
    <glyph glyph-name="Ucircumflex" unicode="&#xdb;" horiz-adv-x="692" 
d="M282 763h-109l107 147h131l107 -147h-111l-62 84zM483 242v461h131v-465q0 -111 -76 -181t-193 -70q-116 0 -192 70q-75 71 -75 181v465h131v-461q0 -59 36.5 -95t95.5 -36q63 0 102.5 36.5t39.5 94.5z" />
    <glyph glyph-name="Udieresis" unicode="&#xdc;" horiz-adv-x="692" 
d="M483 242v461h131v-465q0 -111 -76 -181t-193 -70q-116 0 -192 70q-75 71 -75 181v465h131v-461q0 -59 36.5 -95t95.5 -36q63 0 102.5 36.5t39.5 94.5zM330 831q0 -27 -18.5 -46t-45.5 -19t-46 19t-19 46q0 28 18.5 47t46.5 19q27 0 45.5 -19t18.5 -47zM492 831
q0 -27 -18.5 -46t-45.5 -19q-28 0 -47 19t-19 46q0 28 19 47t47 19q27 0 45.5 -19t18.5 -47z" />
    <glyph glyph-name="Yacute" unicode="&#xdd;" horiz-adv-x="651" 
d="M392 253v-253h-131v245l-240 458h147l160 -317l165 317h137zM479 910l-83 -147h-120l82 147h121z" />
    <glyph glyph-name="Thorn" unicode="&#xde;" 
d="M85 0v703h131v-119h136q118 0 194 -62q76 -61 76 -165q0 -109 -75 -173q-74 -64 -195 -64h-136v-120h-131zM345 468h-129v-232h129q63 0 101.5 32.5t38.5 86.5q0 52 -38.5 82.5t-101.5 30.5z" />
    <glyph glyph-name="germandbls" unicode="&#xdf;" horiz-adv-x="625" 
d="M350 102q53 0 84 32.5t31 86.5q0 49 -35 82t-86 33h-71v96h47q47 0 77 28.5t30 72.5q0 46 -31.5 75.5t-80.5 29.5q-52 0 -84.5 -34t-32.5 -88v-516h-125v499q0 119 66.5 187t178.5 68q101 0 166 -55q67 -55 67 -144q0 -111 -88 -159q59 -23 92.5 -73.5t33.5 -113.5
q0 -94 -64 -158q-63 -64 -154 -64q-61 0 -98 24v110q29 -19 77 -19z" />
    <glyph glyph-name="agrave" unicode="&#xe0;" horiz-adv-x="552" 
d="M486 0h-119v64q-55 -77 -155 -77q-75 0 -121 40q-47 41 -47 105t42 104t131 61l146 34v6q0 35 -25 56.5t-66 21.5q-39 0 -65 -20t-32 -54h-120q4 76 67 128q62 51 152 51q99 0 155.5 -53t56.5 -144v-323zM241 88q51 0 86 38q36 37 36 89v26l-114 -26q-82 -19 -82 -69
q0 -58 74 -58zM330 570h-119l-83 147h121z" />
    <glyph glyph-name="aacute" unicode="&#xe1;" horiz-adv-x="552" 
d="M486 0h-119v64q-55 -77 -155 -77q-75 0 -121 40q-47 41 -47 105t42 104t131 61l146 34v6q0 35 -25 56.5t-66 21.5q-39 0 -65 -20t-32 -54h-120q4 76 67 128q62 51 152 51q99 0 155.5 -53t56.5 -144v-323zM241 88q51 0 86 38q36 37 36 89v26l-114 -26q-82 -19 -82 -69
q0 -58 74 -58zM414 717l-83 -147h-120l82 147h121z" />
    <glyph glyph-name="acircumflex" unicode="&#xe2;" horiz-adv-x="552" 
d="M486 0h-119v64q-55 -77 -155 -77q-75 0 -121 40q-47 41 -47 105t42 104t131 61l146 34v6q0 35 -25 56.5t-66 21.5q-39 0 -65 -20t-32 -54h-120q4 76 67 128q62 51 152 51q99 0 155.5 -53t56.5 -144v-323zM241 88q51 0 86 38q36 37 36 89v26l-114 -26q-82 -19 -82 -69
q0 -58 74 -58zM208 570h-109l107 147h131l107 -147h-111l-62 84z" />
    <glyph glyph-name="atilde" unicode="&#xe3;" horiz-adv-x="552" 
d="M486 0h-119v64q-55 -77 -155 -77q-75 0 -121 40q-47 41 -47 105t42 104t131 61l146 34v6q0 35 -25 56.5t-66 21.5q-39 0 -65 -20t-32 -54h-120q4 76 67 128q62 51 152 51q99 0 155.5 -53t56.5 -144v-323zM241 88q51 0 86 38q36 37 36 89v26l-114 -26q-82 -19 -82 -69
q0 -58 74 -58zM296 678q21 -18 31 -18q12 0 17.5 10t8.5 37h84q-10 -135 -104 -135q-38 0 -73 33q-20 20 -35 20q-16 0 -23.5 -11.5t-10.5 -37.5h-84q8 137 110 137q39 0 79 -35z" />
    <glyph glyph-name="adieresis" unicode="&#xe4;" horiz-adv-x="552" 
d="M486 0h-119v64q-55 -77 -155 -77q-75 0 -121 40q-47 41 -47 105t42 104t131 61l146 34v6q0 35 -25 56.5t-66 21.5q-39 0 -65 -20t-32 -54h-120q4 76 67 128q62 51 152 51q99 0 155.5 -53t56.5 -144v-323zM241 88q51 0 86 38q36 37 36 89v26l-114 -26q-82 -19 -82 -69
q0 -58 74 -58zM255 639q0 -27 -18.5 -46t-45.5 -19t-46 19t-19 46q0 28 18.5 47t46.5 19q27 0 45.5 -19t18.5 -47zM417 639q0 -27 -18.5 -46t-45.5 -19q-28 0 -47 19t-19 46q0 28 19 47t47 19q27 0 45.5 -19t18.5 -47z" />
    <glyph glyph-name="aring" unicode="&#xe5;" horiz-adv-x="552" 
d="M486 0h-119v64q-55 -77 -155 -77q-75 0 -121 40q-47 41 -47 105t42 104t131 61l146 34v6q0 35 -25 56.5t-66 21.5q-39 0 -65 -20t-32 -54h-120q4 76 67 128q62 51 152 51q99 0 155.5 -53t56.5 -144v-323zM241 88q51 0 86 38q36 37 36 89v26l-114 -26q-82 -19 -82 -69
q0 -58 74 -58zM382 667q0 -45 -32.5 -75.5t-79.5 -30.5t-79 30.5t-32 75.5t32 76t79 31q46 0 79 -31t33 -76zM230 667q0 -17 11.5 -29t28.5 -12q18 0 30 12t12 29q0 18 -12 30t-30 12q-17 0 -28.5 -12t-11.5 -30z" />
    <glyph glyph-name="ae" unicode="&#xe6;" horiz-adv-x="932" 
d="M762 164h122q-25 -83 -92 -130t-160 -47q-67 0 -122.5 31t-90.5 87q-24 -56 -75 -87t-118 -31q-83 0 -132.5 39.5t-49.5 105.5q0 65 41.5 104.5t131.5 60.5l146 34v6q0 35 -25 56.5t-66 21.5q-39 0 -65 -20t-32 -54h-120q4 76 67 128q62 51 152 51q121 0 170 -87
q73 87 190 87q114 0 188 -74q73 -73 73 -185v-39h-411q9 -60 49 -95.5t99 -35.5q92 0 130 73zM632 416q-51 0 -88.5 -28t-52.5 -77l281 -1q-14 50 -51 78t-89 28zM243 88q49 0 84 36q36 38 36 84v33l-114 -26q-82 -19 -82 -69q0 -58 76 -58z" />
    <glyph glyph-name="ccedilla" unicode="&#xe7;" horiz-adv-x="605" 
d="M310 520q101 0 172 -61q72 -59 89 -155h-125q-14 46 -50.5 73t-85.5 27q-64 0 -106 -43t-42 -107t42 -108q42 -43 106 -43q49 0 87 28.5t51 74.5h124q-15 -86 -77 -147q-63 -60 -149 -70l-24 -38q53 -1 84.5 -30.5t31.5 -78.5q0 -47 -35.5 -78.5t-88.5 -31.5
q-54 0 -88.5 28t-39.5 74l88 1q1 -14 11.5 -22.5t26.5 -8.5q17 0 28 10.5t11 27.5t-10.5 27.5t-28.5 10.5q-23 0 -39 -19l-72 33l60 97q-101 15 -162 88q-62 74 -62 175q0 112 77 189q79 77 196 77z" />
    <glyph glyph-name="egrave" unicode="&#xe8;" horiz-adv-x="606" 
d="M305 91q93 0 130 72h122q-25 -82 -92 -129t-161 -47q-115 0 -191 76t-76 191q0 111 77 188q78 78 192 78q115 0 189 -74t74 -185v-40h-412q9 -59 49 -94.5t99 -35.5zM306 416q-52 0 -89.5 -28t-53.5 -78h283q-14 50 -51 78t-89 28zM363 570h-119l-83 147h121z" />
    <glyph glyph-name="eacute" unicode="&#xe9;" horiz-adv-x="606" 
d="M448 717l-83 -147h-120l82 147h121zM305 91q93 0 130 72h122q-25 -82 -92 -129t-161 -47q-115 0 -191 76t-76 191q0 111 77 188q78 78 192 78q115 0 189 -74t74 -185v-40h-412q9 -59 49 -94.5t99 -35.5zM306 416q-52 0 -89.5 -28t-53.5 -78h283q-14 50 -51 78t-89 28z
" />
    <glyph glyph-name="ecircumflex" unicode="&#xea;" horiz-adv-x="606" 
d="M241 570h-109l107 147h131l107 -147h-111l-62 84zM305 91q93 0 130 72h122q-25 -82 -92 -129t-161 -47q-115 0 -191 76t-76 191q0 111 77 188q78 78 192 78q115 0 189 -74t74 -185v-40h-412q9 -59 49 -94.5t99 -35.5zM306 416q-52 0 -89.5 -28t-53.5 -78h283
q-14 50 -51 78t-89 28z" />
    <glyph glyph-name="edieresis" unicode="&#xeb;" horiz-adv-x="606" 
d="M288 639q0 -27 -18.5 -46t-45.5 -19t-46 19t-19 46q0 28 18.5 47t46.5 19q27 0 45.5 -19t18.5 -47zM450 639q0 -27 -18.5 -46t-45.5 -19q-28 0 -47 19t-19 46q0 28 19 47t47 19q27 0 45.5 -19t18.5 -47zM305 91q93 0 130 72h122q-25 -82 -92 -129t-161 -47
q-115 0 -191 76t-76 191q0 111 77 188q78 78 192 78q115 0 189 -74t74 -185v-40h-412q9 -59 49 -94.5t99 -35.5zM306 416q-52 0 -89.5 -28t-53.5 -78h283q-14 50 -51 78t-89 28z" />
    <glyph glyph-name="igrave" unicode="&#xec;" horiz-adv-x="273" 
d="M199 507v-507h-125v507h125zM196 570h-119l-83 147h121z" />
    <glyph glyph-name="iacute" unicode="&#xed;" horiz-adv-x="273" 
d="M279 717l-83 -147h-120l82 147h121zM199 507v-507h-125v507h125z" />
    <glyph glyph-name="icircumflex" unicode="&#xee;" horiz-adv-x="273" 
d="M72 570h-109l107 147h131l107 -147h-111l-62 84zM199 507v-507h-125v507h125z" />
    <glyph glyph-name="idieresis" unicode="&#xef;" horiz-adv-x="273" 
d="M120 639q0 -27 -18.5 -46t-45.5 -19t-46 19t-19 46q0 28 18.5 47t46.5 19q27 0 45.5 -19t18.5 -47zM282 639q0 -27 -18.5 -46t-45.5 -19q-28 0 -47 19t-19 46q0 28 19 47t47 19q27 0 45.5 -19t18.5 -47zM199 507v-507h-125v507h125z" />
    <glyph glyph-name="eth" unicode="&#xf0;" horiz-adv-x="628" 
d="M37 251q0 105 73 178q74 74 179 74q88 0 143 -53q-22 76 -82 152l-114 -47v71l67 28q-49 49 -102 87h139q25 -16 61 -49l108 48v-70l-60 -27q65 -75 99.5 -169.5t34.5 -192.5q0 -124 -79 -209t-194 -85q-114 0 -194 77q-79 76 -79 187zM460 251q0 62 -43 104
q-42 42 -107 42q-64 0 -106 -42q-42 -41 -42 -104q0 -64 42 -106t106 -42q65 0 107 42q43 43 43 106z" />
    <glyph glyph-name="ntilde" unicode="&#xf1;" horiz-adv-x="603" 
d="M198 289v-289h-125v507h119v-66q56 79 156 79q85 0 136 -53t51 -140v-327h-125v294q0 53 -26.5 82t-76.5 29t-79.5 -32t-29.5 -84zM331 678q21 -18 31 -18q12 0 17.5 10t8.5 37h84q-10 -135 -104 -135q-38 0 -73 33q-20 20 -35 20q-16 0 -23.5 -11.5t-10.5 -37.5h-84
q8 137 110 137q39 0 79 -35z" />
    <glyph glyph-name="ograve" unicode="&#xf2;" horiz-adv-x="619" 
d="M37 254q0 112 77 189t195 77q117 0 196 -77q78 -77 78 -189q0 -114 -78 -191q-77 -76 -196 -76t-195 76q-77 77 -77 191zM459 254q0 64 -43 107t-107 43t-106 -43t-42 -107t42 -108q42 -43 106 -43q65 0 107 43q43 43 43 108zM369 570h-119l-83 147h121z" />
    <glyph glyph-name="oacute" unicode="&#xf3;" horiz-adv-x="619" 
d="M453 717l-83 -147h-120l82 147h121zM37 254q0 112 77 189t195 77q117 0 196 -77q78 -77 78 -189q0 -114 -78 -191q-77 -76 -196 -76t-195 76q-77 77 -77 191zM459 254q0 64 -43 107t-107 43t-106 -43t-42 -107t42 -108q42 -43 106 -43q65 0 107 43q43 43 43 108z" />
    <glyph glyph-name="ocircumflex" unicode="&#xf4;" horiz-adv-x="619" 
d="M246 570h-109l107 147h131l107 -147h-111l-62 84zM37 254q0 112 77 189t195 77q117 0 196 -77q78 -77 78 -189q0 -114 -78 -191q-77 -76 -196 -76t-195 76q-77 77 -77 191zM459 254q0 64 -43 107t-107 43t-106 -43t-42 -107t42 -108q42 -43 106 -43q65 0 107 43
q43 43 43 108z" />
    <glyph glyph-name="otilde" unicode="&#xf5;" horiz-adv-x="619" 
d="M37 254q0 112 77 189t195 77q117 0 196 -77q78 -77 78 -189q0 -114 -78 -191q-77 -76 -196 -76t-195 76q-77 77 -77 191zM459 254q0 64 -43 107t-107 43t-106 -43t-42 -107t42 -108q42 -43 106 -43q65 0 107 43q43 43 43 108zM334 678q21 -18 31 -18q12 0 17.5 10t8.5 37
h84q-10 -135 -104 -135q-38 0 -73 33q-20 20 -35 20q-16 0 -23.5 -11.5t-10.5 -37.5h-84q8 137 110 137q39 0 79 -35z" />
    <glyph glyph-name="odieresis" unicode="&#xf6;" horiz-adv-x="619" 
d="M294 639q0 -27 -18.5 -46t-45.5 -19t-46 19t-19 46q0 28 18.5 47t46.5 19q27 0 45.5 -19t18.5 -47zM456 639q0 -27 -18.5 -46t-45.5 -19q-28 0 -47 19t-19 46q0 28 19 47t47 19q27 0 45.5 -19t18.5 -47zM37 254q0 112 77 189t195 77q117 0 196 -77q78 -77 78 -189
q0 -114 -78 -191q-77 -76 -196 -76t-195 76q-77 77 -77 191zM459 254q0 64 -43 107t-107 43t-106 -43t-42 -107t42 -108q42 -43 106 -43q65 0 107 43q43 43 43 108z" />
    <glyph glyph-name="divide" unicode="&#xf7;" horiz-adv-x="570" 
d="M364 549q0 -32 -22.5 -54.5t-55.5 -22.5q-34 0 -56 22t-22 55t22 55t56 22t56 -22t22 -55zM514 300h-458v100h458v-100zM364 151q0 -32 -22.5 -54.5t-55.5 -22.5q-34 0 -56 22t-22 55t22 55t56 22t56 -22t22 -55z" />
    <glyph glyph-name="oslash" unicode="&#xf8;" horiz-adv-x="623" 
d="M183 16l-37 -49h-106l74 98q-75 80 -75 189q0 112 77 189t195 77q70 0 130 -30l38 50h106l-76 -99q75 -75 75 -187q0 -114 -78 -191q-76 -76 -195 -76q-72 0 -128 29zM311 406q-63 0 -107 -44q-43 -43 -43 -108q0 -53 31 -95l181 235q-28 12 -62 12zM311 101q64 0 108 44
q43 43 43 109q0 54 -30 94l-181 -235q29 -12 60 -12z" />
    <glyph glyph-name="ugrave" unicode="&#xf9;" horiz-adv-x="594" 
d="M290 101q48 0 76.5 32.5t28.5 84.5v289h126v-507h-120v66q-51 -79 -150 -79q-83 0 -133 53t-50 140v327h125v-294q0 -52 25.5 -82t71.5 -30zM353 570h-119l-83 147h121z" />
    <glyph glyph-name="uacute" unicode="&#xfa;" horiz-adv-x="594" 
d="M437 717l-83 -147h-120l82 147h121zM290 101q48 0 76.5 32.5t28.5 84.5v289h126v-507h-120v66q-51 -79 -150 -79q-83 0 -133 53t-50 140v327h125v-294q0 -52 25.5 -82t71.5 -30z" />
    <glyph glyph-name="ucircumflex" unicode="&#xfb;" horiz-adv-x="594" 
d="M230 570h-109l107 147h131l107 -147h-111l-62 84zM290 101q48 0 76.5 32.5t28.5 84.5v289h126v-507h-120v66q-51 -79 -150 -79q-83 0 -133 53t-50 140v327h125v-294q0 -52 25.5 -82t71.5 -30z" />
    <glyph glyph-name="udieresis" unicode="&#xfc;" horiz-adv-x="594" 
d="M278 639q0 -27 -18.5 -46t-45.5 -19t-46 19t-19 46q0 28 18.5 47t46.5 19q27 0 45.5 -19t18.5 -47zM440 639q0 -27 -18.5 -46t-45.5 -19q-28 0 -47 19t-19 46q0 28 19 47t47 19q27 0 45.5 -19t18.5 -47zM290 101q48 0 76.5 32.5t28.5 84.5v289h126v-507h-120v66
q-51 -79 -150 -79q-83 0 -133 53t-50 140v327h125v-294q0 -52 25.5 -82t71.5 -30z" />
    <glyph glyph-name="yacute" unicode="&#xfd;" horiz-adv-x="548" 
d="M275 154l126 353h130l-264 -719h-126l72 201l-198 518h133zM418 717l-83 -147h-120l82 147h121z" />
    <glyph glyph-name="thorn" unicode="&#xfe;" 
d="M375 520q107 0 176 -75q70 -74 70 -190t-70 -192t-179 -76q-107 0 -174 82v-281h-125v953h125v-306q66 85 177 85zM490 254q0 64 -42 108t-106 44t-106 -44t-42 -108q0 -66 41 -110q42 -43 107 -43q66 0 106 43q42 44 42 110z" />
    <glyph glyph-name="ydieresis" unicode="&#xff;" horiz-adv-x="548" 
d="M275 154l126 353h130l-264 -719h-126l72 201l-198 518h133zM258 639q0 -27 -18.5 -46t-45.5 -19t-46 19t-19 46q0 28 18.5 47t46.5 19q27 0 45.5 -19t18.5 -47zM420 639q0 -27 -18.5 -46t-45.5 -19q-28 0 -47 19t-19 46q0 28 19 47t47 19q27 0 45.5 -19t18.5 -47z" />
    <glyph glyph-name="Amacron" unicode="&#x100;" horiz-adv-x="691" 
d="M15 0l261 703h140l259 -703h-141l-51 147h-283l-51 -147h-134zM239 257h205l-102 294zM486 869v-85h-280v85h280z" />
    <glyph glyph-name="amacron" unicode="&#x101;" horiz-adv-x="552" 
d="M486 0h-119v64q-55 -77 -155 -77q-75 0 -121 40q-47 41 -47 105t42 104t131 61l146 34v6q0 35 -25 56.5t-66 21.5q-39 0 -65 -20t-32 -54h-120q4 76 67 128q62 51 152 51q99 0 155.5 -53t56.5 -144v-323zM241 88q51 0 86 38q36 37 36 89v26l-114 -26q-82 -19 -82 -69
q0 -58 74 -58zM411 677v-85h-280v85h280z" />
    <glyph glyph-name="Abreve" unicode="&#x102;" horiz-adv-x="691" 
d="M15 0l261 703h140l259 -703h-141l-51 147h-283l-51 -147h-134zM239 257h205l-102 294zM345 752q-69 0 -113 43q-44 44 -44 107h92q0 -32 17.5 -51.5t47.5 -19.5t47.5 19.5t17.5 51.5h92q0 -64 -45 -107q-43 -43 -112 -43z" />
    <glyph glyph-name="abreve" unicode="&#x103;" horiz-adv-x="552" 
d="M486 0h-119v64q-55 -77 -155 -77q-75 0 -121 40q-47 41 -47 105t42 104t131 61l146 34v6q0 35 -25 56.5t-66 21.5q-39 0 -65 -20t-32 -54h-120q4 76 67 128q62 51 152 51q99 0 155.5 -53t56.5 -144v-323zM241 88q51 0 86 38q36 37 36 89v26l-114 -26q-82 -19 -82 -69
q0 -58 74 -58zM271 560q-69 0 -113 43q-44 44 -44 107h92q0 -32 17.5 -51.5t47.5 -19.5t47.5 19.5t17.5 51.5h92q0 -64 -45 -107q-43 -43 -112 -43z" />
    <glyph glyph-name="Aogonek" unicode="&#x104;" horiz-adv-x="691" 
d="M15 0l261 703h140l259 -703h-48q-52 -60 -68 -85q-18 -29 -18 -51q0 -40 42 -40q26 0 49 14v-83q-36 -23 -80 -23q-49 0 -81 29t-32 74q0 33 17 67q18 33 78 99l-51 146h-283l-51 -147h-134zM239 257h205l-102 294z" />
    <glyph glyph-name="aogonek" unicode="&#x105;" horiz-adv-x="552" 
d="M367 1v63q-55 -77 -155 -77q-75 0 -121 40q-47 41 -47 105t42 104t131 61l146 34v6q0 35 -25 56.5t-66 21.5q-39 0 -65 -20t-32 -54h-120q4 76 67 128q62 51 152 51q99 0 155.5 -53t56.5 -144v-323h-26q-52 -60 -68 -85q-18 -29 -18 -51q0 -40 42 -40q26 0 49 14v-83
q-36 -23 -80 -23q-49 0 -81 29t-32 74q0 33 17 67q18 33 78 99zM241 88q51 0 86 38q36 37 36 89v26l-114 -26q-82 -19 -82 -69q0 -58 74 -58z" />
    <glyph glyph-name="Cacute" unicode="&#x106;" horiz-adv-x="804" 
d="M632 285h137q-23 -133 -123 -215q-100 -83 -239 -83q-157 0 -261 105q-104 106 -104 260q0 153 104 259q104 105 261 105q137 0 234 -79q99 -78 126 -206h-140q-25 74 -84 117.5t-137 43.5q-98 0 -162 -70q-65 -70 -65 -170q0 -104 64 -172q65 -68 163 -68q84 0 145 47
t81 126zM551 910l-83 -147h-120l82 147h121z" />
    <glyph glyph-name="cacute" unicode="&#x107;" horiz-adv-x="605" 
d="M452 717l-83 -147h-120l82 147h121zM310 520q101 0 172 -61q72 -59 89 -155h-125q-14 46 -50.5 73t-85.5 27q-64 0 -106 -43t-42 -107t42 -108q42 -43 106 -43q49 0 87 28.5t51 74.5h124q-16 -96 -90 -158q-71 -61 -172 -61q-119 0 -196 76q-77 77 -77 191q0 112 77 189
q79 77 196 77z" />
    <glyph glyph-name="Ccircumflex" unicode="&#x108;" horiz-adv-x="804" 
d="M632 285h137q-23 -133 -123 -215q-100 -83 -239 -83q-157 0 -261 105q-104 106 -104 260q0 153 104 259q104 105 261 105q137 0 234 -79q99 -78 126 -206h-140q-25 74 -84 117.5t-137 43.5q-98 0 -162 -70q-65 -70 -65 -170q0 -104 64 -172q65 -68 163 -68q84 0 145 47
t81 126zM344 763h-109l107 147h131l107 -147h-111l-62 84z" />
    <glyph glyph-name="ccircumflex" unicode="&#x109;" horiz-adv-x="605" 
d="M246 570h-109l107 147h131l107 -147h-111l-62 84zM310 520q101 0 172 -61q72 -59 89 -155h-125q-14 46 -50.5 73t-85.5 27q-64 0 -106 -43t-42 -107t42 -108q42 -43 106 -43q49 0 87 28.5t51 74.5h124q-16 -96 -90 -158q-71 -61 -172 -61q-119 0 -196 76q-77 77 -77 191
q0 112 77 189q79 77 196 77z" />
    <glyph glyph-name="Cdotaccent" unicode="&#x10a;" horiz-adv-x="804" 
d="M480 837q0 -30 -21 -51t-51 -21q-29 0 -50 21t-21 51q0 29 21 50.5t50 21.5t50.5 -21.5t21.5 -50.5zM632 285h137q-23 -133 -123 -215q-100 -83 -239 -83q-157 0 -261 105q-104 106 -104 260q0 153 104 259q104 105 261 105q137 0 234 -79q99 -78 126 -206h-140
q-25 74 -84 117.5t-137 43.5q-98 0 -162 -70q-65 -70 -65 -170q0 -104 64 -172q65 -68 163 -68q84 0 145 47t81 126z" />
    <glyph glyph-name="cdotaccent" unicode="&#x10b;" horiz-adv-x="605" 
d="M310 520q101 0 172 -61q72 -59 89 -155h-125q-14 46 -50.5 73t-85.5 27q-64 0 -106 -43t-42 -107t42 -108q42 -43 106 -43q49 0 87 28.5t51 74.5h124q-16 -96 -90 -158q-71 -61 -172 -61q-119 0 -196 76q-77 77 -77 191q0 112 77 189q79 77 196 77zM381 645
q0 -30 -21 -51t-51 -21q-29 0 -50 21t-21 51q0 29 21 50.5t50 21.5t50.5 -21.5t21.5 -50.5z" />
    <glyph glyph-name="Ccaron" unicode="&#x10c;" horiz-adv-x="804" 
d="M632 285h137q-23 -133 -123 -215q-100 -83 -239 -83q-157 0 -261 105q-104 106 -104 260q0 153 104 259q104 105 261 105q137 0 234 -79q99 -78 126 -206h-140q-25 74 -84 117.5t-137 43.5q-98 0 -162 -70q-65 -70 -65 -170q0 -104 64 -172q65 -68 163 -68q84 0 145 47
t81 126zM340 763l-107 147h109l63 -84l62 84h111l-107 -147h-131z" />
    <glyph glyph-name="ccaron" unicode="&#x10d;" horiz-adv-x="605" 
d="M243 570l-107 147h109l63 -84l62 84h111l-107 -147h-131zM310 520q101 0 172 -61q72 -59 89 -155h-125q-14 46 -50.5 73t-85.5 27q-64 0 -106 -43t-42 -107t42 -108q42 -43 106 -43q49 0 87 28.5t51 74.5h124q-16 -96 -90 -158q-71 -61 -172 -61q-119 0 -196 76
q-77 77 -77 191q0 112 77 189q79 77 196 77z" />
    <glyph glyph-name="Dcaron" unicode="&#x10e;" horiz-adv-x="764" 
d="M343 0h-258v703h258q165 0 271 -95q106 -94 106 -254q0 -161 -106 -258q-105 -96 -271 -96zM339 579h-123v-455h123q112 0 177 61q67 61 67 169q0 104 -66 164.5t-178 60.5zM287 763l-107 147h109l63 -84l62 84h111l-107 -147h-131z" />
    <glyph glyph-name="dcaron" unicode="&#x10f;" horiz-adv-x="728" 
d="M795 634l-53 -130h-75l47 112q-22 7 -35.5 25.5t-13.5 41.5q0 30 20.5 50.5t51.5 20.5t51.5 -20.5t20.5 -50.5q0 -17 -14 -49zM284 -13q-106 0 -177 75q-69 75 -69 190q0 116 70 192t178 76t175 -82v303h125v-741h-118v81q-67 -94 -184 -94zM168 253q0 -65 42 -109
q42 -43 107 -43q64 0 106 43q42 44 42 109t-42 109t-106 44q-65 0 -107 -44t-42 -109z" />
    <glyph glyph-name="Dcroat" unicode="&#x110;" horiz-adv-x="783" 
d="M362 0h-258v302h-83v96h83v305h258q165 0 271 -95q106 -94 106 -254q0 -161 -106 -258q-105 -96 -271 -96zM405 302h-170v-178h123q112 0 177 61q67 61 67 169q0 104 -66 164.5t-178 60.5h-123v-181h170v-96z" />
    <glyph glyph-name="dslash" unicode="&#x111;" 
d="M284 -13q-106 0 -177 75q-69 75 -69 190q0 116 70 192t178 76t175 -82v141h-177v92h177v70h125v-70h70v-92h-70v-579h-118v81q-67 -94 -184 -94zM168 253q0 -65 42 -109q42 -43 107 -43q64 0 106 43q42 44 42 109t-42 109t-106 44q-65 0 -107 -44t-42 -109z" />
    <glyph glyph-name="Emacron" unicode="&#x112;" horiz-adv-x="585" 
d="M532 120v-120h-447v703h442v-120h-311v-169h287v-114h-287v-180h316zM447 869v-85h-280v85h280z" />
    <glyph glyph-name="emacron" unicode="&#x113;" horiz-adv-x="606" 
d="M305 91q93 0 130 72h122q-25 -82 -92 -129t-161 -47q-115 0 -191 76t-76 191q0 111 77 188q78 78 192 78q115 0 189 -74t74 -185v-40h-412q9 -59 49 -94.5t99 -35.5zM306 416q-52 0 -89.5 -28t-53.5 -78h283q-14 50 -51 78t-89 28zM445 677v-85h-280v85h280z" />
    <glyph glyph-name="Ebreve" unicode="&#x114;" horiz-adv-x="585" 
d="M532 120v-120h-447v703h442v-120h-311v-169h287v-114h-287v-180h316zM305 752q-69 0 -113 43q-44 44 -44 107h92q0 -32 17.5 -51.5t47.5 -19.5t47.5 19.5t17.5 51.5h92q0 -64 -45 -107q-43 -43 -112 -43z" />
    <glyph glyph-name="ebreve" unicode="&#x115;" horiz-adv-x="606" 
d="M305 91q93 0 130 72h122q-25 -82 -92 -129t-161 -47q-115 0 -191 76t-76 191q0 111 77 188q78 78 192 78q115 0 189 -74t74 -185v-40h-412q9 -59 49 -94.5t99 -35.5zM306 416q-52 0 -89.5 -28t-53.5 -78h283q-14 50 -51 78t-89 28zM304 560q-69 0 -113 43q-44 44 -44 107
h92q0 -32 17.5 -51.5t47.5 -19.5t47.5 19.5t17.5 51.5h92q0 -64 -45 -107q-43 -43 -112 -43z" />
    <glyph glyph-name="Edotaccent" unicode="&#x116;" horiz-adv-x="585" 
d="M379 837q0 -30 -21 -51t-51 -21q-29 0 -50 21t-21 51q0 29 21 50.5t50 21.5t50.5 -21.5t21.5 -50.5zM532 120v-120h-447v703h442v-120h-311v-169h287v-114h-287v-180h316z" />
    <glyph glyph-name="edotaccent" unicode="&#x117;" horiz-adv-x="606" 
d="M305 91q93 0 130 72h122q-25 -82 -92 -129t-161 -47q-115 0 -191 76t-76 191q0 111 77 188q78 78 192 78q115 0 189 -74t74 -185v-40h-412q9 -59 49 -94.5t99 -35.5zM306 416q-52 0 -89.5 -28t-53.5 -78h283q-14 50 -51 78t-89 28zM376 645q0 -30 -21 -51t-51 -21
q-29 0 -50 21t-21 51q0 29 21 50.5t50 21.5t50.5 -21.5t21.5 -50.5z" />
    <glyph glyph-name="Eogonek" unicode="&#x118;" horiz-adv-x="585" 
d="M410 0h-325v703h442v-120h-311v-169h287v-114h-287v-180h316v-120h-28q-52 -60 -68 -85q-18 -29 -18 -51q0 -40 42 -40q26 0 49 14v-83q-36 -23 -80 -23q-49 0 -81 29t-32 74q0 35 18 69q19 34 76 96z" />
    <glyph glyph-name="eogonek" unicode="&#x119;" horiz-adv-x="606" 
d="M340 -10q-11 -3 -36 -3q-115 0 -191 76t-76 191q0 111 77 188q78 78 192 78q115 0 189 -74t74 -185v-40h-412q9 -59 49 -94.5t99 -35.5q93 0 130 72h122q-12 -44 -56 -97q-74 -83 -103 -127q-27 -43 -27 -75q0 -40 42 -40q25 0 48 14v-83q-33 -23 -80 -23q-48 0 -80 29
t-32 74q0 37 16 72t55 83zM306 416q-52 0 -89.5 -28t-53.5 -78h282q-13 50 -50 78t-89 28z" />
    <glyph glyph-name="Ecaron" unicode="&#x11a;" horiz-adv-x="585" 
d="M532 120v-120h-447v703h442v-120h-311v-169h287v-114h-287v-180h316zM239 763l-107 147h109l63 -84l62 84h111l-107 -147h-131z" />
    <glyph glyph-name="ecaron" unicode="&#x11b;" horiz-adv-x="606" 
d="M238 570l-107 147h109l63 -84l62 84h111l-107 -147h-131zM305 91q93 0 130 72h122q-25 -82 -92 -129t-161 -47q-115 0 -191 76t-76 191q0 111 77 188q78 78 192 78q115 0 189 -74t74 -185v-40h-412q9 -59 49 -94.5t99 -35.5zM306 416q-52 0 -89.5 -28t-53.5 -78h283
q-14 50 -51 78t-89 28z" />
    <glyph glyph-name="Gcircumflex" unicode="&#x11c;" horiz-adv-x="810" 
d="M342 763h-109l107 147h131l107 -147h-111l-62 84zM405 363h347v-363h-110v106q-82 -119 -248 -119q-151 0 -252 104q-99 105 -99 261t103 259q103 105 260 105q127 0 221 -70q95 -70 126 -186h-144q-26 62 -80 97t-123 35q-98 0 -162 -69q-64 -68 -64 -171
q0 -106 64 -176q64 -69 167 -69q85 0 142.5 40t75.5 112h-224v104z" />
    <glyph glyph-name="gcircumflex" unicode="&#x11d;" horiz-adv-x="631" 
d="M233 570h-109l107 147h131l107 -147h-111l-62 84zM43 -23h124q2 -45 38.5 -72t94.5 -27q61 0 97.5 34t36.5 91v94q-62 -73 -161 -73q-102 0 -168 69q-65 71 -65 178t66 178q68 71 171 71q102 0 164 -80v67h118v-492q0 -111 -70 -175q-69 -66 -188 -66q-109 0 -182 58
q-72 57 -76 145zM169 272q0 -60 37.5 -99t96.5 -39t96 39q38 41 38 99t-38.5 97.5t-95.5 39.5q-59 0 -96 -39q-38 -40 -38 -98z" />
    <glyph glyph-name="Gbreve" unicode="&#x11e;" horiz-adv-x="810" 
d="M405 363h347v-363h-110v106q-82 -119 -248 -119q-151 0 -252 104q-99 105 -99 261t103 259q103 105 260 105q127 0 221 -70q95 -70 126 -186h-144q-26 62 -80 97t-123 35q-98 0 -162 -69q-64 -68 -64 -171q0 -106 64 -176q64 -69 167 -69q85 0 142.5 40t75.5 112h-224
v104zM405 752q-69 0 -113 43q-44 44 -44 107h92q0 -32 17.5 -51.5t47.5 -19.5t47.5 19.5t17.5 51.5h92q0 -64 -45 -107q-43 -43 -112 -43z" />
    <glyph glyph-name="gbreve" unicode="&#x11f;" horiz-adv-x="631" 
d="M43 -23h124q2 -45 38.5 -72t94.5 -27q61 0 97.5 34t36.5 91v94q-62 -73 -161 -73q-102 0 -168 69q-65 71 -65 178t66 178q68 71 171 71q102 0 164 -80v67h118v-492q0 -111 -70 -175q-69 -66 -188 -66q-109 0 -182 58q-72 57 -76 145zM169 272q0 -60 37.5 -99t96.5 -39
t96 39q38 41 38 99t-38.5 97.5t-95.5 39.5q-59 0 -96 -39q-38 -40 -38 -98zM297 560q-69 0 -113 43q-44 44 -44 107h92q0 -32 17.5 -51.5t47.5 -19.5t47.5 19.5t17.5 51.5h92q0 -64 -45 -107q-43 -43 -112 -43z" />
    <glyph glyph-name="Gdotaccent" unicode="&#x120;" horiz-adv-x="810" 
d="M479 837q0 -30 -21 -51t-51 -21q-29 0 -50 21t-21 51q0 29 21 50.5t50 21.5t50.5 -21.5t21.5 -50.5zM405 363h347v-363h-110v106q-82 -119 -248 -119q-151 0 -252 104q-99 105 -99 261t103 259q103 105 260 105q127 0 221 -70q95 -70 126 -186h-144q-26 62 -80 97
t-123 35q-98 0 -162 -69q-64 -68 -64 -171q0 -106 64 -176q64 -69 167 -69q85 0 142.5 40t75.5 112h-224v104z" />
    <glyph glyph-name="gdotaccent" unicode="&#x121;" horiz-adv-x="631" 
d="M43 -23h124q2 -45 38.5 -72t94.5 -27q61 0 97.5 34t36.5 91v94q-62 -73 -161 -73q-102 0 -168 69q-65 71 -65 178t66 178q68 71 171 71q102 0 164 -80v67h118v-492q0 -111 -70 -175q-69 -66 -188 -66q-109 0 -182 58q-72 57 -76 145zM169 272q0 -60 37.5 -99t96.5 -39
t96 39q38 41 38 99t-38.5 97.5t-95.5 39.5q-59 0 -96 -39q-38 -40 -38 -98zM368 645q0 -30 -21 -51t-51 -21q-29 0 -50 21t-21 51q0 29 21 50.5t50 21.5t50.5 -21.5t21.5 -50.5z" />
    <glyph glyph-name="uni0122" unicode="&#x122;" horiz-adv-x="810" 
d="M456 -161l-53 -115h-67l41 88q-20 6 -32 23t-12 38q0 28 18.5 46.5t46.5 18.5q29 0 47.5 -18.5t18.5 -46.5q0 -16 -8 -34zM405 363h347v-363h-110v106q-82 -119 -248 -119q-151 0 -252 104q-99 105 -99 261t103 259q103 105 260 105q127 0 221 -70q95 -70 126 -186h-144
q-26 62 -80 97t-123 35q-98 0 -162 -69q-64 -68 -64 -171q0 -106 64 -176q64 -69 167 -69q85 0 142.5 40t75.5 112h-224v104z" />
    <glyph glyph-name="uni0123" unicode="&#x123;" horiz-adv-x="631" 
d="M238 670l54 116h68l-42 -88q20 -6 32 -22.5t12 -37.5q0 -28 -18.5 -46.5t-47.5 -18.5t-47.5 18.5t-18.5 46.5q0 13 8 32zM43 -23h124q2 -45 38.5 -72t94.5 -27q61 0 97.5 34t36.5 91v94q-62 -73 -161 -73q-102 0 -168 69q-65 71 -65 178t66 178q68 71 171 71
q102 0 164 -80v67h118v-492q0 -111 -70 -175q-69 -66 -188 -66q-109 0 -182 58q-72 57 -76 145zM169 272q0 -60 37.5 -99t96.5 -39t96 39q38 41 38 99t-38.5 97.5t-95.5 39.5q-59 0 -96 -39q-38 -40 -38 -98z" />
    <glyph glyph-name="Hcircumflex" unicode="&#x124;" horiz-adv-x="715" 
d="M216 297v-297h-131v703h131v-282h284v282h130v-703h-130v297h-284zM295 763h-109l107 147h131l107 -147h-111l-62 84z" />
    <glyph glyph-name="hcircumflex" unicode="&#x125;" horiz-adv-x="603" 
d="M72 804h-109l107 147h131l107 -147h-111l-62 84zM198 289v-289h-125v741h125v-292q55 71 150 71q85 0 136 -53t51 -140v-327h-125v298q0 50 -27 78.5t-76 28.5q-50 0 -79.5 -32t-29.5 -84z" />
    <glyph glyph-name="Hbar" unicode="&#x126;" horiz-adv-x="753" 
d="M235 297v-297h-131v503h-79v94h79v106h131v-106h284v106h130v-106h79v-94h-79v-503h-130v297h-284zM519 503h-284v-82h284v82z" />
    <glyph glyph-name="hbar" unicode="&#x127;" horiz-adv-x="603" 
d="M198 289v-289h-125v579h-70v92h70v70h125v-70h177v-92h-177v-130q55 71 150 71q85 0 136 -53t51 -140v-327h-125v298q0 50 -27 78.5t-76 28.5q-50 0 -79.5 -32t-29.5 -84z" />
    <glyph glyph-name="Itilde" unicode="&#x128;" horiz-adv-x="300" 
d="M216 703v-703h-131v703h131zM174 869q21 -18 31 -18q12 0 17.5 10t8.5 37h84q-10 -135 -104 -135q-38 0 -73 33q-20 20 -35 20q-16 0 -23.5 -11.5t-10.5 -37.5h-84q8 137 110 137q39 0 79 -35z" />
    <glyph glyph-name="itilde" unicode="&#x129;" horiz-adv-x="273" 
d="M199 507v-507h-125v507h125zM161 678q21 -18 31 -18q12 0 17.5 10t8.5 37h84q-10 -135 -104 -135q-38 0 -73 33q-20 20 -35 20q-16 0 -23.5 -11.5t-10.5 -37.5h-84q8 137 110 137q39 0 79 -35z" />
    <glyph glyph-name="Imacron" unicode="&#x12a;" horiz-adv-x="300" 
d="M216 703v-703h-131v703h131zM291 869v-85h-280v85h280z" />
    <glyph glyph-name="imacron" unicode="&#x12b;" horiz-adv-x="273" 
d="M199 507v-507h-125v507h125zM277 677v-85h-280v85h280z" />
    <glyph glyph-name="Iogonek" unicode="&#x12e;" horiz-adv-x="300" 
d="M183 -162v-83q-36 -23 -80 -23q-49 0 -81 29t-32 74q0 33 17 67q18 33 78 99v702h131v-703h-38q-52 -60 -68 -85q-18 -29 -18 -51q0 -40 42 -40q26 0 49 14z" />
    <glyph glyph-name="iogonek" unicode="&#x12f;" horiz-adv-x="273" 
d="M55 661q0 34 22.5 56t58.5 22t59 -22t23 -56t-23 -56.5t-59 -22.5t-58.5 22.5t-22.5 56.5zM172 -162v-83q-36 -23 -80 -23q-49 0 -81 29t-32 74q0 34 18 67q16 32 77 99v506h125v-507h-32q-52 -60 -68 -85q-18 -29 -18 -51q0 -40 42 -40q26 0 49 14z" />
    <glyph glyph-name="Idot" unicode="&#x130;" horiz-adv-x="300" 
d="M216 703v-703h-131v703h131zM223 837q0 -30 -21 -51t-51 -21q-29 0 -50 21t-21 51q0 29 21 50.5t50 21.5t50.5 -21.5t21.5 -50.5z" />
    <glyph glyph-name="dotlessi" unicode="&#x131;" horiz-adv-x="273" 
d="M199 507v-507h-125v507h125z" />
    <glyph glyph-name="IJ" unicode="&#x132;" horiz-adv-x="886" 
d="M216 703v-703h-131v703h131zM676 234v469h131v-473q0 -108 -69 -176q-68 -67 -177 -67q-107 0 -175 68t-68 177h131q0 -57 30 -89.5t83 -32.5t83.5 33.5t30.5 90.5z" />
    <glyph glyph-name="ij" unicode="&#x133;" horiz-adv-x="553" 
d="M55 661q0 34 22.5 56t58.5 22t59 -22t23 -56t-23 -56.5t-59 -22.5t-58.5 22.5t-22.5 56.5zM199 507v-507h-125v507h125zM494 663q0 -32 -22 -53.5t-56 -21.5t-55.5 21.5t-21.5 53.5q0 33 21.5 54.5t55.5 21.5t56 -21.5t22 -54.5zM354 -28v535h125v-536q0 -197 -190 -197
q-32 0 -45 3v110q4 0 12.5 -1t10.5 -1q45 0 66 21t21 66z" />
    <glyph glyph-name="Jcircumflex" unicode="&#x134;" horiz-adv-x="585" 
d="M376 234v469h131v-473q0 -108 -69 -176q-68 -67 -177 -67q-107 0 -175 68t-68 177h131q0 -57 30 -89.5t83 -32.5t83.5 33.5t30.5 90.5zM378 763h-109l107 147h131l107 -147h-111l-62 84z" />
    <glyph glyph-name="jcircumflex" unicode="&#x135;" horiz-adv-x="280" 
d="M80 570h-109l107 147h131l107 -147h-111l-62 84zM81 -28v535h125v-536q0 -197 -190 -197q-32 0 -45 3v110q5 0 10 -0.5t8 -1t5 -0.5q45 0 66 21t21 66z" />
    <glyph glyph-name="uni0136" unicode="&#x136;" horiz-adv-x="633" 
d="M401 -161l-53 -115h-67l41 88q-20 6 -32 23t-12 38q0 28 18.5 46.5t46.5 18.5q29 0 47.5 -18.5t18.5 -46.5q0 -16 -8 -34zM85 0v703h131v-316l259 316h155l-282 -339l285 -364h-166l-251 324v-324h-131z" />
    <glyph glyph-name="uni0137" unicode="&#x137;" horiz-adv-x="538" 
d="M355 -161l-53 -115h-67l41 88q-20 6 -32 23t-12 38q0 28 18.5 46.5t46.5 18.5q29 0 47.5 -18.5t18.5 -46.5q0 -16 -8 -34zM198 247v-247h-125v741h125v-442l168 208h145l-187 -227l221 -280h-154z" />
    <glyph glyph-name="kgreenlandic" unicode="&#x138;" horiz-adv-x="538" 
d="M198 247v-247h-125v507h125v-208l168 208h145l-187 -227l221 -280h-154z" />
    <glyph glyph-name="Lacute" unicode="&#x139;" horiz-adv-x="529" 
d="M294 910l-83 -147h-120l82 147h121zM513 120v-120h-428v703h131v-583h297z" />
    <glyph glyph-name="lacute" unicode="&#x13a;" horiz-adv-x="273" 
d="M280 951l-83 -147h-120l82 147h121zM74 0v741h125v-741h-125z" />
    <glyph glyph-name="uni013B" unicode="&#x13b;" horiz-adv-x="529" 
d="M357 -161l-53 -115h-67l41 88q-20 6 -32 23t-12 38q0 28 18.5 46.5t46.5 18.5q29 0 47.5 -18.5t18.5 -46.5q0 -16 -8 -34zM513 120v-120h-428v703h131v-583h297z" />
    <glyph glyph-name="uni013C" unicode="&#x13c;" horiz-adv-x="273" 
d="M194 -161l-53 -115h-67l41 88q-20 6 -32 23t-12 38q0 28 18.5 46.5t46.5 18.5q29 0 47.5 -18.5t18.5 -46.5q0 -16 -8 -34zM74 0v741h125v-741h-125z" />
    <glyph glyph-name="Lcaron" unicode="&#x13d;" horiz-adv-x="535" 
d="M425 634l-53 -130h-75l47 112q-22 7 -35.5 25.5t-13.5 41.5q0 30 20.5 50.5t51.5 20.5t51.5 -20.5t20.5 -50.5q0 -17 -14 -49zM513 120v-120h-428v703h131v-583h297z" />
    <glyph glyph-name="lcaron" unicode="&#x13e;" horiz-adv-x="341" 
d="M409 634l-53 -130h-75l47 112q-22 7 -35.5 25.5t-13.5 41.5q0 30 20.5 50.5t51.5 20.5t51.5 -20.5t20.5 -50.5q0 -17 -14 -49zM74 0v741h125v-741h-125z" />
    <glyph glyph-name="Ldot" unicode="&#x13f;" horiz-adv-x="543" 
d="M513 120v-120h-428v703h131v-583h297zM502 355q0 -36 -25 -60.5t-62 -24.5t-62 24.5t-25 60.5q0 37 24.5 61.5t62.5 24.5t62.5 -24.5t24.5 -61.5z" />
    <glyph glyph-name="ldot" unicode="&#x140;" horiz-adv-x="426" 
d="M74 0v741h125v-741h-125zM437 355q0 -36 -25 -60.5t-62 -24.5t-62 24.5t-25 60.5q0 37 24.5 61.5t62.5 24.5t62.5 -24.5t24.5 -61.5z" />
    <glyph glyph-name="Lslash" unicode="&#x141;" horiz-adv-x="563" 
d="M546 120v-120h-428v235l-80 -43v108l80 43v360h131v-290l145 77v-108l-145 -77v-185h297z" />
    <glyph glyph-name="lslash" unicode="&#x142;" horiz-adv-x="385" 
d="M261 377v-377h-125v310l-104 -56v106l104 55v326h125v-259l105 56v-105z" />
    <glyph glyph-name="Nacute" unicode="&#x143;" horiz-adv-x="720" 
d="M504 910l-83 -147h-120l82 147h121zM208 481v-481h-123v703h124l302 -483v483h124v-703h-126z" />
    <glyph glyph-name="nacute" unicode="&#x144;" horiz-adv-x="603" 
d="M449 717l-83 -147h-120l82 147h121zM198 289v-289h-125v507h119v-66q56 79 156 79q85 0 136 -53t51 -140v-327h-125v294q0 53 -26.5 82t-76.5 29t-79.5 -32t-29.5 -84z" />
    <glyph glyph-name="uni0145" unicode="&#x145;" horiz-adv-x="720" 
d="M416 -161l-53 -115h-67l41 88q-20 6 -32 23t-12 38q0 28 18.5 46.5t46.5 18.5q29 0 47.5 -18.5t18.5 -46.5q0 -16 -8 -34zM208 481v-481h-123v703h124l302 -483v483h124v-703h-126z" />
    <glyph glyph-name="uni0146" unicode="&#x146;" horiz-adv-x="603" 
d="M362 -161l-53 -115h-67l41 88q-20 6 -32 23t-12 38q0 28 18.5 46.5t46.5 18.5q29 0 47.5 -18.5t18.5 -46.5q0 -16 -8 -34zM198 289v-289h-125v507h119v-66q56 79 156 79q85 0 136 -53t51 -140v-327h-125v294q0 53 -26.5 82t-76.5 29t-79.5 -32t-29.5 -84z" />
    <glyph glyph-name="Ncaron" unicode="&#x147;" horiz-adv-x="720" 
d="M208 481v-481h-123v703h124l302 -483v483h124v-703h-126zM294 763l-107 147h109l63 -84l62 84h111l-107 -147h-131z" />
    <glyph glyph-name="ncaron" unicode="&#x148;" horiz-adv-x="603" 
d="M240 570l-107 147h109l63 -84l62 84h111l-107 -147h-131zM198 289v-289h-125v507h119v-66q56 79 156 79q85 0 136 -53t51 -140v-327h-125v294q0 53 -26.5 82t-76.5 29t-79.5 -32t-29.5 -84z" />
    <glyph glyph-name="napostrophe" unicode="&#x149;" horiz-adv-x="603" 
d="M121 673l-53 -115h-67l41 88q-20 6 -32 23t-12 38q0 28 18.5 46.5t46.5 18.5q29 0 47.5 -18.5t18.5 -46.5q0 -16 -8 -34zM198 289v-289h-125v507h119v-66q56 79 156 79q85 0 136 -53t51 -140v-327h-125v294q0 53 -26.5 82t-76.5 29t-79.5 -32t-29.5 -84z" />
    <glyph glyph-name="Omacron" unicode="&#x14c;" horiz-adv-x="827" 
d="M42 352q0 156 105 259q107 105 266 105t266 -105q106 -103 106 -259q0 -155 -106 -260q-107 -105 -266 -105t-266 105q-105 105 -105 260zM648 352q0 103 -67 171q-67 69 -168 69t-168 -69q-66 -69 -66 -171q0 -104 66 -173q66 -68 168 -68t168 68q67 68 67 173zM555 869
v-85h-280v85h280z" />
    <glyph glyph-name="omacron" unicode="&#x14d;" horiz-adv-x="619" 
d="M450 677v-85h-280v85h280zM37 254q0 112 77 189t195 77q117 0 196 -77q78 -77 78 -189q0 -114 -78 -191q-77 -76 -196 -76t-195 76q-77 77 -77 191zM459 254q0 64 -43 107t-107 43t-106 -43t-42 -107t42 -108q42 -43 106 -43q65 0 107 43q43 43 43 108z" />
    <glyph glyph-name="Obreve" unicode="&#x14e;" horiz-adv-x="827" 
d="M42 352q0 156 105 259q107 105 266 105t266 -105q106 -103 106 -259q0 -155 -106 -260q-107 -105 -266 -105t-266 105q-105 105 -105 260zM648 352q0 103 -67 171q-67 69 -168 69t-168 -69q-66 -69 -66 -171q0 -104 66 -173q66 -68 168 -68t168 68q67 68 67 173zM413 752
q-69 0 -113 43q-44 44 -44 107h92q0 -32 17.5 -51.5t47.5 -19.5t47.5 19.5t17.5 51.5h92q0 -64 -45 -107q-43 -43 -112 -43z" />
    <glyph glyph-name="obreve" unicode="&#x14f;" horiz-adv-x="619" 
d="M37 254q0 112 77 189t195 77q117 0 196 -77q78 -77 78 -189q0 -114 -78 -191q-77 -76 -196 -76t-195 76q-77 77 -77 191zM459 254q0 64 -43 107t-107 43t-106 -43t-42 -107t42 -108q42 -43 106 -43q65 0 107 43q43 43 43 108zM310 560q-69 0 -113 43q-44 44 -44 107h92
q0 -32 17.5 -51.5t47.5 -19.5t47.5 19.5t17.5 51.5h92q0 -64 -45 -107q-43 -43 -112 -43z" />
    <glyph glyph-name="Ohungarumlaut" unicode="&#x150;" horiz-adv-x="827" 
d="M282 763l69 147h114l-70 -147h-113zM433 763l69 147h114l-70 -147h-113zM42 352q0 156 105 259q107 105 266 105t266 -105q106 -103 106 -259q0 -155 -106 -260q-107 -105 -266 -105t-266 105q-105 105 -105 260zM648 352q0 103 -67 171q-67 69 -168 69t-168 -69
q-66 -69 -66 -171q0 -104 66 -173q66 -68 168 -68t168 68q67 68 67 173z" />
    <glyph glyph-name="ohungarumlaut" unicode="&#x151;" horiz-adv-x="619" 
d="M178 570l69 147h114l-70 -147h-113zM329 570l69 147h114l-70 -147h-113zM37 254q0 112 77 189t195 77q117 0 196 -77q78 -77 78 -189q0 -114 -78 -191q-77 -76 -196 -76t-195 76q-77 77 -77 191zM459 254q0 64 -43 107t-107 43t-106 -43t-42 -107t42 -108q42 -43 106 -43
q65 0 107 43q43 43 43 108z" />
    <glyph glyph-name="OE" unicode="&#x152;" horiz-adv-x="1148" 
d="M1096 120v-120h-447v85q-103 -98 -250 -98q-148 0 -253 107q-104 107 -104 258q0 150 104 257q105 107 253 107q150 0 250 -98v85h442v-120h-311v-169h287v-114h-287v-180h316zM648 352q0 103 -67 171q-67 69 -168 69t-168 -69q-66 -69 -66 -171q0 -104 66 -173
q66 -68 168 -68t168 68q67 68 67 173z" />
    <glyph glyph-name="oe" unicode="&#x153;" horiz-adv-x="1033" 
d="M37 254q0 111 76 188q77 78 186 78q71 0 129.5 -30.5t94.5 -85.5q35 55 90.5 85.5t121.5 30.5q114 0 188 -74q73 -73 73 -185v-40h-412q9 -59 49 -94.5t99 -35.5q92 0 130 72h122q-25 -83 -91.5 -129.5t-159.5 -46.5q-66 0 -121.5 30t-89.5 85q-36 -54 -95 -84.5
t-128 -30.5q-109 0 -186 78q-76 77 -76 189zM733 416q-51 0 -89 -28.5t-53 -77.5h281q-13 50 -50 78t-89 28zM459 254q0 64 -43 107t-107 43t-106 -43t-42 -107t42 -108q42 -43 106 -43q65 0 107 43q43 43 43 108z" />
    <glyph glyph-name="Racute" unicode="&#x154;" horiz-adv-x="675" 
d="M216 265v-265h-131v703h268q117 0 191 -59t74 -157q0 -81 -49.5 -137.5t-137.5 -76.5l222 -273h-162l-212 265h-63zM346 589h-130v-217h130q60 0 97.5 30t37.5 81q0 49 -37 77.5t-98 28.5zM485 910l-83 -147h-120l82 147h121z" />
    <glyph glyph-name="racute" unicode="&#x155;" horiz-adv-x="393" 
d="M371 717l-83 -147h-120l82 147h121zM339 399q-65 0 -103 -41.5t-38 -111.5v-246h-125v507h119v-90q51 99 153 99q14 0 28 -2v-119q-15 4 -34 4z" />
    <glyph glyph-name="uni0156" unicode="&#x156;" horiz-adv-x="675" 
d="M409 -161l-53 -115h-67l41 88q-20 6 -32 23t-12 38q0 28 18.5 46.5t46.5 18.5q29 0 47.5 -18.5t18.5 -46.5q0 -16 -8 -34zM216 265v-265h-131v703h268q117 0 191 -59t74 -157q0 -81 -49.5 -137.5t-137.5 -76.5l222 -273h-162l-212 265h-63zM346 589h-130v-217h130
q60 0 97.5 30t37.5 81q0 49 -37 77.5t-98 28.5z" />
    <glyph glyph-name="uni0157" unicode="&#x157;" horiz-adv-x="393" 
d="M193 -161l-53 -115h-67l41 88q-20 6 -32 23t-12 38q0 28 18.5 46.5t46.5 18.5q29 0 47.5 -18.5t18.5 -46.5q0 -16 -8 -34zM339 399q-65 0 -103 -41.5t-38 -111.5v-246h-125v507h119v-90q51 99 153 99q14 0 28 -2v-119q-15 4 -34 4z" />
    <glyph glyph-name="Rcaron" unicode="&#x158;" horiz-adv-x="675" 
d="M216 265v-265h-131v703h268q117 0 191 -59t74 -157q0 -81 -49.5 -137.5t-137.5 -76.5l222 -273h-162l-212 265h-63zM346 589h-130v-217h130q60 0 97.5 30t37.5 81q0 49 -37 77.5t-98 28.5zM274 763l-107 147h109l63 -84l62 84h111l-107 -147h-131z" />
    <glyph glyph-name="rcaron" unicode="&#x159;" horiz-adv-x="393" 
d="M161 570l-107 147h109l63 -84l62 84h111l-107 -147h-131zM339 399q-65 0 -103 -41.5t-38 -111.5v-246h-125v507h119v-90q51 99 153 99q14 0 28 -2v-119q-15 4 -34 4z" />
    <glyph glyph-name="Sacute" unicode="&#x15a;" horiz-adv-x="618" 
d="M305 716q114 0 182 -59.5t74 -167.5h-135q-3 55 -34.5 84t-88.5 29q-51 0 -82 -22.5t-31 -60.5q0 -34 19.5 -53t71.5 -34l109 -32q96 -27 139 -73.5t43 -119.5q0 -104 -68 -162t-188 -58q-127 0 -200 63.5t-76 179.5h133q2 -61 39 -94t102 -33q61 0 93.5 24.5t32.5 70.5
q0 33 -22 53t-83 38l-101 30q-93 28 -134 74t-41 121q0 90 69 146q71 56 177 56zM448 910l-83 -147h-120l82 147h121z" />
    <glyph glyph-name="sacute" unicode="&#x15b;" horiz-adv-x="508" 
d="M399 717l-83 -147h-120l82 147h121zM255 520q91 0 145 -43t60 -121h-128q-2 67 -79 67q-33 0 -54 -13.5t-21 -35.5t16 -34.5t61 -22.5l50 -11q89 -20 126.5 -55.5t37.5 -96.5q0 -78 -56.5 -122.5t-152.5 -44.5q-106 0 -165 45.5t-62 131.5h131q2 -80 92 -80
q40 0 62.5 15.5t22.5 43.5q0 22 -15.5 35.5t-54.5 22.5l-60 14q-88 21 -124 55.5t-36 93.5q0 71 56 113q56 43 148 43z" />
    <glyph glyph-name="Scircumflex" unicode="&#x15c;" horiz-adv-x="618" 
d="M305 716q114 0 182 -59.5t74 -167.5h-135q-3 55 -34.5 84t-88.5 29q-51 0 -82 -22.5t-31 -60.5q0 -34 19.5 -53t71.5 -34l109 -32q96 -27 139 -73.5t43 -119.5q0 -104 -68 -162t-188 -58q-127 0 -200 63.5t-76 179.5h133q2 -61 39 -94t102 -33q61 0 93.5 24.5t32.5 70.5
q0 33 -22 53t-83 38l-101 30q-93 28 -134 74t-41 121q0 90 69 146q71 56 177 56zM241 763h-109l107 147h131l107 -147h-111l-62 84z" />
    <glyph glyph-name="scircumflex" unicode="&#x15d;" horiz-adv-x="508" 
d="M192 570h-109l107 147h131l107 -147h-111l-62 84zM255 520q91 0 145 -43t60 -121h-128q-2 67 -79 67q-33 0 -54 -13.5t-21 -35.5t16 -34.5t61 -22.5l50 -11q89 -20 126.5 -55.5t37.5 -96.5q0 -78 -56.5 -122.5t-152.5 -44.5q-106 0 -165 45.5t-62 131.5h131q2 -80 92 -80
q40 0 62.5 15.5t22.5 43.5q0 22 -15.5 35.5t-54.5 22.5l-60 14q-88 21 -124 55.5t-36 93.5q0 71 56 113q56 43 148 43z" />
    <glyph glyph-name="Scedilla" unicode="&#x15e;" horiz-adv-x="618" 
d="M305 716q114 0 182 -59.5t74 -167.5h-135q-3 55 -34.5 84t-88.5 29q-51 0 -82 -22.5t-31 -60.5q0 -33 19 -52.5t72 -34.5l109 -32q96 -27 139 -73.5t43 -119.5q0 -95 -58 -152.5t-163 -66.5l-23 -37q53 -1 84.5 -30.5t31.5 -78.5q0 -47 -35.5 -78.5t-88.5 -31.5
q-54 0 -88.5 28t-39.5 74l88 1q1 -14 11.5 -22.5t26.5 -8.5q17 0 28 10.5t11 27.5t-10.5 27.5t-28.5 10.5q-23 0 -39 -19l-72 33l59 96q-106 12 -164.5 74t-61.5 166h133q2 -61 39 -94t102 -33q61 0 93.5 24.5t32.5 70.5q0 33 -22 53t-83 38l-101 30q-93 28 -134 74t-41 121
q0 90 69 146q71 56 177 56z" />
    <glyph glyph-name="scedilla" unicode="&#x15f;" horiz-adv-x="508" 
d="M255 520q91 0 145 -43t60 -121h-128q-2 67 -79 67q-33 0 -54 -13.5t-21 -35.5t16 -34.5t61 -22.5l50 -11q88 -19 126 -54.5t38 -97.5q0 -70 -46.5 -113.5t-128.5 -51.5l-23 -38q53 -1 84.5 -30.5t31.5 -78.5q0 -47 -35.5 -78.5t-88.5 -31.5q-54 0 -88.5 28t-39.5 74l88 1
q1 -14 11.5 -22.5t26.5 -8.5q17 0 28 10.5t11 27.5t-10.5 27.5t-28.5 10.5q-23 0 -39 -19l-72 33l59 96q-83 11 -128 55.5t-48 118.5h131q2 -80 92 -80q40 0 62.5 15.5t22.5 43.5q0 22 -15.5 35t-54.5 23l-60 14q-88 21 -124 55.5t-36 93.5q0 71 56 113q56 43 148 43z" />
    <glyph glyph-name="Scaron" unicode="&#x160;" horiz-adv-x="618" 
d="M305 716q114 0 182 -59.5t74 -167.5h-135q-3 55 -34.5 84t-88.5 29q-51 0 -82 -22.5t-31 -60.5q0 -34 19.5 -53t71.5 -34l109 -32q96 -27 139 -73.5t43 -119.5q0 -104 -68 -162t-188 -58q-127 0 -200 63.5t-76 179.5h133q2 -61 39 -94t102 -33q61 0 93.5 24.5t32.5 70.5
q0 33 -22 53t-83 38l-101 30q-93 28 -134 74t-41 121q0 90 69 146q71 56 177 56zM238 763l-107 147h109l63 -84l62 84h111l-107 -147h-131z" />
    <glyph glyph-name="scaron" unicode="&#x161;" horiz-adv-x="508" 
d="M189 570l-107 147h109l63 -84l62 84h111l-107 -147h-131zM255 520q91 0 145 -43t60 -121h-128q-2 67 -79 67q-33 0 -54 -13.5t-21 -35.5t16 -34.5t61 -22.5l50 -11q89 -20 126.5 -55.5t37.5 -96.5q0 -78 -56.5 -122.5t-152.5 -44.5q-106 0 -165 45.5t-62 131.5h131
q2 -80 92 -80q40 0 62.5 15.5t22.5 43.5q0 22 -15.5 35.5t-54.5 22.5l-60 14q-88 21 -124 55.5t-36 93.5q0 71 56 113q56 43 148 43z" />
    <glyph glyph-name="uni0162" unicode="&#x162;" horiz-adv-x="556" 
d="M170 -106l65 106h-22v583h-197v120h524v-120h-197v-583h-22l-30 -49q53 -1 84.5 -30.5t31.5 -78.5q0 -47 -35.5 -78.5t-88.5 -31.5q-54 0 -88.5 28t-39.5 74l88 1q1 -14 11.5 -22.5t26.5 -8.5q17 0 28 10.5t11 27.5t-10.5 27.5t-28.5 10.5q-23 0 -39 -19z" />
    <glyph glyph-name="uni0163" unicode="&#x163;" horiz-adv-x="398" 
d="M23 507h81v150l125 29v-179h125v-112h-125v-219q0 -42 16.5 -60t53.5 -18t71 21v-110q-43 -22 -93 -22l-22 -36q53 -1 84.5 -30.5t31.5 -78.5q0 -47 -35.5 -78.5t-88.5 -31.5q-54 0 -88.5 28t-39.5 74l88 1q1 -14 11.5 -22.5t26.5 -8.5q17 0 28 10.5t11 27.5t-10.5 27.5
t-28.5 10.5q-23 0 -39 -19l-72 33l64 104q-94 31 -94 168v229h-81v112z" />
    <glyph glyph-name="Tcaron" unicode="&#x164;" horiz-adv-x="556" 
d="M343 583v-583h-130v583h-197v120h524v-120h-197zM210 763l-107 147h109l63 -84l62 84h111l-107 -147h-131z" />
    <glyph glyph-name="tcaron" unicode="&#x165;" horiz-adv-x="398" 
d="M438 710l-53 -130h-75l47 112q-22 7 -35.5 25.5t-13.5 41.5q0 30 20.5 50.5t51.5 20.5t51.5 -20.5t20.5 -50.5q0 -17 -14 -49zM23 507h81v150l125 29v-179h125v-112h-125v-219q0 -42 16.5 -60t53.5 -18t71 21v-110q-45 -22 -99 -22q-167 0 -167 179v229h-81v112z" />
    <glyph glyph-name="Tbar" unicode="&#x166;" horiz-adv-x="580" 
d="M355 313v-313h-130v313h-138v95h138v175h-197v120h524v-120h-197v-175h136v-95h-136z" />
    <glyph glyph-name="tbar" unicode="&#x167;" horiz-adv-x="406" 
d="M234 395v-83h124v-92h-124v-44q0 -42 16.5 -60t53.5 -18t71 21v-110q-45 -22 -99 -22q-167 0 -167 179v54h-81v92h81v83h-81v112h81v150l125 29v-179h125v-112h-125z" />
    <glyph glyph-name="Utilde" unicode="&#x168;" horiz-adv-x="692" 
d="M483 242v461h131v-465q0 -111 -76 -181t-193 -70q-116 0 -192 70q-75 71 -75 181v465h131v-461q0 -59 36.5 -95t95.5 -36q63 0 102.5 36.5t39.5 94.5zM370 869q21 -18 31 -18q12 0 17.5 10t8.5 37h84q-10 -135 -104 -135q-38 0 -73 33q-20 20 -35 20q-16 0 -23.5 -11.5
t-10.5 -37.5h-84q8 137 110 137q39 0 79 -35z" />
    <glyph glyph-name="utilde" unicode="&#x169;" horiz-adv-x="594" 
d="M290 101q48 0 76.5 32.5t28.5 84.5v289h126v-507h-120v66q-51 -79 -150 -79q-83 0 -133 53t-50 140v327h125v-294q0 -52 25.5 -82t71.5 -30zM319 678q21 -18 31 -18q12 0 17.5 10t8.5 37h84q-10 -135 -104 -135q-38 0 -73 33q-20 20 -35 20q-16 0 -23.5 -11.5
t-10.5 -37.5h-84q8 137 110 137q39 0 79 -35z" />
    <glyph glyph-name="Umacron" unicode="&#x16a;" horiz-adv-x="692" 
d="M483 242v461h131v-465q0 -111 -76 -181t-193 -70q-116 0 -192 70q-75 71 -75 181v465h131v-461q0 -59 36.5 -95t95.5 -36q63 0 102.5 36.5t39.5 94.5zM486 869v-85h-280v85h280z" />
    <glyph glyph-name="umacron" unicode="&#x16b;" horiz-adv-x="594" 
d="M290 101q48 0 76.5 32.5t28.5 84.5v289h126v-507h-120v66q-51 -79 -150 -79q-83 0 -133 53t-50 140v327h125v-294q0 -52 25.5 -82t71.5 -30zM434 677v-85h-280v85h280z" />
    <glyph glyph-name="Ubreve" unicode="&#x16c;" horiz-adv-x="692" 
d="M483 242v461h131v-465q0 -111 -76 -181t-193 -70q-116 0 -192 70q-75 71 -75 181v465h131v-461q0 -59 36.5 -95t95.5 -36q63 0 102.5 36.5t39.5 94.5zM345 752q-69 0 -113 43q-44 44 -44 107h92q0 -32 17.5 -51.5t47.5 -19.5t47.5 19.5t17.5 51.5h92q0 -64 -45 -107
q-43 -43 -112 -43z" />
    <glyph glyph-name="ubreve" unicode="&#x16d;" horiz-adv-x="594" 
d="M290 101q48 0 76.5 32.5t28.5 84.5v289h126v-507h-120v66q-51 -79 -150 -79q-83 0 -133 53t-50 140v327h125v-294q0 -52 25.5 -82t71.5 -30zM294 560q-69 0 -113 43q-44 44 -44 107h92q0 -32 17.5 -51.5t47.5 -19.5t47.5 19.5t17.5 51.5h92q0 -64 -45 -107
q-43 -43 -112 -43z" />
    <glyph glyph-name="Uring" unicode="&#x16e;" horiz-adv-x="692" 
d="M457 859q0 -45 -32.5 -75.5t-79.5 -30.5t-79 30.5t-32 75.5t32 76t79 31q46 0 79 -31t33 -76zM305 859q0 -17 11.5 -29t28.5 -12q18 0 30 12t12 29q0 18 -12 30t-30 12q-17 0 -28.5 -12t-11.5 -30zM483 242v461h131v-465q0 -111 -76 -181t-193 -70q-116 0 -192 70
q-75 71 -75 181v465h131v-461q0 -59 36.5 -95t95.5 -36q63 0 102.5 36.5t39.5 94.5z" />
    <glyph glyph-name="uring" unicode="&#x16f;" horiz-adv-x="594" 
d="M405 667q0 -45 -32.5 -75.5t-79.5 -30.5t-79 30.5t-32 75.5t32 76t79 31q46 0 79 -31t33 -76zM253 667q0 -17 11.5 -29t28.5 -12q18 0 30 12t12 29q0 18 -12 30t-30 12q-17 0 -28.5 -12t-11.5 -30zM290 101q48 0 76.5 32.5t28.5 84.5v289h126v-507h-120v66
q-51 -79 -150 -79q-83 0 -133 53t-50 140v327h125v-294q0 -52 25.5 -82t71.5 -30z" />
    <glyph glyph-name="Uhungarumlaut" unicode="&#x170;" horiz-adv-x="692" 
d="M214 763l69 147h114l-70 -147h-113zM365 763l69 147h114l-70 -147h-113zM483 242v461h131v-465q0 -111 -76 -181t-193 -70q-116 0 -192 70q-75 71 -75 181v465h131v-461q0 -59 36.5 -95t95.5 -36q63 0 102.5 36.5t39.5 94.5z" />
    <glyph glyph-name="uhungarumlaut" unicode="&#x171;" horiz-adv-x="594" 
d="M290 101q48 0 76.5 32.5t28.5 84.5v289h126v-507h-120v66q-51 -79 -150 -79q-83 0 -133 53t-50 140v327h125v-294q0 -52 25.5 -82t71.5 -30zM162 570l69 147h114l-70 -147h-113zM313 570l69 147h114l-70 -147h-113z" />
    <glyph glyph-name="Uogonek" unicode="&#x172;" horiz-adv-x="692" 
d="M483 242v461h131v-465q0 -101 -71 -175q-71 -73 -101 -118.5t-30 -80.5q0 -40 42 -40q26 0 49 14v-83q-36 -23 -81 -23q-48 0 -80 29t-32 74q0 37 16.5 72t57.5 83q-36 -3 -39 -3q-116 0 -192 70q-75 71 -75 181v465h131v-461q0 -59 36.5 -95t95.5 -36q63 0 102.5 36.5
t39.5 94.5z" />
    <glyph glyph-name="uogonek" unicode="&#x173;" horiz-adv-x="594" 
d="M290 101q48 0 76.5 32.5t28.5 84.5v289h126v-507h-27q-52 -60 -68 -85q-18 -29 -18 -51q0 -40 42 -40q26 0 49 14v-83q-36 -23 -80 -23q-49 0 -81 29t-32 74q0 33 17 67q18 33 78 99v65q-51 -79 -150 -79q-83 0 -133 53t-50 140v327h125v-294q0 -52 25.5 -82t71.5 -30z
" />
    <glyph glyph-name="Wcircumflex" unicode="&#x174;" horiz-adv-x="1013" 
d="M447 763h-109l107 147h131l107 -147h-111l-62 84zM508 473l-144 -473h-140l-203 703h142l139 -515l149 515h121l146 -511l141 511h134l-205 -703h-138z" />
    <glyph glyph-name="wcircumflex" unicode="&#x175;" horiz-adv-x="862" 
d="M369 570h-109l107 147h131l107 -147h-111l-62 84zM431 341l-116 -341h-127l-172 507h125l115 -352l116 352h120l117 -353l116 353h121l-173 -507h-125z" />
    <glyph glyph-name="Ycircumflex" unicode="&#x176;" horiz-adv-x="651" 
d="M392 253v-253h-131v245l-240 458h147l160 -317l165 317h137zM272 763h-109l107 147h131l107 -147h-111l-62 84z" />
    <glyph glyph-name="ycircumflex" unicode="&#x177;" horiz-adv-x="548" 
d="M275 154l126 353h130l-264 -719h-126l72 201l-198 518h133zM211 570h-109l107 147h131l107 -147h-111l-62 84z" />
    <glyph glyph-name="Ydieresis" unicode="&#x178;" horiz-adv-x="651" 
d="M392 253v-253h-131v245l-240 458h147l160 -317l165 317h137zM320 831q0 -27 -18.5 -46t-45.5 -19t-46 19t-19 46q0 28 18.5 47t46.5 19q27 0 45.5 -19t18.5 -47zM482 831q0 -27 -18.5 -46t-45.5 -19q-28 0 -47 19t-19 46q0 28 19 47t47 19q27 0 45.5 -19t18.5 -47z" />
    <glyph glyph-name="Zacute" unicode="&#x179;" horiz-adv-x="594" 
d="M553 120v-120h-513v105l344 478h-337v120h500v-112l-342 -471h348zM441 910l-83 -147h-120l82 147h121z" />
    <glyph glyph-name="zacute" unicode="&#x17a;" horiz-adv-x="515" 
d="M401 717l-83 -147h-120l82 147h121zM482 112v-112h-450v84l277 311h-261v112h420v-89l-266 -306h280z" />
    <glyph glyph-name="Zdotaccent" unicode="&#x17b;" horiz-adv-x="594" 
d="M370 837q0 -30 -21 -51t-51 -21q-29 0 -50 21t-21 51q0 29 21 50.5t50 21.5t50.5 -21.5t21.5 -50.5zM553 120v-120h-513v105l344 478h-337v120h500v-112l-342 -471h348z" />
    <glyph glyph-name="zdotaccent" unicode="&#x17c;" horiz-adv-x="515" 
d="M482 112v-112h-450v84l277 311h-261v112h420v-89l-266 -306h280zM329 645q0 -30 -21 -51t-51 -21q-29 0 -50 21t-21 51q0 29 21 50.5t50 21.5t50.5 -21.5t21.5 -50.5z" />
    <glyph glyph-name="Zcaron" unicode="&#x17d;" horiz-adv-x="594" 
d="M553 120v-120h-513v105l344 478h-337v120h500v-112l-342 -471h348zM230 763l-107 147h109l63 -84l62 84h111l-107 -147h-131z" />
    <glyph glyph-name="zcaron" unicode="&#x17e;" horiz-adv-x="515" 
d="M191 570l-107 147h109l63 -84l62 84h111l-107 -147h-131zM482 112v-112h-450v84l277 311h-261v112h420v-89l-266 -306h280z" />
    <glyph glyph-name="longs" unicode="&#x17f;" horiz-adv-x="291" 
d="M198 555v-555h-125v557q0 197 190 197q45 0 76 -9v-110q-29 7 -54 7q-45 0 -66 -20.5t-21 -66.5z" />
    <glyph glyph-name="florin" unicode="&#x192;" horiz-adv-x="560" 
d="M475 351h-120l-63 -380q-18 -111 -64 -154t-133 -43q-31 0 -69 9v110q24 -8 48 -8q43 0 64 19.5t29 67.5l63 379h-100v111h118l16 95q18 105 64 151t133 46q40 0 70 -9v-110q-26 7 -48 7q-43 0 -64 -19.5t-29 -67.5l-16 -93h101v-111z" />
    <glyph glyph-name="uni0218" unicode="&#x218;" horiz-adv-x="618" 
d="M373 -161l-53 -115h-67l41 88q-20 6 -32 23t-12 38q0 28 18.5 46.5t46.5 18.5q29 0 47.5 -18.5t18.5 -46.5q0 -16 -8 -34zM305 716q114 0 182 -59.5t74 -167.5h-135q-3 55 -34.5 84t-88.5 29q-51 0 -82 -22.5t-31 -60.5q0 -34 19.5 -53t71.5 -34l109 -32
q96 -27 139 -73.5t43 -119.5q0 -104 -68 -162t-188 -58q-127 0 -200 63.5t-76 179.5h133q2 -61 39 -94t102 -33q61 0 93.5 24.5t32.5 70.5q0 33 -22 53t-83 38l-101 30q-93 28 -134 74t-41 121q0 90 69 146q71 56 177 56z" />
    <glyph glyph-name="uni0219" unicode="&#x219;" horiz-adv-x="508" 
d="M316 -161l-53 -115h-67l41 88q-20 6 -32 23t-12 38q0 28 18.5 46.5t46.5 18.5q29 0 47.5 -18.5t18.5 -46.5q0 -16 -8 -34zM255 520q91 0 145 -43t60 -121h-128q-2 67 -79 67q-33 0 -54 -13.5t-21 -35.5t16 -34.5t61 -22.5l50 -11q89 -20 126.5 -55.5t37.5 -96.5
q0 -78 -56.5 -122.5t-152.5 -44.5q-106 0 -165 45.5t-62 131.5h131q2 -80 92 -80q40 0 62.5 15.5t22.5 43.5q0 22 -15.5 35.5t-54.5 22.5l-60 14q-88 21 -124 55.5t-36 93.5q0 71 56 113q56 43 148 43z" />
    <glyph glyph-name="uni021A" unicode="&#x21a;" horiz-adv-x="556" 
d="M334 -161l-53 -115h-67l41 88q-20 6 -32 23t-12 38q0 28 18.5 46.5t46.5 18.5q29 0 47.5 -18.5t18.5 -46.5q0 -16 -8 -34zM343 583v-583h-130v583h-197v120h524v-120h-197z" />
    <glyph glyph-name="uni021B" unicode="&#x21b;" horiz-adv-x="398" 
d="M254 -161l-53 -115h-67l41 88q-20 6 -32 23t-12 38q0 28 18.5 46.5t46.5 18.5q29 0 47.5 -18.5t18.5 -46.5q0 -16 -8 -34zM23 507h81v150l125 29v-179h125v-112h-125v-219q0 -42 16.5 -60t53.5 -18t71 21v-110q-45 -22 -99 -22q-167 0 -167 179v229h-81v112z" />
    <glyph glyph-name="uni0237" unicode="&#x237;" horiz-adv-x="280" 
d="M81 -28v535h125v-536q0 -197 -190 -197q-32 0 -45 3v110q5 0 10 -0.5t8 -1t5 -0.5q45 0 66 21t21 66z" />
    <glyph glyph-name="circumflex" unicode="&#x2c6;" horiz-adv-x="408" 
d="M140 570h-109l107 147h131l107 -147h-111l-62 84z" />
    <glyph glyph-name="caron" unicode="&#x2c7;" horiz-adv-x="425" 
d="M135 570l-107 147h109l63 -84l62 84h111l-107 -147h-131z" />
    <glyph glyph-name="uni02C9" unicode="&#x2c9;" horiz-adv-x="363" 
d="M322 677v-85h-280v85h280z" />
    <glyph glyph-name="breve" unicode="&#x2d8;" horiz-adv-x="378" 
d="M189 560q-69 0 -113 43q-44 44 -44 107h92q0 -32 17.5 -51.5t47.5 -19.5t47.5 19.5t17.5 51.5h92q0 -64 -45 -107q-43 -43 -112 -43z" />
    <glyph glyph-name="dotaccent" unicode="&#x2d9;" horiz-adv-x="227" 
d="M185 645q0 -30 -21 -51t-51 -21q-29 0 -50 21t-21 51q0 29 21 50.5t50 21.5t50.5 -21.5t21.5 -50.5z" />
    <glyph glyph-name="ring" unicode="&#x2da;" horiz-adv-x="289" 
d="M256 667q0 -45 -32.5 -75.5t-79.5 -30.5t-79 30.5t-32 75.5t32 76t79 31q46 0 79 -31t33 -76zM104 667q0 -17 11.5 -29t28.5 -12q18 0 30 12t12 29q0 18 -12 30t-30 12q-17 0 -28.5 -12t-11.5 -30z" />
    <glyph glyph-name="ogonek" unicode="&#x2db;" horiz-adv-x="280" 
d="M44 -165q0 33 18 68q19 36 85 107h94q-60 -68 -78 -96q-17 -29 -17 -50q0 -40 42 -40q26 0 49 14v-83q-36 -23 -80 -23q-49 0 -81 29t-32 74z" />
    <glyph glyph-name="tilde" unicode="&#x2dc;" horiz-adv-x="393" 
d="M220 678q21 -18 31 -18q12 0 17.5 10t8.5 37h84q-10 -135 -104 -135q-38 0 -73 33q-20 20 -35 20q-16 0 -23.5 -11.5t-10.5 -37.5h-84q8 137 110 137q39 0 79 -35z" />
    <glyph glyph-name="hungarumlaut" unicode="&#x2dd;" horiz-adv-x="419" 
d="M43 570l69 147h114l-70 -147h-113zM194 570l69 147h114l-70 -147h-113z" />
    <glyph glyph-name="uni0394" unicode="&#x394;" horiz-adv-x="656" 
d="M32 96l227 607h140l225 -607v-96h-592v96zM478 117l-153 434l-153 -434h306z" />
    <glyph glyph-name="uni03A9" unicode="&#x3a9;" horiz-adv-x="799" 
d="M351 148v-148h-288v119h140q-154 111 -154 270q0 139 99 233q100 94 251 94q153 0 251 -94q100 -94 100 -233q0 -159 -153 -270h139v-119h-288v148q168 88 168 235q0 86 -62 148q-61 61 -155 61q-93 0 -154 -61q-62 -62 -62 -148q0 -150 168 -235z" />
    <glyph glyph-name="uni03BC" unicode="&#x3bc;" horiz-adv-x="610" 
d="M301 101q48 0 76.5 32.5t28.5 84.5v289h126v-507h-120v66q-51 -79 -149 -79q-32 0 -59 15v-214h-125v719h125v-294q0 -52 25.5 -82t71.5 -30z" />
    <glyph glyph-name="pi" unicode="&#x3c0;" horiz-adv-x="671" 
d="M26 393v114h619v-114h-86v-393h-125v393h-197v-393h-125v393h-86z" />
    <glyph glyph-name="Wgrave" unicode="&#x1e80;" horiz-adv-x="1013" 
d="M571 763h-119l-83 147h121zM508 473l-144 -473h-140l-203 703h142l139 -515l149 515h121l146 -511l141 511h134l-205 -703h-138z" />
    <glyph glyph-name="wgrave" unicode="&#x1e81;" horiz-adv-x="862" 
d="M431 341l-116 -341h-127l-172 507h125l115 -352l116 352h120l117 -353l116 353h121l-173 -507h-125zM492 570h-119l-83 147h121z" />
    <glyph glyph-name="Wacute" unicode="&#x1e82;" horiz-adv-x="1013" 
d="M654 910l-83 -147h-120l82 147h121zM508 473l-144 -473h-140l-203 703h142l139 -515l149 515h121l146 -511l141 511h134l-205 -703h-138z" />
    <glyph glyph-name="wacute" unicode="&#x1e83;" horiz-adv-x="862" 
d="M576 717l-83 -147h-120l82 147h121zM431 341l-116 -341h-127l-172 507h125l115 -352l116 352h120l117 -353l116 353h121l-173 -507h-125z" />
    <glyph glyph-name="Wdieresis" unicode="&#x1e84;" horiz-adv-x="1013" 
d="M508 473l-144 -473h-140l-203 703h142l139 -515l149 515h121l146 -511l141 511h134l-205 -703h-138zM495 831q0 -27 -18.5 -46t-45.5 -19t-46 19t-19 46q0 28 18.5 47t46.5 19q27 0 45.5 -19t18.5 -47zM657 831q0 -27 -18.5 -46t-45.5 -19q-28 0 -47 19t-19 46
q0 28 19 47t47 19q27 0 45.5 -19t18.5 -47z" />
    <glyph glyph-name="wdieresis" unicode="&#x1e85;" horiz-adv-x="862" 
d="M417 639q0 -27 -18.5 -46t-45.5 -19t-46 19t-19 46q0 28 18.5 47t46.5 19q27 0 45.5 -19t18.5 -47zM579 639q0 -27 -18.5 -46t-45.5 -19q-28 0 -47 19t-19 46q0 28 19 47t47 19q27 0 45.5 -19t18.5 -47zM431 341l-116 -341h-127l-172 507h125l115 -352l116 352h120
l117 -353l116 353h121l-173 -507h-125z" />
    <glyph glyph-name="uni1E9E" unicode="&#x1e9e;" horiz-adv-x="725" 
d="M315 368l159 218h-77q-87 0 -138.5 -51.5t-51.5 -141.5v-393h-131v395q0 142 89 225t233 83h218v-103l-136 -191q88 -3 147 -60t59 -141q0 -100 -67 -161q-66 -60 -172 -60q-90 0 -150 28v120q58 -34 135 -34q57 0 89 27.5t32 77.5q0 43 -29.5 71.5t-74.5 28.5
q-30 0 -57 -15z" />
    <glyph glyph-name="Ygrave" unicode="&#x1ef2;" horiz-adv-x="651" 
d="M392 253v-253h-131v245l-240 458h147l160 -317l165 317h137zM395 763h-119l-83 147h121z" />
    <glyph glyph-name="ygrave" unicode="&#x1ef3;" horiz-adv-x="548" 
d="M275 154l126 353h130l-264 -719h-126l72 201l-198 518h133zM334 570h-119l-83 147h121z" />
    <glyph glyph-name="endash" unicode="&#x2013;" horiz-adv-x="567" 
d="M63 207v108h442v-108h-442z" />
    <glyph glyph-name="emdash" unicode="&#x2014;" horiz-adv-x="1042" 
d="M63 207v108h917v-108h-917z" />
    <glyph glyph-name="quoteleft" unicode="&#x2018;" horiz-adv-x="264" 
d="M52 514l89 189h91l-75 -156q25 -9 40.5 -31.5t15.5 -48.5q0 -37 -24.5 -61.5t-61.5 -24.5q-38 0 -63 24.5t-25 60.5q0 21 13 48z" />
    <glyph glyph-name="quoteright" unicode="&#x2019;" horiz-adv-x="270" 
d="M229 584l-89 -189h-91l75 156q-25 9 -40.5 31.5t-15.5 48.5q0 37 24.5 61.5t61.5 24.5q38 0 63 -24.5t25 -60.5q0 -21 -13 -48z" />
    <glyph glyph-name="quotesinglbase" unicode="&#x201a;" horiz-adv-x="269" 
d="M208 25l-89 -189h-91l75 156q-25 9 -40.5 31.5t-15.5 48.5q0 37 24.5 61.5t61.5 24.5q38 0 63 -24.5t25 -60.5q0 -21 -13 -48z" />
    <glyph glyph-name="quotedblleft" unicode="&#x201c;" horiz-adv-x="476" 
d="M52 514l89 189h91l-75 -156q25 -9 40.5 -31.5t15.5 -48.5q0 -37 -24.5 -61.5t-61.5 -24.5q-38 0 -63 24.5t-25 60.5q0 21 13 48zM264 514l89 189h91l-75 -156q25 -9 40.5 -31.5t15.5 -48.5q0 -37 -24.5 -61.5t-61.5 -24.5q-38 0 -63 24.5t-25 60.5q0 21 13 48z" />
    <glyph glyph-name="quotedblright" unicode="&#x201d;" horiz-adv-x="481" 
d="M229 584l-89 -189h-91l75 156q-25 9 -40.5 31.5t-15.5 48.5q0 37 24.5 61.5t61.5 24.5q38 0 63 -24.5t25 -60.5q0 -21 -13 -48zM440 584l-89 -189h-91l75 156q-25 9 -40.5 31.5t-15.5 48.5q0 37 24.5 61.5t61.5 24.5q38 0 63 -24.5t25 -60.5q0 -21 -13 -48z" />
    <glyph glyph-name="quotedblbase" unicode="&#x201e;" horiz-adv-x="480" 
d="M208 25l-89 -189h-91l75 156q-25 9 -40.5 31.5t-15.5 48.5q0 37 24.5 61.5t61.5 24.5q38 0 63 -24.5t25 -60.5q0 -21 -13 -48zM419 25l-89 -189h-91l75 156q-25 9 -40.5 31.5t-15.5 48.5q0 37 24.5 61.5t61.5 24.5q38 0 63 -24.5t25 -60.5q0 -21 -13 -48z" />
    <glyph glyph-name="dagger" unicode="&#x2020;" horiz-adv-x="477" 
d="M175 415h-145v104h145v166l126 28v-194h145v-104h-145v-396l-126 -29v425z" />
    <glyph glyph-name="daggerdbl" unicode="&#x2021;" horiz-adv-x="510" 
d="M193 185h-146v104h146v126h-146v104h146v166l125 28v-194h145v-104h-145v-126h145v-104h-145v-166l-125 -29v195z" />
    <glyph glyph-name="bullet" unicode="&#x2022;" horiz-adv-x="392" 
d="M330 367q0 -53 -38 -91q-37 -37 -93 -37q-57 0 -94 37t-37 91q0 57 37 93.5t94 36.5t94 -37t37 -93z" />
    <glyph glyph-name="ellipsis" unicode="&#x2026;" horiz-adv-x="719" 
d="M219 72q0 -36 -25 -60.5t-62 -24.5t-62 24.5t-25 60.5q0 37 24.5 61.5t62.5 24.5t62.5 -24.5t24.5 -61.5zM446 72q0 -36 -25 -60.5t-62 -24.5t-62 24.5t-25 60.5q0 37 24.5 61.5t62.5 24.5t62.5 -24.5t24.5 -61.5zM674 72q0 -36 -25 -60.5t-62 -24.5t-62 24.5t-25 60.5
q0 37 24.5 61.5t62.5 24.5t62.5 -24.5t24.5 -61.5z" />
    <glyph glyph-name="perthousand" unicode="&#x2030;" horiz-adv-x="1147" 
d="M375 543q0 -71 -49 -119q-49 -47 -122 -47q-74 0 -123 47q-48 48 -48 119t48 118q49 47 123 47q73 0 122 -47q49 -46 49 -118zM63 0l539 703h103l-539 -703h-103zM124 542q0 -34 22.5 -56.5t57.5 -22.5q34 0 56 22.5t22 56.5t-22.5 57.5t-55.5 23.5q-34 0 -57 -23.5
t-23 -57.5zM737 161q0 -71 -49 -119q-49 -47 -122 -47q-74 0 -123 47q-47 47 -47 119q0 71 48 118q49 47 122 47q74 0 122 -48q49 -46 49 -117zM1119 161q0 -71 -49 -119q-49 -47 -122 -47q-74 0 -123 47q-48 47 -48 119q0 71 48 118q49 47 123 47t122 -48q49 -46 49 -117z
M487 160q0 -34 22.5 -56.5t56.5 -22.5t56.5 22.5t22.5 56.5t-22.5 57.5t-56.5 23.5t-56.5 -23.5t-22.5 -57.5zM868 160q0 -34 22.5 -56.5t57.5 -22.5q34 0 56 22.5t22 56.5t-22.5 57.5t-55.5 23.5q-35 0 -57.5 -23.5t-22.5 -57.5z" />
    <glyph glyph-name="guilsinglleft" unicode="&#x2039;" horiz-adv-x="311" 
d="M268 35h-121l-109 219l109 220h121l-109 -220z" />
    <glyph glyph-name="guilsinglright" unicode="&#x203a;" horiz-adv-x="311" 
d="M43 474h121l109 -219l-109 -220h-121l109 220z" />
    <glyph glyph-name="fraction" unicode="&#x2044;" horiz-adv-x="158" 
d="M-242 0l539 703h103l-539 -703h-103z" />
    <glyph glyph-name="zero.superior" unicode="&#x2070;" horiz-adv-x="344" 
d="M308 723v-108q0 -60 -37 -94.5t-99 -34.5t-99 34.5t-37 94.5v108q0 59 37 93t99 34t99 -34t37 -93zM172 767q-22 0 -35 -13.5t-13 -35.5v-100q0 -22 13 -35.5t35 -13.5t35 13.5t13 35.5v100q0 22 -13 35.5t-35 13.5z" />
    <glyph glyph-name="four.superior" unicode="&#x2074;" horiz-adv-x="333" 
d="M23 548v71l127 225h101l-125 -216h69v54l87 19v-73h26v-80h-26v-56h-87v56h-172z" />
    <glyph glyph-name="five.superior" unicode="&#x2075;" horiz-adv-x="312" 
d="M42 643l18 201h203v-80h-130l-4 -48q21 4 34 4q56 0 88.5 -31t32.5 -83t-36 -86t-92 -34q-55 0 -92.5 30.5t-42.5 79.5h90q8 -29 42 -29q19 0 31 11.5t12 28.5q0 18 -12.5 30t-30.5 12q-25 0 -37 -16z" />
    <glyph glyph-name="six.superior" unicode="&#x2076;" horiz-adv-x="313" 
d="M159 486q-57 0 -95 35q-38 36 -38 89q0 51 39 112l78 122h102l-81 -117h6q54 0 88 -33t34 -84q0 -52 -39 -88q-37 -36 -94 -36zM113 610q0 -20 13 -33.5t33 -13.5t32.5 13.5t12.5 33.5t-13 33.5t-32 13.5q-20 0 -33 -13.5t-13 -33.5z" />
    <glyph glyph-name="seven.superior" unicode="&#x2077;" horiz-adv-x="293" 
d="M44 492l128 268h-148v84h247v-72l-129 -280h-98z" />
    <glyph glyph-name="eight.superior" unicode="&#x2078;" horiz-adv-x="330" 
d="M300 596q0 -48 -38 -79t-98 -31q-59 0 -97 31.5t-38 78.5q0 57 53 86q-36 30 -36 73q0 41 33 68t85 27t85.5 -27t33.5 -68q0 -43 -36 -73q53 -29 53 -86zM126 746q0 -15 11 -25t28 -9q38 2 38 35q0 15 -11 24.5t-29 9.5q-16 0 -26.5 -10t-10.5 -25zM116 599
q0 -19 13 -30.5t35 -11.5t35.5 11.5t13.5 30.5q0 20 -13.5 33t-35.5 13t-35 -13t-13 -33z" />
    <glyph glyph-name="nine.superior" unicode="&#x2079;" horiz-adv-x="313" 
d="M155 850q57 0 95 -36q38 -35 38 -88q0 -51 -39 -112l-78 -122h-102l81 117h-6q-54 0 -88 33t-34 84q0 52 38 88q39 36 95 36zM201 726q0 20 -13 33.5t-33 13.5t-32.5 -13.5t-12.5 -33.5t13 -33.5t32 -13.5q20 0 33 13.5t13 33.5z" />
    <glyph glyph-name="zero.inferior" unicode="&#x2080;" horiz-adv-x="344" 
d="M308 90v-108q0 -60 -37 -94.5t-99 -34.5t-99 34.5t-37 94.5v108q0 59 37 93t99 34t99 -34t37 -93zM172 134q-22 0 -35 -13.5t-13 -35.5v-100q0 -22 13 -35.5t35 -13.5t35 13.5t13 35.5v100q0 22 -13 35.5t-35 13.5z" />
    <glyph glyph-name="one.inferior" unicode="&#x2081;" horiz-adv-x="219" 
d="M170 211v-352h-88v268h-68l21 84h135z" />
    <glyph glyph-name="two.inferior" unicode="&#x2082;" horiz-adv-x="326" 
d="M295 -57v-84h-260v70l129 118q30 29 30 53q0 15 -10 24t-27 9t-27.5 -11t-11.5 -28h-90q3 54 40 88.5t94 34.5q56 0 90 -30t34 -79q0 -31 -15 -57.5t-55 -63.5l-48 -44h127z" />
    <glyph glyph-name="three.inferior" unicode="&#x2083;" horiz-adv-x="324" 
d="M27 -36h87q6 -38 46 -38q21 0 33 11t12 30q0 43 -52 43h-29v63h26q46 0 46 36q0 35 -36 35t-41 -37h-88q3 49 38.5 79.5t92.5 30.5q55 0 88.5 -26.5t33.5 -68.5q0 -53 -45 -78q55 -23 55 -83q0 -47 -37 -77.5t-97 -30.5q-59 0 -94.5 30t-38.5 81z" />
    <glyph glyph-name="four.inferior" unicode="&#x2084;" horiz-adv-x="333" 
d="M24 -85v71l127 225h101l-125 -216h69v54l87 19v-73h26v-80h-26v-56h-87v56h-172z" />
    <glyph glyph-name="five.inferior" unicode="&#x2085;" horiz-adv-x="312" 
d="M42 10l18 201h203v-80h-130l-4 -48q21 4 34 4q56 0 88.5 -31t32.5 -83t-36 -86t-92 -34q-55 0 -92.5 30.5t-42.5 79.5h90q8 -29 42 -29q19 0 31 11.5t12 28.5q0 18 -12.5 30t-30.5 12q-25 0 -37 -16z" />
    <glyph glyph-name="six.inferior" unicode="&#x2086;" horiz-adv-x="314" 
d="M159 -147q-57 0 -95 36q-38 35 -38 88q0 51 39 112l78 122h102l-81 -117h6q54 0 88 -33t34 -84q0 -52 -39 -88q-37 -36 -94 -36zM113 -23q0 -20 13 -33.5t33 -13.5t32.5 13.5t12.5 33.5t-13 33.5t-32 13.5q-20 0 -33 -13.5t-13 -33.5z" />
    <glyph glyph-name="seven.inferior" unicode="&#x2087;" horiz-adv-x="292" 
d="M44 -141l128 268h-148v84h247v-72l-129 -280h-98z" />
    <glyph glyph-name="eight.inferior" unicode="&#x2088;" horiz-adv-x="330" 
d="M300 -37q0 -48 -38 -79t-98 -31q-59 0 -97 31.5t-38 78.5q0 57 53 86q-36 30 -36 73q0 41 33 68t85 27t85.5 -27t33.5 -68q0 -43 -36 -73q53 -29 53 -86zM126 113q0 -15 11 -25t28 -9q38 2 38 35q0 15 -11 24.5t-29 9.5q-16 0 -26.5 -10t-10.5 -25zM116 -34
q0 -19 13 -30.5t35 -11.5t35.5 11.5t13.5 30.5q0 20 -13.5 33t-35.5 13t-35 -13t-13 -33z" />
    <glyph glyph-name="nine.inferior" unicode="&#x2089;" horiz-adv-x="313" 
d="M155 217q57 0 95 -36q38 -35 38 -88q0 -51 -39 -112l-78 -122h-102l81 117h-6q-54 0 -88 33t-34 84q0 52 38 88q39 36 95 36zM201 93q0 20 -13 33.5t-33 13.5t-32.5 -13.5t-12.5 -33.5t13 -33.5t32 -13.5q20 0 33 13.5t13 33.5z" />
    <glyph glyph-name="franc" unicode="&#x20a3;" horiz-adv-x="889" 
d="M221 287v-287h-131v703h412v-120h-281v-177h257v-119h-257zM823 399q-65 0 -103 -41.5t-38 -111.5v-246h-125v507h119v-90q51 99 153 99q14 0 28 -2v-119q-15 4 -34 4z" />
    <glyph glyph-name="Euro" unicode="&#x20ac;" horiz-adv-x="672" 
d="M247 377v-52h150v-88h-150q3 -60 36 -93t89 -33q58 0 90.5 33.5t32.5 94.5h131q0 -119 -70 -186q-70 -66 -185 -66q-111 0 -182 66q-70 66 -73 184h-71v88h71v52h-71v88h71q3 118 73 184q70 67 182 67q115 0 185 -67q70 -66 70 -185h-131q0 60 -33 94t-90 34
q-56 0 -89 -33.5t-36 -93.5h150v-88h-150z" />
    <glyph glyph-name="uni2113" unicode="&#x2113;" horiz-adv-x="463" 
d="M111 183v24l-68 -38v120l68 39v199q0 87 46 138t124 51q72 0 116 -42.5t44 -108.5q0 -151 -185 -272l-19 -12v-87q0 -53 14.5 -74t50.5 -21q46 0 86 33v-113q-45 -32 -112 -32q-84 0 -124.5 47.5t-40.5 148.5zM286 606q-49 0 -49 -68v-132q91 67 91 151q0 22 -11 35.5
t-31 13.5z" />
    <glyph glyph-name="trademark" unicode="&#x2122;" horiz-adv-x="862" 
d="M221 620v-297h-88v297h-101v83h290v-83h-101zM444 547v-224h-86v380h98l118 -231l121 231h94v-380h-85v221l-113 -221h-35z" />
    <glyph glyph-name="Omega" unicode="&#x2126;" horiz-adv-x="799" 
d="M351 148v-148h-288v119h140q-154 111 -154 270q0 139 99 233q100 94 251 94q153 0 251 -94q100 -94 100 -233q0 -159 -153 -270h139v-119h-288v148q168 88 168 235q0 86 -62 148q-61 61 -155 61q-93 0 -154 -61q-62 -62 -62 -148q0 -150 168 -235z" />
    <glyph glyph-name="estimated" unicode="&#x212e;" horiz-adv-x="809" 
d="M412 50q82 0 151.5 42t107.5 115h81q-55 -105 -144 -162.5t-197 -57.5q-153 0 -260 106q-107 107 -107 258t107 258q109 107 260 107q163 0 263 -108q101 -109 101 -288h-551v-202q82 -68 188 -68zM411 651q-106 0 -187 -67v-199h370v204q-81 62 -183 62z" />
    <glyph glyph-name="uni2153" unicode="&#x2153;" horiz-adv-x="733" 
d="M210 703v-352h-88v268h-68l21 84h135zM29 0l539 703h103l-539 -703h-103zM419 105h87q6 -38 46 -38q21 0 33 11t12 30q0 43 -52 43h-29v63h26q46 0 46 36q0 35 -36 35t-41 -37h-88q3 49 38.5 79.5t92.5 30.5q55 0 88.5 -26.5t33.5 -68.5q0 -53 -45 -78q55 -23 55 -83
q0 -47 -37 -77.5t-97 -30.5q-59 0 -94.5 30t-38.5 81z" />
    <glyph glyph-name="uni2154" unicode="&#x2154;" horiz-adv-x="786" 
d="M306 435v-84h-260v70l129 118q30 29 30 53q0 15 -10 24t-27 9t-27.5 -11t-11.5 -28h-90q3 54 40 88.5t94 34.5q56 0 90 -30t34 -79q0 -31 -15 -57.5t-55 -63.5l-48 -44h127zM89 0l539 703h103l-539 -703h-103zM479 105h87q6 -38 46 -38q21 0 33 11t12 30q0 43 -52 43h-29
v63h26q46 0 46 36q0 35 -36 35t-41 -37h-88q3 49 38.5 79.5t92.5 30.5q55 0 88.5 -26.5t33.5 -68.5q0 -53 -45 -78q55 -23 55 -83q0 -47 -37 -77.5t-97 -30.5q-59 0 -94.5 30t-38.5 81z" />
    <glyph glyph-name="uni2155" unicode="&#x2155;" horiz-adv-x="731" 
d="M29 0l539 703h103l-539 -703h-103zM210 703v-352h-88v268h-68l21 84h135zM441 151l18 201h203v-80h-130l-4 -48q21 4 34 4q56 0 88.5 -31t32.5 -83t-36 -86t-92 -34q-55 0 -92.5 30.5t-42.5 79.5h90q8 -29 42 -29q19 0 31 11.5t12 28.5q0 18 -12.5 30t-30.5 12
q-25 0 -37 -16z" />
    <glyph glyph-name="uni2156" unicode="&#x2156;" horiz-adv-x="780" 
d="M306 435v-84h-260v70l129 118q30 29 30 53q0 15 -10 24t-27 9t-27.5 -11t-11.5 -28h-90q3 54 40 88.5t94 34.5q56 0 90 -30t34 -79q0 -31 -15 -57.5t-55 -63.5l-48 -44h127zM85 0l539 703h103l-539 -703h-103zM495 151l18 201h203v-80h-130l-4 -48q21 4 34 4
q56 0 88.5 -31t32.5 -83t-36 -86t-92 -34q-55 0 -92.5 30.5t-42.5 79.5h90q8 -29 42 -29q19 0 31 11.5t12 28.5q0 18 -12.5 30t-30.5 12q-25 0 -37 -16z" />
    <glyph glyph-name="uni2157" unicode="&#x2157;" horiz-adv-x="752" 
d="M57 0l539 703h103l-539 -703h-103zM469 151l18 201h203v-80h-130l-4 -48q21 4 34 4q56 0 88.5 -31t32.5 -83t-36 -86t-92 -34q-55 0 -92.5 30.5t-42.5 79.5h90q8 -29 42 -29q19 0 31 11.5t12 28.5q0 18 -12.5 30t-30.5 12q-25 0 -37 -16zM39 456h87q6 -38 46 -38
q21 0 33 11t12 30q0 43 -52 43h-29v63h26q46 0 46 36q0 35 -36 35t-41 -37h-88q3 49 38.5 79.5t92.5 30.5q55 0 88.5 -26.5t33.5 -68.5q0 -53 -45 -78q55 -23 55 -83q0 -47 -37 -77.5t-97 -30.5q-59 0 -94.5 30t-38.5 81z" />
    <glyph glyph-name="uni2158" unicode="&#x2158;" horiz-adv-x="783" 
d="M32 407v71l127 225h101l-125 -216h69v54l87 19v-73h26v-80h-26v-56h-87v56h-172zM84 0l539 703h103l-539 -703h-103zM496 151l18 201h203v-80h-130l-4 -48q21 4 34 4q56 0 88.5 -31t32.5 -83t-36 -86t-92 -34q-55 0 -92.5 30.5t-42.5 79.5h90q8 -29 42 -29q19 0 31 11.5
t12 28.5q0 18 -12.5 30t-30.5 12q-25 0 -37 -16z" />
    <glyph glyph-name="uni2159" unicode="&#x2159;" horiz-adv-x="711" 
d="M531 -6q-57 0 -95 35q-38 36 -38 89q0 51 39 112l78 122h102l-81 -117h6q54 0 88 -33t34 -84q0 -52 -39 -88q-37 -36 -94 -36zM485 118q0 -20 13 -33.5t33 -13.5t32.5 13.5t12.5 33.5t-13 33.5t-32 13.5q-20 0 -33 -13.5t-13 -33.5zM210 703v-352h-88v268h-68l21 84h135z
M29 0l539 703h103l-539 -703h-103z" />
    <glyph glyph-name="uni215A" unicode="&#x215a;" horiz-adv-x="742" 
d="M566 -6q-57 0 -95 35q-38 36 -38 89q0 51 39 112l78 122h102l-81 -117h6q54 0 88 -33t34 -84q0 -52 -39 -88q-38 -36 -94 -36zM520 118q0 -20 13 -33.5t33 -13.5t32.5 13.5t12.5 33.5t-13 33.5t-32 13.5q-20 0 -33 -13.5t-13 -33.5zM64 0l539 703h103l-539 -703h-103z
M55 502l18 201h203v-80h-130l-4 -48q21 4 34 4q56 0 88.5 -31t32.5 -83t-36 -86t-92 -34q-55 0 -92.5 30.5t-42.5 79.5h90q8 -29 42 -29q19 0 31 11.5t12 28.5q0 18 -12.5 30t-30.5 12q-25 0 -37 -16z" />
    <glyph glyph-name="uni215B" unicode="&#x215b;" horiz-adv-x="729" 
d="M29 0l539 703h103l-539 -703h-103zM210 703v-352h-88v268h-68l21 84h135zM684 104q0 -48 -38 -79t-98 -31q-59 0 -97 31.5t-38 78.5q0 57 53 86q-36 30 -36 73q0 41 33 68t85 27t85.5 -27t33.5 -68q0 -43 -36 -73q53 -29 53 -86zM510 254q0 -15 11 -25t28 -9q38 2 38 35
q0 15 -11 24.5t-29 9.5q-16 0 -26.5 -10t-10.5 -25zM500 107q0 -19 13 -30.5t35 -11.5t35.5 11.5t13.5 30.5q0 20 -13.5 33t-35.5 13t-35 -13t-13 -33z" />
    <glyph glyph-name="uni215C" unicode="&#x215c;" horiz-adv-x="753" 
d="M59 0l539 703h103l-539 -703h-103zM714 104q0 -48 -38 -79t-98 -31q-59 0 -97 31.5t-38 78.5q0 57 53 86q-36 30 -36 73q0 41 33 68t85 27t85.5 -27t33.5 -68q0 -43 -36 -73q53 -29 53 -86zM540 254q0 -15 11 -25t28 -9q38 2 38 35q0 15 -11 24.5t-29 9.5
q-16 0 -26.5 -10t-10.5 -25zM530 107q0 -19 13 -30.5t35 -11.5t35.5 11.5t13.5 30.5q0 20 -13.5 33t-35.5 13t-35 -13t-13 -33zM38 456h87q6 -38 46 -38q21 0 33 11t12 30q0 43 -52 43h-29v63h26q46 0 46 36q0 35 -36 35t-41 -37h-88q3 49 38.5 79.5t92.5 30.5
q55 0 88.5 -26.5t33.5 -68.5q0 -53 -45 -78q55 -23 55 -83q0 -47 -37 -77.5t-97 -30.5q-59 0 -94.5 30t-38.5 81z" />
    <glyph glyph-name="uni215D" unicode="&#x215d;" horiz-adv-x="759" 
d="M64 0l539 703h103l-539 -703h-103zM55 502l18 201h203v-80h-130l-4 -48q21 4 34 4q56 0 88.5 -31t32.5 -83t-36 -86t-92 -34q-55 0 -92.5 30.5t-42.5 79.5h90q8 -29 42 -29q19 0 31 11.5t12 28.5q0 18 -12.5 30t-30.5 12q-25 0 -37 -16zM718 104q0 -48 -38 -79t-98 -31
q-59 0 -97 31.5t-38 78.5q0 57 53 86q-36 30 -36 73q0 41 33 68t85 27t85.5 -27t33.5 -68q0 -43 -36 -73q53 -29 53 -86zM544 254q0 -15 11 -25t28 -9q38 2 38 35q0 15 -11 24.5t-29 9.5q-16 0 -26.5 -10t-10.5 -25zM534 107q0 -19 13 -30.5t35 -11.5t35.5 11.5t13.5 30.5
q0 20 -13.5 33t-35.5 13t-35 -13t-13 -33z" />
    <glyph glyph-name="uni215E" unicode="&#x215e;" horiz-adv-x="733" 
d="M86 351l128 268h-148v84h247v-72l-129 -280h-98zM30 0l539 703h103l-539 -703h-103zM690 104q0 -48 -38 -79t-98 -31q-59 0 -97 31.5t-38 78.5q0 57 53 86q-36 30 -36 73q0 41 33 68t85 27t85.5 -27t33.5 -68q0 -43 -36 -73q53 -29 53 -86zM516 254q0 -15 11 -25t28 -9
q38 2 38 35q0 15 -11 24.5t-29 9.5q-16 0 -26.5 -10t-10.5 -25zM506 107q0 -19 13 -30.5t35 -11.5t35.5 11.5t13.5 30.5q0 20 -13.5 33t-35.5 13t-35 -13t-13 -33z" />
    <glyph glyph-name="uni215F" unicode="&#x215f;" horiz-adv-x="703" 
d="M224 703v-352h-88v268h-68l21 84h135zM41 0l539 703h103l-539 -703h-103z" />
    <glyph glyph-name="partialdiff" unicode="&#x2202;" horiz-adv-x="610" 
d="M28 241q0 100 68 171t167 71q112 0 175 -72q-54 211 -305 227v116q210 -6 321 -128.5t111 -343.5q0 -126 -78 -211q-78 -84 -194 -84q-112 0 -189 74q-76 73 -76 180zM441 241q0 58 -41 97q-40 39 -104 39q-62 0 -103 -39t-41 -97t41 -99q41 -39 103 -39q64 0 104 39
q41 41 41 99z" />
    <glyph glyph-name="increment" unicode="&#x2206;" horiz-adv-x="656" 
d="M32 96l227 607h140l225 -607v-96h-592v96zM478 117l-153 434l-153 -434h306z" />
    <glyph glyph-name="product" unicode="&#x220f;" horiz-adv-x="756" 
d="M252 583v-583h-131v583h-84v120h682v-120h-84v-583h-130v583h-253z" />
    <glyph glyph-name="summation" unicode="&#x2211;" horiz-adv-x="606" 
d="M248 361l-206 250v92h512v-120h-341l173 -214l-178 -249h356v-120h-519v85z" />
    <glyph glyph-name="minus" unicode="&#x2212;" horiz-adv-x="570" 
d="M514 301h-458v99h458v-99z" />
    <glyph glyph-name="uni2215" unicode="&#x2215;" horiz-adv-x="158" 
d="M-242 0l539 703h103l-539 -703h-103z" />
    <glyph glyph-name="uni2219" unicode="&#x2219;" horiz-adv-x="432" 
d="M350 367q0 -53 -38 -91q-37 -37 -93 -37q-57 0 -94 37t-37 91q0 57 37 93.5t94 36.5t94 -37t37 -93z" />
    <glyph glyph-name="radical" unicode="&#x221a;" horiz-adv-x="583" 
d="M575 703l-222 -703h-140l-117 362h-75v110h173l90 -299l162 530h129z" />
    <glyph glyph-name="infinity" unicode="&#x221e;" horiz-adv-x="807" 
d="M222 439q114 0 184 -110q72 112 178 112q74 0 125 -52q52 -51 52 -128t-52 -128q-51 -51 -125 -51q-109 0 -184 115q-72 -116 -178 -116q-74 0 -125 51t-51 128t51 128t125 51zM226 341q-35 0 -58 -22.5t-23 -58.5t23 -58.5t58 -22.5q60 0 105 82q-19 36 -47 58t-58 22z
M582 179q35 0 57.5 22.5t22.5 58.5t-22.5 58.5t-57.5 22.5q-62 0 -105 -77q43 -85 105 -85z" />
    <glyph glyph-name="integral" unicode="&#x222b;" horiz-adv-x="413" 
d="M269 555v-584q0 -197 -190 -197q-46 0 -77 9v110q31 -8 55 -8q44 0 65 21t21 66v585q0 197 190 197q34 0 77 -9v-110q-35 7 -55 7q-45 0 -65.5 -21t-20.5 -66z" />
    <glyph glyph-name="approxequal" unicode="&#x2248;" horiz-adv-x="570" 
d="M309 500q47 -22 79 -22q33 0 56 13.5t49 50.5v-112q-33 -58 -113 -58q-48 0 -101 27q-48 25 -88 25q-66 0 -112 -69v108q15 27 48 46.5t69 19.5q44 0 113 -29zM309 300q47 -22 79 -22q33 0 56 13.5t49 50.5v-112q-33 -58 -113 -58q-48 0 -101 27q-48 25 -88 25
q-66 0 -112 -69v108q15 27 48 46.5t69 19.5q44 0 113 -29z" />
    <glyph glyph-name="notequal" unicode="&#x2260;" horiz-adv-x="570" 
d="M261 192l-45 -87h-100l45 87h-105v100h156l60 116h-216v100h267l45 87h100l-45 -87h91v-100h-142l-60 -116h202v-100h-253z" />
    <glyph glyph-name="lessequal" unicode="&#x2264;" horiz-adv-x="570" 
d="M491 280v-121l-419 190v100l419 190v-121l-264 -119zM491 3h-419v100h419v-100z" />
    <glyph glyph-name="greaterequal" unicode="&#x2265;" horiz-adv-x="570" 
d="M498 349l-419 -190v121l264 119l-264 119v121l419 -190v-100zM498 103v-100h-419v100h419z" />
    <glyph glyph-name="lozenge" unicode="&#x25ca;" horiz-adv-x="614" 
d="M349 -13h-84l-234 378l237 351h78l237 -351zM452 365l-144 213l-146 -213l146 -235z" />
    <glyph glyph-name="zero.denominator" unicode="&#xf655;" horiz-adv-x="344" 
d="M308 231v-108q0 -60 -37 -94.5t-99 -34.5t-99 34.5t-37 94.5v108q0 59 37 93t99 34t99 -34t37 -93zM172 275q-22 0 -35 -13.5t-13 -35.5v-100q0 -22 13 -35.5t35 -13.5t35 13.5t13 35.5v100q0 22 -13 35.5t-35 13.5z" />
    <glyph glyph-name="one.denominator" unicode="&#xf656;" horiz-adv-x="220" 
d="M171 352v-352h-88v268h-68l21 84h135z" />
    <glyph glyph-name="two.denominator" unicode="&#xf657;" horiz-adv-x="326" 
d="M295 84v-84h-260v70l129 118q30 29 30 53q0 15 -10 24t-27 9t-27.5 -11t-11.5 -28h-90q3 54 40 88.5t94 34.5q56 0 90 -30t34 -79q0 -31 -15 -57.5t-55 -63.5l-48 -44h127z" />
    <glyph glyph-name="three.denominator" unicode="&#xf658;" horiz-adv-x="324" 
d="M27 105h87q6 -38 46 -38q21 0 33 11t12 30q0 43 -52 43h-29v63h26q46 0 46 36q0 35 -36 35t-41 -37h-88q3 49 38.5 79.5t92.5 30.5q55 0 88.5 -26.5t33.5 -68.5q0 -53 -45 -78q55 -23 55 -83q0 -47 -37 -77.5t-97 -30.5q-59 0 -94.5 30t-38.5 81z" />
    <glyph glyph-name="four.denominator" unicode="&#xf659;" horiz-adv-x="332" 
d="M23 56v71l127 225h101l-125 -216h69v54l87 19v-73h26v-80h-26v-56h-87v56h-172z" />
    <glyph glyph-name="five.denominator" unicode="&#xf65a;" horiz-adv-x="313" 
d="M43 151l18 201h203v-80h-130l-4 -48q21 4 34 4q56 0 88.5 -31t32.5 -83t-36 -86t-92 -34q-55 0 -92.5 30.5t-42.5 79.5h90q8 -29 42 -29q19 0 31 11.5t12 28.5q0 18 -12.5 30t-30.5 12q-25 0 -37 -16z" />
    <glyph glyph-name="six.denominator" unicode="&#xf65b;" horiz-adv-x="313" 
d="M158 -6q-57 0 -95 35q-38 36 -38 89q0 51 39 112l78 122h102l-81 -117h6q54 0 88 -33t34 -84q0 -52 -39 -88q-38 -36 -94 -36zM112 118q0 -20 13 -33.5t33 -13.5t32.5 13.5t12.5 33.5t-13 33.5t-32 13.5q-20 0 -33 -13.5t-13 -33.5z" />
    <glyph glyph-name="seven.denominator" unicode="&#xf65c;" horiz-adv-x="293" 
d="M45 0l128 268h-148v84h247v-72l-129 -280h-98z" />
    <glyph glyph-name="eight.denominator" unicode="&#xf65d;" horiz-adv-x="330" 
d="M300 104q0 -48 -38 -79t-98 -31q-59 0 -97 31.5t-38 78.5q0 57 53 86q-36 30 -36 73q0 41 33 68t85 27t85.5 -27t33.5 -68q0 -43 -36 -73q53 -29 53 -86zM126 254q0 -15 11 -25t28 -9q38 2 38 35q0 15 -11 24.5t-29 9.5q-16 0 -26.5 -10t-10.5 -25zM116 107
q0 -19 13 -30.5t35 -11.5t35.5 11.5t13.5 30.5q0 20 -13.5 33t-35.5 13t-35 -13t-13 -33z" />
    <glyph glyph-name="nine.denominator" unicode="&#xf65e;" horiz-adv-x="313" 
d="M155 358q57 0 95 -36q38 -35 38 -88q0 -51 -39 -112l-78 -122h-102l81 117h-6q-54 0 -88 33t-34 84q0 52 38 88q39 36 95 36zM201 234q0 20 -13 33.5t-33 13.5t-32.5 -13.5t-12.5 -33.5t13 -33.5t32 -13.5q20 0 33 13.5t13 33.5z" />
    <glyph glyph-name="zero.numerator" unicode="&#xf661;" horiz-adv-x="344" 
d="M308 582v-108q0 -60 -37 -94.5t-99 -34.5t-99 34.5t-37 94.5v108q0 59 37 93t99 34t99 -34t37 -93zM172 626q-22 0 -35 -13.5t-13 -35.5v-100q0 -22 13 -35.5t35 -13.5t35 13.5t13 35.5v100q0 22 -13 35.5t-35 13.5z" />
    <glyph glyph-name="one.numerator" unicode="&#xf662;" horiz-adv-x="218" 
d="M170 703v-352h-88v268h-68l21 84h135z" />
    <glyph glyph-name="two.numerator" unicode="&#xf663;" horiz-adv-x="327" 
d="M296 435v-84h-260v70l129 118q30 29 30 53q0 15 -10 24t-27 9t-27.5 -11t-11.5 -28h-90q3 54 40 88.5t94 34.5q56 0 90 -30t34 -79q0 -31 -15 -57.5t-55 -63.5l-48 -44h127z" />
    <glyph glyph-name="three.numerator" unicode="&#xf664;" horiz-adv-x="324" 
d="M27 456h87q6 -38 46 -38q21 0 33 11t12 30q0 43 -52 43h-29v63h26q46 0 46 36q0 35 -36 35t-41 -37h-88q3 49 38.5 79.5t92.5 30.5q55 0 88.5 -26.5t33.5 -68.5q0 -53 -45 -78q55 -23 55 -83q0 -47 -37 -77.5t-97 -30.5q-59 0 -94.5 30t-38.5 81z" />
    <glyph glyph-name="four.numerator" unicode="&#xf665;" horiz-adv-x="333" 
d="M23 407v71l127 225h101l-125 -216h69v54l87 19v-73h26v-80h-26v-56h-87v56h-172z" />
    <glyph glyph-name="five.numerator" unicode="&#xf666;" horiz-adv-x="311" 
d="M42 502l18 201h203v-80h-130l-4 -48q21 4 34 4q56 0 88.5 -31t32.5 -83t-36 -86t-92 -34q-55 0 -92.5 30.5t-42.5 79.5h90q8 -29 42 -29q19 0 31 11.5t12 28.5q0 18 -12.5 30t-30.5 12q-25 0 -37 -16z" />
    <glyph glyph-name="six.numerator" unicode="&#xf667;" horiz-adv-x="314" 
d="M159 345q-57 0 -95 35q-38 36 -38 89q0 51 39 112l78 122h102l-81 -117h6q54 0 88 -33t34 -84q0 -52 -39 -88q-37 -36 -94 -36zM113 469q0 -20 13 -33.5t33 -13.5t32.5 13.5t12.5 33.5t-13 33.5t-32 13.5q-20 0 -33 -13.5t-13 -33.5z" />
    <glyph glyph-name="seven.numerator" unicode="&#xf668;" horiz-adv-x="292" 
d="M44 351l128 268h-148v84h247v-72l-129 -280h-98z" />
    <glyph glyph-name="eight.numerator" unicode="&#xf669;" horiz-adv-x="330" 
d="M300 455q0 -48 -38 -79t-98 -31q-59 0 -97 31.5t-38 78.5q0 57 53 86q-36 30 -36 73q0 41 33 68t85 27t85.5 -27t33.5 -68q0 -43 -36 -73q53 -29 53 -86zM126 605q0 -15 11 -25t28 -9q38 2 38 35q0 15 -11 24.5t-29 9.5q-16 0 -26.5 -10t-10.5 -25zM116 458
q0 -19 13 -30.5t35 -11.5t35.5 11.5t13.5 30.5q0 20 -13.5 33t-35.5 13t-35 -13t-13 -33z" />
    <glyph glyph-name="nine.numerator" unicode="&#xf66a;" horiz-adv-x="314" 
d="M155 709q57 0 95 -36q38 -35 38 -88q0 -51 -39 -112l-78 -122h-102l81 117h-6q-54 0 -88 33t-34 84q0 52 38 88q39 36 95 36zM201 585q0 20 -13 33.5t-33 13.5t-32.5 -13.5t-12.5 -33.5t13 -33.5t32 -13.5q20 0 33 13.5t13 33.5z" />
    <glyph glyph-name="commaaccent" unicode="&#xf6c3;" horiz-adv-x="200" 
d="M158 -149l-53 -115h-67l41 88q-20 6 -32 23t-12 38q0 28 18.5 46.5t46.5 18.5q29 0 47.5 -18.5t18.5 -46.5q0 -16 -8 -34z" />
    <glyph glyph-name="uniF8FF" unicode="&#xf8ff;" horiz-adv-x="1438" 
d="M741 523v-36h31q11 0 11 -10v-27q0 -11 -11 -11h-31v-77q0 -18 24 -18h10q12 0 12 -11v-27q0 -11 -12 -11h-19q-42 0 -60 13.5t-18 46.5v84h-17q-11 0 -11 11v25q0 7 11 11l16 1h1v36q0 12 12 12h39q12 0 12 -12zM350 488h38q11 0 11 -11v-6q28 21 58 21q34 0 51 -26
q29 26 64 26q26 0 41.5 -15t15.5 -39v-132q0 -11 -12 -11h-38q-13 0 -13 11v116q0 10 -3 13t-11 3q-18 0 -38 -15v-117q0 -11 -11 -11h-38q-12 0 -12 11v116q0 10 -3 13t-12 3q-16 0 -37 -15v-117q0 -11 -10 -11h-41q-11 0 -11 11v171q0 11 11 11zM1017 488h36q12 0 12 -11
l1 -7q28 22 60 22q57 0 57 -60v-80q0 -62 -57 -62q-31 0 -58 21v-83q0 -11 -11 -11h-40q-11 0 -11 11v249q0 11 11 11zM224 492q82 0 82 -61v-43q0 -11 -12 -11h-93v-23q0 -18 23 -18q25 0 25 18v1q0 11 11 11h32q12 0 12 -11v-3q0 -62 -80 -62q-85 0 -85 62v79q0 61 85 61z
M1298 492q82 0 82 -61v-43q0 -11 -11 -11h-94v-23q0 -18 23 -18q24 0 24 18v1q0 11 12 11h32q11 0 11 -11v-3q0 -62 -79 -62q-84 0 -84 62v79q0 61 84 61zM860 477l22 -70q7 -26 7 -37q1 1 10 35l24 72q4 11 12 11h37q13 0 11 -11l-84 -249q-5 -11 -14 -11h-28q-13 0 -11 11
l16 59l-65 190q-5 11 11 11h40q8 0 12 -11zM224 446q-23 0 -23 -18v-11h48v11q0 18 -25 18zM1298 446q-23 0 -23 -18v-11h47v11q0 18 -24 18zM1105 344q17 0 17 17v62q0 15 -17 15q-12 0 -37 -15v-63q26 -16 37 -16zM562 237l4 -5v-41h47q4 0 4 -4v-8q0 -5 -4 -5h-47v-124
q0 -33 50 -33h6q5 0 5 -5v-7q0 -5 -5 -5h-9q-35 0 -50.5 11t-15.5 37v126h-25q-4 0 -4 5v7q0 4 4 5h25v41q0 5 4 5h11zM414 195q68 0 68 -48v-49q0 -4 -4 -4h-114v-48q0 -33 50 -33q48 0 48 33v8q0 4 6 4h9q5 0 5 -4v-9q0 -48 -69 -48t-69 48v102q0 48 70 48zM164 188v-17
q34 24 67 24q26 0 40 -12.5t14 -33.5v-144q0 -5 -4 -5h-11q-4 0 -4 5v140q0 31 -39 31t-62 -23v-148q0 -5 -4 -5h-11q-5 0 -5 5v183q0 4 5 4h9q5 0 5 -4zM414 178q-50 0 -50 -32v-36h98v36q0 32 -48 32zM80 35v-30q0 -5 -5 -5h-11q-4 0 -4 5v30q0 5 4 5h11q5 0 5 -5z" />
    <glyph glyph-name="f_f" unicode="&#xfb00;" horiz-adv-x="733" 
d="M239 395v-395h-125v395h-82v112h82v50q0 97 48 147t142 50q45 0 76 -9v-110q-34 7 -55 7q-45 0 -65.5 -20.5t-20.5 -66.5v-48h228v50q0 97 48 147t142 50q45 0 77 -9v-110q-34 7 -55 7q-45 0 -65.5 -20.5t-20.5 -66.5v-48h124v-112h-124v-395h-126v395h-228z" />
    <glyph glyph-name="f_f_i" unicode="&#xfb03;" horiz-adv-x="1006" 
d="M239 395v-395h-125v395h-82v112h82v50q0 97 48 147t142 50q45 0 76 -9v-110q-34 7 -55 7q-45 0 -65.5 -20.5t-20.5 -66.5v-48h228v50q0 97 48 147t142 50q38 0 72 -8v-110q-30 6 -50 6q-45 0 -65.5 -20.5t-20.5 -66.5v-48h124v-112h-124v-395h-126v395h-228zM788 661
q0 34 22.5 56t58.5 22t59 -22t23 -56t-23 -56.5t-59 -22.5t-58.5 22.5t-22.5 56.5zM932 507v-507h-125v507h125z" />
    <glyph glyph-name="f_f_l" unicode="&#xfb04;" horiz-adv-x="1006" 
d="M239 395v-395h-125v395h-82v112h82v50q0 97 48 147t142 50q45 0 76 -9v-110q-34 7 -55 7q-45 0 -65.5 -20.5t-20.5 -66.5v-48h228v50q0 97 48 147t142 50q38 0 72 -8v-110q-30 6 -50 6q-45 0 -65.5 -20.5t-20.5 -66.5v-48h124v-112h-124v-395h-126v395h-228zM807 0v741
h125v-741h-125z" />
    <glyph glyph-name="longs_t" unicode="&#xfb05;" horiz-adv-x="690" 
d="M198 555v-555h-125v557q0 197 190 197q45 0 76 -9v-110q-29 7 -54 7q-45 0 -66 -20.5t-21 -66.5zM315 507h81v150l125 29v-179h125v-112h-125v-219q0 -42 16.5 -60t53.5 -18t71 21v-110q-45 -22 -99 -22q-167 0 -167 179v229h-81v112z" />
    <glyph glyph-name="zero.tab" unicode="&#xff10;" horiz-adv-x="600" 
d="M560 457v-210q0 -123 -72 -192q-73 -68 -189 -68t-189 68q-71 69 -71 192v210q0 122 71 190q72 69 189 69t189 -69q72 -68 72 -190zM298 592q-60 0 -94.5 -36t-34.5 -100v-209q0 -64 34 -99.5t95 -35.5q62 0 96.5 35.5t34.5 99.5v209q0 65 -34.5 100.5t-96.5 35.5z" />
    <glyph glyph-name="one.tab" unicode="&#xff11;" horiz-adv-x="600" 
d="M527 119v-119h-433v119h151v464h-141l31 120h241v-584h151z" />
    <glyph glyph-name="two.tab" unicode="&#xff12;" horiz-adv-x="600" 
d="M558 120v-120h-511v101l280 264q74 69 74 131q0 43 -29 69.5t-77 26.5q-53 0 -86 -32.5t-38 -87.5h-134q6 109 78 176q73 68 187 68q107 0 171 -58q66 -58 66 -152q0 -61 -28 -113q-29 -53 -108 -126l-159 -147h314z" />
    <glyph glyph-name="three.tab" unicode="&#xff13;" horiz-adv-x="600" 
d="M43 206h132q5 -43 39.5 -70.5t84.5 -27.5q51 0 84.5 30t33.5 75q0 50 -32.5 77.5t-90.5 27.5h-74v96h78q44 0 71.5 25.5t27.5 68.5q0 39 -28 63.5t-74 24.5q-47 0 -76 -24.5t-32 -66.5h-132q5 92 71 151q68 60 173 60q103 0 165 -54q63 -54 63 -134q0 -113 -92 -157
q115 -44 115 -171q0 -90 -69 -152q-67 -61 -180 -61q-112 0 -182 60q-68 61 -76 159z" />
    <glyph glyph-name="four.tab" unicode="&#xff14;" horiz-adv-x="600" 
d="M22 133v99l268 471h151l-263 -453h198v140l128 30v-170h71v-117h-71v-133h-128v133h-354z" />
    <glyph glyph-name="five.tab" unicode="&#xff15;" horiz-adv-x="600" 
d="M83 309l35 394h391v-120h-283l-14 -146q52 21 101 21q109 0 174 -63q64 -61 64 -168q0 -103 -72 -172q-71 -68 -178 -68t-181 62q-73 61 -81 160h134q6 -45 40 -73.5t83 -28.5q52 0 89 35q36 34 36 85q0 52 -34.5 85t-90.5 33q-70 0 -107 -49z" />
    <glyph glyph-name="six.tab" unicode="&#xff16;" horiz-adv-x="600" 
d="M307 -13q-110 0 -184 71q-74 72 -74 176q0 102 66 203l177 266h152l-174 -245q30 8 62 8q98 0 166 -68t68 -165q0 -103 -75 -175q-76 -71 -184 -71zM179 233q0 -55 36.5 -92t91.5 -37t91.5 37t36.5 92q0 54 -37 88q-36 36 -91 36q-54 0 -92 -36q-36 -35 -36 -88z" />
    <glyph glyph-name="seven.tab" unicode="&#xff17;" horiz-adv-x="600" 
d="M111 0l283 583h-335v120h485v-103l-287 -600h-146z" />
    <glyph glyph-name="eight.tab" unicode="&#xff18;" horiz-adv-x="600" 
d="M553 204q0 -94 -71 -156q-70 -61 -182 -61q-113 0 -183 61t-70 156q0 54 27.5 100.5t77.5 75.5q-74 57 -74 146q0 81 62 135q62 55 161 55q98 0 159 -55q63 -54 63 -135q0 -90 -74 -147q49 -28 76.5 -74t27.5 -101zM197 516q0 -39 29.5 -65t74.5 -26q46 0 74.5 25.5
t28.5 65.5t-28.5 65.5t-74.5 25.5q-45 0 -74.5 -26t-29.5 -65zM176 210q0 -47 35 -78.5t89 -31.5t89 31t35 79q0 49 -34 80t-90 31q-54 0 -89 -31.5t-35 -79.5z" />
    <glyph glyph-name="nine.tab" unicode="&#xff19;" horiz-adv-x="600" 
d="M293 716q111 0 184 -72q74 -71 74 -175q0 -102 -66 -203l-177 -266h-152l174 245q-30 -8 -62 -8q-98 0 -166 68t-68 165q0 104 75 174q75 72 184 72zM421 470q0 55 -36.5 92t-91.5 37t-91.5 -37t-36.5 -92q0 -53 36 -89q38 -35 92 -35t91 35q37 36 37 89z" />
    <glyph glyph-name="Lgeminada" horiz-adv-x="1059" 
d="M513 120v-120h-428v703h131v-583h297zM502 355q0 -36 -25 -60.5t-62 -24.5t-62 24.5t-25 60.5q0 37 24.5 61.5t62.5 24.5t62.5 -24.5t24.5 -61.5zM1043 120v-120h-428v703h131v-583h297z" />
    <glyph glyph-name="lgeminada" horiz-adv-x="699" 
d="M74 0v741h125v-741h-125zM437 355q0 -36 -25 -60.5t-62 -24.5t-62 24.5t-25 60.5q0 37 24.5 61.5t62.5 24.5t62.5 -24.5t24.5 -61.5zM500 0v741h125v-741h-125z" />
    <glyph glyph-name="caron.salt" horiz-adv-x="214" 
d="M171 634l-53 -130h-75l47 112q-22 7 -35.5 25.5t-13.5 41.5q0 30 20.5 50.5t51.5 20.5t51.5 -20.5t20.5 -50.5q0 -17 -14 -49z" />
    <glyph glyph-name="commaaccent.salt" horiz-adv-x="198" 
d="M35 670l54 116h68l-42 -88q20 -6 32 -22.5t12 -37.5q0 -28 -18.5 -46.5t-47.5 -18.5t-47.5 18.5t-18.5 46.5q0 13 8 32z" />
    <glyph glyph-name="acute.case" horiz-adv-x="336" 
d="M250 910l-83 -147h-120l82 147h121z" />
    <glyph glyph-name="grave.case" horiz-adv-x="336" 
d="M248 763h-119l-83 147h121z" />
    <glyph glyph-name="hungarumlaut.case" horiz-adv-x="358" 
d="M47 763l69 147h114l-70 -147h-113zM198 763l69 147h114l-70 -147h-113z" />
    <glyph glyph-name="circumflex.case" horiz-adv-x="364" 
d="M144 763h-109l107 147h131l107 -147h-111l-62 84z" />
    <glyph glyph-name="caron.case" horiz-adv-x="364" 
d="M139 763l-107 147h109l63 -84l62 84h111l-107 -147h-131z" />
    <glyph glyph-name="breve.case" horiz-adv-x="379" 
d="M196 752q-69 0 -113 43q-44 44 -44 107h92q0 -32 17.5 -51.5t47.5 -19.5t47.5 19.5t17.5 51.5h92q0 -64 -45 -107q-43 -43 -112 -43z" />
    <glyph glyph-name="tilde.case" horiz-adv-x="391" 
d="M227 869q21 -18 31 -18q12 0 17.5 10t8.5 37h84q-10 -135 -104 -135q-38 0 -73 33q-20 20 -35 20q-16 0 -23.5 -11.5t-10.5 -37.5h-84q8 137 110 137q39 0 79 -35z" />
    <glyph glyph-name="macron.case" horiz-adv-x="382" 
d="M326 869v-85h-280v85h280z" />
    <glyph glyph-name="dieresis.case" horiz-adv-x="356" 
d="M175 831q0 -27 -18.5 -46t-45.5 -19t-46 19t-19 46q0 28 18.5 47t46.5 19q27 0 45.5 -19t18.5 -47zM337 831q0 -27 -18.5 -46t-45.5 -19q-28 0 -47 19t-19 46q0 28 19 47t47 19q27 0 45.5 -19t18.5 -47z" />
    <glyph glyph-name="dotaccent.case" horiz-adv-x="320" 
d="M189 837q0 -30 -21 -51t-51 -21q-29 0 -50 21t-21 51q0 29 21 50.5t50 21.5t50.5 -21.5t21.5 -50.5z" />
    <glyph glyph-name="ring.case" horiz-adv-x="354" 
d="M260 859q0 -45 -32.5 -75.5t-79.5 -30.5t-79 30.5t-32 75.5t32 76t79 31q46 0 79 -31t33 -76zM108 859q0 -17 11.5 -29t28.5 -12q18 0 30 12t12 29q0 18 -12 30t-30 12q-17 0 -28.5 -12t-11.5 -30z" />
    <glyph glyph-name="G.alt" horiz-adv-x="801" 
d="M606 262h-202v101h353v-20q0 -161 -99 -258q-98 -98 -256 -98q-154 0 -258 105q-102 105 -102 260t104 259q104 105 261 105q127 0 222 -71q96 -70 127 -185h-144q-26 62 -80.5 97t-124.5 35q-99 0 -163 -69q-65 -70 -65 -171q0 -104 63 -173q63 -68 160 -68
q79 0 133 39.5t71 111.5z" />
    <glyph glyph-name="Gcircumflex.alt" horiz-adv-x="801" 
d="M337 763h-109l107 147h131l107 -147h-111l-62 84zM606 262h-202v101h353v-20q0 -161 -99 -258q-98 -98 -256 -98q-154 0 -258 105q-102 105 -102 260t104 259q104 105 261 105q127 0 222 -71q96 -70 127 -185h-144q-26 62 -80.5 97t-124.5 35q-99 0 -163 -69
q-65 -70 -65 -171q0 -104 63 -173q63 -68 160 -68q79 0 133 39.5t71 111.5z" />
    <glyph glyph-name="Gbreve.alt" horiz-adv-x="801" 
d="M606 262h-202v101h353v-20q0 -161 -99 -258q-98 -98 -256 -98q-154 0 -258 105q-102 105 -102 260t104 259q104 105 261 105q127 0 222 -71q96 -70 127 -185h-144q-26 62 -80.5 97t-124.5 35q-99 0 -163 -69q-65 -70 -65 -171q0 -104 63 -173q63 -68 160 -68
q79 0 133 39.5t71 111.5zM400 752q-69 0 -113 43q-44 44 -44 107h92q0 -32 17.5 -51.5t47.5 -19.5t47.5 19.5t17.5 51.5h92q0 -64 -45 -107q-43 -43 -112 -43z" />
    <glyph glyph-name="Gdotaccent.alt" horiz-adv-x="801" 
d="M472 837q0 -30 -21 -51t-51 -21q-29 0 -50 21t-21 51q0 29 21 50.5t50 21.5t50.5 -21.5t21.5 -50.5zM606 262h-202v101h353v-20q0 -161 -99 -258q-98 -98 -256 -98q-154 0 -258 105q-102 105 -102 260t104 259q104 105 261 105q127 0 222 -71q96 -70 127 -185h-144
q-26 62 -80.5 97t-124.5 35q-99 0 -163 -69q-65 -70 -65 -171q0 -104 63 -173q63 -68 160 -68q79 0 133 39.5t71 111.5z" />
    <glyph glyph-name="uni0122.alt" horiz-adv-x="801" 
d="M456 -161l-53 -115h-67l41 88q-20 6 -32 23t-12 38q0 28 18.5 46.5t46.5 18.5q29 0 47.5 -18.5t18.5 -46.5q0 -16 -8 -34zM606 262h-202v101h353v-20q0 -161 -99 -258q-98 -98 -256 -98q-154 0 -258 105q-102 105 -102 260t104 259q104 105 261 105q127 0 222 -71
q96 -70 127 -185h-144q-26 62 -80.5 97t-124.5 35q-99 0 -163 -69q-65 -70 -65 -171q0 -104 63 -173q63 -68 160 -68q79 0 133 39.5t71 111.5z" />
    <glyph glyph-name="a.alt" 
d="M284 -13q-106 0 -177 75q-69 75 -69 190q0 116 70 192t178 76q116 0 182 -91v78h118v-507h-118v81q-67 -94 -184 -94zM168 253q0 -65 42 -109q42 -43 107 -43q64 0 106 43q42 44 42 109t-42 109t-106 44q-65 0 -107 -44t-42 -109z" />
    <glyph glyph-name="agrave.alt" 
d="M284 -13q-106 0 -177 75q-69 75 -69 190q0 116 70 192t178 76q116 0 182 -91v78h118v-507h-118v81q-67 -94 -184 -94zM168 253q0 -65 42 -109q42 -43 107 -43q64 0 106 43q42 44 42 109t-42 109t-106 44q-65 0 -107 -44t-42 -109zM390 570h-119l-83 147h121z" />
    <glyph glyph-name="aacute.alt" 
d="M475 717l-83 -147h-120l82 147h121zM284 -13q-106 0 -177 75q-69 75 -69 190q0 116 70 192t178 76q116 0 182 -91v78h118v-507h-118v81q-67 -94 -184 -94zM168 253q0 -65 42 -109q42 -43 107 -43q64 0 106 43q42 44 42 109t-42 109t-106 44q-65 0 -107 -44t-42 -109z" />
    <glyph glyph-name="acircumflex.alt" 
d="M268 570h-109l107 147h131l107 -147h-111l-62 84zM284 -13q-106 0 -177 75q-69 75 -69 190q0 116 70 192t178 76q116 0 182 -91v78h118v-507h-118v81q-67 -94 -184 -94zM168 253q0 -65 42 -109q42 -43 107 -43q64 0 106 43q42 44 42 109t-42 109t-106 44q-65 0 -107 -44
t-42 -109z" />
    <glyph glyph-name="atilde.alt" 
d="M284 -13q-106 0 -177 75q-69 75 -69 190q0 116 70 192t178 76q116 0 182 -91v78h118v-507h-118v81q-67 -94 -184 -94zM168 253q0 -65 42 -109q42 -43 107 -43q64 0 106 43q42 44 42 109t-42 109t-106 44q-65 0 -107 -44t-42 -109zM356 678q21 -18 31 -18q12 0 17.5 10
t8.5 37h84q-10 -135 -104 -135q-38 0 -73 33q-20 20 -35 20q-16 0 -23.5 -11.5t-10.5 -37.5h-84q8 137 110 137q39 0 79 -35z" />
    <glyph glyph-name="adieresis.alt" 
d="M315 639q0 -27 -18.5 -46t-45.5 -19t-46 19t-19 46q0 28 18.5 47t46.5 19q27 0 45.5 -19t18.5 -47zM477 639q0 -27 -18.5 -46t-45.5 -19q-28 0 -47 19t-19 46q0 28 19 47t47 19q27 0 45.5 -19t18.5 -47zM284 -13q-106 0 -177 75q-69 75 -69 190q0 116 70 192t178 76
q116 0 182 -91v78h118v-507h-118v81q-67 -94 -184 -94zM168 253q0 -65 42 -109q42 -43 107 -43q64 0 106 43q42 44 42 109t-42 109t-106 44q-65 0 -107 -44t-42 -109z" />
    <glyph glyph-name="aring.alt" 
d="M442 667q0 -45 -32.5 -75.5t-79.5 -30.5t-79 30.5t-32 75.5t32 76t79 31q46 0 79 -31t33 -76zM290 667q0 -17 11.5 -29t28.5 -12q18 0 30 12t12 29q0 18 -12 30t-30 12q-17 0 -28.5 -12t-11.5 -30zM284 -13q-106 0 -177 75q-69 75 -69 190q0 116 70 192t178 76
q116 0 182 -91v78h118v-507h-118v81q-67 -94 -184 -94zM168 253q0 -65 42 -109q42 -43 107 -43q64 0 106 43q42 44 42 109t-42 109t-106 44q-65 0 -107 -44t-42 -109z" />
    <glyph glyph-name="amacron.alt" 
d="M284 -13q-106 0 -177 75q-69 75 -69 190q0 116 70 192t178 76q116 0 182 -91v78h118v-507h-118v81q-67 -94 -184 -94zM168 253q0 -65 42 -109q42 -43 107 -43q64 0 106 43q42 44 42 109t-42 109t-106 44q-65 0 -107 -44t-42 -109zM472 677v-85h-280v85h280z" />
    <glyph glyph-name="abreve.alt" 
d="M284 -13q-106 0 -177 75q-69 75 -69 190q0 116 70 192t178 76q116 0 182 -91v78h118v-507h-118v81q-67 -94 -184 -94zM168 253q0 -65 42 -109q42 -43 107 -43q64 0 106 43q42 44 42 109t-42 109t-106 44q-65 0 -107 -44t-42 -109zM332 560q-69 0 -113 43q-44 44 -44 107
h92q0 -32 17.5 -51.5t47.5 -19.5t47.5 19.5t17.5 51.5h92q0 -64 -45 -107q-43 -43 -112 -43z" />
    <glyph glyph-name="aogonek.alt" 
d="M284 -13q-106 0 -177 75q-69 75 -69 190q0 116 70 192t178 76q116 0 182 -91v78h118v-507h-25q-52 -60 -68 -85q-18 -29 -18 -51q0 -40 42 -40q26 0 49 14v-83q-36 -23 -80 -23q-49 0 -81 29t-32 74q0 33 17 67q18 33 78 99v80q-67 -94 -184 -94zM168 253q0 -65 42 -109
q42 -43 107 -43q64 0 106 43q42 44 42 109t-42 109t-106 44q-65 0 -107 -44t-42 -109z" />
    </font>
</defs>
</svg>
