<?xml version="1.0" standalone="no"?>
<!DOCTYPE svg PUBLIC "-//W3C//DTD SVG 1.1//EN" "http://www.w3.org/Graphics/SVG/1.1/DTD/svg11.dtd" >
<svg xmlns="http://www.w3.org/2000/svg" xmlns:xlink="http://www.w3.org/1999/xlink" version="1.1">
<metadata>
Created by FontForge 20170731 at Thu Nov 15 19:58:27 2018
 By Aleksey,,,
Copyright (c) 2018 by Eduardo Manso. All rights reserved. |DCNT
</metadata>
<defs>
<font id="Steradian-Regular" horiz-adv-x="662" >
  <font-face 
    font-family="Steradian"
    font-weight="400"
    font-stretch="normal"
    units-per-em="1000"
    panose-1="0 0 0 0 0 0 0 0 0 0"
    ascent="700"
    descent="-300"
    x-height="505"
    cap-height="703"
    bbox="-234 -257 1380 953"
    underline-thickness="36"
    underline-position="-196"
    unicode-range="U+000D-FF19"
  />
<missing-glyph horiz-adv-x="869" 
d="M777 352q0 -146 -103 -249t-247 -103q-146 0 -249 103t-103 249q0 145 103 248t249 103q144 0 247 -103t103 -248zM95 352q0 -138 97 -235t235 -97q136 0 233 97t97 235q0 136 -97 233q-98 98 -233 98q-137 0 -235 -98q-97 -97 -97 -233zM452 352l139 -139h-55l-112 111
l-111 -110h-55l138 138l-135 135h55l108 -107l109 109h56z" />
    <glyph glyph-name="fi" unicode="fi" horiz-adv-x="613" 
d="M209 423v-423h-92v423h-87v82h87v58q0 92 47 141t136 49q34 0 60 -6v-81q-19 5 -45 5q-55 0 -80.5 -26t-25.5 -83v-57h131v-82h-131zM419 666q0 27 18 45t47 18t47 -18t18 -45t-18.5 -45t-46.5 -18t-46.5 18t-18.5 45zM530 505v-505h-92v505h92z" />
    <glyph glyph-name="fl" unicode="fl" horiz-adv-x="613" 
d="M209 423v-423h-92v423h-87v82h87v58q0 92 47 141t136 49q34 0 60 -6v-81q-19 5 -45 5q-55 0 -80.5 -26t-25.5 -83v-57h131v-82h-131zM438 0v741h92v-741h-92z" />
    <glyph glyph-name=".notdef" horiz-adv-x="869" 
d="M777 352q0 -146 -103 -249t-247 -103q-146 0 -249 103t-103 249q0 145 103 248t249 103q144 0 247 -103t103 -248zM95 352q0 -138 97 -235t235 -97q136 0 233 97t97 235q0 136 -97 233q-98 98 -233 98q-137 0 -235 -98q-97 -97 -97 -233zM452 352l139 -139h-55l-112 111
l-111 -110h-55l138 138l-135 135h55l108 -107l109 109h56z" />
    <glyph glyph-name=".null" horiz-adv-x="0" 
 />
    <glyph glyph-name="nonmarkingreturn" horiz-adv-x="333" 
 />
    <glyph glyph-name="NULL" horiz-adv-x="0" 
 />
    <glyph glyph-name="NULL" horiz-adv-x="0" 
 />
    <glyph glyph-name="CR" unicode="&#xd;" horiz-adv-x="251" 
 />
    <glyph glyph-name="space" unicode=" " horiz-adv-x="251" 
 />
    <glyph glyph-name="exclam" unicode="!" horiz-adv-x="275" 
d="M186 454l-18 -235h-61l-18 235v249h97v-249zM207 56q0 -29 -20 -48.5t-50 -19.5q-29 0 -49 20t-20 48q0 30 19.5 49.5t49.5 19.5t50 -19.5t20 -49.5z" />
    <glyph glyph-name="quotedbl" unicode="&#x22;" horiz-adv-x="353" 
d="M152 678l-18 -219h-57l-19 219v25h94v-25zM294 678l-18 -219h-57l-19 219v25h94v-25z" />
    <glyph glyph-name="numbersign" unicode="#" horiz-adv-x="651" 
d="M458 285h106l-18 -79h-107l-41 -162h-81l41 162h-136l-41 -162h-81l41 162h-107l18 79h108l34 132h-107l19 78h107l41 163h81l-41 -163h136l41 163h81l-41 -163h107l-19 -78h-107zM411 417h-136l-34 -132h136z" />
    <glyph glyph-name="dollar" unicode="$" horiz-adv-x="552" 
d="M320 -10v-109l-92 -21v132q-91 16 -141 76.5t-53 159.5h97q3 -76 42.5 -115.5t110.5 -39.5q63 0 98.5 31.5t35.5 89.5q0 38 -21 60q-19 23 -91 51l-80 29q-84 30 -122 63q-50 48 -50 126q0 74 47.5 125t126.5 64v106l92 21v-128q81 -13 128.5 -69t53.5 -148h-98
q-12 137 -134 137q-54 0 -87 -28t-33 -75q0 -39 19 -62q21 -24 80 -44l98 -34q97 -33 132 -76q36 -43 36 -112q0 -90 -52 -145.5t-143 -64.5z" />
    <glyph glyph-name="percent" unicode="%" horiz-adv-x="762" 
d="M372 545q0 -70 -48 -118q-49 -47 -121 -47t-121 47q-47 47 -47 118q0 69 48 116q49 47 120 47q72 0 121 -47q48 -47 48 -116zM70 0l534 703h84l-534 -703h-84zM111 544q0 -39 26.5 -65.5t65.5 -26.5q40 0 66 26.5t26 65.5t-26.5 66t-65.5 27t-65.5 -27t-26.5 -66z
M727 159q0 -71 -48 -117q-49 -47 -120 -47q-72 0 -121 47q-47 47 -47 117t47 117q49 47 121 47q71 0 120 -47q48 -46 48 -117zM467 159q0 -40 26 -66t66 -26t65.5 26t25.5 66q0 39 -26 66t-65 27t-65.5 -27t-26.5 -66z" />
    <glyph glyph-name="ampersand" unicode="&#x26;" horiz-adv-x="684" 
d="M461 235l89 157h100l-130 -221l157 -171h-116l-88 96q-78 -108 -214 -108q-92 0 -155 54q-62 56 -62 136q0 138 164 210q-79 89 -79 166q0 67 53 114t129 47q75 0 124 -43t49 -107q0 -115 -156 -185zM310 639q-41 0 -67.5 -26.5t-26.5 -65.5q0 -25 12 -49q16 -28 53 -68
q65 32 91 60.5t26 65.5t-24 60t-64 23zM136 185q0 -49 38 -84q37 -34 95 -34q92 0 147 91l-164 178q-116 -56 -116 -151z" />
    <glyph glyph-name="quotesingle" unicode="'" horiz-adv-x="211" 
d="M152 678l-18 -219h-57l-19 219v25h94v-25z" />
    <glyph glyph-name="parenleft" unicode="(" horiz-adv-x="299" 
d="M270 -140h-95q-126 200 -126 476q0 263 126 474h95q-129 -226 -129 -474q0 -268 129 -476z" />
    <glyph glyph-name="parenright" unicode=")" horiz-adv-x="299" 
d="M124 -140h-95q129 208 129 476q0 248 -129 474h95q126 -211 126 -474q0 -276 -126 -476z" />
    <glyph glyph-name="asterisk" unicode="*" horiz-adv-x="462" 
d="M231 471l-75 -123l-71 48l90 109l-134 37l30 79l126 -53l-10 135h90l-10 -135l126 53l28 -80l-137 -36l91 -110l-68 -49z" />
    <glyph glyph-name="plus" unicode="+" horiz-adv-x="570" 
d="M322 313v-188h-74v188h-188v74h188v188h74v-188h188v-74h-188z" />
    <glyph glyph-name="comma" unicode="," horiz-adv-x="250" 
d="M184 19l-76 -177h-70l66 149q-22 6 -35.5 24.5t-13.5 40.5q0 30 19.5 49.5t49.5 19.5t50 -19t20 -48q0 -18 -10 -39z" />
    <glyph glyph-name="hyphen" unicode="-" horiz-adv-x="372" 
d="M66 223v88h240v-88h-240z" />
    <glyph glyph-name="period" unicode="." horiz-adv-x="243" 
d="M191 56q0 -29 -20 -48.5t-50 -19.5q-29 0 -49 20t-20 48q0 30 19.5 49.5t49.5 19.5t50 -19.5t20 -49.5z" />
    <glyph glyph-name="slash" unicode="/" horiz-adv-x="397" 
d="M34 -140l237 950h92l-237 -950h-92z" />
    <glyph glyph-name="zero" unicode="0" horiz-adv-x="630" 
d="M567 460v-216q0 -122 -69 -189q-68 -67 -183 -67t-183 67q-69 67 -69 189v216q0 120 69 187q70 68 183 68t183 -68q69 -67 69 -187zM314 624q-72 0 -113.5 -43.5t-41.5 -121.5v-215q0 -78 41.5 -121.5t113.5 -43.5q73 0 115 43.5t42 121.5v215q0 78 -42 121.5t-115 43.5z
" />
    <glyph glyph-name="one" unicode="1" horiz-adv-x="352" 
d="M259 703v-703h-96v615h-151l23 88h224z" />
    <glyph glyph-name="two" unicode="2" horiz-adv-x="594" 
d="M548 88v-88h-496v74l288 275q49 48 68.5 83.5t19.5 73.5q0 53 -36.5 85.5t-96.5 32.5q-65 0 -106 -39.5t-46 -106.5h-98q4 105 74 171t181 66q101 0 165 -56q64 -55 64 -146q0 -60 -28 -112q-27 -50 -104 -123l-201 -190h352z" />
    <glyph glyph-name="three" unicode="3" horiz-adv-x="584" 
d="M43 200h97q3 -53 45.5 -88t105.5 -35q64 0 104 37q41 38 41 92q0 59 -39.5 93.5t-105.5 34.5h-74v71h77q54 0 87.5 31.5t33.5 82.5q0 47 -35.5 77.5t-91.5 30.5q-57 0 -93.5 -31t-38.5 -80h-96q3 85 67 142t164 57q97 0 158 -53q61 -52 61 -129q0 -116 -102 -160
q60 -21 92.5 -67t32.5 -110q0 -88 -67 -148q-68 -60 -174 -60q-107 0 -176 60q-69 61 -73 152z" />
    <glyph glyph-name="four" unicode="4" horiz-adv-x="584" 
d="M24 152v73l287 478h111l-283 -465h249v158l93 22v-180h75v-86h-75v-152h-93v152h-364z" />
    <glyph glyph-name="five" unicode="5" horiz-adv-x="571" 
d="M81 318l35 385h372v-88h-293l-19 -195q56 31 120 31q107 0 170 -63q63 -62 63 -166q0 -100 -70 -167q-68 -67 -173 -67q-102 0 -175 62q-71 63 -77 159h98q5 -57 47 -95q43 -38 103 -38q64 0 108 42q44 44 44 104q0 65 -41.5 105t-108.5 40q-85 0 -125 -58z" />
    <glyph glyph-name="six" unicode="6" horiz-adv-x="576" 
d="M295 -12q-106 0 -177 70q-72 71 -72 173q0 104 69 204l185 268h112l-185 -257q36 16 90 16q94 0 162 -68q67 -67 67 -165q0 -101 -73 -171t-178 -70zM140 229q0 -64 44 -110q45 -45 111 -45q67 0 110 45q45 45 45 110q0 63 -45 106q-43 43 -110 43t-111 -43
q-44 -44 -44 -106z" />
    <glyph glyph-name="seven" unicode="7" horiz-adv-x="518" 
d="M89 0l295 615h-360v88h470v-76l-298 -627h-107z" />
    <glyph glyph-name="eight" unicode="8" horiz-adv-x="589" 
d="M539 199q0 -89 -68 -151q-67 -60 -176 -60q-108 0 -177 60q-68 62 -68 151q0 57 30.5 105t84.5 75q-40 25 -62.5 65.5t-22.5 86.5q0 79 60 131q62 53 156 53t155 -53q60 -53 60 -131q0 -101 -86 -153q54 -27 84 -74.5t30 -104.5zM168 524q0 -48 36 -79.5t92 -31.5
t91.5 31.5t35.5 79.5t-35.5 79t-91.5 31q-57 0 -92.5 -31t-35.5 -79zM145 203q0 -57 42 -94q41 -37 108 -37t108 37q42 38 42 94q0 57 -42 94.5t-108 37.5t-108 -37.5t-42 -94.5z" />
    <glyph glyph-name="nine" unicode="9" horiz-adv-x="576" 
d="M281 715q104 0 177 -71q72 -70 72 -172q0 -104 -69 -204l-185 -268h-112l185 257q-36 -16 -90 -16q-94 0 -162 68q-67 67 -67 165q0 100 73 170q74 71 178 71zM436 474q0 65 -45 110q-43 45 -110 45q-66 0 -111 -45q-44 -46 -44 -110q0 -62 44 -106q44 -43 111 -43
t110 43q45 44 45 106z" />
    <glyph glyph-name="colon" unicode=":" horiz-adv-x="271" 
d="M205 56q0 -29 -20 -48.5t-50 -19.5q-29 0 -49 20t-20 48q0 30 19.5 49.5t49.5 19.5t50 -19.5t20 -49.5zM205 448q0 -29 -20 -48.5t-50 -19.5q-29 0 -49 20t-20 48q0 30 19.5 49.5t49.5 19.5t50 -19.5t20 -49.5z" />
    <glyph glyph-name="semicolon" unicode=";" horiz-adv-x="284" 
d="M204 19l-76 -177h-70l66 149q-22 6 -35.5 24.5t-13.5 40.5q0 30 19.5 49.5t49.5 19.5t50 -19t20 -48q0 -18 -10 -39zM214 448q0 -29 -20 -48.5t-50 -19.5q-29 0 -49 20t-20 48q0 30 19.5 49.5t49.5 19.5t50 -19.5t20 -49.5z" />
    <glyph glyph-name="less" unicode="&#x3c;" horiz-adv-x="570" 
d="M474 112l-399 199v75l399 199v-89l-299 -147l299 -148v-89z" />
    <glyph glyph-name="equal" unicode="=" horiz-adv-x="570" 
d="M510 417h-450v74h450v-74zM510 209h-450v74h450v-74z" />
    <glyph glyph-name="greater" unicode="&#x3e;" horiz-adv-x="570" 
d="M96 586l399 -199v-75l-399 -199v89l299 147l-299 148v89z" />
    <glyph glyph-name="question" unicode="?" horiz-adv-x="539" 
d="M203 219v42l112 100q77 68 77 159q0 49 -34 79.5t-90 30.5q-62 0 -100 -36t-41 -98h-95q4 100 70 159q64 60 171 60q98 0 157 -52q61 -52 61 -137q0 -119 -106 -218l-96 -89h-86zM317 56q0 -29 -20 -48.5t-50 -19.5q-29 0 -49 20t-20 48q0 30 19.5 49.5t49.5 19.5
t50 -19.5t20 -49.5z" />
    <glyph glyph-name="at" unicode="@" horiz-adv-x="914" 
d="M400 81q-67 0 -109.5 44.5t-42.5 115.5q0 87 56 148q56 60 135 60q88 0 125 -68l14 60h86l-50 -212q-24 -102 63 -102q50 0 81 50.5t31 129.5q0 130 -94 214q-95 84 -237 84q-144 0 -241 -93q-96 -93 -96 -242q0 -148 97 -236t242 -88q84 0 135 22v-70q-54 -22 -135 -22
q-174 0 -295 108q-121 109 -121 286q0 176 119 292q57 54 134 83.5t161 29.5q173 0 290 -105q118 -103 118 -262q0 -115 -54.5 -182.5t-149.5 -67.5q-48 0 -84.5 24t-45.5 65q-50 -66 -132 -66zM340 246q0 -47 21 -72.5t60 -25.5q53 0 84 42q33 44 33 105q0 37 -25 61
t-64 24q-46 0 -77 -40q-32 -40 -32 -94z" />
    <glyph glyph-name="A" unicode="A" horiz-adv-x="676" 
d="M18 0l269 703h102l268 -703h-103l-63 172h-312l-63 -172h-98zM209 253h252l-126 341z" />
    <glyph glyph-name="B" unicode="B" horiz-adv-x="668" 
d="M387 0h-294v703h259q104 0 169 -48q65 -47 65 -128q0 -112 -113 -162q71 -18 110.5 -63.5t39.5 -109.5q0 -88 -66 -140q-64 -52 -170 -52zM488 513q0 51 -40 81t-106 30h-153v-229h157q64 0 103 32t39 86zM524 202q0 53 -41 84.5t-108 31.5h-186v-239h186q67 0 108 33
t41 90z" />
    <glyph glyph-name="C" unicode="C" horiz-adv-x="802" 
d="M665 276h100q-25 -126 -124 -208q-98 -80 -232 -80q-154 0 -259 105q-104 107 -104 259t104 258q105 105 259 105q130 0 228 -77t126 -200h-103q-27 84 -96 135q-68 51 -156 51q-111 0 -187 -79q-75 -79 -75 -193t75 -194q76 -79 187 -79q92 0 163 54q70 53 94 143z" />
    <glyph glyph-name="D" unicode="D" horiz-adv-x="763" 
d="M338 0h-245v703h245q165 0 271 -95q106 -94 106 -254q0 -161 -106 -258q-105 -96 -271 -96zM335 612h-146v-521h146q127 0 203 70q77 71 77 193q0 119 -77 188q-76 70 -203 70z" />
    <glyph glyph-name="E" unicode="E" horiz-adv-x="582" 
d="M527 88v-88h-434v703h429v-88h-333v-215h309v-84h-309v-228h338z" />
    <glyph glyph-name="F" unicode="F" horiz-adv-x="557" 
d="M189 303v-303h-96v703h429v-88h-333v-226h309v-86h-309z" />
    <glyph glyph-name="G" unicode="G" horiz-adv-x="810" 
d="M403 353h344v-353h-80v125q-87 -137 -269 -137q-150 0 -251 105q-100 104 -100 259q0 153 103 257q103 106 257 106q120 0 214 -68q92 -67 127 -179h-105q-30 72 -93.5 114t-142.5 42q-111 0 -186 -79q-74 -80 -74 -193q0 -117 74 -197q75 -79 188 -79q103 0 169 51.5
t82 146.5h-257v79z" />
    <glyph glyph-name="H" unicode="H" horiz-adv-x="711" 
d="M189 315v-315h-96v703h96v-297h334v297h95v-703h-95v315h-334z" />
    <glyph glyph-name="I" unicode="I" horiz-adv-x="282" 
d="M189 703v-703h-96v703h96z" />
    <glyph glyph-name="J" unicode="J" horiz-adv-x="578" 
d="M396 223v480h96v-482q0 -104 -67 -168q-67 -65 -169 -65q-101 0 -168 65q-66 66 -66 169h96q0 -65 38 -104.5t100 -39.5q63 0 101.5 40t38.5 105z" />
    <glyph glyph-name="K" unicode="K" horiz-adv-x="600" 
d="M93 0v703h96v-327l290 327h115l-305 -342l309 -361h-124l-285 335v-335h-96z" />
    <glyph glyph-name="L" unicode="L" horiz-adv-x="525" 
d="M508 88v-88h-415v703h96v-615h319z" />
    <glyph glyph-name="M" unicode="M" horiz-adv-x="925" 
d="M186 544v-544h-93v703h116l255 -545l256 545h112v-703h-93v539l-257 -540h-39z" />
    <glyph glyph-name="N" unicode="N" horiz-adv-x="713" 
d="M184 543v-543h-91v703h92l344 -544v544h91v-703h-93z" />
    <glyph glyph-name="O" unicode="O" horiz-adv-x="829" 
d="M46 352q0 153 105 258q107 105 263 105t263 -105q106 -105 106 -258t-106 -259q-107 -105 -263 -105t-263 105q-105 105 -105 259zM683 352q0 114 -78 193q-76 79 -191 79t-191 -79q-77 -80 -77 -193q0 -116 76 -195q76 -78 192 -78t192 78q77 80 77 195z" />
    <glyph glyph-name="P" unicode="P" horiz-adv-x="640" 
d="M189 253v-253h-96v703h251q118 0 192 -60q75 -60 75 -161q0 -106 -75 -167q-74 -62 -192 -62h-155zM339 618h-150v-280h150q78 0 125 38.5t47 104.5q0 62 -47.5 99.5t-124.5 37.5z" />
    <glyph glyph-name="Q" unicode="Q" horiz-adv-x="830" 
d="M46 352q0 153 105 258q107 105 263 105t263 -105q106 -105 106 -258q0 -82 -33 -154.5t-94 -123.5l119 -154h-106l-84 107q-81 -39 -171 -39q-156 0 -263 105q-105 105 -105 259zM528 101l-194 250h106l158 -203q85 79 85 204q0 114 -78 193q-76 79 -191 79t-191 -79
q-77 -80 -77 -193q0 -115 77 -195q76 -79 191 -79q60 0 114 23z" />
    <glyph glyph-name="R" unicode="R" horiz-adv-x="665" 
d="M189 276v-276h-96v703h252q115 0 188 -57q73 -55 73 -152q0 -87 -58 -144.5t-157 -70.5l248 -279h-123l-242 276h-85zM340 619h-151v-264h151q75 0 120.5 37t45.5 99q0 59 -45.5 93.5t-120.5 34.5z" />
    <glyph glyph-name="S" unicode="S" horiz-adv-x="608" 
d="M298 715q111 0 176 -57.5t72 -163.5h-98q-5 67 -44 102t-107 35q-61 0 -99 -28t-38 -75q0 -42 23 -66t87 -42l101 -29q103 -30 145.5 -74.5t42.5 -116.5q0 -99 -66 -155.5t-180 -56.5q-124 0 -194.5 62t-74.5 178h97q3 -75 47.5 -115t122.5 -40q71 0 111 31.5t40 89.5
q0 40 -27 65q-27 27 -105 49l-83 24q-101 29 -143 74q-40 44 -40 117q0 85 66 138q66 54 168 54z" />
    <glyph glyph-name="T" unicode="T" horiz-adv-x="540" 
d="M317 615v-615h-95v615h-206v88h508v-88h-207z" />
    <glyph glyph-name="U" unicode="U" horiz-adv-x="688" 
d="M506 235v468h96v-471q0 -107 -73 -176q-74 -68 -186 -68q-110 0 -184 68q-73 69 -73 176v471h96v-468q0 -69 44.5 -112.5t114.5 -43.5q74 0 119.5 43t45.5 113z" />
    <glyph glyph-name="V" unicode="V" horiz-adv-x="647" 
d="M624 703l-250 -703h-102l-249 703h107l195 -575l198 575h101z" />
    <glyph glyph-name="W" unicode="W" horiz-adv-x="990" 
d="M496 535l-163 -535h-102l-206 703h103l159 -568l167 568h89l164 -562l160 562h99l-207 -703h-102z" />
    <glyph glyph-name="X" unicode="X" horiz-adv-x="652" 
d="M324 284l-208 -284h-109l260 356l-251 347h112l197 -275l201 275h108l-251 -345l264 -358h-114z" />
    <glyph glyph-name="Y" unicode="Y" horiz-adv-x="632" 
d="M365 262v-262h-96v256l-244 447h107l186 -349l189 349h100z" />
    <glyph glyph-name="Z" unicode="Z" horiz-adv-x="576" 
d="M536 88v-88h-496v78l375 537h-370v88h486v-82l-374 -533h379z" />
    <glyph glyph-name="bracketleft" unicode="[" horiz-adv-x="348" 
d="M91 810h230v-85h-138v-780h138v-85h-230v950z" />
    <glyph glyph-name="backslash" unicode="\" horiz-adv-x="397" 
d="M34 810h92l237 -950h-92z" />
    <glyph glyph-name="bracketright" unicode="]" horiz-adv-x="348" 
d="M27 725v85h230v-950h-230v85h138v780h-138z" />
    <glyph glyph-name="asciicircum" unicode="^" horiz-adv-x="570" 
d="M60 284l181 419h89l180 -419h-97l-128 304l-128 -304h-97z" />
    <glyph glyph-name="underscore" unicode="_" horiz-adv-x="440" 
d="M-1 -212v80h442v-80h-442z" />
    <glyph glyph-name="grave" unicode="`" horiz-adv-x="261" 
d="M213 572h-87l-82 145h89z" />
    <glyph glyph-name="a" unicode="a" horiz-adv-x="550" 
d="M475 0h-87v72q-28 -40 -72.5 -62t-96.5 -22q-75 0 -122 40q-47 41 -47 103q0 124 163 161l172 40v7q0 45 -31.5 72.5t-83.5 27.5q-48 0 -81 -25.5t-39 -67.5h-88q8 74 66 122q58 49 143 49q95 0 149.5 -51t54.5 -138v-328zM236 64q63 0 106 46t43 110v37l-149 -35
q-95 -23 -95 -83q0 -35 25 -55t70 -20z" />
    <glyph glyph-name="b" unicode="b" 
d="M169 87v-87h-88v741h92v-318q70 94 193 94q109 0 181 -75q73 -74 73 -188t-73 -190t-184 -76q-124 0 -194 99zM525 253q0 75 -51 128q-51 52 -127 52t-127 -52q-50 -53 -50 -128q0 -76 50 -129q51 -52 127 -52t127 52t51 129z" />
    <glyph glyph-name="c" unicode="c" horiz-adv-x="605" 
d="M310 517q97 0 167 -58q71 -59 90 -149h-92q-17 55 -62 88.5t-103 33.5q-75 0 -126 -52q-51 -51 -51 -127q0 -75 51 -128q51 -52 126 -52q59 0 105 35t62 91h91q-20 -95 -91 -153q-70 -58 -167 -58q-116 0 -192 76q-77 77 -77 189q0 111 77 188q76 76 192 76z" />
    <glyph glyph-name="d" unicode="d" 
d="M296 -12q-109 0 -182 75q-72 75 -72 188q0 114 73 190t184 76q120 0 190 -93v317h92v-741h-87v89q-34 -48 -85.5 -74.5t-112.5 -26.5zM137 252q0 -76 51 -128t127 -52q77 0 126 52q51 52 51 128t-51 129q-49 52 -126 52q-76 0 -127 -53q-51 -52 -51 -128z" />
    <glyph glyph-name="e" unicode="e" horiz-adv-x="607" 
d="M306 67q52 0 93.5 24.5t62.5 67.5h91q-26 -79 -92.5 -125t-155.5 -46q-113 0 -189 76q-75 76 -75 189q0 110 77 187t188 77q112 0 186 -74t74 -184v-32h-434q8 -71 56 -116q50 -44 118 -44zM306 438q-62 0 -107.5 -37t-61.5 -98h336q-15 63 -60 99t-107 36z" />
    <glyph glyph-name="f" unicode="f" horiz-adv-x="355" 
d="M209 423v-423h-92v423h-87v82h87v58q0 92 47 141t136 49q28 0 65 -7v-81q-31 6 -50 6q-55 0 -80.5 -26t-25.5 -83v-57h131v-82h-131z" />
    <glyph glyph-name="g" unicode="g" horiz-adv-x="630" 
d="M47 -24h91q1 -56 46 -90.5t115 -34.5q71 0 115 41t44 107v109q-65 -84 -176 -84q-103 0 -170 70q-68 71 -68 176q0 106 69 176q69 71 172 71q111 0 178 -89v77h87v-497q0 -104 -69 -169q-68 -65 -182 -65q-107 0 -179 57q-72 58 -73 145zM138 270q0 -71 46 -118
q47 -47 115 -47q69 0 115 48q47 49 47 117t-47 117q-47 48 -115 48q-69 0 -115 -48q-46 -46 -46 -117z" />
    <glyph glyph-name="h" unicode="h" horiz-adv-x="599" 
d="M173 289v-289h-92v741h92v-302q55 78 157 78q89 0 141 -55q53 -55 53 -143v-319h-92v305q0 60 -33 94t-92 34q-60 0 -97 -40.5t-37 -103.5z" />
    <glyph glyph-name="i" unicode="i" horiz-adv-x="258" 
d="M64 666q0 27 18 45t47 18t47 -18t18 -45t-18.5 -45t-46.5 -18t-46.5 18t-18.5 45zM175 505v-505h-92v505h92z" />
    <glyph glyph-name="j" unicode="j" horiz-adv-x="264" 
d="M197 668q0 -26 -17.5 -43.5t-44.5 -17.5t-44.5 17t-17.5 44t17.5 44t44.5 17t44.5 -17.5t17.5 -43.5zM89 -35v540h92v-541q0 -190 -183 -190q-5 0 -35 2v81q9 -1 19 -1q55 0 81 26.5t26 82.5z" />
    <glyph glyph-name="k" unicode="k" horiz-adv-x="514" 
d="M173 255v-255h-92v741h92v-451l200 215h112l-215 -227l251 -278h-120z" />
    <glyph glyph-name="l" unicode="l" horiz-adv-x="258" 
d="M83 0v741h92v-741h-92z" />
    <glyph glyph-name="m" unicode="m" horiz-adv-x="932" 
d="M173 289v-289h-92v505h88v-72q55 84 156 84q120 0 169 -99q55 99 172 99q87 0 139 -55q52 -53 52 -143v-319h-92v305q0 60 -32 94t-89 34t-93 -40.5t-36 -103.5v-289h-92v305q0 60 -32 94t-89 34t-93 -40.5t-36 -103.5z" />
    <glyph glyph-name="n" unicode="n" horiz-adv-x="599" 
d="M173 289v-289h-92v505h88v-71q56 83 161 83q89 0 141 -55q53 -55 53 -143v-319h-92v298q0 64 -32.5 99.5t-92.5 35.5t-97 -40.5t-37 -103.5z" />
    <glyph glyph-name="o" unicode="o" horiz-adv-x="620" 
d="M41 253q0 111 77 188q76 76 192 76q115 0 192 -77t77 -187q0 -112 -77 -189q-76 -76 -192 -76t-192 76q-77 77 -77 189zM488 253q0 75 -52 127q-51 52 -126 52t-127 -52q-51 -52 -51 -127t51 -128q51 -52 127 -52t127 52q51 53 51 128z" />
    <glyph glyph-name="p" unicode="p" 
d="M173 -212h-92v717h88v-87q71 99 197 99q109 0 181 -75q73 -74 73 -188t-73 -190t-184 -76q-120 0 -190 93v-293zM525 253q0 75 -51 128q-51 52 -127 52t-127 -52q-50 -53 -50 -128q0 -76 50 -129q51 -52 127 -52t127 52t51 129z" />
    <glyph glyph-name="q" unicode="q" 
d="M296 -12q-109 0 -182 75q-72 75 -72 188q0 114 73 190t184 76q125 0 195 -100v88h87v-717h-92v294q-71 -94 -193 -94zM137 252q0 -76 51 -128t127 -52q77 0 126 52q51 52 51 128t-51 129q-49 52 -126 52q-76 0 -127 -53q-51 -52 -51 -128z" />
    <glyph glyph-name="r" unicode="r" horiz-adv-x="380" 
d="M329 425q-70 0 -113 -44.5t-43 -115.5v-265h-92v505h88v-94q51 101 162 101q12 0 26 -2v-87q-24 2 -28 2z" />
    <glyph glyph-name="s" unicode="s" horiz-adv-x="497" 
d="M248 517q89 0 140.5 -41t55.5 -117h-94q-2 84 -103 84q-44 0 -71.5 -18t-27.5 -47q0 -28 19.5 -43.5t74.5 -27.5l61 -14q81 -19 116 -52.5t35 -91.5q0 -74 -54 -117.5t-145 -43.5q-101 0 -158 45t-60 129h96q1 -49 32 -74.5t87 -25.5q51 0 80 20.5t29 57.5q0 28 -19 45
t-65 28l-74 17q-79 18 -113 51t-34 90q0 66 53.5 106t138.5 40z" />
    <glyph glyph-name="t" unicode="t" horiz-adv-x="378" 
d="M23 505h85v157l92 22v-179h132v-82h-132v-260q0 -51 19 -72.5t63 -21.5q34 0 74 25v-82q-41 -24 -93 -24q-155 0 -155 169v266h-85v82z" />
    <glyph glyph-name="u" unicode="u" horiz-adv-x="590" 
d="M287 72q57 0 93.5 40.5t36.5 103.5v289h92v-505h-88v72q-55 -84 -156 -84q-85 0 -138 54q-52 55 -52 144v319h92v-298q0 -63 32 -99t88 -36z" />
    <glyph glyph-name="v" unicode="v" horiz-adv-x="531" 
d="M510 505l-193 -505h-103l-193 505h97l149 -398l148 398h95z" />
    <glyph glyph-name="w" unicode="w" horiz-adv-x="850" 
d="M425 388l-135 -388h-93l-177 505h92l135 -396l135 396h88l136 -397l135 397h89l-177 -505h-92z" />
    <glyph glyph-name="x" unicode="x" horiz-adv-x="506" 
d="M250 191l-139 -191h-99l187 256l-179 249h104l132 -184l132 184h98l-180 -248l189 -257h-106z" />
    <glyph glyph-name="y" unicode="y" horiz-adv-x="530" 
d="M266 108l148 397h95l-273 -717h-92l76 205l-200 512h97z" />
    <glyph glyph-name="z" unicode="z" horiz-adv-x="500" 
d="M467 82v-82h-434v62l309 361h-295v82h408v-66l-300 -357h312z" />
    <glyph glyph-name="braceleft" unicode="{" horiz-adv-x="345" 
d="M147 361q60 -23 60 -122v-195q0 -109 77 -109q8 0 32 2v-85q-30 -2 -35 -2q-166 0 -166 184v200q0 47 -16 67.5t-51 20.5h-17v77h17q35 0 51 20.5t16 66.5v150q0 184 166 184q5 0 35 -2v-85q-24 2 -32 2q-77 0 -77 -109v-145q0 -97 -60 -120z" />
    <glyph glyph-name="bar" unicode="|" horiz-adv-x="274" 
d="M91 -140v950h92v-950h-92z" />
    <glyph glyph-name="braceright" unicode="}" horiz-adv-x="345" 
d="M198 361q-60 23 -60 120v145q0 109 -77 109q-8 0 -32 -2v85q30 2 35 2q166 0 166 -184v-150q0 -46 16 -66.5t51 -20.5h17v-77h-17q-35 0 -51 -20.5t-16 -67.5v-200q0 -184 -166 -184q-5 0 -35 2v85q24 -2 32 -2q77 0 77 109v195q0 99 60 122z" />
    <glyph glyph-name="asciitilde" unicode="~" horiz-adv-x="570" 
d="M307 412q57 -28 93 -28q35 0 61 15.5t56 58.5v-92q-42 -68 -124 -68q-46 0 -109 31q-58 30 -101 30q-78 0 -126 -77v90q18 31 54 52t76 21q50 0 120 -33z" />
    <glyph glyph-name="uni00A0" unicode="&#xa0;" horiz-adv-x="251" 
 />
    <glyph glyph-name="exclamdown" unicode="&#xa1;" horiz-adv-x="261" 
d="M200 449q0 -30 -20 -49.5t-50 -19.5t-49.5 19.5t-19.5 49.5q0 28 20 48t49 20q30 0 50 -19.5t20 -48.5zM100 286h61l18 -235v-249h-97v249z" />
    <glyph glyph-name="cent" unicode="&#xa2;" horiz-adv-x="606" 
d="M356 98v-105l-92 -22v128q-97 16 -158 89t-61 172q0 98 61 171q60 72 158 89v109l92 21v-129q81 -13 140 -69q58 -56 75 -135h-92q-17 55 -62 88.5t-103 33.5q-75 0 -126 -52q-51 -51 -51 -127t51 -128t126 -52q59 0 105 35t62 91h91q-16 -81 -76 -139q-59 -57 -140 -69z
" />
    <glyph glyph-name="sterling" unicode="&#xa3;" horiz-adv-x="671" 
d="M620 88v-88h-569v76q44 9 76 54q31 46 31 107q0 6 -1 20t-1 25h-105v78h94l-12 73q-2 28 -2 37q0 115 66 180t178 65t178.5 -65t66.5 -181h-95q0 73 -39.5 114t-108.5 41t-109.5 -41.5t-40.5 -115.5q0 -7 2 -33q1 -18 12 -74h183v-78h-172q0 -10 1 -20.5t1 -14.5
q0 -102 -57 -159h423z" />
    <glyph glyph-name="currency" unicode="&#xa4;" horiz-adv-x="642" 
d="M222 179l-70 -96h-99l110 150q-36 53 -36 113q0 62 38 114l-112 152h99l72 -98q49 27 98 27q48 0 97 -27l71 98h99l-111 -151q37 -54 37 -115q0 -64 -36 -113l110 -150h-99l-70 96q-49 -27 -98 -27t-100 27zM322 230q49 0 82 33.5t33 82.5t-33 82.5t-82 33.5t-82.5 -33.5
t-33.5 -82.5t33.5 -82.5t82.5 -33.5z" />
    <glyph glyph-name="yen" unicode="&#xa5;" horiz-adv-x="639" 
d="M368 138v-138h-96v138h-177v75h177v43l-9 17h-168v75h127l-194 355h107l186 -349l189 349h100l-195 -355h130v-75h-171l-6 -11v-49h177v-75h-177z" />
    <glyph glyph-name="brokenbar" unicode="&#xa6;" horiz-adv-x="280" 
d="M94 410v400h92v-400h-92zM186 -140h-92v400h92v-400z" />
    <glyph glyph-name="section" unicode="&#xa7;" horiz-adv-x="573" 
d="M472 248h-99l-122 51q-119 49 -162 98q-41 50 -41 119q0 89 64 144t167 55q111 0 177.5 -58.5t71.5 -161.5h-95q-4 66 -43.5 101.5t-107.5 35.5q-62 0 -99.5 -32t-37.5 -86q0 -59 60 -100q29 -19 110 -54l157 -67v-45zM101 241h99l122 -51q121 -50 161 -99
q42 -48 42 -118q0 -90 -64 -144q-62 -55 -165 -55q-112 0 -179 58.5t-72 161.5h95q4 -66 43.5 -101.5t107.5 -35.5q62 0 99.5 32t37.5 86q0 59 -60 100q-32 21 -110 54l-157 67v45z" />
    <glyph glyph-name="dieresis" unicode="&#xa8;" horiz-adv-x="338" 
d="M149 639q0 -23 -15 -38t-37 -15t-37.5 15.5t-15.5 37.5q0 23 15.5 38t37.5 15t37 -15t15 -38zM295 639q0 -22 -15.5 -37.5t-37.5 -15.5t-37.5 15.5t-15.5 37.5q0 23 15.5 38t37.5 15t37.5 -15.5t15.5 -37.5z" />
    <glyph glyph-name="copyright" unicode="&#xa9;" horiz-adv-x="818" 
d="M772 351q0 -150 -107 -257q-106 -106 -256 -106q-151 0 -257 106t-106 257t106 257q107 107 257 107q149 0 256 -107t107 -257zM107 351q0 -125 89 -214t213 -89t213 89t89 214t-89 214q-88 90 -213 90t-213 -90q-89 -89 -89 -214zM410 549q75 0 129 -44t67 -116h-94
q-11 34 -38.5 54t-63.5 20q-47 0 -78 -32t-31 -80t31 -80t78 -32q37 0 65 20.5t37 54.5h94q-13 -72 -67 -117t-129 -45q-86 0 -145 57q-57 57 -57 142q0 84 57 141q59 57 145 57z" />
    <glyph glyph-name="ordfeminine" unicode="&#xaa;" horiz-adv-x="369" 
d="M295 456h-63v30q-26 -37 -76 -37q-38 0 -61.5 20t-23.5 53q0 63 88 82l70 16v3q0 16 -11.5 26t-31.5 10q-41 0 -46 -36h-65q2 40 34 66.5t78 26.5q51 0 79.5 -26.5t28.5 -72.5v-161zM171 503q24 0 41 17.5t17 39.5v11l-56 -13q-34 -7 -34 -30q0 -25 32 -25zM76 320v65
h219v-65h-219z" />
    <glyph glyph-name="guillemotleft" unicode="&#xab;" horiz-adv-x="457" 
d="M245 35h-90l-109 219l109 220h90l-109 -220zM407 35h-90l-109 219l109 220h90l-109 -220z" />
    <glyph glyph-name="logicalnot" unicode="&#xac;" horiz-adv-x="570" 
d="M432 317h-377v74h451v-266h-74v192z" />
    <glyph glyph-name="uni00AD" unicode="&#xad;" horiz-adv-x="368" 
d="M64 278v88h240v-88h-240z" />
    <glyph glyph-name="registered" unicode="&#xae;" horiz-adv-x="602" 
d="M301 222q-102 0 -175 71q-72 72 -72 175q0 104 72 175q72 72 175 72q105 0 175 -72q72 -71 72 -175q0 -103 -72 -175q-73 -71 -175 -71zM301 659q-79 0 -135 -56q-55 -55 -55 -135t55 -135t135 -55t135 55t55 135t-55 135q-56 56 -135 56zM267 424v-70h-62v232h113
q38 0 64 -22t26 -56q0 -51 -50 -75l61 -79h-72l-54 70h-26zM311 532h-44v-59h44q15 0 24 8.5t9 21.5t-9 21t-24 8z" />
    <glyph glyph-name="overscore" unicode="&#xaf;" horiz-adv-x="356" 
d="M313 664v-63h-269v63h269z" />
    <glyph glyph-name="degree" unicode="&#xb0;" horiz-adv-x="379" 
d="M335 570q0 -60 -43 -103q-42 -42 -102 -42t-103 42q-43 43 -43 103t43 102q43 43 103 43t102 -43q43 -42 43 -102zM107 570q0 -34 24.5 -58.5t58.5 -24.5t58 24t24 59t-24 59t-58 24t-58.5 -24.5t-24.5 -58.5z" />
    <glyph glyph-name="plusminus" unicode="&#xb1;" horiz-adv-x="570" 
d="M322 333v-169h-74v169h-188v73h188v169h74v-169h188v-73h-188zM510 5h-451v74h451v-74z" />
    <glyph glyph-name="twosuperior" unicode="&#xb2;" horiz-adv-x="324" 
d="M292 562v-70h-255v59l134 124q36 33 36 62q0 19 -13.5 31t-35.5 12q-23 0 -37 -14t-15 -36h-75q3 54 38.5 87t91.5 33q55 0 88.5 -29.5t33.5 -77.5q0 -57 -69 -119l-68 -62h146z" />
    <glyph glyph-name="threesuperior" unicode="&#xb3;" horiz-adv-x="320" 
d="M29 594h72q2 -20 18 -33.5t39 -13.5q25 0 40.5 14t15.5 36q0 52 -61 52h-30v53h28q25 0 39 12t14 32t-12 31.5t-33 11.5t-35 -12t-16 -33h-73q3 48 37.5 77t90.5 29q51 0 82.5 -26.5t31.5 -66.5q0 -55 -47 -79q57 -23 57 -86q0 -46 -36 -76t-93 -30q-56 0 -91 29.5
t-38 78.5z" />
    <glyph glyph-name="acute" unicode="&#xb4;" horiz-adv-x="261" 
d="M217 717l-82 -145h-88l81 145h89z" />
    <glyph glyph-name="mu" unicode="&#xb5;" horiz-adv-x="606" 
d="M298 72q57 0 93.5 40.5t36.5 103.5v289h92v-505h-88v72q-55 -84 -156 -84q-58 0 -98 24v-224h-92v717h92v-298q0 -63 32 -99t88 -36z" />
    <glyph glyph-name="paragraph" unicode="&#xb6;" horiz-adv-x="627" 
d="M265 703h84v-843h-76v419h-8q-105 0 -169 58q-65 59 -65 158q0 95 65 151q66 57 169 57zM526 703v-843h-76v843h76z" />
    <glyph glyph-name="middot" unicode="&#xb7;" horiz-adv-x="257" 
d="M198 360q0 -29 -20 -48.5t-50 -19.5q-29 0 -49 20t-20 48q0 30 19.5 49.5t49.5 19.5t50 -19.5t20 -49.5z" />
    <glyph glyph-name="cedilla" unicode="&#xb8;" horiz-adv-x="425" 
d="M113 -131l-55 29l75 122h69l-44 -72h3q48 0 78 -28.5t30 -73.5q0 -44 -32.5 -73t-80.5 -29q-49 0 -79.5 26t-33.5 70h70q1 -16 13.5 -26t29.5 -10q18 0 30.5 12t12.5 30q0 19 -12 31t-31 12q-24 0 -43 -20z" />
    <glyph glyph-name="onesuperior" unicode="&#xb9;" horiz-adv-x="211" 
d="M159 844v-352h-73v282h-71l17 70h127z" />
    <glyph glyph-name="ordmasculine" unicode="&#xba;" horiz-adv-x="409" 
d="M339 585q0 -58 -38.5 -97t-96.5 -39q-57 0 -96 39q-38 41 -38 97q0 55 39 92q39 39 95 39t96 -38q39 -38 39 -93zM140 583q0 -29 18.5 -48.5t46.5 -19.5q29 0 47 19t18 49q0 29 -18 48t-47 19q-28 0 -46.5 -19.5t-18.5 -47.5zM75 320v65h260v-65h-260z" />
    <glyph glyph-name="guillemotright" unicode="&#xbb;" horiz-adv-x="457" 
d="M411 254l-109 -219h-90l109 219l-109 220h90zM249 254l-109 -219h-90l109 219l-109 220h90z" />
    <glyph glyph-name="onequarter" unicode="&#xbc;" horiz-adv-x="688" 
d="M356 64v59l135 229h84l-134 -221h91v62l72 16v-78h28v-67h-28v-64h-72v64h-176zM204 703v-352h-73v282h-71l17 70h127zM31 0l534 703h84l-534 -703h-84z" />
    <glyph glyph-name="onehalf" unicode="&#xbd;" horiz-adv-x="722" 
d="M672 70v-70h-255v59l134 124q36 33 36 62q0 19 -13.5 31t-35.5 12q-23 0 -37 -14t-15 -36h-75q3 54 38.5 87t91.5 33q55 0 88.5 -29.5t33.5 -77.5q0 -57 -69 -119l-68 -62h146zM204 703v-352h-73v282h-71l17 70h127zM31 0l534 703h84l-534 -703h-84z" />
    <glyph glyph-name="threequarters" unicode="&#xbe;" horiz-adv-x="715" 
d="M388 64v59l135 229h84l-134 -221h91v62l72 16v-78h28v-67h-28v-64h-72v64h-176zM63 0l534 703h84l-534 -703h-84zM44 453h72q2 -20 18 -33.5t39 -13.5q25 0 40.5 14t15.5 36q0 52 -61 52h-30v53h28q25 0 39 12t14 32t-12 31.5t-33 11.5q-22 0 -35.5 -12t-15.5 -33h-73
q3 48 37.5 77t90.5 29q51 0 82.5 -26.5t31.5 -66.5q0 -55 -47 -79q57 -23 57 -86q0 -46 -36 -76t-93 -30q-56 0 -91 29.5t-38 78.5z" />
    <glyph glyph-name="questiondown" unicode="&#xbf;" horiz-adv-x="528" 
d="M214 449q0 29 20 48.5t50 19.5q29 0 49 -20t20 -48q0 -30 -19.5 -49.5t-49.5 -19.5t-50 19.5t-20 49.5zM328 286v-42l-112 -100q-77 -68 -77 -159q0 -49 34 -79.5t90 -30.5q62 0 100 36t41 98h95q-4 -100 -70 -159q-65 -60 -171 -60q-97 0 -158 52q-60 53 -60 137
q0 119 106 218l96 89h86z" />
    <glyph glyph-name="Agrave" unicode="&#xc0;" horiz-adv-x="676" 
d="M18 0l269 703h102l268 -703h-103l-63 172h-312l-63 -172h-98zM209 253h252l-126 341zM381 765h-87l-82 145h89z" />
    <glyph glyph-name="Aacute" unicode="&#xc1;" horiz-adv-x="676" 
d="M18 0l269 703h102l268 -703h-103l-63 172h-312l-63 -172h-98zM209 253h252l-126 341zM464 910l-82 -145h-88l81 145h89z" />
    <glyph glyph-name="Acircumflex" unicode="&#xc2;" horiz-adv-x="676" 
d="M18 0l269 703h102l268 -703h-103l-63 172h-312l-63 -172h-98zM209 253h252l-126 341zM261 765h-81l116 145h82l117 -145h-82l-75 93z" />
    <glyph glyph-name="Atilde" unicode="&#xc3;" horiz-adv-x="676" 
d="M18 0l269 703h102l268 -703h-103l-63 172h-312l-63 -172h-98zM209 253h252l-126 341zM366 855q25 -21 34 -21q14 0 20.5 12t10.5 43h62q-10 -120 -93 -120q-39 0 -75 36q-23 24 -39 24q-34 0 -41 -59h-62q7 124 104 124q39 0 79 -39z" />
    <glyph glyph-name="Adieresis" unicode="&#xc4;" horiz-adv-x="676" 
d="M18 0l269 703h102l268 -703h-103l-63 172h-312l-63 -172h-98zM209 253h252l-126 341zM318 830q0 -23 -15 -38t-37 -15t-37.5 15.5t-15.5 37.5q0 23 15.5 38t37.5 15t37 -15t15 -38zM464 830q0 -22 -15.5 -37.5t-37.5 -15.5t-37.5 15.5t-15.5 37.5q0 23 15.5 38t37.5 15
t37.5 -15.5t15.5 -37.5z" />
    <glyph glyph-name="Aring" unicode="&#xc5;" horiz-adv-x="676" 
d="M18 0l269 703h102l268 -703h-103l-63 172h-312l-63 -172h-98zM209 253h252l-126 341zM439 854q0 -41 -29.5 -69.5t-71.5 -28.5q-43 0 -72 28.5t-29 69.5q0 40 29.5 68.5t71.5 28.5t71.5 -28.5t29.5 -68.5zM293 854q0 -20 13 -33.5t32 -13.5t32.5 14t13.5 33t-13.5 32.5
t-32.5 13.5t-32 -13.5t-13 -32.5z" />
    <glyph glyph-name="AE" unicode="&#xc6;" horiz-adv-x="932" 
d="M877 88v-88h-434v172h-260l-104 -172h-100l421 703h472v-88h-333v-215h309v-84h-309v-228h338zM443 253v350l-211 -350h211z" />
    <glyph glyph-name="Ccedilla" unicode="&#xc7;" horiz-adv-x="802" 
d="M665 276h100q-24 -119 -113 -199q-88 -79 -213 -88l-25 -41h3q48 0 78 -28.5t30 -73.5q0 -44 -32.5 -73t-80.5 -29q-49 0 -79.5 26t-33.5 70h70q1 -16 13.5 -26t29.5 -10q18 0 30.5 12t12.5 30q0 19 -12 31t-31 12q-24 0 -43 -20l-55 29l56 92q-141 14 -232 117
q-92 104 -92 245q0 152 104 258q105 105 259 105q130 0 228 -77t126 -200h-103q-27 84 -96 135q-68 51 -156 51q-111 0 -187 -79q-75 -79 -75 -193t75 -194q76 -79 187 -79q92 0 163 54q70 53 94 143z" />
    <glyph glyph-name="Egrave" unicode="&#xc8;" horiz-adv-x="582" 
d="M352 765h-87l-82 145h89zM527 88v-88h-434v703h429v-88h-333v-215h309v-84h-309v-228h338z" />
    <glyph glyph-name="Eacute" unicode="&#xc9;" horiz-adv-x="582" 
d="M527 88v-88h-434v703h429v-88h-333v-215h309v-84h-309v-228h338zM435 910l-82 -145h-88l81 145h89z" />
    <glyph glyph-name="Ecircumflex" unicode="&#xca;" horiz-adv-x="582" 
d="M231 765h-81l116 145h82l117 -145h-82l-75 93zM527 88v-88h-434v703h429v-88h-333v-215h309v-84h-309v-228h338z" />
    <glyph glyph-name="Edieresis" unicode="&#xcb;" horiz-adv-x="582" 
d="M527 88v-88h-434v703h429v-88h-333v-215h309v-84h-309v-228h338zM289 830q0 -23 -15 -38t-37 -15t-37.5 15.5t-15.5 37.5q0 23 15.5 38t37.5 15t37 -15t15 -38zM435 830q0 -22 -15.5 -37.5t-37.5 -15.5t-37.5 15.5t-15.5 37.5q0 23 15.5 38t37.5 15t37.5 -15.5
t15.5 -37.5z" />
    <glyph glyph-name="Igrave" unicode="&#xcc;" horiz-adv-x="282" 
d="M189 703v-703h-96v703h96zM185 765h-87l-82 145h89z" />
    <glyph glyph-name="Iacute" unicode="&#xcd;" horiz-adv-x="282" 
d="M189 703v-703h-96v703h96zM268 910l-82 -145h-88l81 145h89z" />
    <glyph glyph-name="Icircumflex" unicode="&#xce;" horiz-adv-x="282" 
d="M189 703v-703h-96v703h96zM65 765h-81l116 145h82l117 -145h-82l-75 93z" />
    <glyph glyph-name="Idieresis" unicode="&#xcf;" horiz-adv-x="282" 
d="M189 703v-703h-96v703h96zM122 830q0 -23 -15 -38t-37 -15t-37.5 15.5t-15.5 37.5q0 23 15.5 38t37.5 15t37 -15t15 -38zM268 830q0 -22 -15.5 -37.5t-37.5 -15.5t-37.5 15.5t-15.5 37.5q0 23 15.5 38t37.5 15t37.5 -15.5t15.5 -37.5z" />
    <glyph glyph-name="Eth" unicode="&#xd0;" horiz-adv-x="772" 
d="M347 0h-245v311h-79v80h79v312h245q165 0 271 -95q106 -94 106 -254q0 -161 -106 -258q-105 -96 -271 -96zM394 311h-196v-220h146q127 0 203 70q77 71 77 193q0 119 -77 188q-76 70 -203 70h-146v-221h196v-80z" />
    <glyph glyph-name="Ntilde" unicode="&#xd1;" horiz-adv-x="713" 
d="M386 855q25 -21 34 -21q14 0 20.5 12t10.5 43h62q-10 -120 -93 -120q-39 0 -75 36q-23 24 -39 24q-34 0 -41 -59h-62q7 124 104 124q39 0 79 -39zM184 543v-543h-91v703h92l344 -544v544h91v-703h-93z" />
    <glyph glyph-name="Ograve" unicode="&#xd2;" horiz-adv-x="829" 
d="M458 765h-87l-82 145h89zM46 352q0 153 105 258q107 105 263 105t263 -105q106 -105 106 -258t-106 -259q-107 -105 -263 -105t-263 105q-105 105 -105 259zM683 352q0 114 -78 193q-76 79 -191 79t-191 -79q-77 -80 -77 -193q0 -116 76 -195q76 -78 192 -78t192 78
q77 80 77 195z" />
    <glyph glyph-name="Oacute" unicode="&#xd3;" horiz-adv-x="829" 
d="M542 910l-82 -145h-88l81 145h89zM46 352q0 153 105 258q107 105 263 105t263 -105q106 -105 106 -258t-106 -259q-107 -105 -263 -105t-263 105q-105 105 -105 259zM683 352q0 114 -78 193q-76 79 -191 79t-191 -79q-77 -80 -77 -193q0 -116 76 -195q76 -78 192 -78
t192 78q77 80 77 195z" />
    <glyph glyph-name="Ocircumflex" unicode="&#xd4;" horiz-adv-x="829" 
d="M338 765h-81l116 145h82l117 -145h-82l-75 93zM46 352q0 153 105 258q107 105 263 105t263 -105q106 -105 106 -258t-106 -259q-107 -105 -263 -105t-263 105q-105 105 -105 259zM683 352q0 114 -78 193q-76 79 -191 79t-191 -79q-77 -80 -77 -193q0 -116 76 -195
q76 -78 192 -78t192 78q77 80 77 195z" />
    <glyph glyph-name="Otilde" unicode="&#xd5;" horiz-adv-x="829" 
d="M46 352q0 153 105 258q107 105 263 105t263 -105q106 -105 106 -258t-106 -259q-107 -105 -263 -105t-263 105q-105 105 -105 259zM683 352q0 114 -78 193q-76 79 -191 79t-191 -79q-77 -80 -77 -193q0 -116 76 -195q76 -78 192 -78t192 78q77 80 77 195zM443 855
q25 -21 34 -21q14 0 20.5 12t10.5 43h62q-10 -120 -93 -120q-39 0 -75 36q-23 24 -39 24q-34 0 -41 -59h-62q7 124 104 124q39 0 79 -39z" />
    <glyph glyph-name="Odieresis" unicode="&#xd6;" horiz-adv-x="829" 
d="M46 352q0 153 105 258q107 105 263 105t263 -105q106 -105 106 -258t-106 -259q-107 -105 -263 -105t-263 105q-105 105 -105 259zM683 352q0 114 -78 193q-76 79 -191 79t-191 -79q-77 -80 -77 -193q0 -116 76 -195q76 -78 192 -78t192 78q77 80 77 195zM395 830
q0 -23 -15 -38t-37 -15t-37.5 15.5t-15.5 37.5q0 23 15.5 38t37.5 15t37 -15t15 -38zM541 830q0 -22 -15.5 -37.5t-37.5 -15.5t-37.5 15.5t-15.5 37.5q0 23 15.5 38t37.5 15t37.5 -15.5t15.5 -37.5z" />
    <glyph glyph-name="multiply" unicode="&#xd7;" horiz-adv-x="570" 
d="M285 298l-155 -155l-52 52l155 155l-153 154l52 52l154 -153l153 153l52 -52l-153 -153l155 -156l-53 -52z" />
    <glyph glyph-name="Oslash" unicode="&#xd8;" horiz-adv-x="832" 
d="M215 44l-63 -76h-103l104 126q-105 105 -105 258t105 258q106 105 263 105q111 0 202 -57l63 77h103l-104 -126q105 -105 105 -257q0 -153 -106 -259q-107 -105 -263 -105q-110 0 -201 56zM416 624q-115 0 -191 -79q-77 -80 -77 -193q0 -106 68 -185l344 416
q-65 41 -144 41zM416 79q116 0 192 78q77 80 77 195q0 104 -68 183l-343 -417q64 -39 142 -39z" />
    <glyph glyph-name="Ugrave" unicode="&#xd9;" horiz-adv-x="688" 
d="M388 765h-87l-82 145h89zM506 235v468h96v-471q0 -107 -73 -176q-74 -68 -186 -68q-110 0 -184 68q-73 69 -73 176v471h96v-468q0 -69 44.5 -112.5t114.5 -43.5q74 0 119.5 43t45.5 113z" />
    <glyph glyph-name="Uacute" unicode="&#xda;" horiz-adv-x="688" 
d="M506 235v468h96v-471q0 -107 -73 -176q-74 -68 -186 -68q-110 0 -184 68q-73 69 -73 176v471h96v-468q0 -69 44.5 -112.5t114.5 -43.5q74 0 119.5 43t45.5 113zM471 910l-82 -145h-88l81 145h89z" />
    <glyph glyph-name="Ucircumflex" unicode="&#xdb;" horiz-adv-x="688" 
d="M267 765h-81l116 145h82l117 -145h-82l-75 93zM506 235v468h96v-471q0 -107 -73 -176q-74 -68 -186 -68q-110 0 -184 68q-73 69 -73 176v471h96v-468q0 -69 44.5 -112.5t114.5 -43.5q74 0 119.5 43t45.5 113z" />
    <glyph glyph-name="Udieresis" unicode="&#xdc;" horiz-adv-x="688" 
d="M506 235v468h96v-471q0 -107 -73 -176q-74 -68 -186 -68q-110 0 -184 68q-73 69 -73 176v471h96v-468q0 -69 44.5 -112.5t114.5 -43.5q74 0 119.5 43t45.5 113zM325 830q0 -23 -15 -38t-37 -15t-37.5 15.5t-15.5 37.5q0 23 15.5 38t37.5 15t37 -15t15 -38zM471 830
q0 -22 -15.5 -37.5t-37.5 -15.5t-37.5 15.5t-15.5 37.5q0 23 15.5 38t37.5 15t37.5 -15.5t15.5 -37.5z" />
    <glyph glyph-name="Yacute" unicode="&#xdd;" horiz-adv-x="632" 
d="M365 262v-262h-96v256l-244 447h107l186 -349l189 349h100zM450 910l-82 -145h-88l81 145h89z" />
    <glyph glyph-name="Thorn" unicode="&#xde;" horiz-adv-x="652" 
d="M93 0v703h96v-126h155q118 0 192 -60q75 -60 75 -160q0 -105 -75 -168q-74 -62 -192 -62h-155v-127h-96zM339 492h-150v-280h150q78 0 125 39t47 105q0 62 -48 99t-124 37z" />
    <glyph glyph-name="germandbls" unicode="&#xdf;" horiz-adv-x="619" 
d="M353 71q62 0 98 38t36 104q0 59 -41 98q-40 40 -101 40h-82v71h58q56 0 93 34t37 86q0 54 -38.5 90t-96.5 36q-64 0 -103.5 -42t-39.5 -110v-516h-92v504q0 118 64 183q65 66 171 66q96 0 160 -54q65 -54 65 -140q0 -116 -97 -164q61 -20 97.5 -72t36.5 -118
q0 -90 -62 -154q-62 -63 -148 -63q-67 0 -105 26v81q35 -24 90 -24z" />
    <glyph glyph-name="agrave" unicode="&#xe0;" horiz-adv-x="549" 
d="M475 0h-87v72q-28 -40 -72.5 -62t-96.5 -22q-75 0 -122 40q-47 41 -47 103q0 124 163 161l172 40v7q0 45 -31.5 72.5t-83.5 27.5q-48 0 -81 -25.5t-39 -67.5h-88q8 74 66 122q58 49 143 49q95 0 149.5 -51t54.5 -138v-328zM236 64q63 0 106 46t43 110v37l-149 -35
q-95 -23 -95 -83q0 -35 25 -55t70 -20zM312 572h-87l-82 145h89z" />
    <glyph glyph-name="aacute" unicode="&#xe1;" horiz-adv-x="549" 
d="M475 0h-87v72q-28 -40 -72.5 -62t-96.5 -22q-75 0 -122 40q-47 41 -47 103q0 124 163 161l172 40v7q0 45 -31.5 72.5t-83.5 27.5q-48 0 -81 -25.5t-39 -67.5h-88q8 74 66 122q58 49 143 49q95 0 149.5 -51t54.5 -138v-328zM236 64q63 0 106 46t43 110v37l-149 -35
q-95 -23 -95 -83q0 -35 25 -55t70 -20zM395 717l-82 -145h-88l81 145h89z" />
    <glyph glyph-name="acircumflex" unicode="&#xe2;" horiz-adv-x="549" 
d="M475 0h-87v72q-28 -40 -72.5 -62t-96.5 -22q-75 0 -122 40q-47 41 -47 103q0 124 163 161l172 40v7q0 45 -31.5 72.5t-83.5 27.5q-48 0 -81 -25.5t-39 -67.5h-88q8 74 66 122q58 49 143 49q95 0 149.5 -51t54.5 -138v-328zM236 64q63 0 106 46t43 110v37l-149 -35
q-95 -23 -95 -83q0 -35 25 -55t70 -20zM192 572h-81l116 145h82l117 -145h-82l-75 93z" />
    <glyph glyph-name="atilde" unicode="&#xe3;" horiz-adv-x="549" 
d="M475 0h-87v72q-28 -40 -72.5 -62t-96.5 -22q-75 0 -122 40q-47 41 -47 103q0 124 163 161l172 40v7q0 45 -31.5 72.5t-83.5 27.5q-48 0 -81 -25.5t-39 -67.5h-88q8 74 66 122q58 49 143 49q95 0 149.5 -51t54.5 -138v-328zM236 64q63 0 106 46t43 110v37l-149 -35
q-95 -23 -95 -83q0 -35 25 -55t70 -20zM297 666q25 -21 34 -21q14 0 20.5 12t10.5 43h62q-10 -120 -93 -120q-39 0 -75 36q-23 24 -39 24q-34 0 -41 -59h-62q7 124 104 124q39 0 79 -39z" />
    <glyph glyph-name="adieresis" unicode="&#xe4;" horiz-adv-x="549" 
d="M475 0h-87v72q-28 -40 -72.5 -62t-96.5 -22q-75 0 -122 40q-47 41 -47 103q0 124 163 161l172 40v7q0 45 -31.5 72.5t-83.5 27.5q-48 0 -81 -25.5t-39 -67.5h-88q8 74 66 122q58 49 143 49q95 0 149.5 -51t54.5 -138v-328zM236 64q63 0 106 46t43 110v37l-149 -35
q-95 -23 -95 -83q0 -35 25 -55t70 -20zM248 639q0 -23 -15 -38t-37 -15t-37.5 15.5t-15.5 37.5q0 23 15.5 38t37.5 15t37 -15t15 -38zM394 639q0 -22 -15.5 -37.5t-37.5 -15.5t-37.5 15.5t-15.5 37.5q0 23 15.5 38t37.5 15t37.5 -15.5t15.5 -37.5z" />
    <glyph glyph-name="aring" unicode="&#xe5;" horiz-adv-x="549" 
d="M475 0h-87v72q-28 -40 -72.5 -62t-96.5 -22q-75 0 -122 40q-47 41 -47 103q0 124 163 161l172 40v7q0 45 -31.5 72.5t-83.5 27.5q-48 0 -81 -25.5t-39 -67.5h-88q8 74 66 122q58 49 143 49q95 0 149.5 -51t54.5 -138v-328zM236 64q63 0 106 46t43 110v37l-149 -35
q-95 -23 -95 -83q0 -35 25 -55t70 -20zM369 662q0 -41 -29.5 -69.5t-71.5 -28.5q-43 0 -72 28.5t-29 69.5q0 40 29.5 68.5t71.5 28.5t71.5 -28.5t29.5 -68.5zM223 662q0 -20 13 -33.5t32 -13.5t32.5 14t13.5 33t-13.5 32.5t-32.5 13.5t-32 -13.5t-13 -32.5z" />
    <glyph glyph-name="ae" unicode="&#xe6;" horiz-adv-x="951" 
d="M806 159h91q-26 -79 -92.5 -125t-155.5 -46q-69 0 -126.5 34t-91.5 94q-23 -61 -76.5 -94.5t-124.5 -33.5q-83 0 -131.5 39t-48.5 104q0 124 163 161l172 40v7q0 45 -31.5 72.5t-83.5 27.5q-48 0 -81 -25.5t-39 -67.5h-88q8 74 66 122q58 49 143 49q131 0 177 -102
q75 102 202 102q112 0 186 -74t74 -184v-32h-434q8 -71 56 -116q50 -44 118 -44q52 0 93.5 24.5t62.5 67.5zM650 438q-61 0 -107.5 -37t-61.5 -97l335 -1q-15 63 -59.5 99t-106.5 36zM239 64q61 0 103 43q43 43 43 103v47l-149 -35q-95 -23 -95 -83q0 -36 25.5 -55.5
t72.5 -19.5z" />
    <glyph glyph-name="ccedilla" unicode="&#xe7;" horiz-adv-x="605" 
d="M310 517q97 0 167 -58q71 -59 90 -149h-92q-17 55 -62 88.5t-103 33.5q-75 0 -126 -52q-51 -51 -51 -127q0 -75 51 -128q51 -52 126 -52q59 0 105 35t62 91h91q-18 -86 -80 -143q-61 -57 -148 -66l-25 -42h3q48 0 78 -28.5t30 -73.5q0 -44 -32.5 -73t-80.5 -29
q-49 0 -79.5 26t-33.5 70h70q1 -16 13.5 -26t29.5 -10q18 0 30.5 12t12.5 30q0 19 -12 31t-31 12q-24 0 -43 -20l-55 29l57 92q-103 14 -167 87t-64 176q0 111 77 188q76 76 192 76z" />
    <glyph glyph-name="egrave" unicode="&#xe8;" horiz-adv-x="607" 
d="M306 67q52 0 93.5 24.5t62.5 67.5h91q-26 -79 -92.5 -125t-155.5 -46q-113 0 -189 76q-75 76 -75 189q0 110 77 187t188 77q112 0 186 -74t74 -184v-32h-434q8 -71 56 -116q50 -44 118 -44zM306 438q-62 0 -107.5 -37t-61.5 -98h336q-15 63 -60 99t-107 36zM348 572h-87
l-82 145h89z" />
    <glyph glyph-name="eacute" unicode="&#xe9;" horiz-adv-x="607" 
d="M432 717l-82 -145h-88l81 145h89zM306 67q52 0 93.5 24.5t62.5 67.5h91q-26 -79 -92.5 -125t-155.5 -46q-113 0 -189 76q-75 76 -75 189q0 110 77 187t188 77q112 0 186 -74t74 -184v-32h-434q8 -71 56 -116q50 -44 118 -44zM306 438q-62 0 -107.5 -37t-61.5 -98h336
q-15 63 -60 99t-107 36z" />
    <glyph glyph-name="ecircumflex" unicode="&#xea;" horiz-adv-x="607" 
d="M229 572h-81l116 145h82l117 -145h-82l-75 93zM306 67q52 0 93.5 24.5t62.5 67.5h91q-26 -79 -92.5 -125t-155.5 -46q-113 0 -189 76q-75 76 -75 189q0 110 77 187t188 77q112 0 186 -74t74 -184v-32h-434q8 -71 56 -116q50 -44 118 -44zM306 438q-62 0 -107.5 -37
t-61.5 -98h336q-15 63 -60 99t-107 36z" />
    <glyph glyph-name="edieresis" unicode="&#xeb;" horiz-adv-x="607" 
d="M285 639q0 -23 -15 -38t-37 -15t-37.5 15.5t-15.5 37.5q0 23 15.5 38t37.5 15t37 -15t15 -38zM431 639q0 -22 -15.5 -37.5t-37.5 -15.5t-37.5 15.5t-15.5 37.5q0 23 15.5 38t37.5 15t37.5 -15.5t15.5 -37.5zM306 67q52 0 93.5 24.5t62.5 67.5h91q-26 -79 -92.5 -125
t-155.5 -46q-113 0 -189 76q-75 76 -75 189q0 110 77 187t188 77q112 0 186 -74t74 -184v-32h-434q8 -71 56 -116q50 -44 118 -44zM306 438q-62 0 -107.5 -37t-61.5 -98h336q-15 63 -60 99t-107 36z" />
    <glyph glyph-name="igrave" unicode="&#xec;" horiz-adv-x="258" 
d="M175 505v-505h-92v505h92zM172 572h-87l-82 145h89z" />
    <glyph glyph-name="iacute" unicode="&#xed;" horiz-adv-x="258" 
d="M255 717l-82 -145h-88l81 145h89zM175 505v-505h-92v505h92z" />
    <glyph glyph-name="icircumflex" unicode="&#xee;" horiz-adv-x="258" 
d="M52 572h-81l116 145h82l117 -145h-82l-75 93zM175 505v-505h-92v505h92z" />
    <glyph glyph-name="idieresis" unicode="&#xef;" horiz-adv-x="258" 
d="M109 639q0 -23 -15 -38t-37 -15t-37.5 15.5t-15.5 37.5q0 23 15.5 38t37.5 15t37 -15t15 -38zM255 639q0 -22 -15.5 -37.5t-37.5 -15.5t-37.5 15.5t-15.5 37.5q0 23 15.5 38t37.5 15t37.5 -15.5t15.5 -37.5zM175 505v-505h-92v505h92z" />
    <glyph glyph-name="eth" unicode="&#xf0;" horiz-adv-x="630" 
d="M41 251q0 106 74 180t180 74q116 0 181 -83q-23 102 -109 201l-110 -49v54l73 34q-38 37 -99 79h99q41 -28 66 -51l103 50v-53l-67 -33q71 -75 109 -173.5t38 -204.5q0 -122 -78 -205q-77 -83 -190 -83q-115 0 -192 76q-78 76 -78 187zM489 251q0 74 -52 125
q-51 51 -126 51q-76 0 -127 -51t-51 -125q0 -75 51 -127q51 -51 127 -51t127 51q51 52 51 127z" />
    <glyph glyph-name="ntilde" unicode="&#xf1;" horiz-adv-x="599" 
d="M173 289v-289h-92v505h88v-71q56 83 161 83q89 0 141 -55q53 -55 53 -143v-319h-92v298q0 64 -32.5 99.5t-92.5 35.5t-97 -40.5t-37 -103.5zM334 666q25 -21 34 -21q14 0 20.5 12t10.5 43h62q-10 -120 -93 -120q-39 0 -75 36q-23 24 -39 24q-34 0 -41 -59h-62
q7 124 104 124q39 0 79 -39z" />
    <glyph glyph-name="ograve" unicode="&#xf2;" horiz-adv-x="620" 
d="M41 253q0 111 77 188q76 76 192 76q115 0 192 -77t77 -187q0 -112 -77 -189q-76 -76 -192 -76t-192 76q-77 77 -77 189zM488 253q0 75 -52 127q-51 52 -126 52t-127 -52q-51 -52 -51 -127t51 -128q51 -52 127 -52t127 52q51 53 51 128zM354 572h-87l-82 145h89z" />
    <glyph glyph-name="oacute" unicode="&#xf3;" horiz-adv-x="620" 
d="M437 717l-82 -145h-88l81 145h89zM41 253q0 111 77 188q76 76 192 76q115 0 192 -77t77 -187q0 -112 -77 -189q-76 -76 -192 -76t-192 76q-77 77 -77 189zM488 253q0 75 -52 127q-51 52 -126 52t-127 -52q-51 -52 -51 -127t51 -128q51 -52 127 -52t127 52q51 53 51 128z
" />
    <glyph glyph-name="ocircumflex" unicode="&#xf4;" horiz-adv-x="620" 
d="M234 572h-81l116 145h82l117 -145h-82l-75 93zM41 253q0 111 77 188q76 76 192 76q115 0 192 -77t77 -187q0 -112 -77 -189q-76 -76 -192 -76t-192 76q-77 77 -77 189zM488 253q0 75 -52 127q-51 52 -126 52t-127 -52q-51 -52 -51 -127t51 -128q51 -52 127 -52t127 52
q51 53 51 128z" />
    <glyph glyph-name="otilde" unicode="&#xf5;" horiz-adv-x="620" 
d="M41 253q0 111 77 188q76 76 192 76q115 0 192 -77t77 -187q0 -112 -77 -189q-76 -76 -192 -76t-192 76q-77 77 -77 189zM488 253q0 75 -52 127q-51 52 -126 52t-127 -52q-51 -52 -51 -127t51 -128q51 -52 127 -52t127 52q51 53 51 128zM339 666q25 -21 34 -21
q14 0 20.5 12t10.5 43h62q-10 -120 -93 -120q-39 0 -75 36q-23 24 -39 24q-34 0 -41 -59h-62q7 124 104 124q39 0 79 -39z" />
    <glyph glyph-name="odieresis" unicode="&#xf6;" horiz-adv-x="620" 
d="M290 639q0 -23 -15 -38t-37 -15t-37.5 15.5t-15.5 37.5q0 23 15.5 38t37.5 15t37 -15t15 -38zM436 639q0 -22 -15.5 -37.5t-37.5 -15.5t-37.5 15.5t-15.5 37.5q0 23 15.5 38t37.5 15t37.5 -15.5t15.5 -37.5zM41 253q0 111 77 188q76 76 192 76q115 0 192 -77t77 -187
q0 -112 -77 -189q-76 -76 -192 -76t-192 76q-77 77 -77 189zM488 253q0 75 -52 127q-51 52 -126 52t-127 -52q-51 -52 -51 -127t51 -128q51 -52 127 -52t127 52q51 53 51 128z" />
    <glyph glyph-name="divide" unicode="&#xf7;" horiz-adv-x="570" 
d="M348 538q0 -25 -18 -43t-45 -18q-26 0 -44 18t-18 43q0 27 17.5 45t44.5 18t45 -18t18 -45zM510 313h-450v74h450v-74zM348 161q0 -25 -18 -43t-45 -18q-26 0 -44 18t-18 43q0 27 17.5 45t44.5 18t45 -18t18 -45z" />
    <glyph glyph-name="oslash" unicode="&#xf8;" horiz-adv-x="626" 
d="M177 22l-43 -54h-89l76 96q-77 77 -77 189q0 111 77 188q76 76 192 76q76 0 137 -35l44 55h89l-77 -98q76 -74 76 -186t-77 -189q-76 -76 -192 -76q-77 0 -136 34zM313 432q-75 0 -127 -52q-51 -52 -51 -127q0 -70 44 -120l219 278q-40 21 -85 21zM313 73q76 0 127 52
q51 53 51 128q0 67 -42 118l-219 -278q37 -20 83 -20z" />
    <glyph glyph-name="ugrave" unicode="&#xf9;" horiz-adv-x="590" 
d="M287 72q57 0 93.5 40.5t36.5 103.5v289h92v-505h-88v72q-55 -84 -156 -84q-85 0 -138 54q-52 55 -52 144v319h92v-298q0 -63 32 -99t88 -36zM335 572h-87l-82 145h89z" />
    <glyph glyph-name="uacute" unicode="&#xfa;" horiz-adv-x="590" 
d="M418 717l-82 -145h-88l81 145h89zM287 72q57 0 93.5 40.5t36.5 103.5v289h92v-505h-88v72q-55 -84 -156 -84q-85 0 -138 54q-52 55 -52 144v319h92v-298q0 -63 32 -99t88 -36z" />
    <glyph glyph-name="ucircumflex" unicode="&#xfb;" horiz-adv-x="590" 
d="M215 572h-81l116 145h82l117 -145h-82l-75 93zM287 72q57 0 93.5 40.5t36.5 103.5v289h92v-505h-88v72q-55 -84 -156 -84q-85 0 -138 54q-52 55 -52 144v319h92v-298q0 -63 32 -99t88 -36z" />
    <glyph glyph-name="udieresis" unicode="&#xfc;" horiz-adv-x="590" 
d="M272 639q0 -23 -15 -38t-37 -15t-37.5 15.5t-15.5 37.5q0 23 15.5 38t37.5 15t37 -15t15 -38zM418 639q0 -22 -15.5 -37.5t-37.5 -15.5t-37.5 15.5t-15.5 37.5q0 23 15.5 38t37.5 15t37.5 -15.5t15.5 -37.5zM287 72q57 0 93.5 40.5t36.5 103.5v289h92v-505h-88v72
q-55 -84 -156 -84q-85 0 -138 54q-52 55 -52 144v319h92v-298q0 -63 32 -99t88 -36z" />
    <glyph glyph-name="yacute" unicode="&#xfd;" horiz-adv-x="530" 
d="M266 108l148 397h95l-273 -717h-92l76 205l-200 512h97zM392 717l-82 -145h-88l81 145h89z" />
    <glyph glyph-name="thorn" unicode="&#xfe;" 
d="M366 517q109 0 181 -75q73 -74 73 -188t-73 -190t-184 -76q-120 0 -190 93v-293h-92v953h92v-318q70 94 193 94zM525 253q0 75 -51 128q-51 52 -127 52t-127 -52q-50 -53 -50 -128q0 -76 50 -129q51 -52 127 -52t127 52t51 129z" />
    <glyph glyph-name="ydieresis" unicode="&#xff;" horiz-adv-x="530" 
d="M266 108l148 397h95l-273 -717h-92l76 205l-200 512h97zM245 639q0 -23 -15 -38t-37 -15t-37.5 15.5t-15.5 37.5q0 23 15.5 38t37.5 15t37 -15t15 -38zM391 639q0 -22 -15.5 -37.5t-37.5 -15.5t-37.5 15.5t-15.5 37.5q0 23 15.5 38t37.5 15t37.5 -15.5t15.5 -37.5z" />
    <glyph glyph-name="Amacron" unicode="&#x100;" horiz-adv-x="676" 
d="M18 0l269 703h102l268 -703h-103l-63 172h-312l-63 -172h-98zM209 253h252l-126 341zM473 855v-63h-269v63h269z" />
    <glyph glyph-name="amacron" unicode="&#x101;" horiz-adv-x="549" 
d="M475 0h-87v72q-28 -40 -72.5 -62t-96.5 -22q-75 0 -122 40q-47 41 -47 103q0 124 163 161l172 40v7q0 45 -31.5 72.5t-83.5 27.5q-48 0 -81 -25.5t-39 -67.5h-88q8 74 66 122q58 49 143 49q95 0 149.5 -51t54.5 -138v-328zM236 64q63 0 106 46t43 110v37l-149 -35
q-95 -23 -95 -83q0 -35 25 -55t70 -20zM403 664v-63h-269v63h269z" />
    <glyph glyph-name="Abreve" unicode="&#x102;" horiz-adv-x="676" 
d="M18 0l269 703h102l268 -703h-103l-63 172h-312l-63 -172h-98zM209 253h252l-126 341zM338 756q-64 0 -104 40t-40 103h68q0 -39 20 -61.5t56 -22.5t56 22.5t20 61.5h68q0 -63 -40 -103t-104 -40z" />
    <glyph glyph-name="abreve" unicode="&#x103;" horiz-adv-x="549" 
d="M475 0h-87v72q-28 -40 -72.5 -62t-96.5 -22q-75 0 -122 40q-47 41 -47 103q0 124 163 161l172 40v7q0 45 -31.5 72.5t-83.5 27.5q-48 0 -81 -25.5t-39 -67.5h-88q8 74 66 122q58 49 143 49q95 0 149.5 -51t54.5 -138v-328zM236 64q63 0 106 46t43 110v37l-149 -35
q-95 -23 -95 -83q0 -35 25 -55t70 -20zM269 564q-64 0 -104 40t-40 103h68q0 -39 20 -61.5t56 -22.5t56 22.5t20 61.5h68q0 -63 -40 -103t-104 -40z" />
    <glyph glyph-name="Aogonek" unicode="&#x104;" horiz-adv-x="676" 
d="M18 0l269 703h102l268 -703h-27q-50 -60 -68.5 -90t-18.5 -51q0 -44 44 -44q27 0 50 14v-64q-29 -21 -68 -21q-43 0 -73.5 27.5t-30.5 67.5q0 35 16 66q16 30 73 95l-63 172h-312l-63 -172h-98zM209 253h252l-126 341z" />
    <glyph glyph-name="aogonek" unicode="&#x105;" horiz-adv-x="549" 
d="M388 1v71q-28 -40 -72.5 -62t-96.5 -22q-75 0 -122 40q-47 41 -47 103q0 124 163 161l172 40v7q0 45 -31.5 72.5t-83.5 27.5q-48 0 -81 -25.5t-39 -67.5h-88q8 74 66 122q58 49 143 49q95 0 149.5 -51t54.5 -138v-328h-12q-50 -60 -68.5 -90t-18.5 -51q0 -44 44 -44
q27 0 50 14v-64q-29 -21 -68 -21q-43 0 -73.5 27.5t-30.5 67.5q0 35 16 66q16 30 74 96zM236 64q63 0 106 46t43 110v37l-149 -35q-95 -23 -95 -83q0 -35 25 -55t70 -20z" />
    <glyph glyph-name="Cacute" unicode="&#x106;" horiz-adv-x="802" 
d="M665 276h100q-25 -126 -124 -208q-98 -80 -232 -80q-154 0 -259 105q-104 107 -104 259t104 258q105 105 259 105q130 0 228 -77t126 -200h-103q-27 84 -96 135q-68 51 -156 51q-111 0 -187 -79q-75 -79 -75 -193t75 -194q76 -79 187 -79q92 0 163 54q70 53 94 143z
M536 910l-82 -145h-88l81 145h89z" />
    <glyph glyph-name="cacute" unicode="&#x107;" horiz-adv-x="605" 
d="M436 717l-82 -145h-88l81 145h89zM310 517q97 0 167 -58q71 -59 90 -149h-92q-17 55 -62 88.5t-103 33.5q-75 0 -126 -52q-51 -51 -51 -127q0 -75 51 -128q51 -52 126 -52q59 0 105 35t62 91h91q-20 -95 -91 -153q-70 -58 -167 -58q-116 0 -192 76q-77 77 -77 189
q0 111 77 188q76 76 192 76z" />
    <glyph glyph-name="Ccircumflex" unicode="&#x108;" horiz-adv-x="802" 
d="M665 276h100q-25 -126 -124 -208q-98 -80 -232 -80q-154 0 -259 105q-104 107 -104 259t104 258q105 105 259 105q130 0 228 -77t126 -200h-103q-27 84 -96 135q-68 51 -156 51q-111 0 -187 -79q-75 -79 -75 -193t75 -194q76 -79 187 -79q92 0 163 54q70 53 94 143z
M332 765h-81l116 145h82l117 -145h-82l-75 93z" />
    <glyph glyph-name="ccircumflex" unicode="&#x109;" horiz-adv-x="605" 
d="M233 572h-81l116 145h82l117 -145h-82l-75 93zM310 517q97 0 167 -58q71 -59 90 -149h-92q-17 55 -62 88.5t-103 33.5q-75 0 -126 -52q-51 -51 -51 -127q0 -75 51 -128q51 -52 126 -52q59 0 105 35t62 91h91q-20 -95 -91 -153q-70 -58 -167 -58q-116 0 -192 76
q-77 77 -77 189q0 111 77 188q76 76 192 76z" />
    <glyph glyph-name="Cdotaccent" unicode="&#x10a;" horiz-adv-x="802" 
d="M468 834q0 -24 -17.5 -41t-41.5 -17t-41 17t-17 41t17 41.5t41 17.5t41.5 -17.5t17.5 -41.5zM665 276h100q-25 -126 -124 -208q-98 -80 -232 -80q-154 0 -259 105q-104 107 -104 259t104 258q105 105 259 105q130 0 228 -77t126 -200h-103q-27 84 -96 135q-68 51 -156 51
q-111 0 -187 -79q-75 -79 -75 -193t75 -194q76 -79 187 -79q92 0 163 54q70 53 94 143z" />
    <glyph glyph-name="cdotaccent" unicode="&#x10b;" horiz-adv-x="605" 
d="M310 517q97 0 167 -58q71 -59 90 -149h-92q-17 55 -62 88.5t-103 33.5q-75 0 -126 -52q-51 -51 -51 -127q0 -75 51 -128q51 -52 126 -52q59 0 105 35t62 91h91q-20 -95 -91 -153q-70 -58 -167 -58q-116 0 -192 76q-77 77 -77 189q0 111 77 188q76 76 192 76zM368 643
q0 -24 -17.5 -41t-41.5 -17t-41 17t-17 41t17 41.5t41 17.5t41.5 -17.5t17.5 -41.5z" />
    <glyph glyph-name="Ccaron" unicode="&#x10c;" horiz-adv-x="802" 
d="M665 276h100q-25 -126 -124 -208q-98 -80 -232 -80q-154 0 -259 105q-104 107 -104 259t104 258q105 105 259 105q130 0 228 -77t126 -200h-103q-27 84 -96 135q-68 51 -156 51q-111 0 -187 -79q-75 -79 -75 -193t75 -194q76 -79 187 -79q92 0 163 54q70 53 94 143z
M366 765l-116 145h81l77 -93l75 93h82l-117 -145h-82z" />
    <glyph glyph-name="ccaron" unicode="&#x10d;" horiz-adv-x="605" 
d="M267 572l-116 145h81l77 -93l75 93h82l-117 -145h-82zM310 517q97 0 167 -58q71 -59 90 -149h-92q-17 55 -62 88.5t-103 33.5q-75 0 -126 -52q-51 -51 -51 -127q0 -75 51 -128q51 -52 126 -52q59 0 105 35t62 91h91q-20 -95 -91 -153q-70 -58 -167 -58q-116 0 -192 76
q-77 77 -77 189q0 111 77 188q76 76 192 76z" />
    <glyph glyph-name="Dcaron" unicode="&#x10e;" horiz-adv-x="763" 
d="M338 0h-245v703h245q165 0 271 -95q106 -94 106 -254q0 -161 -106 -258q-105 -96 -271 -96zM335 612h-146v-521h146q127 0 203 70q77 71 77 193q0 119 -77 188q-76 70 -203 70zM315 765l-116 145h81l77 -93l75 93h82l-117 -145h-82z" />
    <glyph glyph-name="dcaron" unicode="&#x10f;" horiz-adv-x="686" 
d="M772 650l-46 -122h-59l44 112q-45 12 -45 55q0 25 16.5 41.5t42.5 16.5q25 0 42 -17t17 -41q0 -12 -12 -45zM296 -12q-109 0 -182 75q-72 75 -72 188q0 114 73 190t184 76q120 0 190 -93v317h92v-741h-87v89q-34 -48 -85.5 -74.5t-112.5 -26.5zM137 252q0 -76 51 -128
t127 -52q77 0 126 52q51 52 51 128t-51 129q-49 52 -126 52q-76 0 -127 -53q-51 -52 -51 -128z" />
    <glyph glyph-name="Dcroat" unicode="&#x110;" horiz-adv-x="772" 
d="M347 0h-245v311h-79v80h79v312h245q165 0 271 -95q106 -94 106 -254q0 -161 -106 -258q-105 -96 -271 -96zM394 311h-196v-220h146q127 0 203 70q77 71 77 193q0 119 -77 188q-76 70 -203 70h-146v-221h196v-80z" />
    <glyph glyph-name="dslash" unicode="&#x111;" 
d="M296 -12q-109 0 -182 75q-72 75 -72 188q0 114 73 190t184 76q120 0 190 -93v161h-194v75h194v81h92v-81h71v-75h-71v-585h-87v89q-34 -48 -85.5 -74.5t-112.5 -26.5zM137 252q0 -76 51 -128t127 -52q77 0 126 52q51 52 51 128t-51 129q-49 52 -126 52q-76 0 -127 -53
q-51 -52 -51 -128z" />
    <glyph glyph-name="Emacron" unicode="&#x112;" horiz-adv-x="582" 
d="M527 88v-88h-434v703h429v-88h-333v-215h309v-84h-309v-228h338zM444 855v-63h-269v63h269z" />
    <glyph glyph-name="emacron" unicode="&#x113;" horiz-adv-x="607" 
d="M306 67q52 0 93.5 24.5t62.5 67.5h91q-26 -79 -92.5 -125t-155.5 -46q-113 0 -189 76q-75 76 -75 189q0 110 77 187t188 77q112 0 186 -74t74 -184v-32h-434q8 -71 56 -116q50 -44 118 -44zM306 438q-62 0 -107.5 -37t-61.5 -98h336q-15 63 -60 99t-107 36zM440 664v-63
h-269v63h269z" />
    <glyph glyph-name="Ebreve" unicode="&#x114;" horiz-adv-x="582" 
d="M527 88v-88h-434v703h429v-88h-333v-215h309v-84h-309v-228h338zM308 756q-64 0 -104 40t-40 103h68q0 -39 20 -61.5t56 -22.5t56 22.5t20 61.5h68q0 -63 -40 -103t-104 -40z" />
    <glyph glyph-name="ebreve" unicode="&#x115;" horiz-adv-x="607" 
d="M306 67q52 0 93.5 24.5t62.5 67.5h91q-26 -79 -92.5 -125t-155.5 -46q-113 0 -189 76q-75 76 -75 189q0 110 77 187t188 77q112 0 186 -74t74 -184v-32h-434q8 -71 56 -116q50 -44 118 -44zM306 438q-62 0 -107.5 -37t-61.5 -98h336q-15 63 -60 99t-107 36zM305 564
q-64 0 -104 40t-40 103h68q0 -39 20 -61.5t56 -22.5t56 22.5t20 61.5h68q0 -63 -40 -103t-104 -40z" />
    <glyph glyph-name="Edotaccent" unicode="&#x116;" horiz-adv-x="582" 
d="M368 834q0 -24 -17.5 -41t-41.5 -17t-41 17t-17 41t17 41.5t41 17.5t41.5 -17.5t17.5 -41.5zM527 88v-88h-434v703h429v-88h-333v-215h309v-84h-309v-228h338z" />
    <glyph glyph-name="edotaccent" unicode="&#x117;" horiz-adv-x="607" 
d="M306 67q52 0 93.5 24.5t62.5 67.5h91q-26 -79 -92.5 -125t-155.5 -46q-113 0 -189 76q-75 76 -75 189q0 110 77 187t188 77q112 0 186 -74t74 -184v-32h-434q8 -71 56 -116q50 -44 118 -44zM306 438q-62 0 -107.5 -37t-61.5 -98h336q-15 63 -60 99t-107 36zM364 643
q0 -24 -17.5 -41t-41.5 -17t-41 17t-17 41t17 41.5t41 17.5t41.5 -17.5t17.5 -41.5z" />
    <glyph glyph-name="Eogonek" unicode="&#x118;" horiz-adv-x="582" 
d="M422 0h-329v703h429v-88h-333v-215h309v-84h-309v-228h338v-88h-29q-50 -60 -68.5 -90t-18.5 -51q0 -44 44 -44q27 0 50 14v-64q-29 -21 -68 -21q-43 0 -73.5 27.5t-30.5 67.5q0 35 16 66q16 30 73 95z" />
    <glyph glyph-name="eogonek" unicode="&#x119;" horiz-adv-x="607" 
d="M358 -7q-28 -5 -53 -5q-113 0 -189 76q-75 76 -75 189q0 110 77 187t188 77q112 0 186 -74t74 -184v-32h-434q8 -71 56 -116q50 -44 118 -44q52 0 93.5 24.5t62.5 67.5h91q-13 -41 -56 -93q-70 -81 -99 -127.5t-29 -79.5q0 -44 44 -44q27 0 50 14v-64q-29 -21 -68 -21
q-43 0 -73.5 27.5t-30.5 67.5q0 36 14.5 70t52.5 84zM306 438q-62 0 -107.5 -37t-61.5 -98h335q-15 63 -59.5 99t-106.5 36z" />
    <glyph glyph-name="Ecaron" unicode="&#x11a;" horiz-adv-x="582" 
d="M527 88v-88h-434v703h429v-88h-333v-215h309v-84h-309v-228h338zM265 765l-116 145h81l77 -93l75 93h82l-117 -145h-82z" />
    <glyph glyph-name="ecaron" unicode="&#x11b;" horiz-adv-x="607" 
d="M263 572l-116 145h81l77 -93l75 93h82l-117 -145h-82zM306 67q52 0 93.5 24.5t62.5 67.5h91q-26 -79 -92.5 -125t-155.5 -46q-113 0 -189 76q-75 76 -75 189q0 110 77 187t188 77q112 0 186 -74t74 -184v-32h-434q8 -71 56 -116q50 -44 118 -44zM306 438
q-62 0 -107.5 -37t-61.5 -98h336q-15 63 -60 99t-107 36z" />
    <glyph glyph-name="Gcircumflex" unicode="&#x11c;" horiz-adv-x="810" 
d="M330 765h-81l116 145h82l117 -145h-82l-75 93zM403 353h344v-353h-80v125q-87 -137 -269 -137q-150 0 -251 105q-100 104 -100 259q0 153 103 257q103 106 257 106q120 0 214 -68q92 -67 127 -179h-105q-30 72 -93.5 114t-142.5 42q-111 0 -186 -79q-74 -80 -74 -193
q0 -117 74 -197q75 -79 188 -79q103 0 169 51.5t82 146.5h-257v79z" />
    <glyph glyph-name="gcircumflex" unicode="&#x11d;" horiz-adv-x="630" 
d="M219 572h-81l116 145h82l117 -145h-82l-75 93zM47 -24h91q1 -56 46 -90.5t115 -34.5q71 0 115 41t44 107v109q-65 -84 -176 -84q-103 0 -170 70q-68 71 -68 176q0 106 69 176q69 71 172 71q111 0 178 -89v77h87v-497q0 -104 -69 -169q-68 -65 -182 -65q-107 0 -179 57
q-72 58 -73 145zM138 270q0 -71 46 -118q47 -47 115 -47q69 0 115 48q47 49 47 117t-47 117q-47 48 -115 48q-69 0 -115 -48q-46 -46 -46 -117z" />
    <glyph glyph-name="Gbreve" unicode="&#x11e;" horiz-adv-x="810" 
d="M403 353h344v-353h-80v125q-87 -137 -269 -137q-150 0 -251 105q-100 104 -100 259q0 153 103 257q103 106 257 106q120 0 214 -68q92 -67 127 -179h-105q-30 72 -93.5 114t-142.5 42q-111 0 -186 -79q-74 -80 -74 -193q0 -117 74 -197q75 -79 188 -79q103 0 169 51.5
t82 146.5h-257v79zM407 756q-64 0 -104 40t-40 103h68q0 -39 20 -61.5t56 -22.5t56 22.5t20 61.5h68q0 -63 -40 -103t-104 -40z" />
    <glyph glyph-name="gbreve" unicode="&#x11f;" horiz-adv-x="630" 
d="M47 -24h91q1 -56 46 -90.5t115 -34.5q71 0 115 41t44 107v109q-65 -84 -176 -84q-103 0 -170 70q-68 71 -68 176q0 106 69 176q69 71 172 71q111 0 178 -89v77h87v-497q0 -104 -69 -169q-68 -65 -182 -65q-107 0 -179 57q-72 58 -73 145zM138 270q0 -71 46 -118
q47 -47 115 -47q69 0 115 48q47 49 47 117t-47 117q-47 48 -115 48q-69 0 -115 -48q-46 -46 -46 -117zM296 564q-64 0 -104 40t-40 103h68q0 -39 20 -61.5t56 -22.5t56 22.5t20 61.5h68q0 -63 -40 -103t-104 -40z" />
    <glyph glyph-name="Gdotaccent" unicode="&#x120;" horiz-adv-x="810" 
d="M467 834q0 -24 -17.5 -41t-41.5 -17t-41 17t-17 41t17 41.5t41 17.5t41.5 -17.5t17.5 -41.5zM403 353h344v-353h-80v125q-87 -137 -269 -137q-150 0 -251 105q-100 104 -100 259q0 153 103 257q103 106 257 106q120 0 214 -68q92 -67 127 -179h-105q-30 72 -93.5 114
t-142.5 42q-111 0 -186 -79q-74 -80 -74 -193q0 -117 74 -197q75 -79 188 -79q103 0 169 51.5t82 146.5h-257v79z" />
    <glyph glyph-name="gdotaccent" unicode="&#x121;" horiz-adv-x="630" 
d="M47 -24h91q1 -56 46 -90.5t115 -34.5q71 0 115 41t44 107v109q-65 -84 -176 -84q-103 0 -170 70q-68 71 -68 176q0 106 69 176q69 71 172 71q111 0 178 -89v77h87v-497q0 -104 -69 -169q-68 -65 -182 -65q-107 0 -179 57q-72 58 -73 145zM138 270q0 -71 46 -118
q47 -47 115 -47q69 0 115 48q47 49 47 117t-47 117q-47 48 -115 48q-69 0 -115 -48q-46 -46 -46 -117zM354 643q0 -24 -17.5 -41t-41.5 -17t-41 17t-17 41t17 41.5t41 17.5t41.5 -17.5t17.5 -41.5z" />
    <glyph glyph-name="uni0122" unicode="&#x122;" horiz-adv-x="810" 
d="M448 -144l-47 -113h-52l38 88q-18 4 -30 19t-12 33q0 23 15.5 38.5t38.5 15.5q24 0 39.5 -15.5t15.5 -38.5q0 -11 -6 -27zM403 353h344v-353h-80v125q-87 -137 -269 -137q-150 0 -251 105q-100 104 -100 259q0 153 103 257q103 106 257 106q120 0 214 -68
q92 -67 127 -179h-105q-30 72 -93.5 114t-142.5 42q-111 0 -186 -79q-74 -80 -74 -193q0 -117 74 -197q75 -79 188 -79q103 0 169 51.5t82 146.5h-257v79z" />
    <glyph glyph-name="uni0123" unicode="&#x123;" horiz-adv-x="630" 
d="M246 665l48 113h54l-39 -89q18 -4 29 -18t11 -32q0 -23 -15.5 -38.5t-38.5 -15.5q-24 0 -39.5 15.5t-15.5 38.5q0 8 6 26zM47 -24h91q1 -56 46 -90.5t115 -34.5q71 0 115 41t44 107v109q-65 -84 -176 -84q-103 0 -170 70q-68 71 -68 176q0 106 69 176q69 71 172 71
q111 0 178 -89v77h87v-497q0 -104 -69 -169q-68 -65 -182 -65q-107 0 -179 57q-72 58 -73 145zM138 270q0 -71 46 -118q47 -47 115 -47q69 0 115 48q47 49 47 117t-47 117q-47 48 -115 48q-69 0 -115 -48q-46 -46 -46 -117z" />
    <glyph glyph-name="Hcircumflex" unicode="&#x124;" horiz-adv-x="711" 
d="M189 315v-315h-96v703h96v-297h334v297h95v-703h-95v315h-334zM280 765h-81l116 145h82l117 -145h-82l-75 93z" />
    <glyph glyph-name="hcircumflex" unicode="&#x125;" horiz-adv-x="599" 
d="M51 808h-81l116 145h82l117 -145h-82l-75 93zM173 289v-289h-92v741h92v-302q55 78 157 78q89 0 141 -55q53 -55 53 -143v-319h-92v305q0 60 -33 94t-92 34q-60 0 -97 -40.5t-37 -103.5z" />
    <glyph glyph-name="Hbar" unicode="&#x126;" horiz-adv-x="732" 
d="M199 315v-315h-96v504h-77v77h77v122h96v-122h334v122h95v-122h78v-77h-78v-504h-95v315h-334zM533 504h-334v-98h334v98z" />
    <glyph glyph-name="hbar" unicode="&#x127;" horiz-adv-x="599" 
d="M173 289v-289h-92v585h-70v75h70v81h92v-81h195v-75h-195v-146q55 78 157 78q89 0 141 -55q53 -55 53 -143v-319h-92v305q0 60 -33 94t-92 34q-60 0 -97 -40.5t-37 -103.5z" />
    <glyph glyph-name="Itilde" unicode="&#x128;" horiz-adv-x="282" 
d="M189 703v-703h-96v703h96zM170 855q25 -21 34 -21q14 0 20.5 12t10.5 43h62q-10 -120 -93 -120q-39 0 -75 36q-23 24 -39 24q-34 0 -41 -59h-62q7 124 104 124q39 0 79 -39z" />
    <glyph glyph-name="itilde" unicode="&#x129;" horiz-adv-x="258" 
d="M175 505v-505h-92v505h92zM157 666q25 -21 34 -21q14 0 20.5 12t10.5 43h62q-10 -120 -93 -120q-39 0 -75 36q-23 24 -39 24q-34 0 -41 -59h-62q7 124 104 124q39 0 79 -39z" />
    <glyph glyph-name="Imacron" unicode="&#x12a;" horiz-adv-x="282" 
d="M189 703v-703h-96v703h96zM277 855v-63h-269v63h269z" />
    <glyph glyph-name="imacron" unicode="&#x12b;" horiz-adv-x="258" 
d="M175 505v-505h-92v505h92zM264 664v-63h-269v63h269z" />
    <glyph glyph-name="Iogonek" unicode="&#x12e;" horiz-adv-x="282" 
d="M4 -161q0 35 16 66q16 30 73 95v703h96v-703h-20q-50 -60 -68.5 -90t-18.5 -51q0 -44 44 -44q27 0 50 14v-64q-29 -21 -68 -21q-43 0 -73.5 27.5t-30.5 67.5z" />
    <glyph glyph-name="iogonek" unicode="&#x12f;" horiz-adv-x="258" 
d="M64 666q0 27 18 45t47 18t47 -18t18 -45t-18.5 -45t-46.5 -18t-46.5 18t-18.5 45zM-6 -161q0 35 16 66q16 30 73 95v505h92v-505h-16q-50 -60 -68.5 -90t-18.5 -51q0 -44 44 -44q27 0 50 14v-64q-29 -21 -68 -21q-43 0 -73.5 27.5t-30.5 67.5z" />
    <glyph glyph-name="Idot" unicode="&#x130;" horiz-adv-x="282" 
d="M189 703v-703h-96v703h96zM201 834q0 -24 -17.5 -41t-41.5 -17t-41 17t-17 41t17 41.5t41 17.5t41.5 -17.5t17.5 -41.5z" />
    <glyph glyph-name="dotlessi" unicode="&#x131;" horiz-adv-x="258" 
d="M175 505v-505h-92v505h92z" />
    <glyph glyph-name="IJ" unicode="&#x132;" horiz-adv-x="860" 
d="M189 703v-703h-96v703h96zM678 223v480h96v-482q0 -104 -67 -168q-67 -65 -169 -65q-101 0 -168 65q-66 66 -66 169h96q0 -65 38 -104.5t100 -39.5q63 0 101.5 40t38.5 105z" />
    <glyph glyph-name="ij" unicode="&#x133;" horiz-adv-x="521" 
d="M64 666q0 27 18 45t47 18t47 -18t18 -45t-18.5 -45t-46.5 -18t-46.5 18t-18.5 45zM175 505v-505h-92v505h92zM454 668q0 -26 -17.5 -43.5t-44.5 -17.5t-44.5 17t-17.5 44t17.5 44t44.5 17t44.5 -17.5t17.5 -43.5zM346 -35v540h92v-541q0 -190 -183 -190q-5 0 -35 2v81
q9 -1 19 -1q55 0 81 26.5t26 82.5z" />
    <glyph glyph-name="Jcircumflex" unicode="&#x134;" horiz-adv-x="578" 
d="M396 223v480h96v-482q0 -104 -67 -168q-67 -65 -169 -65q-101 0 -168 65q-66 66 -66 169h96q0 -65 38 -104.5t100 -39.5q63 0 101.5 40t38.5 105zM367 765h-81l116 145h82l117 -145h-82l-75 93z" />
    <glyph glyph-name="jcircumflex" unicode="&#x135;" horiz-adv-x="264" 
d="M59 572h-81l116 145h82l117 -145h-82l-75 93zM89 -35v540h92v-541q0 -97 -45 -143.5t-138 -46.5q-5 0 -35 2v81q3 0 10 -0.5t9 -0.5q55 0 81 26.5t26 82.5z" />
    <glyph glyph-name="uni0136" unicode="&#x136;" horiz-adv-x="600" 
d="M381 -144l-47 -113h-52l38 88q-18 4 -30 19t-12 33q0 23 15.5 38.5t38.5 15.5q24 0 39.5 -15.5t15.5 -38.5q0 -11 -6 -27zM93 0v703h96v-327l290 327h115l-305 -342l309 -361h-124l-285 335v-335h-96z" />
    <glyph glyph-name="uni0137" unicode="&#x137;" horiz-adv-x="514" 
d="M339 -144l-47 -113h-52l38 88q-18 4 -30 19t-12 33q0 23 15.5 38.5t38.5 15.5q24 0 39.5 -15.5t15.5 -38.5q0 -11 -6 -27zM173 255v-255h-92v741h92v-451l200 215h112l-215 -227l251 -278h-120z" />
    <glyph glyph-name="kgreenlandic" unicode="&#x138;" horiz-adv-x="514" 
d="M173 255v-255h-92v505h92v-215l200 215h112l-215 -227l251 -278h-120z" />
    <glyph glyph-name="Lacute" unicode="&#x139;" horiz-adv-x="525" 
d="M268 910l-82 -145h-88l81 145h89zM508 88v-88h-415v703h96v-615h319z" />
    <glyph glyph-name="lacute" unicode="&#x13a;" horiz-adv-x="258" 
d="M256 953l-82 -145h-88l81 145h89zM83 0v741h92v-741h-92z" />
    <glyph glyph-name="uni013B" unicode="&#x13b;" horiz-adv-x="525" 
d="M349 -144l-47 -113h-52l38 88q-18 4 -30 19t-12 33q0 23 15.5 38.5t38.5 15.5q24 0 39.5 -15.5t15.5 -38.5q0 -11 -6 -27zM508 88v-88h-415v703h96v-615h319z" />
    <glyph glyph-name="uni013C" unicode="&#x13c;" horiz-adv-x="258" 
d="M177 -144l-47 -113h-52l38 88q-18 4 -30 19t-12 33q0 23 15.5 38.5t38.5 15.5q24 0 39.5 -15.5t15.5 -38.5q0 -11 -6 -27zM83 0v741h92v-741h-92z" />
    <glyph glyph-name="Lcaron" unicode="&#x13d;" horiz-adv-x="527" 
d="M380 650l-46 -122h-59l44 112q-45 12 -45 55q0 25 16.5 41.5t42.5 16.5q25 0 42 -17t17 -41q0 -12 -12 -45zM508 88v-88h-415v703h96v-615h319z" />
    <glyph glyph-name="lcaron" unicode="&#x13e;" horiz-adv-x="280" 
d="M366 650l-46 -122h-59l44 112q-45 12 -45 55q0 25 16.5 41.5t42.5 16.5q25 0 42 -17t17 -41q0 -12 -12 -45zM83 0v741h92v-741h-92z" />
    <glyph glyph-name="Ldot" unicode="&#x13f;" horiz-adv-x="532" 
d="M508 88v-88h-415v703h96v-615h319zM474 360q0 -29 -20 -48.5t-50 -19.5q-29 0 -49 20t-20 48q0 30 19.5 49.5t49.5 19.5t50 -19.5t20 -49.5z" />
    <glyph glyph-name="ldot" unicode="&#x140;" horiz-adv-x="367" 
d="M83 0v741h92v-741h-92zM382 360q0 -29 -20 -48.5t-50 -19.5q-29 0 -49 20t-20 48q0 30 19.5 49.5t49.5 19.5t50 -19.5t20 -49.5z" />
    <glyph glyph-name="Lslash" unicode="&#x141;" horiz-adv-x="552" 
d="M534 88v-88h-415v247l-78 -44v92l78 44v364h96v-310l153 86v-92l-153 -86v-213h319z" />
    <glyph glyph-name="lslash" unicode="&#x142;" horiz-adv-x="358" 
d="M232 368v-368h-92v316l-106 -60v87l106 60v338h92v-286l107 60v-87z" />
    <glyph glyph-name="Nacute" unicode="&#x143;" horiz-adv-x="713" 
d="M484 910l-82 -145h-88l81 145h89zM184 543v-543h-91v703h92l344 -544v544h91v-703h-93z" />
    <glyph glyph-name="nacute" unicode="&#x144;" horiz-adv-x="599" 
d="M432 717l-82 -145h-88l81 145h89zM173 289v-289h-92v505h88v-71q56 83 161 83q89 0 141 -55q53 -55 53 -143v-319h-92v298q0 64 -32.5 99.5t-92.5 35.5t-97 -40.5t-37 -103.5z" />
    <glyph glyph-name="uni0145" unicode="&#x145;" horiz-adv-x="713" 
d="M403 -144l-47 -113h-52l38 88q-18 4 -30 19t-12 33q0 23 15.5 38.5t38.5 15.5q24 0 39.5 -15.5t15.5 -38.5q0 -11 -6 -27zM184 543v-543h-91v703h92l344 -544v544h91v-703h-93z" />
    <glyph glyph-name="uni0146" unicode="&#x146;" horiz-adv-x="599" 
d="M351 -144l-47 -113h-52l38 88q-18 4 -30 19t-12 33q0 23 15.5 38.5t38.5 15.5q24 0 39.5 -15.5t15.5 -38.5q0 -11 -6 -27zM173 289v-289h-92v505h88v-71q56 83 161 83q89 0 141 -55q53 -55 53 -143v-319h-92v298q0 64 -32.5 99.5t-92.5 35.5t-97 -40.5t-37 -103.5z" />
    <glyph glyph-name="Ncaron" unicode="&#x147;" horiz-adv-x="713" 
d="M184 543v-543h-91v703h92l344 -544v544h91v-703h-93zM315 765l-116 145h81l77 -93l75 93h82l-117 -145h-82z" />
    <glyph glyph-name="ncaron" unicode="&#x148;" horiz-adv-x="599" 
d="M263 572l-116 145h81l77 -93l75 93h82l-117 -145h-82zM173 289v-289h-92v505h88v-71q56 83 161 83q89 0 141 -55q53 -55 53 -143v-319h-92v298q0 64 -32.5 99.5t-92.5 35.5t-97 -40.5t-37 -103.5z" />
    <glyph glyph-name="napostrophe" unicode="&#x149;" horiz-adv-x="599" 
d="M114 663l-47 -113h-52l38 88q-18 4 -30 19t-12 33q0 23 15.5 38.5t38.5 15.5q24 0 39.5 -15.5t15.5 -38.5q0 -10 -6 -27zM173 289v-289h-92v505h88v-71q56 83 161 83q89 0 141 -55q53 -55 53 -143v-319h-92v298q0 64 -32.5 99.5t-92.5 35.5t-97 -40.5t-37 -103.5z" />
    <glyph glyph-name="Omacron" unicode="&#x14c;" horiz-adv-x="829" 
d="M46 352q0 153 105 258q107 105 263 105t263 -105q106 -105 106 -258t-106 -259q-107 -105 -263 -105t-263 105q-105 105 -105 259zM683 352q0 114 -78 193q-76 79 -191 79t-191 -79q-77 -80 -77 -193q0 -116 76 -195q76 -78 192 -78t192 78q77 80 77 195zM550 855v-63
h-269v63h269z" />
    <glyph glyph-name="omacron" unicode="&#x14d;" horiz-adv-x="620" 
d="M445 664v-63h-269v63h269zM41 253q0 111 77 188q76 76 192 76q115 0 192 -77t77 -187q0 -112 -77 -189q-76 -76 -192 -76t-192 76q-77 77 -77 189zM488 253q0 75 -52 127q-51 52 -126 52t-127 -52q-51 -52 -51 -127t51 -128q51 -52 127 -52t127 52q51 53 51 128z" />
    <glyph glyph-name="Obreve" unicode="&#x14e;" horiz-adv-x="829" 
d="M46 352q0 153 105 258q107 105 263 105t263 -105q106 -105 106 -258t-106 -259q-107 -105 -263 -105t-263 105q-105 105 -105 259zM683 352q0 114 -78 193q-76 79 -191 79t-191 -79q-77 -80 -77 -193q0 -116 76 -195q76 -78 192 -78t192 78q77 80 77 195zM415 756
q-64 0 -104 40t-40 103h68q0 -39 20 -61.5t56 -22.5t56 22.5t20 61.5h68q0 -63 -40 -103t-104 -40z" />
    <glyph glyph-name="obreve" unicode="&#x14f;" horiz-adv-x="620" 
d="M41 253q0 111 77 188q76 76 192 76q115 0 192 -77t77 -187q0 -112 -77 -189q-76 -76 -192 -76t-192 76q-77 77 -77 189zM488 253q0 75 -52 127q-51 52 -126 52t-127 -52q-51 -52 -51 -127t51 -128q51 -52 127 -52t127 52q51 53 51 128zM311 564q-64 0 -104 40t-40 103h68
q0 -39 20 -61.5t56 -22.5t56 22.5t20 61.5h68q0 -63 -40 -103t-104 -40z" />
    <glyph glyph-name="Ohungarumlaut" unicode="&#x150;" horiz-adv-x="829" 
d="M312 765l71 145h84l-72 -145h-83zM435 765l72 145h84l-72 -145h-84zM46 352q0 153 105 258q107 105 263 105t263 -105q106 -105 106 -258t-106 -259q-107 -105 -263 -105t-263 105q-105 105 -105 259zM683 352q0 114 -78 193q-76 79 -191 79t-191 -79q-77 -80 -77 -193
q0 -116 76 -195q76 -78 192 -78t192 78q77 80 77 195z" />
    <glyph glyph-name="ohungarumlaut" unicode="&#x151;" horiz-adv-x="620" 
d="M207 572l71 145h84l-72 -145h-83zM330 572l72 145h84l-72 -145h-84zM41 253q0 111 77 188q76 76 192 76q115 0 192 -77t77 -187q0 -112 -77 -189q-76 -76 -192 -76t-192 76q-77 77 -77 189zM488 253q0 75 -52 127q-51 52 -126 52t-127 -52q-51 -52 -51 -127t51 -128
q51 -52 127 -52t127 52q51 53 51 128z" />
    <glyph glyph-name="OE" unicode="&#x152;" horiz-adv-x="1172" 
d="M1117 88v-88h-434v119q-50 -63 -122.5 -97t-156.5 -34q-148 0 -253 107t-105 257t105 256q105 107 253 107q84 0 156.5 -34t122.5 -97v119h429v-88h-333v-215h309v-84h-309v-228h338zM683 352q0 114 -78 193q-76 79 -191 79t-191 -79q-77 -80 -77 -193q0 -116 76 -195
q76 -78 192 -78t192 78q77 80 77 195z" />
    <glyph glyph-name="oe" unicode="&#x153;" horiz-adv-x="1054" 
d="M41 253q0 109 76 186q77 78 183 78q75 0 136.5 -34.5t96.5 -95.5q34 61 92.5 95.5t127.5 34.5q112 0 186 -74t74 -184v-32h-434q8 -71 56 -116q50 -44 118 -44q52 0 93.5 24.5t62.5 67.5h91q-26 -79 -92.5 -125t-155.5 -46q-70 0 -128 34.5t-91 95.5q-35 -61 -97 -95.5
t-136 -34.5q-106 0 -183 78q-76 77 -76 187zM753 438q-62 0 -107.5 -37t-61.5 -98h335q-15 63 -59.5 99t-106.5 36zM488 253q0 75 -52 127q-51 52 -126 52t-127 -52q-51 -52 -51 -127t51 -128q51 -52 127 -52t127 52q51 53 51 128z" />
    <glyph glyph-name="Racute" unicode="&#x154;" horiz-adv-x="665" 
d="M189 276v-276h-96v703h252q115 0 188 -57q73 -55 73 -152q0 -87 -58 -144.5t-157 -70.5l248 -279h-123l-242 276h-85zM340 619h-151v-264h151q75 0 120.5 37t45.5 99q0 59 -45.5 93.5t-120.5 34.5zM463 910l-82 -145h-88l81 145h89z" />
    <glyph glyph-name="racute" unicode="&#x155;" horiz-adv-x="380" 
d="M351 717l-82 -145h-88l81 145h89zM329 425q-70 0 -113 -44.5t-43 -115.5v-265h-92v505h88v-94q51 101 162 101q12 0 26 -2v-87q-24 2 -28 2z" />
    <glyph glyph-name="uni0156" unicode="&#x156;" horiz-adv-x="665" 
d="M401 -144l-47 -113h-52l38 88q-18 4 -30 19t-12 33q0 23 15.5 38.5t38.5 15.5q24 0 39.5 -15.5t15.5 -38.5q0 -11 -6 -27zM189 276v-276h-96v703h252q115 0 188 -57q73 -55 73 -152q0 -87 -58 -144.5t-157 -70.5l248 -279h-123l-242 276h-85zM340 619h-151v-264h151
q75 0 120.5 37t45.5 99q0 59 -45.5 93.5t-120.5 34.5z" />
    <glyph glyph-name="uni0157" unicode="&#x157;" horiz-adv-x="380" 
d="M175 -144l-47 -113h-52l38 88q-18 4 -30 19t-12 33q0 23 15.5 38.5t38.5 15.5q24 0 39.5 -15.5t15.5 -38.5q0 -11 -6 -27zM329 425q-70 0 -113 -44.5t-43 -115.5v-265h-92v505h88v-94q51 101 162 101q12 0 26 -2v-87q-24 2 -28 2z" />
    <glyph glyph-name="Rcaron" unicode="&#x158;" horiz-adv-x="665" 
d="M189 276v-276h-96v703h252q115 0 188 -57q73 -55 73 -152q0 -87 -58 -144.5t-157 -70.5l248 -279h-123l-242 276h-85zM340 619h-151v-264h151q75 0 120.5 37t45.5 99q0 59 -45.5 93.5t-120.5 34.5zM294 765l-116 145h81l77 -93l75 93h82l-117 -145h-82z" />
    <glyph glyph-name="rcaron" unicode="&#x159;" horiz-adv-x="380" 
d="M182 572l-116 145h81l77 -93l75 93h82l-117 -145h-82zM329 425q-70 0 -113 -44.5t-43 -115.5v-265h-92v505h88v-94q51 101 162 101q12 0 26 -2v-87q-24 2 -28 2z" />
    <glyph glyph-name="Sacute" unicode="&#x15a;" horiz-adv-x="608" 
d="M298 715q111 0 176 -57.5t72 -163.5h-98q-5 67 -44 102t-107 35q-61 0 -99 -28t-38 -75q0 -42 23 -66t87 -42l101 -29q103 -30 145.5 -74.5t42.5 -116.5q0 -99 -66 -155.5t-180 -56.5q-124 0 -194.5 62t-74.5 178h97q3 -75 47.5 -115t122.5 -40q71 0 111 31.5t40 89.5
q0 40 -27 65q-27 27 -105 49l-83 24q-101 29 -143 74q-40 44 -40 117q0 85 66 138q66 54 168 54zM425 910l-82 -145h-88l81 145h89z" />
    <glyph glyph-name="sacute" unicode="&#x15b;" horiz-adv-x="497" 
d="M375 717l-82 -145h-88l81 145h89zM248 517q89 0 140.5 -41t55.5 -117h-94q-2 84 -103 84q-44 0 -71.5 -18t-27.5 -47q0 -28 19.5 -43.5t74.5 -27.5l61 -14q81 -19 116 -52.5t35 -91.5q0 -74 -54 -117.5t-145 -43.5q-101 0 -158 45t-60 129h96q1 -49 32 -74.5t87 -25.5
q51 0 80 20.5t29 57.5q0 28 -19 45t-65 28l-74 17q-79 18 -113 51t-34 90q0 66 53.5 106t138.5 40z" />
    <glyph glyph-name="Scircumflex" unicode="&#x15c;" horiz-adv-x="608" 
d="M298 715q111 0 176 -57.5t72 -163.5h-98q-5 67 -44 102t-107 35q-61 0 -99 -28t-38 -75q0 -42 23 -66t87 -42l101 -29q103 -30 145.5 -74.5t42.5 -116.5q0 -99 -66 -155.5t-180 -56.5q-124 0 -194.5 62t-74.5 178h97q3 -75 47.5 -115t122.5 -40q71 0 111 31.5t40 89.5
q0 40 -27 65q-27 27 -105 49l-83 24q-101 29 -143 74q-40 44 -40 117q0 85 66 138q66 54 168 54zM222 765h-81l116 145h82l117 -145h-82l-75 93z" />
    <glyph glyph-name="scircumflex" unicode="&#x15d;" horiz-adv-x="497" 
d="M172 572h-81l116 145h82l117 -145h-82l-75 93zM248 517q89 0 140.5 -41t55.5 -117h-94q-2 84 -103 84q-44 0 -71.5 -18t-27.5 -47q0 -28 19.5 -43.5t74.5 -27.5l61 -14q81 -19 116 -52.5t35 -91.5q0 -74 -54 -117.5t-145 -43.5q-101 0 -158 45t-60 129h96q1 -49 32 -74.5
t87 -25.5q51 0 80 20.5t29 57.5q0 28 -19 45t-65 28l-74 17q-79 18 -113 51t-34 90q0 66 53.5 106t138.5 40z" />
    <glyph glyph-name="Scedilla" unicode="&#x15e;" horiz-adv-x="608" 
d="M298 715q111 0 176 -57.5t72 -163.5h-98q-5 67 -44 102t-107 35q-61 0 -99 -28t-38 -75q0 -42 23 -66t87 -42l101 -29q103 -30 145.5 -74.5t42.5 -116.5q0 -92 -57 -147.5t-159 -63.5l-25 -41h3q48 0 78 -28.5t30 -73.5q0 -44 -32.5 -73t-80.5 -29q-49 0 -79.5 26
t-33.5 70h70q1 -16 13.5 -26t29.5 -10q18 0 30.5 12t12.5 30q0 19 -12 31t-31 12q-24 0 -43 -20l-55 29l56 92q-107 9 -167 70.5t-63 167.5h97q3 -75 47.5 -115t122.5 -40q71 0 111 31.5t40 89.5q0 40 -27 66t-105 48l-83 24q-101 29 -143 74q-40 44 -40 117q0 85 66 138
q66 54 168 54z" />
    <glyph glyph-name="scedilla" unicode="&#x15f;" horiz-adv-x="497" 
d="M248 517q89 0 140.5 -41t55.5 -117h-94q-2 84 -103 84q-44 0 -71.5 -18t-27.5 -47q0 -28 19 -43.5t75 -27.5l61 -14q81 -19 116 -52.5t35 -91.5q0 -68 -45.5 -110.5t-124.5 -49.5l-25 -41h3q48 0 78 -28.5t30 -73.5q0 -44 -32.5 -73t-80.5 -29q-49 0 -79.5 26t-33.5 70
h70q1 -16 13.5 -26t29.5 -10q18 0 30.5 12t12.5 30q0 19 -12 31t-31 12q-24 0 -43 -20l-55 29l57 92q-84 8 -130 52t-49 120h96q1 -49 32 -74.5t87 -25.5q51 0 80 20.5t29 57.5q0 28 -19 45t-65 28l-74 17q-79 18 -113 51t-34 90q0 66 53.5 106t138.5 40z" />
    <glyph glyph-name="Scaron" unicode="&#x160;" horiz-adv-x="608" 
d="M298 715q111 0 176 -57.5t72 -163.5h-98q-5 67 -44 102t-107 35q-61 0 -99 -28t-38 -75q0 -42 23 -66t87 -42l101 -29q103 -30 145.5 -74.5t42.5 -116.5q0 -99 -66 -155.5t-180 -56.5q-124 0 -194.5 62t-74.5 178h97q3 -75 47.5 -115t122.5 -40q71 0 111 31.5t40 89.5
q0 40 -27 65q-27 27 -105 49l-83 24q-101 29 -143 74q-40 44 -40 117q0 85 66 138q66 54 168 54zM256 765l-116 145h81l77 -93l75 93h82l-117 -145h-82z" />
    <glyph glyph-name="scaron" unicode="&#x161;" horiz-adv-x="497" 
d="M207 572l-116 145h81l77 -93l75 93h82l-117 -145h-82zM248 517q89 0 140.5 -41t55.5 -117h-94q-2 84 -103 84q-44 0 -71.5 -18t-27.5 -47q0 -28 19.5 -43.5t74.5 -27.5l61 -14q81 -19 116 -52.5t35 -91.5q0 -74 -54 -117.5t-145 -43.5q-101 0 -158 45t-60 129h96
q1 -49 32 -74.5t87 -25.5q51 0 80 20.5t29 57.5q0 28 -19 45t-65 28l-74 17q-79 18 -113 51t-34 90q0 66 53.5 106t138.5 40z" />
    <glyph glyph-name="uni0162" unicode="&#x162;" horiz-adv-x="540" 
d="M172 -102l63 102h-13v615h-206v88h508v-88h-207v-615h-13l-32 -52h3q48 0 78 -28.5t30 -73.5q0 -44 -32.5 -73t-80.5 -29q-49 0 -79.5 26t-33.5 70h70q1 -16 13.5 -26t29.5 -10q18 0 30.5 12t12.5 30q0 19 -12 31t-31 12q-24 0 -43 -20z" />
    <glyph glyph-name="uni0163" unicode="&#x163;" horiz-adv-x="378" 
d="M23 505h85v157l92 22v-179h132v-82h-132v-260q0 -51 19 -72.5t63 -21.5q34 0 74 25v-82q-41 -24 -92 -24l-24 -40h3q48 0 78 -28.5t30 -73.5q0 -44 -32.5 -73t-80.5 -29q-49 0 -79.5 26t-33.5 70h70q1 -16 13.5 -26t29.5 -10q18 0 30.5 12t12.5 30q0 19 -12 31t-31 12
q-24 0 -43 -20l-55 29l61 99q-93 28 -93 160v266h-85v82z" />
    <glyph glyph-name="Tcaron" unicode="&#x164;" horiz-adv-x="540" 
d="M317 615v-615h-95v615h-206v88h508v-88h-207zM226 765l-116 145h81l77 -93l75 93h82l-117 -145h-82z" />
    <glyph glyph-name="tcaron" unicode="&#x165;" horiz-adv-x="378" 
d="M391 704l-46 -122h-59l44 112q-45 12 -45 55q0 25 16.5 41.5t42.5 16.5q25 0 42 -17t17 -41q0 -12 -12 -45zM23 505h85v157l92 22v-179h132v-82h-132v-260q0 -51 19 -72.5t63 -21.5q34 0 74 25v-82q-41 -24 -93 -24q-155 0 -155 169v266h-85v82z" />
    <glyph glyph-name="Tbar" unicode="&#x166;" horiz-adv-x="569" 
d="M332 326v-326h-95v326h-152v80h152v209h-206v88h508v-88h-207v-209h150v-80h-150z" />
    <glyph glyph-name="tbar" unicode="&#x167;" horiz-adv-x="389" 
d="M206 423v-111h132v-75h-132v-74q0 -51 19 -72.5t63 -21.5q34 0 74 25v-82q-41 -24 -93 -24q-155 0 -155 169v80h-85v75h85v111h-85v82h85v157l92 22v-179h132v-82h-132z" />
    <glyph glyph-name="Utilde" unicode="&#x168;" horiz-adv-x="688" 
d="M506 235v468h96v-471q0 -107 -73 -176q-74 -68 -186 -68q-110 0 -184 68q-73 69 -73 176v471h96v-468q0 -69 44.5 -112.5t114.5 -43.5q74 0 119.5 43t45.5 113zM373 855q25 -21 34 -21q14 0 20.5 12t10.5 43h62q-10 -120 -93 -120q-39 0 -75 36q-23 24 -39 24
q-34 0 -41 -59h-62q7 124 104 124q39 0 79 -39z" />
    <glyph glyph-name="utilde" unicode="&#x169;" horiz-adv-x="590" 
d="M287 72q57 0 93.5 40.5t36.5 103.5v289h92v-505h-88v72q-55 -84 -156 -84q-85 0 -138 54q-52 55 -52 144v319h92v-298q0 -63 32 -99t88 -36zM320 666q25 -21 34 -21q14 0 20.5 12t10.5 43h62q-10 -120 -93 -120q-39 0 -75 36q-23 24 -39 24q-34 0 -41 -59h-62
q7 124 104 124q39 0 79 -39z" />
    <glyph glyph-name="Umacron" unicode="&#x16a;" horiz-adv-x="688" 
d="M506 235v468h96v-471q0 -107 -73 -176q-74 -68 -186 -68q-110 0 -184 68q-73 69 -73 176v471h96v-468q0 -69 44.5 -112.5t114.5 -43.5q74 0 119.5 43t45.5 113zM479 855v-63h-269v63h269z" />
    <glyph glyph-name="umacron" unicode="&#x16b;" horiz-adv-x="590" 
d="M287 72q57 0 93.5 40.5t36.5 103.5v289h92v-505h-88v72q-55 -84 -156 -84q-85 0 -138 54q-52 55 -52 144v319h92v-298q0 -63 32 -99t88 -36zM427 664v-63h-269v63h269z" />
    <glyph glyph-name="Ubreve" unicode="&#x16c;" horiz-adv-x="688" 
d="M506 235v468h96v-471q0 -107 -73 -176q-74 -68 -186 -68q-110 0 -184 68q-73 69 -73 176v471h96v-468q0 -69 44.5 -112.5t114.5 -43.5q74 0 119.5 43t45.5 113zM344 756q-64 0 -104 40t-40 103h68q0 -39 20 -61.5t56 -22.5t56 22.5t20 61.5h68q0 -63 -40 -103t-104 -40z
" />
    <glyph glyph-name="ubreve" unicode="&#x16d;" horiz-adv-x="590" 
d="M287 72q57 0 93.5 40.5t36.5 103.5v289h92v-505h-88v72q-55 -84 -156 -84q-85 0 -138 54q-52 55 -52 144v319h92v-298q0 -63 32 -99t88 -36zM292 564q-64 0 -104 40t-40 103h68q0 -39 20 -61.5t56 -22.5t56 22.5t20 61.5h68q0 -63 -40 -103t-104 -40z" />
    <glyph glyph-name="Uring" unicode="&#x16e;" horiz-adv-x="688" 
d="M445 854q0 -41 -29.5 -69.5t-71.5 -28.5q-43 0 -72 28.5t-29 69.5q0 40 29.5 68.5t71.5 28.5t71.5 -28.5t29.5 -68.5zM299 854q0 -20 13 -33.5t32 -13.5t32.5 14t13.5 33t-13.5 32.5t-32.5 13.5t-32 -13.5t-13 -32.5zM506 235v468h96v-471q0 -107 -73 -176
q-74 -68 -186 -68q-110 0 -184 68q-73 69 -73 176v471h96v-468q0 -69 44.5 -112.5t114.5 -43.5q74 0 119.5 43t45.5 113z" />
    <glyph glyph-name="uring" unicode="&#x16f;" horiz-adv-x="590" 
d="M393 662q0 -41 -29.5 -69.5t-71.5 -28.5q-43 0 -72 28.5t-29 69.5q0 40 29.5 68.5t71.5 28.5t71.5 -28.5t29.5 -68.5zM247 662q0 -20 13 -33.5t32 -13.5t32.5 14t13.5 33t-13.5 32.5t-32.5 13.5t-32 -13.5t-13 -32.5zM287 72q57 0 93.5 40.5t36.5 103.5v289h92v-505h-88
v72q-55 -84 -156 -84q-85 0 -138 54q-52 55 -52 144v319h92v-298q0 -63 32 -99t88 -36z" />
    <glyph glyph-name="Uhungarumlaut" unicode="&#x170;" horiz-adv-x="688" 
d="M241 765l71 145h84l-72 -145h-83zM364 765l72 145h84l-72 -145h-84zM506 235v468h96v-471q0 -107 -73 -176q-74 -68 -186 -68q-110 0 -184 68q-73 69 -73 176v471h96v-468q0 -69 44.5 -112.5t114.5 -43.5q74 0 119.5 43t45.5 113z" />
    <glyph glyph-name="uhungarumlaut" unicode="&#x171;" horiz-adv-x="590" 
d="M287 72q57 0 93.5 40.5t36.5 103.5v289h92v-505h-88v72q-55 -84 -156 -84q-85 0 -138 54q-52 55 -52 144v319h92v-298q0 -63 32 -99t88 -36zM188 572l71 145h84l-72 -145h-83zM311 572l72 145h84l-72 -145h-84z" />
    <glyph glyph-name="Uogonek" unicode="&#x172;" horiz-adv-x="688" 
d="M506 235v468h96v-471q0 -102 -70 -173q-123 -124 -123 -200q0 -44 44 -44q27 0 50 14v-64q-29 -21 -68 -21q-43 0 -73.5 27.5t-30.5 67.5q0 38 15 72t53 82q-25 -5 -56 -5q-110 0 -184 68q-73 69 -73 176v471h96v-468q0 -69 44.5 -112.5t114.5 -43.5q74 0 119.5 43
t45.5 113z" />
    <glyph glyph-name="uogonek" unicode="&#x173;" horiz-adv-x="590" 
d="M287 72q57 0 93.5 40.5t36.5 103.5v289h92v-505h-12q-50 -60 -68.5 -90t-18.5 -51q0 -44 44 -44q27 0 50 14v-64q-29 -21 -68 -21q-43 0 -73.5 27.5t-30.5 67.5q0 35 16 66q16 30 73 95v72q-55 -84 -156 -84q-85 0 -138 54q-52 55 -52 144v319h92v-298q0 -63 32 -99
t88 -36z" />
    <glyph glyph-name="Wcircumflex" unicode="&#x174;" horiz-adv-x="990" 
d="M421 765h-81l116 145h82l117 -145h-82l-75 93zM496 535l-163 -535h-102l-206 703h103l159 -568l167 568h89l164 -562l160 562h99l-207 -703h-102z" />
    <glyph glyph-name="wcircumflex" unicode="&#x175;" horiz-adv-x="850" 
d="M350 572h-81l116 145h82l117 -145h-82l-75 93zM425 388l-135 -388h-93l-177 505h92l135 -396l135 396h88l136 -397l135 397h89l-177 -505h-92z" />
    <glyph glyph-name="Ycircumflex" unicode="&#x176;" horiz-adv-x="632" 
d="M365 262v-262h-96v256l-244 447h107l186 -349l189 349h100zM247 765h-81l116 145h82l117 -145h-82l-75 93z" />
    <glyph glyph-name="ycircumflex" unicode="&#x177;" horiz-adv-x="530" 
d="M266 108l148 397h95l-273 -717h-92l76 205l-200 512h97zM189 572h-81l116 145h82l117 -145h-82l-75 93z" />
    <glyph glyph-name="Ydieresis" unicode="&#x178;" horiz-adv-x="632" 
d="M365 262v-262h-96v256l-244 447h107l186 -349l189 349h100zM304 830q0 -23 -15 -38t-37 -15t-37.5 15.5t-15.5 37.5q0 23 15.5 38t37.5 15t37 -15t15 -38zM450 830q0 -22 -15.5 -37.5t-37.5 -15.5t-37.5 15.5t-15.5 37.5q0 23 15.5 38t37.5 15t37.5 -15.5t15.5 -37.5z
" />
    <glyph glyph-name="Zacute" unicode="&#x179;" horiz-adv-x="576" 
d="M536 88v-88h-496v78l375 537h-370v88h486v-82l-374 -533h379zM415 910l-82 -145h-88l81 145h89z" />
    <glyph glyph-name="zacute" unicode="&#x17a;" horiz-adv-x="500" 
d="M377 717l-82 -145h-88l81 145h89zM467 82v-82h-434v62l309 361h-295v82h408v-66l-300 -357h312z" />
    <glyph glyph-name="Zdotaccent" unicode="&#x17b;" horiz-adv-x="576" 
d="M348 834q0 -24 -17.5 -41t-41.5 -17t-41 17t-17 41t17 41.5t41 17.5t41.5 -17.5t17.5 -41.5zM536 88v-88h-496v78l375 537h-370v88h486v-82l-374 -533h379z" />
    <glyph glyph-name="zdotaccent" unicode="&#x17c;" horiz-adv-x="500" 
d="M467 82v-82h-434v62l309 361h-295v82h408v-66l-300 -357h312zM309 643q0 -24 -17.5 -41t-41.5 -17t-41 17t-17 41t17 41.5t41 17.5t41.5 -17.5t17.5 -41.5z" />
    <glyph glyph-name="Zcaron" unicode="&#x17d;" horiz-adv-x="576" 
d="M536 88v-88h-496v78l375 537h-370v88h486v-82l-374 -533h379zM246 765l-116 145h81l77 -93l75 93h82l-117 -145h-82z" />
    <glyph glyph-name="zcaron" unicode="&#x17e;" horiz-adv-x="500" 
d="M209 572l-116 145h81l77 -93l75 93h82l-117 -145h-82zM467 82v-82h-434v62l309 361h-295v82h408v-66l-300 -357h312z" />
    <glyph glyph-name="longs" unicode="&#x17f;" horiz-adv-x="274" 
d="M173 562v-562h-92v563q0 97 45.5 143.5t138.5 46.5q29 0 64 -7v-81q-34 6 -49 6q-55 0 -81 -26.5t-26 -82.5z" />
    <glyph glyph-name="florin" unicode="&#x192;" horiz-adv-x="557" 
d="M466 367h-126l-66 -403q-17 -107 -61 -148q-43 -42 -127 -42q-27 0 -60 7v81q26 -6 45 -6q52 0 76.5 23.5t34.5 85.5l66 402h-112v83h125l19 113q17 102 60.5 146t127.5 44q27 0 60 -7v-81q-25 6 -44 6q-53 0 -77.5 -23.5t-34.5 -85.5l-18 -112h112v-83z" />
    <glyph glyph-name="uni0218" unicode="&#x218;" horiz-adv-x="608" 
d="M360 -144l-47 -113h-52l38 88q-18 4 -30 19t-12 33q0 23 15.5 38.5t38.5 15.5q24 0 39.5 -15.5t15.5 -38.5q0 -11 -6 -27zM298 715q111 0 176 -57.5t72 -163.5h-98q-5 67 -44 102t-107 35q-61 0 -99 -28t-38 -75q0 -42 23 -66t87 -42l101 -29q103 -30 145.5 -74.5
t42.5 -116.5q0 -99 -66 -155.5t-180 -56.5q-124 0 -194.5 62t-74.5 178h97q3 -75 47.5 -115t122.5 -40q71 0 111 31.5t40 89.5q0 40 -27 65q-27 27 -105 49l-83 24q-101 29 -143 74q-40 44 -40 117q0 85 66 138q66 54 168 54z" />
    <glyph glyph-name="uni0219" unicode="&#x219;" horiz-adv-x="497" 
d="M302 -144l-47 -113h-52l38 88q-18 4 -30 19t-12 33q0 23 15.5 38.5t38.5 15.5q24 0 39.5 -15.5t15.5 -38.5q0 -11 -6 -27zM248 517q89 0 140.5 -41t55.5 -117h-94q-2 84 -103 84q-44 0 -71.5 -18t-27.5 -47q0 -28 19.5 -43.5t74.5 -27.5l61 -14q81 -19 116 -52.5
t35 -91.5q0 -74 -54 -117.5t-145 -43.5q-101 0 -158 45t-60 129h96q1 -49 32 -74.5t87 -25.5q51 0 80 20.5t29 57.5q0 28 -19 45t-65 28l-74 17q-79 18 -113 51t-34 90q0 66 53.5 106t138.5 40z" />
    <glyph glyph-name="uni021A" unicode="&#x21a;" horiz-adv-x="540" 
d="M317 -144l-47 -113h-52l38 88q-18 4 -30 19t-12 33q0 23 15.5 38.5t38.5 15.5q24 0 39.5 -15.5t15.5 -38.5q0 -11 -6 -27zM317 615v-615h-95v615h-206v88h508v-88h-207z" />
    <glyph glyph-name="uni021B" unicode="&#x21b;" horiz-adv-x="378" 
d="M230 -144l-47 -113h-52l38 88q-18 4 -30 19t-12 33q0 23 15.5 38.5t38.5 15.5q24 0 39.5 -15.5t15.5 -38.5q0 -11 -6 -27zM23 505h85v157l92 22v-179h132v-82h-132v-260q0 -51 19 -72.5t63 -21.5q34 0 74 25v-82q-41 -24 -93 -24q-155 0 -155 169v266h-85v82z" />
    <glyph glyph-name="uni0237" unicode="&#x237;" horiz-adv-x="264" 
d="M89 -35v540h92v-541q0 -97 -45 -143.5t-138 -46.5q-5 0 -35 2v81q3 0 10 -0.5t9 -0.5q55 0 81 26.5t26 82.5z" />
    <glyph glyph-name="circumflex" unicode="&#x2c6;" horiz-adv-x="370" 
d="M108 572h-81l116 145h82l117 -145h-82l-75 93z" />
    <glyph glyph-name="caron" unicode="&#x2c7;" horiz-adv-x="384" 
d="M140 572l-116 145h81l77 -93l75 93h82l-117 -145h-82z" />
    <glyph glyph-name="uni02C9" unicode="&#x2c9;" horiz-adv-x="356" 
d="M313 664v-63h-269v63h269z" />
    <glyph glyph-name="breve" unicode="&#x2d8;" horiz-adv-x="355" 
d="M178 564q-64 0 -104 40t-40 103h68q0 -39 20 -61.5t56 -22.5t56 22.5t20 61.5h68q0 -63 -40 -103t-104 -40z" />
    <glyph glyph-name="dotaccent" unicode="&#x2d9;" horiz-adv-x="205" 
d="M161 643q0 -24 -17.5 -41t-41.5 -17t-41 17t-17 41t17 41.5t41 17.5t41.5 -17.5t17.5 -41.5z" />
    <glyph glyph-name="ring" unicode="&#x2da;" horiz-adv-x="278" 
d="M240 662q0 -41 -29.5 -69.5t-71.5 -28.5q-43 0 -72 28.5t-29 69.5q0 40 29.5 68.5t71.5 28.5t71.5 -28.5t29.5 -68.5zM94 662q0 -20 13 -33.5t32 -13.5t32.5 14t13.5 33t-13.5 32.5t-32.5 13.5t-32 -13.5t-13 -32.5z" />
    <glyph glyph-name="ogonek" unicode="&#x2db;" horiz-adv-x="256" 
d="M38 -161q0 33 17 67q16 30 74 96h76q-50 -59 -69.5 -90t-19.5 -53q0 -44 44 -44q27 0 50 14v-64q-29 -21 -68 -21q-43 0 -73.5 27.5t-30.5 67.5z" />
    <glyph glyph-name="tilde" unicode="&#x2dc;" horiz-adv-x="378" 
d="M216 666q25 -21 34 -21q14 0 20.5 12t10.5 43h62q-10 -120 -93 -120q-39 0 -75 36q-23 24 -39 24q-34 0 -41 -59h-62q7 124 104 124q39 0 79 -39z" />
    <glyph glyph-name="hungarumlaut" unicode="&#x2dd;" horiz-adv-x="370" 
d="M47 572l71 145h84l-72 -145h-83zM170 572l72 145h84l-72 -145h-84z" />
    <glyph glyph-name="uni0394" unicode="&#x394;" horiz-adv-x="650" 
d="M31 71l244 632h102l243 -632v-71h-589v71zM511 86l-188 508l-187 -508h375z" />
    <glyph glyph-name="uni03A9" unicode="&#x3a9;" horiz-adv-x="815" 
d="M349 109v-109h-285v87h169q-179 119 -179 294q0 141 101 237q101 97 252 97q152 0 252 -97q102 -96 102 -237q0 -180 -179 -294h169v-87h-285v109q197 93 197 268q0 103 -74 175q-73 72 -182 72q-107 0 -181 -72t-74 -175q0 -175 197 -268z" />
    <glyph glyph-name="uni03BC" unicode="&#x3bc;" horiz-adv-x="606" 
d="M298 72q57 0 93.5 40.5t36.5 103.5v289h92v-505h-88v72q-55 -84 -156 -84q-58 0 -98 24v-224h-92v717h92v-298q0 -63 32 -99t88 -36z" />
    <glyph glyph-name="pi" unicode="&#x3c0;" horiz-adv-x="655" 
d="M18 421v84h619v-84h-103v-421h-92v421h-230v-421h-91v421h-103z" />
    <glyph glyph-name="Wgrave" unicode="&#x1e80;" horiz-adv-x="990" 
d="M542 765h-87l-82 145h89zM496 535l-163 -535h-102l-206 703h103l159 -568l167 568h89l164 -562l160 562h99l-207 -703h-102z" />
    <glyph glyph-name="wgrave" unicode="&#x1e81;" horiz-adv-x="850" 
d="M425 388l-135 -388h-93l-177 505h92l135 -396l135 396h88l136 -397l135 397h89l-177 -505h-92zM469 572h-87l-82 145h89z" />
    <glyph glyph-name="Wacute" unicode="&#x1e82;" horiz-adv-x="990" 
d="M625 910l-82 -145h-88l81 145h89zM496 535l-163 -535h-102l-206 703h103l159 -568l167 568h89l164 -562l160 562h99l-207 -703h-102z" />
    <glyph glyph-name="wacute" unicode="&#x1e83;" horiz-adv-x="850" 
d="M553 717l-82 -145h-88l81 145h89zM425 388l-135 -388h-93l-177 505h92l135 -396l135 396h88l136 -397l135 397h89l-177 -505h-92z" />
    <glyph glyph-name="Wdieresis" unicode="&#x1e84;" horiz-adv-x="990" 
d="M496 535l-163 -535h-102l-206 703h103l159 -568l167 568h89l164 -562l160 562h99l-207 -703h-102zM479 830q0 -23 -15 -38t-37 -15t-37.5 15.5t-15.5 37.5q0 23 15.5 38t37.5 15t37 -15t15 -38zM625 830q0 -22 -15.5 -37.5t-37.5 -15.5t-37.5 15.5t-15.5 37.5
q0 23 15.5 38t37.5 15t37.5 -15.5t15.5 -37.5z" />
    <glyph glyph-name="wdieresis" unicode="&#x1e85;" horiz-adv-x="850" 
d="M406 639q0 -23 -15 -38t-37 -15t-37.5 15.5t-15.5 37.5q0 23 15.5 38t37.5 15t37 -15t15 -38zM552 639q0 -22 -15.5 -37.5t-37.5 -15.5t-37.5 15.5t-15.5 37.5q0 23 15.5 38t37.5 15t37.5 -15.5t15.5 -37.5zM425 388l-135 -388h-93l-177 505h92l135 -396l135 396h88
l136 -397l135 397h89l-177 -505h-92z" />
    <glyph glyph-name="uni1E9E" unicode="&#x1e9e;" horiz-adv-x="715" 
d="M456 408q92 0 154 -57q61 -57 61 -144q0 -99 -66 -159q-64 -60 -167 -60q-99 0 -155 33v92q65 -41 145 -41q66 0 105.5 35.5t39.5 96.5q0 54 -38 90.5t-95 36.5q-40 0 -69 -16l-61 58l181 244h-101q-94 0 -152 -60q-58 -58 -58 -158v-399h-96v401q0 136 86 219t221 83
h210v-76l-162 -220q4 1 17 1z" />
    <glyph glyph-name="Ygrave" unicode="&#x1ef2;" horiz-adv-x="632" 
d="M365 262v-262h-96v256l-244 447h107l186 -349l189 349h100zM367 765h-87l-82 145h89z" />
    <glyph glyph-name="ygrave" unicode="&#x1ef3;" horiz-adv-x="530" 
d="M266 108l148 397h95l-273 -717h-92l76 205l-200 512h97zM309 572h-87l-82 145h89z" />
    <glyph glyph-name="endash" unicode="&#x2013;" horiz-adv-x="578" 
d="M68 226v79h442v-79h-442z" />
    <glyph glyph-name="emdash" unicode="&#x2014;" horiz-adv-x="1053" 
d="M68 226v79h917v-79h-917z" />
    <glyph glyph-name="quoteleft" unicode="&#x2018;" horiz-adv-x="242" 
d="M56 526l76 177h70l-66 -149q22 -6 35.5 -24.5t13.5 -40.5q0 -30 -19.5 -49.5t-49.5 -19.5t-50 19t-20 48q0 18 10 39z" />
    <glyph glyph-name="quoteright" unicode="&#x2019;" horiz-adv-x="247" 
d="M201 610l-76 -177h-70l66 149q-22 6 -35.5 24.5t-13.5 40.5q0 30 19.5 49.5t49.5 19.5t50 -19t20 -48q0 -18 -10 -39z" />
    <glyph glyph-name="quotesinglbase" unicode="&#x201a;" horiz-adv-x="250" 
d="M184 19l-76 -177h-70l66 149q-22 6 -35.5 24.5t-13.5 40.5q0 30 19.5 49.5t49.5 19.5t50 -19t20 -48q0 -18 -10 -39z" />
    <glyph glyph-name="quotedblleft" unicode="&#x201c;" horiz-adv-x="419" 
d="M56 526l76 177h70l-66 -149q22 -6 35.5 -24.5t13.5 -40.5q0 -30 -19.5 -49.5t-49.5 -19.5t-50 19t-20 48q0 18 10 39zM233 526l76 177h70l-66 -149q22 -6 35.5 -24.5t13.5 -40.5q0 -30 -19.5 -49.5t-49.5 -19.5t-50 19t-20 48q0 18 10 39z" />
    <glyph glyph-name="quotedblright" unicode="&#x201d;" horiz-adv-x="423" 
d="M201 610l-76 -177h-70l66 149q-22 6 -35.5 24.5t-13.5 40.5q0 30 19.5 49.5t49.5 19.5t50 -19t20 -48q0 -18 -10 -39zM377 610l-76 -177h-70l66 149q-22 6 -35.5 24.5t-13.5 40.5q0 30 19.5 49.5t49.5 19.5t50 -19t20 -48q0 -18 -10 -39z" />
    <glyph glyph-name="quotedblbase" unicode="&#x201e;" horiz-adv-x="426" 
d="M184 19l-76 -177h-70l66 149q-22 6 -35.5 24.5t-13.5 40.5q0 30 19.5 49.5t49.5 19.5t50 -19t20 -48q0 -18 -10 -39zM360 19l-76 -177h-70l66 149q-22 6 -35.5 24.5t-13.5 40.5q0 30 19.5 49.5t49.5 19.5t50 -19t20 -48q0 -18 -10 -39z" />
    <glyph glyph-name="dagger" unicode="&#x2020;" horiz-adv-x="475" 
d="M191 429h-159v77h159v184l92 21v-205h160v-77h-160v-415l-92 -22v437z" />
    <glyph glyph-name="daggerdbl" unicode="&#x2021;" horiz-adv-x="507" 
d="M208 199h-160v77h160v153h-160v77h160v184l92 21v-205h159v-77h-159v-153h159v-77h-159v-185l-92 -22v207z" />
    <glyph glyph-name="bullet" unicode="&#x2022;" horiz-adv-x="383" 
d="M307 368q0 -48 -33 -80t-83 -32q-47 0 -80 33t-33 79q0 50 32 82t81 32q50 0 83 -32t33 -82z" />
    <glyph glyph-name="ellipsis" unicode="&#x2026;" horiz-adv-x="647" 
d="M191 56q0 -29 -20 -48.5t-50 -19.5q-29 0 -49 20t-20 48q0 30 19.5 49.5t49.5 19.5t50 -19.5t20 -49.5zM393 56q0 -29 -20 -48.5t-50 -19.5q-29 0 -49 20t-20 48q0 30 19.5 49.5t49.5 19.5t50 -19.5t20 -49.5zM595 56q0 -29 -20 -48.5t-50 -19.5q-29 0 -49 20t-20 48
q0 30 19.5 49.5t49.5 19.5t50 -19.5t20 -49.5z" />
    <glyph glyph-name="perthousand" unicode="&#x2030;" horiz-adv-x="1138" 
d="M372 545q0 -70 -48 -118q-49 -47 -121 -47t-121 47q-47 47 -47 118q0 69 48 116q49 47 120 47q72 0 121 -47q48 -47 48 -116zM70 0l534 703h84l-534 -703h-84zM111 544q0 -39 26.5 -65.5t65.5 -26.5q40 0 66 26.5t26 65.5t-26.5 66t-65.5 27t-65.5 -27t-26.5 -66z
M727 159q0 -71 -48 -117q-49 -47 -120 -47q-72 0 -121 47q-47 47 -47 117t47 117q49 47 121 47q71 0 120 -47q48 -46 48 -117zM1107 159q0 -71 -48 -117q-49 -47 -120 -47q-72 0 -121 47q-47 47 -47 117t47 117q49 47 121 47q71 0 120 -47q48 -46 48 -117zM467 159
q0 -40 26 -66t66 -26t65.5 26t25.5 66q0 39 -26 66t-65 27t-65.5 -27t-26.5 -66zM846 159q0 -40 26.5 -66t66.5 -26t65.5 26t25.5 66q0 39 -26 66t-65 27q-40 0 -66.5 -27t-26.5 -66z" />
    <glyph glyph-name="guilsinglleft" unicode="&#x2039;" horiz-adv-x="295" 
d="M245 35h-90l-109 219l109 220h90l-109 -220z" />
    <glyph glyph-name="guilsinglright" unicode="&#x203a;" horiz-adv-x="295" 
d="M50 474h90l109 -219l-109 -220h-90l109 220z" />
    <glyph glyph-name="fraction" unicode="&#x2044;" horiz-adv-x="150" 
d="M-234 0l534 703h84l-534 -703h-84z" />
    <glyph glyph-name="zero.superior" unicode="&#x2070;" horiz-adv-x="341" 
d="M303 723v-108q0 -60 -36 -94.5t-97 -34.5t-96.5 34.5t-35.5 94.5v108q0 59 36 93t96 34q61 0 97 -34t36 -93zM170 781q-26 0 -42 -17t-16 -45v-102q0 -28 16 -45t42 -17q27 0 43.5 17t16.5 45v102q0 28 -16.5 45t-43.5 17z" />
    <glyph glyph-name="four.superior" unicode="&#x2074;" horiz-adv-x="325" 
d="M23 556v59l135 229h84l-134 -221h91v62l72 16v-78h28v-67h-28v-64h-72v64h-176z" />
    <glyph glyph-name="five.superior" unicode="&#x2075;" horiz-adv-x="308" 
d="M46 647l18 197h195v-66h-135l-6 -68q18 7 42 7q55 0 87.5 -31t32.5 -82t-36 -84.5t-90 -33.5q-53 0 -90 31t-41 79h75q3 -19 17.5 -30.5t35.5 -11.5q24 0 40 14.5t16 36.5t-16 37.5t-40 15.5q-27 0 -44 -20z" />
    <glyph glyph-name="six.superior" unicode="&#x2076;" horiz-adv-x="310" 
d="M156 486q-55 0 -92 35.5t-37 87.5q0 53 39 110l83 125h85l-84 -121q10 2 16 2q51 0 85.5 -33.5t34.5 -82.5q0 -52 -37.5 -87.5t-92.5 -35.5zM100 609q0 -24 16 -40.5t40 -16.5t40 16.5t16 40.5t-16 40.5t-40 16.5t-40 -16.5t-16 -40.5z" />
    <glyph glyph-name="seven.superior" unicode="&#x2077;" horiz-adv-x="287" 
d="M48 492l135 282h-159v70h241v-60l-135 -292h-82z" />
    <glyph glyph-name="eight.superior" unicode="&#x2078;" horiz-adv-x="326" 
d="M294 594q0 -48 -36.5 -78t-95.5 -30q-57 0 -93.5 31t-36.5 77q0 58 55 87q-39 30 -39 73q0 42 32 69t82 27q51 0 83.5 -27.5t32.5 -68.5q0 -43 -40 -73q56 -30 56 -87zM117 749q1 -18 14 -30t33 -11q21 1 34 13t12 30t-14.5 29t-34.5 11q-20 0 -32.5 -12t-11.5 -30z
M105 596q0 -22 15.5 -36t41.5 -14t42.5 14.5t16.5 35.5q0 24 -16 39t-43 15q-26 0 -41.5 -15t-15.5 -39z" />
    <glyph glyph-name="nine.superior" unicode="&#x2079;" horiz-adv-x="309" 
d="M154 850q55 0 92 -35.5t37 -87.5q0 -53 -39 -110l-83 -125h-85l84 121q-10 -2 -16 -2q-51 0 -85.5 33.5t-34.5 82.5q0 52 37.5 87.5t92.5 35.5zM210 727q0 24 -16 40.5t-40 16.5t-40 -16.5t-16 -40.5t16 -40.5t40 -16.5t40 16.5t16 40.5z" />
    <glyph glyph-name="zero.inferior" unicode="&#x2080;" horiz-adv-x="341" 
d="M303 90v-108q0 -60 -36 -94.5t-97 -34.5t-96.5 34.5t-35.5 94.5v108q0 59 36 93t96 34q61 0 97 -34t36 -93zM170 148q-26 0 -42 -17t-16 -45v-102q0 -28 16 -45t42 -17q27 0 43.5 17t16.5 45v102q0 28 -16.5 45t-43.5 17z" />
    <glyph glyph-name="one.inferior" unicode="&#x2081;" horiz-adv-x="212" 
d="M160 211v-352h-73v282h-71l17 70h127z" />
    <glyph glyph-name="two.inferior" unicode="&#x2082;" horiz-adv-x="323" 
d="M291 -71v-70h-255v59l134 124q36 33 36 62q0 19 -13.5 31t-35.5 12q-23 0 -37 -14t-15 -36h-75q3 54 38.5 87t91.5 33q55 0 88.5 -29.5t33.5 -77.5q0 -57 -69 -119l-68 -62h146z" />
    <glyph glyph-name="three.inferior" unicode="&#x2083;" horiz-adv-x="320" 
d="M29 -39h72q2 -20 18 -33.5t39 -13.5q25 0 40.5 14t15.5 36q0 52 -61 52h-30v53h28q25 0 39 12t14 32t-12 31.5t-33 11.5t-35 -12t-16 -33h-73q3 48 37.5 77t90.5 29q51 0 82.5 -26.5t31.5 -66.5q0 -55 -47 -79q57 -23 57 -86q0 -46 -36 -76t-93 -30q-56 0 -91 29.5
t-38 78.5z" />
    <glyph glyph-name="four.inferior" unicode="&#x2084;" horiz-adv-x="326" 
d="M24 -77v59l135 229h84l-134 -221h91v62l72 16v-78h28v-67h-28v-64h-72v64h-176z" />
    <glyph glyph-name="five.inferior" unicode="&#x2085;" horiz-adv-x="308" 
d="M46 14l18 197h195v-66h-135l-6 -68q18 7 42 7q55 0 87.5 -31t32.5 -82t-36 -84.5t-90 -33.5q-53 0 -90 31t-41 79h75q3 -19 17.5 -30.5t35.5 -11.5q24 0 40 14.5t16 36.5t-16 37.5t-40 15.5q-27 0 -44 -20z" />
    <glyph glyph-name="six.inferior" unicode="&#x2086;" horiz-adv-x="310" 
d="M156 -147q-55 0 -92 35.5t-37 87.5q0 53 39 110l83 125h85l-84 -121q10 2 16 2q51 0 85.5 -33.5t34.5 -82.5q0 -52 -37.5 -87.5t-92.5 -35.5zM100 -24q0 -24 16 -40.5t40 -16.5t40 16.5t16 40.5t-16 40.5t-40 16.5t-40 -16.5t-16 -40.5z" />
    <glyph glyph-name="seven.inferior" unicode="&#x2087;" horiz-adv-x="287" 
d="M48 -141l135 282h-159v70h241v-60l-135 -292h-82z" />
    <glyph glyph-name="eight.inferior" unicode="&#x2088;" horiz-adv-x="326" 
d="M294 -39q0 -48 -36.5 -78t-95.5 -30q-57 0 -93.5 31t-36.5 77q0 58 55 87q-39 30 -39 73q0 42 32 69t82 27q51 0 83.5 -27.5t32.5 -68.5q0 -43 -40 -73q56 -30 56 -87zM117 116q1 -18 14 -30t33 -11q21 1 34 13t12 30t-14.5 29t-34.5 11q-20 0 -32.5 -12t-11.5 -30z
M105 -37q0 -22 15.5 -36t41.5 -14t42.5 14.5t16.5 35.5q0 24 -16 39t-43 15q-26 0 -41.5 -15t-15.5 -39z" />
    <glyph glyph-name="nine.inferior" unicode="&#x2089;" horiz-adv-x="309" 
d="M154 217q55 0 92 -35.5t37 -87.5q0 -53 -39 -110l-83 -125h-85l84 121q-10 -2 -16 -2q-51 0 -85.5 33.5t-34.5 82.5q0 52 37.5 87.5t92.5 35.5zM210 94q0 24 -16 40.5t-40 16.5t-40 -16.5t-16 -40.5t16 -40.5t40 -16.5t40 16.5t16 40.5z" />
    <glyph glyph-name="franc" unicode="&#x20a3;" horiz-adv-x="868" 
d="M195 303v-303h-96v703h399v-88h-303v-225h279v-87h-279zM808 425q-70 0 -113 -44.5t-43 -115.5v-265h-92v505h88v-94q51 101 162 101q12 0 26 -2v-87q-24 2 -28 2z" />
    <glyph glyph-name="Euro" unicode="&#x20ac;" horiz-adv-x="668" 
d="M397 246h-181v-1q0 -77 41.5 -121.5t111.5 -44.5q71 0 111.5 42t40.5 118h96q0 -119 -69 -185q-68 -66 -180 -66q-113 0 -180 67q-68 68 -68 189v2h-72v75h72v60h-72v75h72v3q0 120 68 188t180 68t180 -66q69 -66 69 -185h-96q0 75 -41 117.5t-111 42.5t-111.5 -44.5
t-41.5 -121.5v-2h181v-75h-181v-60h181v-75z" />
    <glyph glyph-name="uni2113" unicode="&#x2113;" horiz-adv-x="438" 
d="M116 176v59l-73 -42v88l73 43v210q0 84 42 132.5t114 48.5q64 0 103 -39.5t39 -101.5q0 -143 -172 -261l-34 -23v-107q0 -64 17.5 -88.5t58.5 -24.5q48 0 90 36v-83q-47 -35 -108 -35q-78 0 -114 44.5t-36 143.5zM275 634q-67 0 -67 -92v-159l9 6q114 79 114 180
q0 30 -15 47.5t-41 17.5z" />
    <glyph glyph-name="trademark" unicode="&#x2122;" horiz-adv-x="856" 
d="M214 633v-310h-74v310h-106v70h285v-70h-105zM429 571v-248h-72v380h83l128 -255l131 255h79v-380h-72v244l-124 -244h-30z" />
    <glyph glyph-name="Omega" unicode="&#x2126;" horiz-adv-x="815" 
d="M349 109v-109h-285v87h169q-179 119 -179 294q0 141 101 237q101 97 252 97q152 0 252 -97q102 -96 102 -237q0 -180 -179 -294h169v-87h-285v109q197 93 197 268q0 103 -74 175q-73 72 -182 72q-107 0 -181 -72t-74 -175q0 -175 197 -268z" />
    <glyph glyph-name="estimated" unicode="&#x212e;" horiz-adv-x="809" 
d="M413 42q88 0 161.5 47t110.5 126h69q-52 -107 -142.5 -167t-199.5 -60q-152 0 -258 106q-107 107 -107 257t107 257q109 107 259 107q158 0 259 -107t101 -281h-564v-207q86 -78 204 -78zM413 660q-116 0 -204 -77v-200h401v205q-84 72 -197 72z" />
    <glyph glyph-name="uni2153" unicode="&#x2153;" horiz-adv-x="719" 
d="M204 703v-352h-73v282h-71l17 70h127zM31 0l534 703h84l-534 -703h-84zM410 102h72q2 -20 18 -33.5t39 -13.5q25 0 40.5 14t15.5 36q0 52 -61 52h-30v53h28q25 0 39 12t14 32t-12 31.5t-33 11.5q-22 0 -35.5 -12.5t-15.5 -32.5h-73q3 48 37.5 77t90.5 29q51 0 82.5 -26.5
t31.5 -66.5q0 -55 -47 -79q57 -23 57 -86q0 -46 -36 -76t-93 -30q-56 0 -91 29.5t-38 78.5z" />
    <glyph glyph-name="uni2154" unicode="&#x2154;" horiz-adv-x="776" 
d="M304 421v-70h-255v59l134 124q36 33 36 62q0 19 -13.5 31t-35.5 12q-23 0 -37 -14t-15 -36h-75q3 54 38.5 87t91.5 33q55 0 88.5 -29.5t33.5 -77.5q0 -57 -69 -119l-68 -62h146zM95 0l534 703h84l-534 -703h-84zM474 102h72q2 -20 18 -33.5t39 -13.5q25 0 40.5 14
t15.5 36q0 52 -61 52h-30v53h28q25 0 39 12t14 32t-12 31.5t-33 11.5q-22 0 -35.5 -12.5t-15.5 -32.5h-73q3 48 37.5 77t90.5 29q51 0 82.5 -26.5t31.5 -66.5q0 -55 -47 -79q57 -23 57 -86q0 -46 -36 -76t-93 -30q-56 0 -91 29.5t-38 78.5z" />
    <glyph glyph-name="uni2155" unicode="&#x2155;" horiz-adv-x="717" 
d="M31 0l534 703h84l-534 -703h-84zM204 703v-352h-73v282h-71l17 70h127zM431 155l18 197h195v-66h-135l-6 -68q18 7 42 7q55 0 87.5 -31t32.5 -82t-36 -84.5t-90 -33.5q-53 0 -90 31t-41 79h75q3 -19 17.5 -30.5t35.5 -11.5q24 0 40 14.5t16 36.5t-16 37.5t-40 15.5
q-27 0 -44 -20z" />
    <glyph glyph-name="uni2156" unicode="&#x2156;" horiz-adv-x="769" 
d="M304 421v-70h-255v59l134 124q36 33 36 62q0 19 -13.5 31t-35.5 12q-23 0 -37 -14t-15 -36h-75q3 54 38.5 87t91.5 33q55 0 88.5 -29.5t33.5 -77.5q0 -57 -69 -119l-68 -62h146zM90 0l534 703h84l-534 -703h-84zM489 155l18 197h195v-66h-135l-6 -68q18 7 42 7
q55 0 87.5 -31t32.5 -82t-36 -84.5t-90 -33.5q-53 0 -90 31t-41 79h75q3 -19 17.5 -30.5t35.5 -11.5q24 0 40 14.5t16 36.5t-16 37.5t-40 15.5q-27 0 -44 -20z" />
    <glyph glyph-name="uni2157" unicode="&#x2157;" horiz-adv-x="743" 
d="M64 0l534 703h84l-534 -703h-84zM464 155l18 197h195v-66h-135l-6 -68q18 7 42 7q55 0 87.5 -31t32.5 -82t-36 -84.5t-90 -33.5q-53 0 -90 31t-41 79h75q3 -19 17.5 -30.5t35.5 -11.5q24 0 40 14.5t16 36.5t-16 37.5t-40 15.5q-27 0 -44 -20zM43 453h72q2 -20 18 -33.5
t39 -13.5q25 0 40.5 14t15.5 36q0 52 -61 52h-30v53h28q25 0 39 12t14 32t-12 31.5t-33 11.5t-35 -12t-16 -33h-73q3 48 37.5 77t90.5 29q51 0 82.5 -26.5t31.5 -66.5q0 -55 -47 -79q57 -23 57 -86q0 -46 -36 -76t-93 -30q-56 0 -91 29.5t-38 78.5z" />
    <glyph glyph-name="uni2158" unicode="&#x2158;" horiz-adv-x="763" 
d="M34 415v59l135 229h84l-134 -221h91v62l72 16v-78h28v-67h-28v-64h-72v64h-176zM81 0l534 703h84l-534 -703h-84zM481 155l18 197h195v-66h-135l-6 -68q18 7 42 7q55 0 87.5 -31t32.5 -82t-36 -84.5t-90 -33.5q-53 0 -90 31t-41 79h75q3 -19 17.5 -30.5t35.5 -11.5
q24 0 40 14.5t16 36.5t-16 37.5t-40 15.5q-27 0 -44 -20z" />
    <glyph glyph-name="uni2159" unicode="&#x2159;" horiz-adv-x="695" 
d="M516 -6q-55 0 -92 35.5t-37 87.5q0 53 39 110l83 125h85l-84 -121q10 2 16 2q51 0 85.5 -33.5t34.5 -82.5q0 -52 -37.5 -87.5t-92.5 -35.5zM460 117q0 -24 16 -40.5t40 -16.5t40 16.5t16 40.5t-16 40.5t-40 16.5t-40 -16.5t-16 -40.5zM204 703v-352h-73v282h-71l17 70
h127zM31 0l534 703h84l-534 -703h-84z" />
    <glyph glyph-name="uni215A" unicode="&#x215a;" horiz-adv-x="727" 
d="M554 -6q-55 0 -92 35.5t-37 87.5q0 53 39 110l83 125h85l-84 -121q10 2 16 2q51 0 85.5 -33.5t34.5 -82.5q0 -52 -37.5 -87.5t-92.5 -35.5zM498 117q0 -24 16 -40.5t40 -16.5t40 16.5t16 40.5t-16 40.5t-40 16.5t-40 -16.5t-16 -40.5zM68 0l534 703h84l-534 -703h-84z
M59 506l18 197h195v-66h-135l-6 -68q18 7 42 7q55 0 87.5 -31t32.5 -82t-36 -84.5t-90 -33.5q-53 0 -90 31t-41 79h75q3 -19 17.5 -30.5t35.5 -11.5q24 0 40 14.5t16 36.5t-16 37.5t-40 15.5q-27 0 -44 -20z" />
    <glyph glyph-name="uni215B" unicode="&#x215b;" horiz-adv-x="716" 
d="M31 0l534 703h84l-534 -703h-84zM204 703v-352h-73v282h-71l17 70h127zM667 102q0 -48 -36.5 -78t-95.5 -30q-57 0 -93.5 31t-36.5 77q0 58 55 87q-39 30 -39 73q0 42 32 69t82 27q51 0 83.5 -27.5t32.5 -68.5q0 -43 -40 -73q56 -30 56 -87zM490 257q1 -18 14 -30t33 -11
q21 1 34 13t12 30t-14.5 29t-34.5 11q-20 0 -32.5 -12t-11.5 -30zM478 104q0 -22 15.5 -36t41.5 -14t42.5 14.5t16.5 35.5q0 24 -16 39t-43 15q-26 0 -41.5 -15t-15.5 -39z" />
    <glyph glyph-name="uni215C" unicode="&#x215c;" horiz-adv-x="745" 
d="M66 0l534 703h84l-534 -703h-84zM702 102q0 -48 -36.5 -78t-95.5 -30q-57 0 -93.5 31t-36.5 77q0 58 55 87q-39 30 -39 73q0 42 32 69t82 27q51 0 83.5 -27.5t32.5 -68.5q0 -43 -40 -73q56 -30 56 -87zM525 257q1 -18 14 -30t33 -11q21 1 34 13t12 30t-14.5 29t-34.5 11
q-20 0 -32.5 -12t-11.5 -30zM513 104q0 -22 15.5 -36t41.5 -14t42.5 14.5t16.5 35.5q0 24 -16 39t-43 15q-26 0 -41.5 -15t-15.5 -39zM42 453h72q2 -20 18 -33.5t39 -13.5q25 0 40.5 14t15.5 36q0 52 -61 52h-30v53h28q25 0 39 12t14 32t-12 31.5t-33 11.5q-22 0 -35.5 -12
t-15.5 -33h-73q3 48 37.5 77t90.5 29q51 0 82.5 -26.5t31.5 -66.5q0 -55 -47 -79q57 -23 57 -86q0 -46 -36 -76t-93 -30q-56 0 -91 29.5t-38 78.5z" />
    <glyph glyph-name="uni215D" unicode="&#x215d;" horiz-adv-x="747" 
d="M68 0l534 703h84l-534 -703h-84zM59 506l18 197h195v-66h-135l-6 -68q18 7 42 7q55 0 87.5 -31t32.5 -82t-36 -84.5t-90 -33.5q-53 0 -90 31t-41 79h75q3 -19 17.5 -30.5t35.5 -11.5q24 0 40 14.5t16 36.5t-16 37.5t-40 15.5q-27 0 -44 -20zM703 102q0 -48 -36.5 -78
t-95.5 -30q-57 0 -93.5 31t-36.5 77q0 58 55 87q-39 30 -39 73q0 42 32 69t82 27q51 0 83.5 -27.5t32.5 -68.5q0 -43 -40 -73q56 -30 56 -87zM526 257q1 -18 14 -30t33 -11q21 1 34 13t12 30t-14.5 29t-34.5 11q-20 0 -32.5 -12t-11.5 -30zM514 104q0 -22 15.5 -36t41.5 -14
t42.5 14.5t16.5 35.5q0 24 -16 39t-43 15q-26 0 -41.5 -15t-15.5 -39z" />
    <glyph glyph-name="uni215E" unicode="&#x215e;" horiz-adv-x="720" 
d="M94 351l135 282h-159v70h241v-60l-135 -292h-82zM32 0l534 703h84l-534 -703h-84zM673 102q0 -48 -36.5 -78t-95.5 -30q-57 0 -93.5 31t-36.5 77q0 58 55 87q-39 30 -39 73q0 42 32 69t82 27q51 0 83.5 -27.5t32.5 -68.5q0 -43 -40 -73q56 -30 56 -87zM496 257
q1 -18 14 -30t33 -11q21 1 34 13t12 30t-14.5 29t-34.5 11q-20 0 -32.5 -12t-11.5 -30zM484 104q0 -22 15.5 -36t41.5 -14t42.5 14.5t16.5 35.5q0 24 -16 39t-43 15q-26 0 -41.5 -15t-15.5 -39z" />
    <glyph glyph-name="uni215F" unicode="&#x215f;" horiz-adv-x="683" 
d="M219 703v-352h-73v282h-71l17 70h127zM44 0l534 703h84l-534 -703h-84z" />
    <glyph glyph-name="partialdiff" unicode="&#x2202;" horiz-adv-x="607" 
d="M29 241q0 102 70 172q71 72 171 72q126 0 194 -86q-54 255 -330 269v85q206 -6 315 -131.5t109 -351.5q0 -118 -77 -201q-77 -81 -190 -81q-109 0 -186 74q-76 73 -76 179zM467 241q0 70 -50 118q-49 48 -124 48q-73 0 -123 -48t-50 -118t50 -120q50 -48 123 -48
q75 0 124 48q50 50 50 120z" />
    <glyph glyph-name="increment" unicode="&#x2206;" horiz-adv-x="650" 
d="M31 71l244 632h102l243 -632v-71h-589v71zM511 86l-188 508l-187 -508h375z" />
    <glyph glyph-name="product" unicode="&#x220f;" horiz-adv-x="738" 
d="M228 615v-615h-96v615h-96v88h666v-88h-96v-615h-96v615h-282z" />
    <glyph glyph-name="summation" unicode="&#x2211;" horiz-adv-x="590" 
d="M259 361l-221 274v68h501v-88h-375l197 -248l-200 -279h388v-88h-508v63z" />
    <glyph glyph-name="minus" unicode="&#x2212;" horiz-adv-x="570" 
d="M510 314h-450v73h450v-73z" />
    <glyph glyph-name="uni2215" unicode="&#x2215;" horiz-adv-x="150" 
d="M-234 0l534 703h84l-534 -703h-84z" />
    <glyph glyph-name="uni2219" unicode="&#x2219;" horiz-adv-x="423" 
d="M327 368q0 -48 -33 -80t-83 -32q-47 0 -80 33t-33 79q0 50 32 82t81 32q50 0 83 -32t33 -82z" />
    <glyph glyph-name="radical" unicode="&#x221a;" horiz-adv-x="554" 
d="M542 703l-224 -703h-103l-121 367h-73v81h144l102 -326l181 581h94z" />
    <glyph glyph-name="infinity" unicode="&#x221e;" horiz-adv-x="797" 
d="M219 431q112 0 181 -117q67 118 177 118q70 0 119 -49q50 -50 50 -122t-50 -122q-49 -49 -119 -49q-106 0 -181 124q-71 -125 -177 -125q-70 0 -119 49t-49 122t49 122t119 49zM222 358q-42 0 -70 -27.5t-28 -70.5t28 -70.5t70 -27.5q72 0 123 101q-21 44 -53.5 69.5
t-69.5 25.5zM576 162q42 0 69.5 27.5t27.5 70.5q0 42 -27.5 70t-69.5 28q-75 0 -124 -93q48 -103 124 -103z" />
    <glyph glyph-name="integral" unicode="&#x222b;" horiz-adv-x="401" 
d="M246 562v-598q0 -97 -45 -143.5t-138 -46.5q-30 0 -65 7v81q23 -6 49 -6q55 0 81 26.5t26 82.5v598q0 97 45 143.5t138 46.5q32 0 65 -7v-81q-33 6 -50 6q-54 0 -80 -26.5t-26 -82.5z" />
    <glyph glyph-name="approxequal" unicode="&#x2248;" horiz-adv-x="570" 
d="M304 479q54 -25 84 -25q32 0 55 14t50 52v-83q-38 -61 -111 -61q-43 0 -98 28q-52 27 -91 27q-70 0 -114 -69v81q16 28 48.5 47t68.5 19q44 0 108 -30zM304 293q54 -25 84 -25q32 0 55 14t50 52v-83q-38 -61 -111 -61q-43 0 -98 28q-52 27 -91 27q-70 0 -114 -69v81
q16 28 48.5 47t68.5 19q44 0 108 -30z" />
    <glyph glyph-name="notequal" unicode="&#x2260;" horiz-adv-x="570" 
d="M248 209l-47 -85h-75l47 85h-113v74h155l74 134h-229v74h271l47 85h75l-47 -85h104v-74h-146l-74 -134h220v-74h-262z" />
    <glyph glyph-name="lessequal" unicode="&#x2264;" horiz-adv-x="570" 
d="M480 245v-90l-399 190v75l399 189v-89l-291 -138zM480 5h-399v74h399v-74z" />
    <glyph glyph-name="greaterequal" unicode="&#x2265;" horiz-adv-x="570" 
d="M489 345l-399 -190v90l291 137l-291 138v89l399 -189v-75zM489 79v-74h-399v74h399z" />
    <glyph glyph-name="lozenge" unicode="&#x25ca;" horiz-adv-x="607" 
d="M334 -12h-61l-239 377l241 350h57l242 -350zM477 365l-173 249l-173 -249l173 -273z" />
    <glyph glyph-name="zero.denominator" unicode="&#xf655;" horiz-adv-x="341" 
d="M303 231v-108q0 -60 -36 -94.5t-97 -34.5t-96.5 34.5t-35.5 94.5v108q0 59 36 93t96 34q61 0 97 -34t36 -93zM170 289q-26 0 -42 -17t-16 -45v-102q0 -28 16 -45t42 -17q27 0 43.5 17t16.5 45v102q0 28 -16.5 45t-43.5 17z" />
    <glyph glyph-name="one.denominator" unicode="&#xf656;" horiz-adv-x="213" 
d="M161 352v-352h-73v282h-71l17 70h127z" />
    <glyph glyph-name="two.denominator" unicode="&#xf657;" horiz-adv-x="322" 
d="M291 70v-70h-255v59l134 124q36 33 36 62q0 19 -13.5 31t-35.5 12q-23 0 -37 -14t-15 -36h-75q3 54 38.5 87t91.5 33q55 0 88.5 -29.5t33.5 -77.5q0 -57 -69 -119l-68 -62h146z" />
    <glyph glyph-name="three.denominator" unicode="&#xf658;" horiz-adv-x="320" 
d="M29 102h72q2 -20 18 -33.5t39 -13.5q25 0 40.5 14t15.5 36q0 52 -61 52h-30v53h28q25 0 39 12t14 32t-12 31.5t-33 11.5t-35 -12.5t-16 -32.5h-73q3 48 37.5 77t90.5 29q51 0 82.5 -26.5t31.5 -66.5q0 -55 -47 -79q57 -23 57 -86q0 -46 -36 -76t-93 -30q-56 0 -91 29.5
t-38 78.5z" />
    <glyph glyph-name="four.denominator" unicode="&#xf659;" horiz-adv-x="325" 
d="M23 64v59l135 229h84l-134 -221h91v62l72 16v-78h28v-67h-28v-64h-72v64h-176z" />
    <glyph glyph-name="five.denominator" unicode="&#xf65a;" horiz-adv-x="309" 
d="M47 155l18 197h195v-66h-135l-6 -68q18 7 42 7q55 0 87.5 -31t32.5 -82t-36 -84.5t-90 -33.5q-53 0 -90 31t-41 79h75q3 -19 17.5 -30.5t35.5 -11.5q24 0 40 14.5t16 36.5t-16 37.5t-40 15.5q-27 0 -44 -20z" />
    <glyph glyph-name="six.denominator" unicode="&#xf65b;" horiz-adv-x="309" 
d="M155 -6q-55 0 -92 35.5t-37 87.5q0 53 39 110l83 125h85l-84 -121q10 2 16 2q51 0 85.5 -33.5t34.5 -82.5q0 -52 -37.5 -87.5t-92.5 -35.5zM99 117q0 -24 16 -40.5t40 -16.5t40 16.5t16 40.5t-16 40.5t-40 16.5t-40 -16.5t-16 -40.5z" />
    <glyph glyph-name="seven.denominator" unicode="&#xf65c;" horiz-adv-x="288" 
d="M49 0l135 282h-159v70h241v-60l-135 -292h-82z" />
    <glyph glyph-name="eight.denominator" unicode="&#xf65d;" horiz-adv-x="326" 
d="M294 102q0 -48 -36.5 -78t-95.5 -30q-57 0 -93.5 31t-36.5 77q0 58 55 87q-39 30 -39 73q0 42 32 69t82 27q51 0 83.5 -27.5t32.5 -68.5q0 -43 -40 -73q56 -30 56 -87zM117 257q1 -18 14 -30t33 -11q21 1 34 13t12 30t-14.5 29t-34.5 11q-20 0 -32.5 -12t-11.5 -30z
M105 104q0 -22 15.5 -36t41.5 -14t42.5 14.5t16.5 35.5q0 24 -16 39t-43 15q-26 0 -41.5 -15t-15.5 -39z" />
    <glyph glyph-name="nine.denominator" unicode="&#xf65e;" horiz-adv-x="309" 
d="M154 358q55 0 92 -35.5t37 -87.5q0 -53 -39 -110l-83 -125h-85l84 121q-10 -2 -16 -2q-51 0 -85.5 33.5t-34.5 82.5q0 52 37.5 87.5t92.5 35.5zM210 235q0 24 -16 40.5t-40 16.5t-40 -16.5t-16 -40.5t16 -40.5t40 -16.5t40 16.5t16 40.5z" />
    <glyph glyph-name="zero.numerator" unicode="&#xf661;" horiz-adv-x="341" 
d="M303 582v-108q0 -60 -36 -94.5t-97 -34.5t-96.5 34.5t-35.5 94.5v108q0 59 36 93t96 34q61 0 97 -34t36 -93zM170 640q-26 0 -42 -17t-16 -45v-102q0 -28 16 -45t42 -17q27 0 43.5 17t16.5 45v102q0 28 -16.5 45t-43.5 17z" />
    <glyph glyph-name="one.numerator" unicode="&#xf662;" horiz-adv-x="212" 
d="M160 703v-352h-73v282h-71l17 70h127z" />
    <glyph glyph-name="two.numerator" unicode="&#xf663;" horiz-adv-x="324" 
d="M292 421v-70h-255v59l134 124q36 33 36 62q0 19 -13.5 31t-35.5 12q-23 0 -37 -14t-15 -36h-75q3 54 38.5 87t91.5 33q55 0 88.5 -29.5t33.5 -77.5q0 -57 -69 -119l-68 -62h146z" />
    <glyph glyph-name="three.numerator" unicode="&#xf664;" horiz-adv-x="320" 
d="M29 453h72q2 -20 18 -33.5t39 -13.5q25 0 40.5 14t15.5 36q0 52 -61 52h-30v53h28q25 0 39 12t14 32t-12 31.5t-33 11.5t-35 -12t-16 -33h-73q3 48 37.5 77t90.5 29q51 0 82.5 -26.5t31.5 -66.5q0 -55 -47 -79q57 -23 57 -86q0 -46 -36 -76t-93 -30q-56 0 -91 29.5
t-38 78.5z" />
    <glyph glyph-name="four.numerator" unicode="&#xf665;" horiz-adv-x="325" 
d="M23 415v59l135 229h84l-134 -221h91v62l72 16v-78h28v-67h-28v-64h-72v64h-176z" />
    <glyph glyph-name="five.numerator" unicode="&#xf666;" horiz-adv-x="308" 
d="M46 506l18 197h195v-66h-135l-6 -68q18 7 42 7q55 0 87.5 -31t32.5 -82t-36 -84.5t-90 -33.5q-53 0 -90 31t-41 79h75q3 -19 17.5 -30.5t35.5 -11.5q24 0 40 14.5t16 36.5t-16 37.5t-40 15.5q-27 0 -44 -20z" />
    <glyph glyph-name="six.numerator" unicode="&#xf667;" horiz-adv-x="310" 
d="M156 345q-55 0 -92 35.5t-37 87.5q0 53 39 110l83 125h85l-84 -121q10 2 16 2q51 0 85.5 -33.5t34.5 -82.5q0 -52 -37.5 -87.5t-92.5 -35.5zM100 468q0 -24 16 -40.5t40 -16.5t40 16.5t16 40.5t-16 40.5t-40 16.5t-40 -16.5t-16 -40.5z" />
    <glyph glyph-name="seven.numerator" unicode="&#xf668;" horiz-adv-x="287" 
d="M48 351l135 282h-159v70h241v-60l-135 -292h-82z" />
    <glyph glyph-name="eight.numerator" unicode="&#xf669;" horiz-adv-x="326" 
d="M294 453q0 -48 -36.5 -78t-95.5 -30q-57 0 -93.5 31t-36.5 77q0 58 55 87q-39 30 -39 73q0 42 32 69t82 27q51 0 83.5 -27.5t32.5 -68.5q0 -43 -40 -73q56 -30 56 -87zM117 608q1 -18 14 -30t33 -11q21 1 34 13t12 30t-14.5 29t-34.5 11q-20 0 -32.5 -12t-11.5 -30z
M105 455q0 -22 15.5 -36t41.5 -14t42.5 14.5t16.5 35.5q0 24 -16 39t-43 15q-26 0 -41.5 -15t-15.5 -39z" />
    <glyph glyph-name="nine.numerator" unicode="&#xf66a;" horiz-adv-x="310" 
d="M154 709q55 0 92 -35.5t37 -87.5q0 -53 -39 -110l-83 -125h-85l84 121q-10 -2 -16 -2q-51 0 -85.5 33.5t-34.5 82.5q0 52 37.5 87.5t92.5 35.5zM210 586q0 24 -16 40.5t-40 16.5t-40 -16.5t-16 -40.5t16 -40.5t40 -16.5t40 16.5t16 40.5z" />
    <glyph glyph-name="commaaccent" unicode="&#xf6c3;" horiz-adv-x="170" 
d="M134 -136l-47 -113h-52l38 88q-18 4 -30 19t-12 33q0 23 15.5 38.5t38.5 15.5q24 0 39.5 -15.5t15.5 -38.5q0 -11 -6 -27z" />
    <glyph glyph-name="uniF8FF" unicode="&#xf8ff;" horiz-adv-x="1438" 
d="M741 523v-36h31q11 0 11 -10v-27q0 -11 -11 -11h-31v-77q0 -18 24 -18h10q12 0 12 -11v-27q0 -11 -12 -11h-19q-42 0 -60 13.5t-18 46.5v84h-17q-11 0 -11 11v25q0 7 11 11l16 1h1v36q0 12 12 12h39q12 0 12 -12zM350 488h38q11 0 11 -11v-6q28 21 58 21q34 0 51 -26
q29 26 64 26q26 0 41.5 -15t15.5 -39v-132q0 -11 -12 -11h-38q-13 0 -13 11v116q0 10 -3 13t-11 3q-18 0 -38 -15v-117q0 -11 -11 -11h-38q-12 0 -12 11v116q0 10 -3 13t-12 3q-16 0 -37 -15v-117q0 -11 -10 -11h-41q-11 0 -11 11v171q0 11 11 11zM1017 488h36q12 0 12 -11
l1 -7q28 22 60 22q57 0 57 -60v-80q0 -62 -57 -62q-31 0 -58 21v-83q0 -11 -11 -11h-40q-11 0 -11 11v249q0 11 11 11zM224 492q82 0 82 -61v-43q0 -11 -12 -11h-93v-23q0 -18 23 -18q25 0 25 18v1q0 11 11 11h32q12 0 12 -11v-3q0 -62 -80 -62q-85 0 -85 62v79q0 61 85 61z
M1298 492q82 0 82 -61v-43q0 -11 -11 -11h-94v-23q0 -18 23 -18q24 0 24 18v1q0 11 12 11h32q11 0 11 -11v-3q0 -62 -79 -62q-84 0 -84 62v79q0 61 84 61zM860 477l22 -70q7 -26 7 -37q1 1 10 35l24 72q4 11 12 11h37q13 0 11 -11l-84 -249q-5 -11 -14 -11h-28q-13 0 -11 11
l16 59l-65 190q-5 11 11 11h40q8 0 12 -11zM224 446q-23 0 -23 -18v-11h48v11q0 18 -25 18zM1298 446q-23 0 -23 -18v-11h47v11q0 18 -24 18zM1105 344q17 0 17 17v62q0 15 -17 15q-12 0 -37 -15v-63q26 -16 37 -16zM562 237l4 -5v-41h47q4 0 4 -4v-8q0 -5 -4 -5h-47v-124
q0 -33 50 -33h6q5 0 5 -5v-7q0 -5 -5 -5h-9q-35 0 -50.5 11t-15.5 37v126h-25q-4 0 -4 5v7q0 4 4 5h25v41q0 5 4 5h11zM414 195q68 0 68 -48v-49q0 -4 -4 -4h-114v-48q0 -33 50 -33q48 0 48 33v8q0 4 6 4h9q5 0 5 -4v-9q0 -48 -69 -48t-69 48v102q0 48 70 48zM164 188v-17
q34 24 67 24q26 0 40 -12.5t14 -33.5v-144q0 -5 -4 -5h-11q-4 0 -4 5v140q0 31 -39 31t-62 -23v-148q0 -5 -4 -5h-11q-5 0 -5 5v183q0 4 5 4h9q5 0 5 -4zM414 178q-50 0 -50 -32v-36h98v36q0 32 -48 32zM80 35v-30q0 -5 -5 -5h-11q-4 0 -4 5v30q0 5 4 5h11q5 0 5 -5z" />
    <glyph glyph-name="f_f" unicode="&#xfb00;" horiz-adv-x="696" 
d="M209 423v-423h-92v423h-87v82h87v58q0 92 47 141t136 49q28 0 65 -7v-81q-31 6 -50 6q-55 0 -80.5 -26t-25.5 -83v-57h249v58q0 92 47 141t136 49q28 0 65 -7v-81q-31 6 -50 6q-55 0 -80.5 -26t-25.5 -83v-57h131v-82h-131v-423h-92v423h-249z" />
    <glyph glyph-name="f_f_i" unicode="&#xfb03;" horiz-adv-x="954" 
d="M209 423v-423h-92v423h-87v82h87v58q0 92 47 141t136 49q28 0 65 -7v-81q-31 6 -50 6q-55 0 -80.5 -26t-25.5 -83v-57h249v58q0 92 47 141t136 49q35 0 60 -6v-81q-19 5 -45 5q-55 0 -80.5 -26t-25.5 -83v-57h131v-82h-131v-423h-92v423h-249zM760 666q0 27 18 45t47 18
t47 -18t18 -45t-18.5 -45t-46.5 -18t-46.5 18t-18.5 45zM871 505v-505h-92v505h92z" />
    <glyph glyph-name="f_f_l" unicode="&#xfb04;" horiz-adv-x="954" 
d="M209 423v-423h-92v423h-87v82h87v58q0 92 47 141t136 49q28 0 65 -7v-81q-31 6 -50 6q-55 0 -80.5 -26t-25.5 -83v-57h249v58q0 92 47 141t136 49q35 0 60 -6v-81q-19 5 -45 5q-55 0 -80.5 -26t-25.5 -83v-57h131v-82h-131v-423h-92v423h-249zM779 0v741h92v-741h-92z
" />
    <glyph glyph-name="longs_t" unicode="&#xfb05;" horiz-adv-x="654" 
d="M173 562v-562h-92v563q0 97 45.5 143.5t138.5 46.5q29 0 64 -7v-81q-34 6 -49 6q-55 0 -81 -26.5t-26 -82.5zM299 505h85v157l92 22v-179h132v-82h-132v-260q0 -51 19 -72.5t63 -21.5q34 0 74 25v-82q-41 -24 -93 -24q-155 0 -155 169v266h-85v82z" />
    <glyph glyph-name="zero.tab" unicode="&#xff10;" horiz-adv-x="600" 
d="M552 460v-216q0 -122 -69 -189q-68 -67 -183 -67t-183 67q-69 67 -69 189v216q0 120 69 187q70 68 183 68t183 -68q69 -67 69 -187zM299 624q-72 0 -113.5 -43.5t-41.5 -121.5v-215q0 -78 41.5 -121.5t113.5 -43.5q73 0 115 43.5t42 121.5v215q0 78 -42 121.5t-115 43.5z
" />
    <glyph glyph-name="one.tab" unicode="&#xff11;" horiz-adv-x="600" 
d="M524 87v-87h-426v87h164v528h-151l23 88h224v-616h166z" />
    <glyph glyph-name="two.tab" unicode="&#xff12;" horiz-adv-x="600" 
d="M551 88v-88h-496v74l288 275q49 48 68.5 83.5t19.5 73.5q0 53 -36.5 85.5t-96.5 32.5q-65 0 -106 -39.5t-46 -106.5h-98q4 105 74 171t181 66q101 0 165 -56q64 -55 64 -146q0 -60 -28 -112q-27 -50 -104 -123l-201 -190h352z" />
    <glyph glyph-name="three.tab" unicode="&#xff13;" horiz-adv-x="600" 
d="M51 200h97q3 -53 45.5 -88t105.5 -35q64 0 104 37q41 38 41 92q0 59 -39.5 93.5t-105.5 34.5h-74v71h77q54 0 87.5 31.5t33.5 82.5q0 47 -35.5 77.5t-91.5 30.5q-57 0 -93.5 -31t-38.5 -80h-96q3 85 67 142q65 57 164 57q97 0 158 -53q61 -52 61 -129q0 -116 -102 -160
q60 -21 92.5 -67t32.5 -110q0 -88 -67 -148q-68 -60 -174 -60q-107 0 -176 60q-69 61 -73 152z" />
    <glyph glyph-name="four.tab" unicode="&#xff14;" horiz-adv-x="600" 
d="M32 152v73l287 478h111l-283 -465h249v158l93 22v-180h75v-86h-75v-152h-93v152h-364z" />
    <glyph glyph-name="five.tab" unicode="&#xff15;" horiz-adv-x="600" 
d="M95 318l35 385h372v-88h-293l-19 -195q56 31 120 31q107 0 170 -63q63 -62 63 -166q0 -100 -70 -167q-68 -67 -173 -67q-102 0 -175 62q-71 63 -77 159h98q5 -57 47 -95q43 -38 103 -38q64 0 108 42q44 44 44 104q0 65 -41.5 105t-108.5 40q-85 0 -125 -58z" />
    <glyph glyph-name="six.tab" unicode="&#xff16;" horiz-adv-x="600" 
d="M307 -12q-106 0 -177 70q-72 71 -72 173q0 104 69 204l185 268h112l-185 -257q36 16 90 16q94 0 162 -68q67 -67 67 -165q0 -101 -73 -171t-178 -70zM152 229q0 -64 44 -110q45 -45 111 -45q67 0 110 45q45 45 45 110q0 63 -45 106q-43 43 -110 43t-111 -43
q-44 -44 -44 -106z" />
    <glyph glyph-name="seven.tab" unicode="&#xff17;" horiz-adv-x="600" 
d="M130 0l295 615h-360v88h470v-76l-298 -627h-107z" />
    <glyph glyph-name="eight.tab" unicode="&#xff18;" horiz-adv-x="600" 
d="M544 199q0 -89 -68 -151q-68 -60 -176 -60t-177 60q-68 62 -68 151q0 57 30.5 105t84.5 75q-40 25 -62.5 65.5t-22.5 86.5q0 79 60 131q62 53 156 53t155 -53q60 -53 60 -131q0 -101 -86 -153q54 -27 84 -74.5t30 -104.5zM173 524q0 -48 36 -79.5t92 -31.5t91.5 31.5
t35.5 79.5t-35.5 79t-91.5 31q-57 0 -92.5 -31t-35.5 -79zM150 203q0 -57 42 -94q41 -37 108 -37t108 37q42 38 42 94q0 57 -42 94.5t-108 37.5t-108 -37.5t-42 -94.5z" />
    <glyph glyph-name="nine.tab" unicode="&#xff19;" horiz-adv-x="600" 
d="M293 715q104 0 177 -71q72 -70 72 -172q0 -104 -69 -204l-185 -268h-112l185 257q-36 -16 -90 -16q-94 0 -162 68q-67 67 -67 165q0 100 73 170q74 71 178 71zM448 474q0 65 -45 110q-44 45 -110 45t-111 -45q-44 -46 -44 -110q0 -62 44 -106q44 -43 111 -43t110 43
q45 44 45 106z" />
    <glyph glyph-name="Lgeminada" horiz-adv-x="1051" 
d="M508 88v-88h-415v703h96v-615h319zM474 360q0 -29 -20 -48.5t-50 -19.5q-29 0 -49 20t-20 48q0 30 19.5 49.5t49.5 19.5t50 -19.5t20 -49.5zM1034 88v-88h-415v703h96v-615h319z" />
    <glyph glyph-name="lgeminada" horiz-adv-x="624" 
d="M83 0v741h92v-741h-92zM382 360q0 -29 -20 -48.5t-50 -19.5q-29 0 -49 20t-20 48q0 30 19.5 49.5t49.5 19.5t50 -19.5t20 -49.5zM449 0v741h92v-741h-92z" />
    <glyph glyph-name="caron.salt" horiz-adv-x="197" 
d="M150 650l-46 -122h-59l44 112q-45 12 -45 55q0 25 16.5 41.5t42.5 16.5q25 0 42 -17t17 -41q0 -12 -12 -45z" />
    <glyph glyph-name="commaaccent.salt" horiz-adv-x="198" 
d="M39 665l48 113h54l-39 -89q18 -4 29 -18t11 -32q0 -23 -15.5 -38.5t-38.5 -15.5q-24 0 -39.5 15.5t-15.5 38.5q0 8 6 26z" />
    <glyph glyph-name="acute.case" horiz-adv-x="301" 
d="M223 910l-82 -145h-88l81 145h89z" />
    <glyph glyph-name="grave.case" horiz-adv-x="301" 
d="M219 765h-87l-82 145h89z" />
    <glyph glyph-name="hungarumlaut.case" horiz-adv-x="333" 
d="M53 765l71 145h84l-72 -145h-83zM176 765l72 145h84l-72 -145h-84z" />
    <glyph glyph-name="circumflex.case" horiz-adv-x="345" 
d="M114 765h-81l116 145h82l117 -145h-82l-75 93z" />
    <glyph glyph-name="caron.case" horiz-adv-x="345" 
d="M147 765l-116 145h81l77 -93l75 93h82l-117 -145h-82z" />
    <glyph glyph-name="breve.case" horiz-adv-x="370" 
d="M190 756q-64 0 -104 40t-40 103h68q0 -39 20 -61.5t56 -22.5t56 22.5t20 61.5h68q0 -63 -40 -103t-104 -40z" />
    <glyph glyph-name="tilde.case" horiz-adv-x="388" 
d="M228 855q25 -21 34 -21q14 0 20.5 12t10.5 43h62q-10 -120 -93 -120q-39 0 -75 36q-23 24 -39 24q-34 0 -41 -59h-62q7 124 104 124q39 0 79 -39z" />
    <glyph glyph-name="macron.case" horiz-adv-x="376" 
d="M319 855v-63h-269v63h269z" />
    <glyph glyph-name="dieresis.case" horiz-adv-x="331" 
d="M155 830q0 -23 -15 -38t-37 -15t-37.5 15.5t-15.5 37.5q0 23 15.5 38t37.5 15t37 -15t15 -38zM301 830q0 -22 -15.5 -37.5t-37.5 -15.5t-37.5 15.5t-15.5 37.5q0 23 15.5 38t37.5 15t37.5 -15.5t15.5 -37.5z" />
    <glyph glyph-name="dotaccent.case" horiz-adv-x="277" 
d="M167 834q0 -24 -17.5 -41t-41.5 -17t-41 17t-17 41t17 41.5t41 17.5t41.5 -17.5t17.5 -41.5z" />
    <glyph glyph-name="ring.case" horiz-adv-x="330" 
d="M246 854q0 -41 -29.5 -69.5t-71.5 -28.5q-43 0 -72 28.5t-29 69.5q0 40 29.5 68.5t71.5 28.5t71.5 -28.5t29.5 -68.5zM100 854q0 -20 13 -33.5t32 -13.5t32.5 14t13.5 33t-13.5 32.5t-32.5 13.5t-32 -13.5t-13 -32.5z" />
    <glyph glyph-name="G.alt" horiz-adv-x="799" 
d="M645 278h-243v75h349v-15q0 -161 -97 -255q-97 -95 -252 -95q-152 0 -254 105q-101 106 -101 259q0 154 103 258q104 105 258 105q120 0 215 -68q94 -67 127 -179h-105q-30 72 -94 114t-143 42q-111 0 -186 -79t-75 -193q0 -116 73 -195q74 -78 182 -78q99 0 163 52
t80 147z" />
    <glyph glyph-name="Gcircumflex.alt" horiz-adv-x="799" 
d="M323 765h-81l116 145h82l117 -145h-82l-75 93zM645 278h-243v75h349v-15q0 -161 -97 -255q-97 -95 -252 -95q-152 0 -254 105q-101 106 -101 259q0 154 103 258q104 105 258 105q120 0 215 -68q94 -67 127 -179h-105q-30 72 -94 114t-143 42q-111 0 -186 -79t-75 -193
q0 -116 73 -195q74 -78 182 -78q99 0 163 52t80 147z" />
    <glyph glyph-name="Gbreve.alt" horiz-adv-x="799" 
d="M645 278h-243v75h349v-15q0 -161 -97 -255q-97 -95 -252 -95q-152 0 -254 105q-101 106 -101 259q0 154 103 258q104 105 258 105q120 0 215 -68q94 -67 127 -179h-105q-30 72 -94 114t-143 42q-111 0 -186 -79t-75 -193q0 -116 73 -195q74 -78 182 -78q99 0 163 52
t80 147zM400 756q-64 0 -104 40t-40 103h68q0 -39 20 -61.5t56 -22.5t56 22.5t20 61.5h68q0 -63 -40 -103t-104 -40z" />
    <glyph glyph-name="Gdotaccent.alt" horiz-adv-x="799" 
d="M457 834q0 -24 -17.5 -41t-41.5 -17t-41 17t-17 41t17 41.5t41 17.5t41.5 -17.5t17.5 -41.5zM645 278h-243v75h349v-15q0 -161 -97 -255q-97 -95 -252 -95q-152 0 -254 105q-101 106 -101 259q0 154 103 258q104 105 258 105q120 0 215 -68q94 -67 127 -179h-105
q-30 72 -94 114t-143 42q-111 0 -186 -79t-75 -193q0 -116 73 -195q74 -78 182 -78q99 0 163 52t80 147z" />
    <glyph glyph-name="uni0122.alt" horiz-adv-x="799" 
d="M448 -144l-47 -113h-52l38 88q-18 4 -30 19t-12 33q0 23 15.5 38.5t38.5 15.5q24 0 39.5 -15.5t15.5 -38.5q0 -11 -6 -27zM645 278h-243v75h349v-15q0 -161 -97 -255q-97 -95 -252 -95q-152 0 -254 105q-101 106 -101 259q0 154 103 258q104 105 258 105q120 0 215 -68
q94 -67 127 -179h-105q-30 72 -94 114t-143 42q-111 0 -186 -79t-75 -193q0 -116 73 -195q74 -78 182 -78q99 0 163 52t80 147z" />
    <glyph glyph-name="a.alt" 
d="M296 -12q-109 0 -182 75q-72 75 -72 188q0 114 73 190t184 76q125 0 195 -100v88h87v-505h-87v89q-34 -48 -85.5 -74.5t-112.5 -26.5zM137 252q0 -76 51 -128t127 -52q77 0 126 52q51 52 51 128t-51 129q-49 52 -126 52q-76 0 -127 -53q-51 -52 -51 -128z" />
    <glyph glyph-name="agrave.alt" 
d="M296 -12q-109 0 -182 75q-72 75 -72 188q0 114 73 190t184 76q125 0 195 -100v88h87v-505h-87v89q-34 -48 -85.5 -74.5t-112.5 -26.5zM137 252q0 -76 51 -128t127 -52q77 0 126 52q51 52 51 128t-51 129q-49 52 -126 52q-76 0 -127 -53q-51 -52 -51 -128zM368 572h-87
l-82 145h89z" />
    <glyph glyph-name="aacute.alt" 
d="M452 717l-82 -145h-88l81 145h89zM296 -12q-109 0 -182 75q-72 75 -72 188q0 114 73 190t184 76q125 0 195 -100v88h87v-505h-87v89q-34 -48 -85.5 -74.5t-112.5 -26.5zM137 252q0 -76 51 -128t127 -52q77 0 126 52q51 52 51 128t-51 129q-49 52 -126 52q-76 0 -127 -53
q-51 -52 -51 -128z" />
    <glyph glyph-name="acircumflex.alt" 
d="M249 572h-81l116 145h82l117 -145h-82l-75 93zM296 -12q-109 0 -182 75q-72 75 -72 188q0 114 73 190t184 76q125 0 195 -100v88h87v-505h-87v89q-34 -48 -85.5 -74.5t-112.5 -26.5zM137 252q0 -76 51 -128t127 -52q77 0 126 52q51 52 51 128t-51 129q-49 52 -126 52
q-76 0 -127 -53q-51 -52 -51 -128z" />
    <glyph glyph-name="atilde.alt" 
d="M296 -12q-109 0 -182 75q-72 75 -72 188q0 114 73 190t184 76q125 0 195 -100v88h87v-505h-87v89q-34 -48 -85.5 -74.5t-112.5 -26.5zM137 252q0 -76 51 -128t127 -52q77 0 126 52q51 52 51 128t-51 129q-49 52 -126 52q-76 0 -127 -53q-51 -52 -51 -128zM354 666
q25 -21 34 -21q14 0 20.5 12t10.5 43h62q-10 -120 -93 -120q-39 0 -75 36q-23 24 -39 24q-34 0 -41 -59h-62q7 124 104 124q39 0 79 -39z" />
    <glyph glyph-name="adieresis.alt" 
d="M305 639q0 -23 -15 -38t-37 -15t-37.5 15.5t-15.5 37.5q0 23 15.5 38t37.5 15t37 -15t15 -38zM451 639q0 -22 -15.5 -37.5t-37.5 -15.5t-37.5 15.5t-15.5 37.5q0 23 15.5 38t37.5 15t37.5 -15.5t15.5 -37.5zM296 -12q-109 0 -182 75q-72 75 -72 188q0 114 73 190t184 76
q125 0 195 -100v88h87v-505h-87v89q-34 -48 -85.5 -74.5t-112.5 -26.5zM137 252q0 -76 51 -128t127 -52q77 0 126 52q51 52 51 128t-51 129q-49 52 -126 52q-76 0 -127 -53q-51 -52 -51 -128z" />
    <glyph glyph-name="aring.alt" 
d="M426 662q0 -41 -29.5 -69.5t-71.5 -28.5q-43 0 -72 28.5t-29 69.5q0 40 29.5 68.5t71.5 28.5t71.5 -28.5t29.5 -68.5zM280 662q0 -20 13 -33.5t32 -13.5t32.5 14t13.5 33t-13.5 32.5t-32.5 13.5t-32 -13.5t-13 -32.5zM296 -12q-109 0 -182 75q-72 75 -72 188
q0 114 73 190t184 76q125 0 195 -100v88h87v-505h-87v89q-34 -48 -85.5 -74.5t-112.5 -26.5zM137 252q0 -76 51 -128t127 -52q77 0 126 52q51 52 51 128t-51 129q-49 52 -126 52q-76 0 -127 -53q-51 -52 -51 -128z" />
    <glyph glyph-name="amacron.alt" 
d="M296 -12q-109 0 -182 75q-72 75 -72 188q0 114 73 190t184 76q125 0 195 -100v88h87v-505h-87v89q-34 -48 -85.5 -74.5t-112.5 -26.5zM137 252q0 -76 51 -128t127 -52q77 0 126 52q51 52 51 128t-51 129q-49 52 -126 52q-76 0 -127 -53q-51 -52 -51 -128zM460 664v-63
h-269v63h269z" />
    <glyph glyph-name="abreve.alt" 
d="M296 -12q-109 0 -182 75q-72 75 -72 188q0 114 73 190t184 76q125 0 195 -100v88h87v-505h-87v89q-34 -48 -85.5 -74.5t-112.5 -26.5zM137 252q0 -76 51 -128t127 -52q77 0 126 52q51 52 51 128t-51 129q-49 52 -126 52q-76 0 -127 -53q-51 -52 -51 -128zM326 564
q-64 0 -104 40t-40 103h68q0 -39 20 -61.5t56 -22.5t56 22.5t20 61.5h68q0 -63 -40 -103t-104 -40z" />
    <glyph glyph-name="aogonek.alt" 
d="M296 -12q-109 0 -182 75q-72 75 -72 188q0 114 73 190t184 76q125 0 195 -100v88h87v-505h-11q-50 -60 -68.5 -90t-18.5 -51q0 -44 44 -44q27 0 50 14v-64q-29 -21 -68 -21q-43 0 -73.5 27.5t-30.5 67.5q0 35 16 66q16 30 73 95v89q-34 -48 -85.5 -74.5t-112.5 -26.5z
M137 252q0 -76 51 -128t127 -52q77 0 126 52q51 52 51 128t-51 129q-49 52 -126 52q-76 0 -127 -53q-51 -52 -51 -128z" />
    </font>
</defs>
</svg>
