<svg xmlns="http://www.w3.org/2000/svg" viewBox="0 0 419.91 168.44"><defs><style>.cls-2{fill:none;stroke-miterlimit:10;stroke:#000;stroke-width:3.28px}</style></defs><g id="Capa_2" data-name="Capa 2"><g id="Capa_1-2" data-name="Capa 1"><path d="M1.71 166.73h351.95m13.24 0h30.05m11.54 0h9.71" stroke-linecap="round" stroke-width="3.42" stroke="#000" fill="none" stroke-miterlimit="10"/><path d="M42.89 39.86H30.43a.65.65 0 00-.65.65V159.2h13.76V40.51a.65.65 0 00-.65-.65"/><path class="cls-2" d="M36.66 16.77v23.09"/><path d="M46.56 9.9a9.9 9.9 0 10-9.9 9.89 9.9 9.9 0 009.9-9.89m225.93 29.96H260a.65.65 0 00-.65.65V159.2h13.76V40.51a.65.65 0 00-.66-.65"/><path class="cls-2" d="M266.27 16.77v23.09"/><path d="M276.16 9.9a9.9 9.9 0 10-9.89 9.89 9.89 9.89 0 009.89-9.89"/><path class="cls-2" d="M36.66 28.32a339 339 0 00229.6 0"/><path d="M151.46 56.13a346.48 346.48 0 01-83.7-10.23l-1.28-.31 3.77-15.15 1.27.32a331.24 331.24 0 0079.94 9.76 331.11 331.11 0 0079.94-9.76l1.27-.32 3.77 15.15-1.27.31a346.56 346.56 0 01-83.71 10.23"/><path d="M231.72 32l3.13 12.6a345.44 345.44 0 01-83.39 10.19 345.56 345.56 0 01-83.39-10.16L71.21 32a332.73 332.73 0 0080.26 9.8 332.71 332.71 0 0080.25-9.8m1.91-3.17l-2.55.63a330 330 0 01-79.61 9.72 330 330 0 01-79.63-9.72l-2.54-.63-.64 2.54L65.53 44l-.63 2.54 2.54.64a348.67 348.67 0 0084 10.25 348.55 348.55 0 0084-10.25l2.55-.64-.6-2.54-3.13-12.6z" fill="#9898d3"/><path d="M259.39 79.83h13.76m-243.37 0h13.76" stroke="#9898d3" stroke-width="2.62" fill="none" stroke-miterlimit="10"/><path d="M57.5 166.73H14.6l2.88-9.25a.77.77 0 01.73-.54h35.67a.76.76 0 01.73.54zm230.22 0h-42.9l2.88-9.25a.77.77 0 01.73-.54h35.67a.76.76 0 01.73.54z"/></g></g></svg>