<svg xmlns="http://www.w3.org/2000/svg" viewBox="0 0 205.65 36.66"><g data-name="Capa 2"><path d="M180.24 5.75a3.67 3.67 0 00-2.94-1 3.69 3.69 0 00.37 7.37 3.67 3.67 0 002.57-1.12.13.13 0 01.22.1v5.11a.55.55 0 00.55.54h4.51a.54.54 0 00.54-.54V.54a.54.54 0 00-.54-.54H181a.55.55 0 00-.55.54v5.11a.13.13 0 01-.22.1M199.9 11a3.7 3.7 0 10-5.29 0 .13.13 0 01-.1.22h-5.11a.54.54 0 00-.54.54v4.52a.54.54 0 00.54.54h15.71a.54.54 0 00.54-.54v-4.55a.54.54 0 00-.54-.54H200a.13.13 0 01-.1-.22m-2.28 13.34a3.7 3.7 0 00-2.94 1 .13.13 0 01-.22-.09v-5.09a.54.54 0 00-.54-.54h-4.52a.54.54 0 00-.54.54v15.71a.54.54 0 00.54.54h4.52a.54.54 0 00.54-.54v-5.11a.13.13 0 01.22-.1 3.69 3.69 0 006.26-2.82 3.71 3.71 0 00-3.32-3.5m-27.81.87h5.11a.14.14 0 01.1.23 3.67 3.67 0 00-1 2.94 3.69 3.69 0 007.37-.37 3.67 3.67 0 00-1.05-2.57.14.14 0 01.1-.23h5.11a.54.54 0 00.54-.54v-4.51a.54.54 0 00-.54-.54h-15.74a.54.54 0 00-.54.54v4.51a.54.54 0 00.54.54M39.24 16.35a11.76 11.76 0 018.66-3.41 11.94 11.94 0 018.7 3.41 11.32 11.32 0 013.46 8.39 11.45 11.45 0 01-3.46 8.48 11.91 11.91 0 01-8.7 3.37 11.73 11.73 0 01-8.66-3.37 11.57 11.57 0 01-3.42-8.48 11.44 11.44 0 013.42-8.39M52.65 20a6.44 6.44 0 00-4.75-1.91A6.26 6.26 0 0043.19 20a6.54 6.54 0 00-1.86 4.75 6.66 6.66 0 001.86 4.8 6.25 6.25 0 004.71 1.9 6.37 6.37 0 004.75-1.9 6.53 6.53 0 001.9-4.8 6.41 6.41 0 00-1.9-4.75M65.63.05h4a.78.78 0 01.78.78v34.4a.77.77 0 01-.78.78h-4a.77.77 0 01-.78-.78V.83a.78.78 0 01.78-.78m13 16.3a11.74 11.74 0 018.65-3.41A11.92 11.92 0 0196 16.35a11.29 11.29 0 013.46 8.39A11.41 11.41 0 0196 33.22a11.89 11.89 0 01-8.7 3.37 11.71 11.71 0 01-8.65-3.37 11.53 11.53 0 01-3.42-8.48 11.4 11.4 0 013.42-8.39M92 20a6.42 6.42 0 00-4.75-1.91A6.23 6.23 0 0082.58 20a6.55 6.55 0 00-1.87 4.75 6.66 6.66 0 001.87 4.8 6.23 6.23 0 004.7 1.9A6.34 6.34 0 0092 29.54a6.5 6.5 0 001.91-4.8A6.38 6.38 0 0092 20m17 16h-4a.77.77 0 01-.78-.77v-21a.78.78 0 01.78-.78h3.72a.78.78 0 01.78.78v2.15a8.26 8.26 0 016.92-3.5c5 0 8.3 3.41 8.3 8.56v13.8a.77.77 0 01-.72.76h-4a.77.77 0 01-.79-.77V23c0-3.16-1.59-4.93-4.57-4.93s-4.83 2.13-4.83 5.15v12.02a.77.77 0 01-.81.76m24.47-32.78a3.43 3.43 0 013.64 3.46 3.46 3.46 0 01-3.64 3.5 3.42 3.42 0 01-3.59-3.5 3.39 3.39 0 013.59-3.46m2 32.79h-4a.77.77 0 01-.78-.77v-21a.78.78 0 01.78-.78h4a.78.78 0 01.78.78v21a.77.77 0 01-.78.77m20.12-.78v-2.06a8.24 8.24 0 01-6.87 3.42 8 8 0 01-5.38-1.77 5.94 5.94 0 01-2.08-4.66c0-3.78 2.4-6.08 7.68-7.33l6.48-1.51v-.26c0-2.09-1.6-3.46-4-3.46a4.09 4.09 0 00-4.17 2.72.78.78 0 01-.74.56h-3.85a.77.77 0 01-.77-.89 7.87 7.87 0 012.87-4.79 10.23 10.23 0 016.75-2.26c5.9 0 9.41 3.37 9.41 8.74v13.55a.77.77 0 01-.78.78h-3.72a.78.78 0 01-.79-.78m-1.77-4.81a5.56 5.56 0 001.6-4v-1.1l-5.06 1.15c-2.49.58-3.64 1.6-3.64 3.06 0 1.65 1.15 2.58 3.28 2.58a5 5 0 003.82-1.69M31.83 20.88h-4.39a.78.78 0 00-.78.72 10 10 0 01-7.61 9.06 9.65 9.65 0 01-7.77-1 10.74 10.74 0 01-4.77-6.62 10.69 10.69 0 01.79-8 9.3 9.3 0 016.11-4.9 10 10 0 019.79 2.42.79.79 0 00.54.22h4.44A.78.78 0 0029 12V5a.78.78 0 00-.78-.78h-4a.77.77 0 00-.78.78v.7l-.49-.22A15.94 15.94 0 0012 4.8a15.56 15.56 0 00-9.93 7.56A15.74 15.74 0 00.65 24.67a15.82 15.82 0 007.51 9.9A15.55 15.55 0 0020.57 36a16.05 16.05 0 009.25-6.36 15 15 0 002.79-7.91.78.78 0 00-.78-.84" fill="#f6cc44" data-name="Capa 1"/></g></svg>