<svg xmlns="http://www.w3.org/2000/svg" viewBox="0 0 584.92 301.56"><defs><style>.cls-1{fill:#f6cc44;}</style></defs><title>Recurso 3</title><g id="Capa_2" data-name="Capa 2"><g id="Capa_1-2" data-name="Capa 1"><path d="M41.2,301.56h-20a1.43,1.43,0,0,1,0-2.85h20a1.43,1.43,0,1,1,0,2.85"/><path d="M11.44,301.56h-10a1.43,1.43,0,0,1,0-2.85h10a1.43,1.43,0,1,1,0,2.85"/><path d="M138.91,115.29c-.94,0-1.89,0-2.84-.11a75.28,75.28,0,0,1-22.79-5.66C96.37,102.15,85.09,88.86,73.14,74.8q-1.85-2.19-3.72-4.37c-1.19-1.4-2.46-2.8-3.76-4.17a12.69,12.69,0,0,1-3.27.42,13.1,13.1,0,0,1-1.88-.13,17.77,17.77,0,0,1-12.22-7.84,12.06,12.06,0,0,1-1.92-7.37,7.11,7.11,0,0,1,2-4.59,6.71,6.71,0,0,1,3.77-1.67A10.54,10.54,0,0,1,53.53,45a10.18,10.18,0,0,1,5.74,1.72c.18.12.35.24.51.37a14.61,14.61,0,0,1,2.27,2.48c.29.37.58.75.89,1.11.62.73,1,.88,1.23.88h.09c.45-.08.73-.79.86-1.21l.11-.35a5.58,5.58,0,0,1,.6-1.52,2.46,2.46,0,0,1,2-1.2,1.73,1.73,0,0,1,.32,0,2.29,2.29,0,0,1,1.68,1.43,5.43,5.43,0,0,1,.35,1.49l0,.17a29.58,29.58,0,0,0,1.43,5.44l0,.1a9.61,9.61,0,0,1,.72,3.51,2.56,2.56,0,0,1,0,.39c1.19,1.43,2.24,2.63,3.3,3.74A61.91,61.91,0,0,0,99.85,79.49c8.59,3,18.24,4.55,29.51,4.72h.83c2.07,0,4.19-.11,6.24-.22s4.21-.22,6.32-.22c.9,0,1.72,0,2.53.06,4,.2,9.48,1.3,13,5.39,4.06,4.78,4.19,14-2.09,20-4.08,3.92-10.21,6.08-17.25,6.08Z"/><path class="cls-1" d="M53.53,45.82a9.44,9.44,0,0,1,5.28,1.57c.16.11.3.22.45.34a24.85,24.85,0,0,1,3.05,3.48,2.76,2.76,0,0,0,1.86,1.16,1,1,0,0,0,.24,0c.84-.15,1.28-1,1.5-1.78a7.18,7.18,0,0,1,.62-1.66,1.66,1.66,0,0,1,1.3-.82H68a1.51,1.51,0,0,1,1.06.95,5,5,0,0,1,.31,1.44,29.62,29.62,0,0,0,1.47,5.6,9.06,9.06,0,0,1,.71,3.31,4.93,4.93,0,0,1-.07.66c1.13,1.38,2.3,2.74,3.57,4.07A63,63,0,0,0,99.58,80.27c9.51,3.33,19.65,4.61,29.77,4.76h.84c4.19,0,8.38-.44,12.56-.44.83,0,1.66,0,2.48.06,4.59.23,9.41,1.6,12.39,5.1,4.51,5.3,3,14-2,18.86-4.36,4.19-10.57,5.84-16.67,5.84-.93,0-1.86,0-2.77-.11a74,74,0,0,1-22.53-5.58c-18.5-8.07-30.46-23.61-43.56-38.88-1.33-1.56-2.72-3.08-4.14-4.56a12,12,0,0,1-3.53.53,12.91,12.91,0,0,1-1.76-.13A17,17,0,0,1,49,58.27a11.2,11.2,0,0,1-1.79-6.86A6.25,6.25,0,0,1,49,47.35a5.88,5.88,0,0,1,3.3-1.45,11,11,0,0,1,1.28-.08m0-1.65a12.29,12.29,0,0,0-1.49.09,7.48,7.48,0,0,0-4.23,1.89,7.86,7.86,0,0,0-2.26,5.11,12.89,12.89,0,0,0,2,7.89,18.58,18.58,0,0,0,12.8,8.22,14.79,14.79,0,0,0,2,.14,13.61,13.61,0,0,0,3-.33c1.18,1.25,2.32,2.52,3.4,3.79,1.25,1.45,2.49,2.91,3.72,4.36,12,14.14,23.35,27.5,40.44,35A74.8,74.8,0,0,0,136,116c1,.08,1.95.12,2.91.12,7.26,0,13.59-2.24,17.82-6.31,5.34-5.14,7.48-14.86,2.15-21.12-3.68-4.32-9.4-5.48-13.56-5.69-.82,0-1.66-.06-2.57-.06-2.13,0-4.28.12-6.36.23s-4.15.21-6.2.21h-.82c-11.18-.17-20.74-1.7-29.24-4.67A60.9,60.9,0,0,1,76.25,63c-1-1-2-2.12-3-3.43a.25.25,0,0,0,0-.08,10.28,10.28,0,0,0-.77-3.82l0-.1A29.29,29.29,0,0,1,71,50.27l0-.16a5.84,5.84,0,0,0-.41-1.72,3.12,3.12,0,0,0-2.3-1.92,3.57,3.57,0,0,0-.46,0A3.29,3.29,0,0,0,65.13,48a6.47,6.47,0,0,0-.7,1.74,3,3,0,0,1-.1.32,3,3,0,0,1-.23.57,3,3,0,0,1-.53-.52c-.3-.34-.57-.7-.87-1.08a14.28,14.28,0,0,0-2.41-2.61c-.18-.15-.36-.29-.55-.42a11.06,11.06,0,0,0-6.21-1.85"/><path d="M578,200a9.27,9.27,0,0,1-6.16-2.32l-.41-.39a13,13,0,0,1-1.72-2.49c-.21-.36-.43-.73-.66-1.1-.5-.77-.85-.93-1.05-.93-.43,0-.77.62-.94,1L567,194a5.1,5.1,0,0,1-.73,1.29,2.25,2.25,0,0,1-1.68.85,1.6,1.6,0,0,1-.53-.09,2.07,2.07,0,0,1-1.32-1.48,4.39,4.39,0,0,1-.13-1.37v-.15a26.11,26.11,0,0,0-.61-5l0-.09a8.47,8.47,0,0,1-.22-3.22,5.45,5.45,0,0,1,1.46-2.75c0-2.07,0-4-.14-6a75.32,75.32,0,0,0-7.19-27.85,114.55,114.55,0,0,0-16.57-24.73c-1.5-1.76-3.12-3.45-4.68-5.08-2-2-4-4.14-5.78-6.4-2.45-3-5.38-7.71-5.45-12.76a10.82,10.82,0,0,1,3.07-7.85,11,11,0,0,1,7.78-3.23,11.5,11.5,0,0,1,1.31.07c7.31.87,13.22,7.29,16.09,11a93.29,93.29,0,0,1,11.67,20.24c7,17,7.2,33.58,7.44,51.12,0,1.82,0,3.64.09,5.47,0,1.07,0,2.17.1,3.36a11.63,11.63,0,0,1,2.27.41,16,16,0,0,1,9.93,8.48,10.77,10.77,0,0,1,.81,6.81A6.32,6.32,0,0,1,581.6,199a5.91,5.91,0,0,1-3.5,1Z"/><path class="cls-1" d="M534.23,88.87c.4,0,.81,0,1.22.07,5.8.69,11.41,5.29,15.59,10.75a92.56,92.56,0,0,1,11.57,20.07c7.65,18.65,7.13,37.15,7.47,56.32,0,1.35.07,2.7.14,4a11.34,11.34,0,0,1,2.77.43,15.34,15.34,0,0,1,9.47,8.06,10.21,10.21,0,0,1,.76,6.34,5.68,5.68,0,0,1-2.05,3.41,5.28,5.28,0,0,1-3.07.89H578a8.63,8.63,0,0,1-5.66-2.13c-.13-.12-.25-.23-.36-.35a22.07,22.07,0,0,1-2.3-3.48c-.4-.62-1-1.28-1.68-1.28h0c-.78,0-1.27.78-1.56,1.41a6.19,6.19,0,0,1-.76,1.41,1.55,1.55,0,0,1-1.12.58,1,1,0,0,1-.3,0,1.36,1.36,0,0,1-.83-1,4.84,4.84,0,0,1-.1-1.32,25.72,25.72,0,0,0-.62-5.17,8.27,8.27,0,0,1-.24-3,4.78,4.78,0,0,1,1.47-2.57c0-2.06,0-4.16-.14-6.32a76.57,76.57,0,0,0-7.25-28.12A117.3,117.3,0,0,0,539.86,123c-3.38-3.95-7.19-7.4-10.45-11.46-2.84-3.52-5.22-7.93-5.29-12.3a10,10,0,0,1,10.11-10.33m0-1.49a11.7,11.7,0,0,0-8.31,3.46,11.57,11.57,0,0,0-3.29,8.38c.08,5.26,3.1,10.09,5.62,13.21,1.84,2.29,3.86,4.41,5.82,6.45,1.56,1.63,3.17,3.31,4.65,5.05a114.15,114.15,0,0,1,16.47,24.58,74.34,74.34,0,0,1,7.11,27.57c.12,1.83.17,3.67.15,5.62a5.94,5.94,0,0,0-1.45,2.91,9.1,9.1,0,0,0,.22,3.49l0,.1a24.67,24.67,0,0,1,.59,4.88v.14a5.72,5.72,0,0,0,.16,1.58,2.83,2.83,0,0,0,1.82,2,2.65,2.65,0,0,0,.74.11,3,3,0,0,0,2.26-1.11,5.84,5.84,0,0,0,.84-1.46c0-.1.08-.19.13-.29a2.26,2.26,0,0,1,.28-.47,4,4,0,0,1,.41.53c.22.34.42.69.64,1.06a12.94,12.94,0,0,0,1.82,2.63l.45.44a10.13,10.13,0,0,0,6.65,2.51h.07a6.71,6.71,0,0,0,3.93-1.17,7.1,7.1,0,0,0,2.64-4.29,11.54,11.54,0,0,0-.86-7.28,16.75,16.75,0,0,0-10.41-8.89,12.93,12.93,0,0,0-1.75-.36c0-.94-.06-1.84-.08-2.7,0-1.83-.06-3.65-.08-5.47-.24-17.62-.47-34.26-7.5-51.39a95.31,95.31,0,0,0-11.76-20.42c-3-3.84-9-10.42-16.61-11.32a13,13,0,0,0-1.39-.08"/><path d="M324.18,218.28a10,10,0,0,0-6.84-5.37c-4.73-11-9.56-21.69-18.78-29.63a51.64,51.64,0,0,0-13.9-8.4c-4.53-1.81-9.84-2.38-14.19-.19s-7.19,7.71-5.27,12.19c1.27,3,4.21,4.87,7.23,6,3.48,1.28,7.17,1.89,10.7,3a66,66,0,0,1,18.92,9.35,42.13,42.13,0,0,1,9.63,10.08,5.76,5.76,0,0,0-.15.81,14.38,14.38,0,0,0,1.79,8.92c1.39,2.4,4.08,2.22,6.63,1.74A6.2,6.2,0,0,0,324.3,224a6.36,6.36,0,0,0-.12-5.7"/><path class="cls-1" d="M317.34,227.93a5.07,5.07,0,0,1-4.73-2.47,15,15,0,0,1-1.9-9.43c0-.17.05-.35.08-.54a41.56,41.56,0,0,0-9.23-9.59,64.44,64.44,0,0,0-18.69-9.22c-1.55-.51-3.18-.92-4.75-1.32a59.6,59.6,0,0,1-6-1.73c-2.67-1-6.18-2.89-7.7-6.42-2.19-5.13,1.15-11,5.65-13.26,5.58-2.8,11.72-1.1,14.88.16a53.07,53.07,0,0,1,14.13,8.54c8.95,7.71,13.85,17.95,18.84,29.56a10.82,10.82,0,0,1,7,5.72,7.14,7.14,0,0,1,.1,6.46,7,7,0,0,1-4.92,3.22,14.88,14.88,0,0,1-2.76.32m-40.5-53.82a13.33,13.33,0,0,0-6,1.32c-3.75,1.89-6.68,6.92-4.88,11.12,1.29,3,4.38,4.66,6.75,5.53,1.88.68,3.88,1.19,5.81,1.68,1.6.4,3.26.82,4.87,1.34a66.36,66.36,0,0,1,19.15,9.47,43,43,0,0,1,9.82,10.28.85.85,0,0,1,.13.66,6.26,6.26,0,0,0-.14.73,13.39,13.39,0,0,0,1.69,8.4c1,1.82,3.06,1.85,5.76,1.34a5.37,5.37,0,0,0,3.78-2.4,5.52,5.52,0,0,0-.15-5,9.18,9.18,0,0,0-6.26-4.91.82.82,0,0,1-.59-.48c-5.13-12-9.76-21.76-18.56-29.34a51.38,51.38,0,0,0-13.67-8.25,20.25,20.25,0,0,0-7.51-1.54"/><path d="M327.11,229.41a2.12,2.12,0,0,1-.44,0,2.33,2.33,0,0,1-1.63-2.59,4.79,4.79,0,0,1,1-2.23l.17-.22A3.73,3.73,0,0,0,327,223H327a4,4,0,0,0-1.27.38l-.11.05a13,13,0,0,0-2.41,1.49,14.33,14.33,0,0,1-2.75,1.68,4.19,4.19,0,0,1-1.69.44,2.32,2.32,0,0,1-.7-.1,3.05,3.05,0,0,1-1.88-3,9.94,9.94,0,0,1,5.2-8.63,16.48,16.48,0,0,1,7.58-2.16,8.17,8.17,0,0,1,1.84.2l.22.06a41.33,41.33,0,0,0,13.56-4.86,64.51,64.51,0,0,0,15.88-13.46c1.09-1.23,2.12-2.56,3.12-3.85a56.86,56.86,0,0,1,3.95-4.78c2-2.07,5.12-4.53,9-4.53,5.66,0,9.74,5.46,10,10.53.26,4.58-2,9.55-6.09,13.64a53,53,0,0,1-13.48,9.59c-10.24,4.94-21.06,5.48-31.31,5.52a2.88,2.88,0,0,1-.13.31,7.11,7.11,0,0,1-2.57,2.62c-.24.17-.48.34-.71.52a10.1,10.1,0,0,0-2.46,2.71l-.12.2a5.65,5.65,0,0,1-.84,1.14,2.46,2.46,0,0,1-1.69.73"/><path class="cls-1" d="M376.48,182.81h0c4.88,0,8.81,4.8,9.09,9.67s-2.36,9.51-5.83,13a51.67,51.67,0,0,1-13.23,9.42c-10,4.84-20.66,5.41-31.62,5.43a3,3,0,0,1-.24.82c-.59,1.26-1.91,2-3,2.81a11.14,11.14,0,0,0-2.68,3,5.93,5.93,0,0,1-.82,1.16,1.58,1.58,0,0,1-1.06.48,1,1,0,0,1-.24,0,1.43,1.43,0,0,1-.94-1.59,4.14,4.14,0,0,1,.88-1.81c.37-.5,1.58-1.87.95-2.65a1,1,0,0,0-.79-.33,4.74,4.74,0,0,0-1.73.51c-1.85.79-3.31,2.38-5.16,3.17a3.45,3.45,0,0,1-1.34.37,1.54,1.54,0,0,1-.43-.06c-.87-.27-1.21-1.31-1.25-2.22-.12-3.2,2-6.2,4.76-7.81a15.56,15.56,0,0,1,7.12-2,7.15,7.15,0,0,1,1.63.17l.36.11a42.12,42.12,0,0,0,14.08-5,66.09,66.09,0,0,0,16.11-13.64c2.46-2.77,4.49-5.92,7-8.61,2.21-2.31,5.12-4.24,8.32-4.24m0-1.81c-4.17,0-7.53,2.61-9.63,4.8-1.46,1.55-2.76,3.23-4,4.85-1,1.34-2,2.61-3.07,3.81a63.74,63.74,0,0,1-15.66,13.28,40.6,40.6,0,0,1-13.06,4.72l-.07,0a9.31,9.31,0,0,0-2-.22,17.36,17.36,0,0,0-8,2.28,10.82,10.82,0,0,0-5.65,9.44,4,4,0,0,0,2.52,3.88,3.38,3.38,0,0,0,1,.14,5.16,5.16,0,0,0,2.05-.52,15.05,15.05,0,0,0,2.92-1.78c.35-.25.7-.5,1-.72a4.72,4.72,0,0,0-.6,1.73,3.24,3.24,0,0,0,2.33,3.58,3.14,3.14,0,0,0,2.95-.92,6.21,6.21,0,0,0,1-1.32l.12-.19a9.3,9.3,0,0,1,2.24-2.48c.22-.17.45-.33.68-.49a8.23,8.23,0,0,0,2.77-2.77c10.18-.06,20.9-.68,31.11-5.61a53.16,53.16,0,0,0,13.73-9.76c2.53-2.51,6.72-7.71,6.35-14.33-.31-5.48-4.76-11.36-10.88-11.38Z"/><path d="M447.44,162.86c-.9,1.27-1.86,2.51-2.91,3.72a44.14,44.14,0,0,1-16.6,12.11A66.1,66.1,0,0,1,407.27,183c-3.7.23-7.43-.1-11.12.27-.32,0-.65.08-1,.13-1.34-2.32-2.65-4.66-3.8-7.08-1.65-3.48-3.73-7.65-3.84-11.62l7.61-3.56a4.48,4.48,0,0,0,2.25-5.75l-2.06-5,3.49-1.42a1.31,1.31,0,0,0,.23-2.31c-4.87-3.18-14.48-11.71-24.08-7.53a14.25,14.25,0,0,0-3.7,23.82,9.42,9.42,0,0,1,3.2,5.59v0c1,6.48-.77,12.3-3.28,18.24-10.65,25.21-28.29,46.41-21.66,75.33,2.29,10,6.22,18.31,13.3,28.81-4,1.1-9.13,4.87-11.84,7.9-.33.37-.05.82.45.67l20.76,0s-5.52-14-4.95-27.37,2.32-20.12,5.8-27.78l7.53.14c4,10.54,18.09,29.77,26.42,38.1a18.68,18.68,0,0,0-6.23,10,.86.86,0,0,0,1.19,1l15.7-7.39c-2.53-5-4.6-8.06-6.47-13.33-4.48-12.62-5.45-24.55-4.75-37.81.56-10.51.37-21.31-2.22-31.46a51.8,51.8,0,0,0,14.85-4.56c12.66-6.27,20.5-17.53,29.14-28.65,1.06-1.37,2.16-2.71,3.31-4Z"/><path class="cls-1" d="M351.26,300.38a1.19,1.19,0,0,1-1.05-.57,1.26,1.26,0,0,1,.17-1.51,31.55,31.55,0,0,1,11.16-7.81c-6.88-10.34-10.61-18.57-12.81-28.17-5.09-22.2,3.79-39.63,13.19-58.08,2.92-5.74,5.94-11.67,8.51-17.76,2.65-6.26,4.22-11.69,3.24-17.78a8.75,8.75,0,0,0-2.93-5.14,15,15,0,0,1-4.7-7.62,15.17,15.17,0,0,1,8.61-17.58c8.73-3.8,17.45,2.38,22.67,6.08.79.56,1.55,1.1,2.2,1.52a2.14,2.14,0,0,1-.37,3.76l-2.73,1.12,1.74,4.26a5.29,5.29,0,0,1-2.66,6.82l-7.11,3.32c.26,3.44,2,7,3.5,10.25l.24.51c1.09,2.31,2.35,4.56,3.49,6.53l.45-.05a59.15,59.15,0,0,1,6.22-.19c1.62,0,3.3,0,4.93-.09a64.75,64.75,0,0,0,20.4-4.28A42.89,42.89,0,0,0,443.9,166c1-1.15,1.93-2.34,2.87-3.66a.86.86,0,0,1,.58-.34.84.84,0,0,1,.64.2l4.09,3.58a.89.89,0,0,1,.28.57.86.86,0,0,1-.21.61c-1,1.16-2.11,2.45-3.27,3.94-.83,1.06-1.64,2.12-2.46,3.18-7.89,10.26-15.35,20-27,25.71a52.32,52.32,0,0,1-14.19,4.5c2.68,11.16,2.45,22.89,2,30.83-.78,14.57.67,26.13,4.7,37.49a61.39,61.39,0,0,0,4.33,9.27c.67,1.24,1.36,2.51,2.09,3.95a.82.82,0,0,1,.05.65.85.85,0,0,1-.43.48l-15.7,7.39a1.68,1.68,0,0,1-2.34-1.93,19.63,19.63,0,0,1,5.82-9.87c-8.57-8.82-21.69-27.09-25.78-37.23l-6.43-.13c-3.11,7-4.91,13.49-5.5,27-.56,13.08,4.83,26.89,4.89,27a.81.81,0,0,1-.09.77.73.73,0,0,1-.68.36l-20.66,0-.29,0m1-1.69,18.73,0c-1.3-3.62-5.06-15.2-4.57-26.58.61-14.08,2.53-20.73,5.86-28.09a.8.8,0,0,1,.77-.48l7.54.14a.84.84,0,0,1,.75.53c3.86,10.1,17.65,29.23,26.24,37.81a.87.87,0,0,1,.24.63.83.83,0,0,1-.3.6,17.84,17.84,0,0,0-6,9.59l15-7c-.58-1.12-1.14-2.15-1.68-3.15a61.84,61.84,0,0,1-4.44-9.51c-4.1-11.57-5.58-23.33-4.8-38.13.69-12.94,0-22.57-2.19-31.22a.82.82,0,0,1,.68-1,50.86,50.86,0,0,0,14.6-4.48c11.28-5.59,18.63-15.13,26.4-25.24l2.46-3.18c1-1.26,1.9-2.39,2.79-3.41l-2.78-2.44c-.79,1.08-1.59,2.08-2.43,3a44.6,44.6,0,0,1-16.91,12.34,66.59,66.59,0,0,1-20.91,4.39c-1.69.11-3.4.1-5.05.09-2,0-4,0-6,.18-.3,0-.62.08-.93.13a.85.85,0,0,1-.84-.41c-1.21-2.11-2.61-4.58-3.83-7.13l-.24-.51c-1.67-3.51-3.56-7.5-3.68-11.45a.82.82,0,0,1,.48-.77l7.61-3.56a3.65,3.65,0,0,0,1.83-4.69l-2.05-5a.79.79,0,0,1,0-.64.81.81,0,0,1,.45-.44l3.49-1.43a.47.47,0,0,0,.3-.4.46.46,0,0,0-.21-.44c-.67-.44-1.44-1-2.25-1.56-5.25-3.72-13.17-9.34-21.05-5.91a13.42,13.42,0,0,0-3.49,22.43,10.34,10.34,0,0,1,3.48,6.09c1.1,6.9-.95,13.08-3.34,18.73-2.6,6.14-5.63,12.1-8.56,17.86-9.26,18.18-18,35.35-13.06,57,2.22,9.67,6,17.93,13.19,28.54a.83.83,0,0,1-.47,1.26c-3.51.95-8,4.14-10.78,6.94"/><path d="M303.81,283.91c-4.09-17.92-1.13-36-1.83-54.08a210.69,210.69,0,0,0-8.76-52.32c-2.61-8.68-8.06-18-4.24-27.28a14.26,14.26,0,0,0-12.61-19.68c-10.64-.45-16.38,11.24-19.71,16.07a1.31,1.31,0,0,0,1.08,2.06h3.77v5.43a4.49,4.49,0,0,0,4.26,4.48l5.61.27c.49,4.56.89,9.37.21,13.87-1,6.73-4,13-7.14,19-11.61,22.41-26.87,47.6-20.84,73.94,2.29,10,5.3,17,13.1,24.83-2.87,2.42-4.16,4.65-6.34,8.33-.25.43-.05.81.46.67l16.61-4.81a43.31,43.31,0,0,1-4.94-22.53c.58-13.41,2.32-20.12,5.8-27.78l10.29.19a125.41,125.41,0,0,0,10,27.8A130.48,130.48,0,0,0,295.17,284c.57.88,3.82,5.61,4.76,7.07-1.6.68-8.24,5.25-9.65,7.53-.57.22-.39.92.24.92H309.3c-1.93-5.22-4.25-10.18-5.49-15.63"/><path class="cls-1" d="M250.62,300.38a1.17,1.17,0,0,1-.94-.45,1.32,1.32,0,0,1,0-1.5l.11-.19c1.93-3.26,3.26-5.51,5.73-7.77-7.72-8-10.52-15.11-12.69-24.59-5.56-24.25,6.78-47.67,17.67-68.34q1.65-3.12,3.24-6.17c3-5.81,6-12,7-18.77a51.92,51.92,0,0,0-.14-12.94l-4.9-.25a5.3,5.3,0,0,1-5.05-5.3V149.5h-2.94a2.15,2.15,0,0,1-1.9-1.14,2.12,2.12,0,0,1,.14-2.21c.43-.63.93-1.41,1.45-2.23,3.47-5.46,9.29-14.61,19-14.19a15.08,15.08,0,0,1,13.33,20.82c-2.86,6.92-.26,14,2.26,20.87.7,1.93,1.43,3.92,2,5.85a210.76,210.76,0,0,1,8.79,52.53c.25,6.23.05,12.53-.13,18.63-.35,11.61-.72,23.62,1.94,35.3a77,77,0,0,0,3.77,11.15c.57,1.43,1.15,2.9,1.69,4.38a.82.82,0,0,1-.09.76.84.84,0,0,1-.68.35H290.52a1.36,1.36,0,0,1-1.39-1.08,1.26,1.26,0,0,1,.57-1.3c1.54-2.22,6.69-5.85,9-7.2-.61-.91-1.49-2.22-2.3-3.4s-1.71-2.52-2-2.92a124.57,124.57,0,0,1-16.55-39.06l-9.1-.18c-3.12,7-4.92,13.49-5.5,27a42.9,42.9,0,0,0,4.82,22.07.82.82,0,0,1,.06.73.8.8,0,0,1-.54.49l-16.61,4.82a1.72,1.72,0,0,1-.44.06m40.6-1.66H308.1c-.41-1.09-.84-2.17-1.26-3.23A79,79,0,0,1,303,284.1c-2.71-11.89-2.34-24-2-35.72.19-6.07.38-12.35.14-18.51a209.77,209.77,0,0,0-8.72-52.12c-.57-1.88-1.26-3.76-2-5.76-2.62-7.16-5.33-14.56-2.23-22.08a13.42,13.42,0,0,0-11.87-18.53c-8.74-.36-14,7.93-17.51,13.42-.53.84-1,1.63-1.49,2.29a.48.48,0,0,0,0,.5.46.46,0,0,0,.43.26h3.77a.83.83,0,0,1,.83.83v5.43a3.66,3.66,0,0,0,3.47,3.65l5.61.28a.82.82,0,0,1,.78.74c.49,4.58.91,9.44.2,14.07-1.06,7-4.14,13.35-7.21,19.28-1.06,2-2.15,4.1-3.24,6.18-10.76,20.41-22.95,43.55-17.53,67.2,2.16,9.43,5,16.45,12.87,24.43a.79.79,0,0,1,.24.62.8.8,0,0,1-.29.59c-2.54,2.14-3.8,4.15-5.66,7.29l14.64-4.24a45,45,0,0,1-4.55-22.06c.61-14.08,2.54-20.73,5.87-28.09a.8.8,0,0,1,.77-.48l10.3.19a.83.83,0,0,1,.79.64A125.12,125.12,0,0,0,289.29,272a127.37,127.37,0,0,0,6.58,11.55c.25.4,1.05,1.58,1.94,2.89,1.08,1.58,2.29,3.38,2.81,4.18a.83.83,0,0,1,.1.7.83.83,0,0,1-.47.52c-1.46.61-7.34,4.7-9,6.86"/><path d="M547.08,183.43c-.07,19.26.5,38.37,2.33,57.4,1,10,2.26,20,4,29.91,1.77,10.33,5.09,19.74,7.85,29.63h-25c-.63,0-.83-.8-.38-1.27,4-4.23,12.45-8.38,15.28-9.24l-2.27-4.25c-7.47-14-14.29-28.06-19.58-43.23-2.66-7.62-5-15.39-7-23.25-.54-2.07-4.59-22.92-4.95-22.93l-10.64-.27c-.77,2.25-1.53,4.48-2.19,6.78-1.24,4.39-2.35,8.83-3.27,13.32a181.89,181.89,0,0,0-3.67,39.12,178.32,178.32,0,0,0,1.59,21.3c.15,1.14,2.77,14.56,2.25,14.75l-21.93,8.43c-.6.23-1.12-.51-.76-1.09a32.47,32.47,0,0,1,13-12.28c-17-52.51-17.9-109.56,2.47-160.92,4.08-10.29,8.91-20.27,13.29-30.44C512.42,83.52,518,72,517.44,59.34L511,61.13l-7.47,2.08a3.93,3.93,0,0,1-5-3.8V51.08a1.38,1.38,0,0,0-1.21-1.37l-4.08-.49a2.09,2.09,0,0,1-1.65-2.95l3.67-8c2-4.36,3.78-8.9,6-13.14a16.63,16.63,0,0,1,4.86-5.92c7.18-5.08,18.6-4.1,22.35,4,9.27,20,18.8,115.64,18.62,160.25"/><path class="cls-1" d="M561.23,301.24h-25a1.46,1.46,0,0,1-1.36-.89,1.74,1.74,0,0,1,.35-1.85c3.71-3.88,11-7.73,14.66-9.13L548.12,286c-9-16.82-15-30.19-19.63-43.35-2.63-7.54-5-15.39-7-23.32-.19-.76-.81-3.8-1.59-7.63-1-5.15-2.59-12.68-3.12-14.67l-9.42-.24c-.68,2-1.37,4.06-2,6.13-1.33,4.67-2.39,9-3.27,13.26a182.41,182.41,0,0,0-3.65,38.94A177.52,177.52,0,0,0,500,276.33c0,.26.22,1.27.45,2.54,2.32,12.73,2.15,12.8,1.25,13.14l-21.93,8.43a1.47,1.47,0,0,1-1.68-.45,1.64,1.64,0,0,1-.13-1.91,33.84,33.84,0,0,1,12.7-12.25C473.08,231,474,173.89,493.42,125c2.56-6.45,5.46-12.88,8.25-19.09,1.68-3.72,3.41-7.56,5.05-11.37.4-.94.81-1.88,1.22-2.82,4.33-9.95,8.8-20.23,8.67-31.27L503.71,64a4.79,4.79,0,0,1-6.09-4.63V51.08a.52.52,0,0,0-.44-.51l-4.08-.49a3,3,0,0,1-2.34-4.17l3.67-8c.66-1.44,1.31-2.94,1.94-4.38,1.28-2.92,2.6-5.95,4.12-8.8a17.14,17.14,0,0,1,5.12-6.23,18.3,18.3,0,0,1,14.93-2.71,13,13,0,0,1,8.7,7.05c9.52,20.56,18.88,117.9,18.71,160.61a569.67,569.67,0,0,0,2.33,57.32c1,10.23,2.31,20.28,4,29.85a181.08,181.08,0,0,0,5.41,21.29c.81,2.69,1.64,5.47,2.41,8.25a.86.86,0,0,1-.14.76.89.89,0,0,1-.69.34m-24.53-1.73h23.38c-.68-2.41-1.39-4.8-2.09-7.13a183.94,183.94,0,0,1-5.46-21.49c-1.65-9.61-3-19.7-4-30-1.66-17.22-2.42-36-2.34-57.5h0c.18-42.57-9.11-139.49-18.54-159.87a11.31,11.31,0,0,0-7.58-6.11,16.53,16.53,0,0,0-13.48,2.45A15.65,15.65,0,0,0,502,25.52c-1.49,2.8-2.8,5.79-4.06,8.68-.63,1.46-1.29,3-2,4.42l-3.67,8a1.26,1.26,0,0,0,.05,1.12,1.24,1.24,0,0,0,.92.61l4.08.49a2.25,2.25,0,0,1,2,2.23v8.33a3.06,3.06,0,0,0,1.21,2.45,3,3,0,0,0,2.68.51l14-3.87a.87.87,0,0,1,1.1.8c.48,11.86-4.23,22.67-8.78,33.13-.41.94-.82,1.88-1.22,2.82-1.64,3.82-3.38,7.67-5.05,11.39-2.79,6.2-5.68,12.61-8.23,19-19.32,48.71-20.19,105.65-2.45,160.34a.87.87,0,0,1-.44,1,31.78,31.78,0,0,0-12.44,11.59l20.93-8.05c-.1-1.82-1.31-8.43-1.85-11.4-.25-1.4-.42-2.32-.46-2.61a181.36,181.36,0,0,1-1.6-21.41,183.3,183.3,0,0,1,3.69-39.31c.88-4.3,1.95-8.67,3.29-13.38.66-2.32,1.44-4.61,2.2-6.82a.84.84,0,0,1,.84-.59l10.64.27c.92,0,.92,0,4.19,16,.74,3.66,1.39,6.83,1.57,7.55,2,7.89,4.37,15.68,7,23.17,4.56,13.08,10.58,26.38,19.52,43.11l2.27,4.25a.91.91,0,0,1,0,.74.88.88,0,0,1-.55.5c-2.63.8-10.7,4.74-14.71,8.82"/><path d="M103.82,300.13a1.51,1.51,0,0,1-1.42-1,1.46,1.46,0,0,1,.49-1.65q5.89-4.75,11.78-9.52a106.73,106.73,0,0,1-21.74-47c-4.4-23.24-1.26-49.75,9.35-78.78,6.59-18,15.33-35.47,23.79-52.33l2.18-4.36c8.29-16.56,17.69-35.34,16.49-55.48a13.52,13.52,0,0,0-8.25-11.6l-7.15-3a4.75,4.75,0,0,1-1.92-7.34l5.15-6.56a.55.55,0,0,0,0-.72l-2.91-2.9a2.93,2.93,0,0,1,.73-4.67l7.84-4C139.6,8.48,141,7.7,142.42,7c2.81-1.52,5.72-3.08,8.67-4.38A17.73,17.73,0,0,1,158.35.83h.6a17,17,0,0,1,11.8,5.71,16.32,16.32,0,0,1,4.09,12.12c-.43,5.7-2.75,10.9-5,15.94a59.32,59.32,0,0,0-4.44,12.3c-1.3,6.46,1,13.05,3.14,19.42.75,2.17,1.51,4.4,2.11,6.56a224.07,224.07,0,0,1,6.07,30.61c2.36,18.18,3,38.33,1.85,61.58-.22,6.36-.51,12.89-.8,19.2-1.3,29-2.66,59.07,2.77,87.86A153.45,153.45,0,0,0,186,291.52c.8,2.46,1.64,5,2.41,7.54l.33,1.07H160.76a1.66,1.66,0,0,1-.7-3.17l16.07-7.51c-.77-1.08-2-3.2-4.41-7.38s-4.72-8.58-5.05-9.2c-3.46-6.54-6.65-13.33-9.49-20.17A249.56,249.56,0,0,1,143,205.16l-13.45-.31c-4.55,12.24-7.18,23.56-8,47.19-.81,22.67,6.89,38.38,7,38.54l.42.84L104.33,300a1.52,1.52,0,0,1-.51.09"/><path class="cls-1" d="M158.34,1.66h.57A15.92,15.92,0,0,1,174,18.61c-.76,10-7.48,18.4-9.42,28.14-1.8,9,2.94,18,5.26,26.37a220.72,220.72,0,0,1,6,30.49c2.64,20.35,2.82,41,1.84,61.43-1.21,35.53-4.65,72.06,2,107.25,1.77,9.41,5.09,18,7.84,27H160.76a.84.84,0,0,1-.35-1.6l17.1-8h0c-.81,0-9.29-15.74-10.08-17.24q-5.21-9.83-9.47-20.1a248.87,248.87,0,0,1-14.23-48L129,204c-5,13.24-7.45,24.83-8.28,48S127.79,291,127.79,291l-23.74,8.31a.68.68,0,0,1-.23.05.67.67,0,0,1-.41-1.2q6.21-5,12.42-10.05a106,106,0,0,1-22.08-47.25c-5-26.16.17-53.34,9.31-78.35,7.13-19.52,16.64-38,25.93-56.6C137.69,88.48,146.76,70,145.57,50a14.26,14.26,0,0,0-8.76-12.31l-7.16-3a3.94,3.94,0,0,1-1.58-6.07l5.15-6.55a1.37,1.37,0,0,0-.11-1.82l-2.9-2.91a2.09,2.09,0,0,1,.52-3.34l7.84-4c4.27-2.2,8.47-4.67,12.86-6.61a17.25,17.25,0,0,1,6.91-1.67m0-1.66h0a18.67,18.67,0,0,0-7.59,1.82c-3,1.32-5.9,2.89-8.72,4.41-1.38.74-2.81,1.51-4.22,2.24l-7.84,4a3.74,3.74,0,0,0-.93,6l2.72,2.73-5,6.36A5.59,5.59,0,0,0,129,36.2l7.16,3a12.7,12.7,0,0,1,7.74,10.88c1.18,19.92-8.16,38.59-16.41,55.06-.73,1.45-1.45,2.91-2.18,4.36-8.47,16.88-17.22,34.33-23.83,52.42-10.66,29.17-13.81,55.82-9.38,79.21a107.49,107.49,0,0,0,21.39,46.71l-11.14,9a2.28,2.28,0,0,0-.75,2.57,2.34,2.34,0,0,0,2.2,1.57,2.27,2.27,0,0,0,.77-.13l23.75-8.32,1.77-.62-.84-1.68c-.08-.16-7.69-15.7-6.89-38.14.83-23.16,3.38-34.42,7.77-46.38l12.2.28A250.89,250.89,0,0,0,156.41,253c2.85,6.87,6.06,13.67,9.53,20.23.33.63,2.66,5,5.06,9.22,1.34,2.38,2.44,4.28,3.27,5.63.23.38.44.71.63,1l-15.19,7.1a2.49,2.49,0,0,0,1,4.75h29.06l-.65-2.14c-.78-2.55-1.62-5.1-2.42-7.56A150.74,150.74,0,0,1,181.36,272c-5.41-28.7-4.06-58.68-2.75-87.68.28-6.31.58-12.83.79-19.22,1.12-23.27.52-43.46-1.85-61.7a223.72,223.72,0,0,0-6.09-30.71c-.6-2.19-1.38-4.44-2.12-6.62-2.15-6.26-4.37-12.74-3.12-19,.83-4.16,2.56-8,4.38-12.12,2.28-5.1,4.63-10.38,5.07-16.21A17.16,17.16,0,0,0,171.37,6,17.74,17.74,0,0,0,159,0l-.65,0"/><path d="M260.56,198.23c-14,1.56-26.73-3.7-40-8.4-1.63-.58-3.28-1.12-4.94-1.57l1.51-5.22c1.44.57,2.92,1.1,4.46,1.55a44.1,44.1,0,0,0,20.51,1.24,65.91,65.91,0,0,0,19.73-7.49c3.24-1.8,6.21-4.09,9.51-5.77,2.86-1.46,6.27-2.31,9.29-1.22,4.6,1.64,6.71,7.47,5.35,12.15s-5.39,8.18-9.8,10.27a51.88,51.88,0,0,1-15.62,4.46"/><path class="cls-1" d="M255.41,199.34c-10.83,0-20.84-3.6-31.35-7.37-1.25-.46-2.51-.91-3.78-1.36-1.78-.63-3.38-1.14-4.88-1.56a.85.85,0,0,1-.5-.39.77.77,0,0,1-.07-.63l1.5-5.22a.85.85,0,0,1,.44-.52.82.82,0,0,1,.67,0c1.5.6,2.93,1.1,4.39,1.53A43,43,0,0,0,242,185a64.92,64.92,0,0,0,19.48-7.4c1.43-.8,2.84-1.71,4.2-2.59a61.61,61.61,0,0,1,5.33-3.2c2.54-1.29,6.33-2.56,10-1.26,5.25,1.88,7.27,8.32,5.86,13.16-1.74,6-7.16,9.33-10.24,10.78a52.53,52.53,0,0,1-15.88,4.54,46.65,46.65,0,0,1-5.24.29m-38.76-11.65c1.3.38,2.68.83,4.19,1.36l3.78,1.36c12,4.31,23.33,8.39,35.85,7A51.14,51.14,0,0,0,275.82,193c4.81-2.27,8.22-5.83,9.36-9.75s-.52-9.6-4.82-11.14c-3.07-1.1-6.4,0-8.64,1.18a54.36,54.36,0,0,0-5.19,3.11c-1.39.89-2.82,1.82-4.3,2.64a66.29,66.29,0,0,1-20,7.58,44.45,44.45,0,0,1-20.89-1.26c-1.23-.36-2.44-.77-3.69-1.24Z"/><path class="cls-1" d="M149.78,12.47A1.78,1.78,0,1,1,148,10.7a1.77,1.77,0,0,1,1.77,1.77"/><path class="cls-1" d="M269.89,140.57a1.59,1.59,0,1,1-1.59-1.6,1.59,1.59,0,0,1,1.59,1.6"/><path class="cls-1" d="M136,28.35a6,6,0,0,1-3.49-1.16.83.83,0,1,1,1-1.35,4.31,4.31,0,0,0,2.85.83,2.93,2.93,0,0,0,2.2-1.19.83.83,0,1,1,1.35,1,4.56,4.56,0,0,1-3.4,1.87l-.48,0"/><path class="cls-1" d="M507,36.86a1.78,1.78,0,1,1-1.77-1.77A1.77,1.77,0,0,1,507,36.86"/><path class="cls-1" d="M505.17,55.86a6.07,6.07,0,0,1-3.5-1.15.84.84,0,1,1,1-1.36c1.74,1.25,4,1.09,5-.35a.84.84,0,0,1,1.36,1,4.7,4.7,0,0,1-3.88,1.89"/><path class="cls-1" d="M267.48,153.38a5.72,5.72,0,0,1-2.17-.44.83.83,0,0,1,.64-1.54,3.75,3.75,0,0,0,2.61.14,2.58,2.58,0,0,0,1.64-1.44.82.82,0,0,1,1.09-.45.84.84,0,0,1,.45,1.09,4.24,4.24,0,0,1-2.65,2.39,5.16,5.16,0,0,1-1.61.25"/><path class="cls-1" d="M384.51,146.05a1.6,1.6,0,1,0,.88-2.08,1.6,1.6,0,0,0-.88,2.08"/><path class="cls-1" d="M389.62,157.49a4.51,4.51,0,0,1-3.28-1.33.83.83,0,0,1,0-1.18.84.84,0,0,1,1.18,0,2.93,2.93,0,0,0,2.36.82,4.31,4.31,0,0,0,2.68-1.26.83.83,0,0,1,1.18,1.18,6,6,0,0,1-3.74,1.75h-.38"/><path d="M213.65,188.42a8.57,8.57,0,0,1-3.25-.54,4.76,4.76,0,0,1-3.16-4.38,5.58,5.58,0,0,1,.19-1.19,4.11,4.11,0,0,0,.15-1,.83.83,0,0,0-.35-.71c-.15,0-.4.29-.58.49l-.1.12a7.33,7.33,0,0,1-5.21,2.34h0a3.06,3.06,0,0,1-2.21-.83,1.69,1.69,0,0,1-.46-1.31c.09-1,1-1.51,1.57-1.85l.26-.15c1.25-.75,1.79-2.27,2.36-3.88a22,22,0,0,1,.85-2.16,9.26,9.26,0,0,1,2.64-3.23c-.11-1-.23-2-.37-2.92a61.74,61.74,0,0,0-10.6-27c-5.29-7.41-12.29-14.23-21.4-20.86-1.89-1.38-3.93-2.66-5.9-3.9a87.18,87.18,0,0,1-7.32-5c-3.15-2.47-7-6.53-7.5-11.89-.57-6.24,4.61-13.81,13.23-15.13a19.35,19.35,0,0,1,2.86-.21c5.61,0,11.64,2.45,17,6.91A75.48,75.48,0,0,1,201.71,108c9.57,15.77,11.14,33.13,12.8,51.51.17,1.9.34,3.81.53,5.72.08.88.18,1.8.29,2.75a9,9,0,0,1,6,3.8,15.38,15.38,0,0,1,2.32,7.74c.13,1.84.12,4.18-1.23,6-1.63,2.17-4.56,2.67-6.93,2.87-.53,0-1.16.08-1.81.08"/><path class="cls-1" d="M169.35,84.14c6,0,11.82,2.86,16.47,6.73A73.6,73.6,0,0,1,201,108.41c10.48,17.25,11.3,36.85,13.21,56.87.11,1.14.23,2.27.37,3.4a8.36,8.36,0,0,1,6,3.54,15,15,0,0,1,2.17,7.34c.14,1.88.07,3.91-1.06,5.42-1.41,1.87-4,2.34-6.34,2.53-.57.05-1.16.09-1.74.09a7.9,7.9,0,0,1-2.94-.49,4,4,0,0,1-2.65-3.57c0-.75.35-1.47.35-2.22s-.49-1.53-1.18-1.53h-.1c-.5.06-.85.5-1.19.87a6.53,6.53,0,0,1-4.61,2.07h-.05c-.82,0-1.85-.42-1.78-1.24s.84-1,1.43-1.36c2.12-1.28,2.45-4.16,3.53-6.39a8.47,8.47,0,0,1,2.76-3.2c-.11-1.14-.25-2.28-.42-3.44a63,63,0,0,0-10.75-27.31c-5.85-8.21-13.4-15.09-21.58-21-4.28-3.12-9-5.58-13.2-8.85-3.62-2.83-6.77-6.73-7.18-11.3-.64-6.94,5.64-13.19,12.52-14.24a18.16,18.16,0,0,1,2.74-.21m0-1.65a19.86,19.86,0,0,0-3,.22c-7.32,1.13-14.67,7.83-13.92,16,.51,5.65,4.53,9.89,7.81,12.46a85.76,85.76,0,0,0,7.39,5c2,1.23,4,2.5,5.86,3.87,9,6.58,16,13.34,21.21,20.67a61,61,0,0,1,10.45,26.6c.12.79.22,1.61.32,2.45A9.84,9.84,0,0,0,203,173a20.85,20.85,0,0,0-.89,2.24c-.54,1.53-1,2.85-2,3.45l-.25.14a3.28,3.28,0,0,0-2,2.51,2.53,2.53,0,0,0,.67,1.93,3.79,3.79,0,0,0,2.76,1.09h.08a8.07,8.07,0,0,0,5.21-2,7.18,7.18,0,0,0-.16,1.12,5.59,5.59,0,0,0,3.69,5.18,9.52,9.52,0,0,0,3.55.6c.69,0,1.36-.05,1.88-.09,2.54-.21,5.69-.75,7.52-3.19,1.51-2,1.54-4.55,1.39-6.53a16.4,16.4,0,0,0-2.45-8.15,9.83,9.83,0,0,0-5.91-4c-.08-.73-.16-1.45-.22-2.14-.18-1.91-.35-3.81-.53-5.71-1.66-18.48-3.24-35.94-12.91-51.87a75.13,75.13,0,0,0-15.55-18c-5.5-4.58-11.72-7.1-17.52-7.1"/><path d="M445.17,173.48a7.48,7.48,0,0,1-4.71-1.58,7.39,7.39,0,0,1-2.65-4.43,6.75,6.75,0,0,1,1.33-5.59.44.44,0,0,0,.07-.4.41.41,0,0,0-.26-.26,2.53,2.53,0,0,1-2-2.56,3.5,3.5,0,0,1,1.72-2.64,11.49,11.49,0,0,1,6.66-2.12,11,11,0,0,1,2.69.33,10.76,10.76,0,0,1,3.28,1.45c1.27-.38,2.35-.73,3.36-1.08a75.24,75.24,0,0,0,24.82-14.46,114.94,114.94,0,0,0,19.3-22.65c1.28-1.91,2.46-3.93,3.61-5.88,1.43-2.43,2.91-4.93,4.6-7.31,2.26-3.18,6-7.28,10.84-8.73a11.48,11.48,0,0,1,3.3-.49,10.85,10.85,0,0,1,10.7,9.27c1.16,7.31-3.43,14.76-6.27,18.55a93.85,93.85,0,0,1-16.33,16.74C494.74,151,478.84,155.69,462,160.69l-5.24,1.56-.71.23a7.72,7.72,0,0,1,0,3c-.64,3.39-3.56,5.48-5.25,6.42a11.82,11.82,0,0,1-5.67,1.63"/><path class="cls-1" d="M521.12,95.9a10.06,10.06,0,0,1,9.88,8.58c.91,5.77-2,12.41-6.11,17.92A92,92,0,0,1,508.71,139c-15.87,12.43-33.82,17-52.18,22.48l-1.46.46a7.22,7.22,0,0,1,.21,3.36c-.49,2.57-2.56,4.57-4.84,5.85a11.08,11.08,0,0,1-5.27,1.53,6.49,6.49,0,0,1-6.55-5.35,6,6,0,0,1,1.19-4.94,1.24,1.24,0,0,0-.59-1.93,1.79,1.79,0,0,1-1.46-1.75,2.82,2.82,0,0,1,1.38-2,10.71,10.71,0,0,1,6.18-2,9.86,9.86,0,0,1,2.48.31,10,10,0,0,1,3.36,1.56c1.24-.37,2.5-.77,3.76-1.21A76.53,76.53,0,0,0,480,140.76,116.3,116.3,0,0,0,499.45,118c2.89-4.32,5.18-8.92,8.2-13.17,2.62-3.68,6.22-7.17,10.41-8.42a10.72,10.72,0,0,1,3.06-.46m0-1.65a12.45,12.45,0,0,0-3.54.53c-5.08,1.51-8.94,5.75-11.28,9-1.7,2.41-3.19,4.93-4.63,7.37-1.14,1.94-2.32,4-3.59,5.84a113.6,113.6,0,0,1-19.16,22.49,74.41,74.41,0,0,1-24.55,14.3c-.9.32-1.85.63-2.95,1a11.7,11.7,0,0,0-3.21-1.36,12.16,12.16,0,0,0-2.89-.35,12.31,12.31,0,0,0-7.14,2.28,4.26,4.26,0,0,0-2.07,3.28,3.27,3.27,0,0,0,2.07,3.18,7.52,7.52,0,0,0-1.18,5.82,8.13,8.13,0,0,0,2.95,4.92,8.27,8.27,0,0,0,5.22,1.76,12.77,12.77,0,0,0,6.08-1.73c3.12-1.75,5.13-4.24,5.66-7a8.61,8.61,0,0,0,.08-2.54h0l5.24-1.57c16.9-5,32.87-9.76,47.48-21.19a94.92,94.92,0,0,0,16.49-16.89c2.91-3.9,7.62-11.57,6.42-19.18a11.68,11.68,0,0,0-11.52-10"/><path d="M151.36,2.43c3.06-.65,5.69,2.41,6.76,5.35s.54,6.23-.47,9.19c-.86,2.54-2.06,5-2.89,7.51a1.33,1.33,0,0,0,.82,1.68l1.11.38a1.32,1.32,0,0,0,1.63-.7,14.33,14.33,0,0,1,1.94-3.27c1.36-1.6,3.52-2.71,5.62-1.8a3,3,0,0,1,1.81,2.61c0,2.43-2.83,3.36-4.2,5.21a5.13,5.13,0,0,0-.14,5.5A7,7,0,0,0,168,37.26"/><path class="cls-1" d="M167.86,38.07a7.87,7.87,0,0,1-5.23-3.57,5.92,5.92,0,0,1,.2-6.4,10.48,10.48,0,0,1,2-1.9c1.1-.89,2.06-1.65,2.05-2.82a2.12,2.12,0,0,0-1.31-1.85c-1.79-.77-3.58.3-4.65,1.57a13,13,0,0,0-1.83,3.09,2.14,2.14,0,0,1-2.64,1.13l-1.12-.38A2.16,2.16,0,0,1,154,24.22c.44-1.36,1-2.69,1.52-4s1-2.35,1.38-3.54c1.16-3.42,1.32-6.32.48-8.63-1-2.8-3.35-5.35-5.82-4.84l-.34-1.61c3.54-.75,6.48,2.52,7.71,5.88,1,2.71.84,5.89-.46,9.73-.43,1.24-.93,2.46-1.41,3.64s-1.06,2.57-1.49,3.87a.5.5,0,0,0,.31.64l1.11.38a.5.5,0,0,0,.61-.26A15.05,15.05,0,0,1,159.63,22c1.84-2.16,4.42-3,6.58-2a3.74,3.74,0,0,1,2.3,3.36c0,2-1.41,3.11-2.67,4.12a9.55,9.55,0,0,0-1.68,1.59,4.31,4.31,0,0,0-.1,4.59,6.23,6.23,0,0,0,4.13,2.78Z"/><path d="M387.79,125a2,2,0,0,0-2.67.91L381,134.56a16.5,16.5,0,0,0-7.81,0,15.14,15.14,0,0,0-9.26,6.91c-2.29,3.93-2.46,9.87-.87,14.09a2.71,2.71,0,0,0,2.31,1.88,3.75,3.75,0,0,0,2-.74c3.91-1.85,7.54-5.62,10.27-8.88a45.37,45.37,0,0,0,7-11.77s0,0,0-.05l4-8.41a2,2,0,0,0-.88-2.6"/><path class="cls-1" d="M365.4,158.28h-.06a3.57,3.57,0,0,1-3.07-2.42c-1.75-4.64-1.35-10.86.93-14.8a15.92,15.92,0,0,1,9.77-7.29,16.79,16.79,0,0,1,7.55-.15l3.86-8.07a2.71,2.71,0,0,1,1.62-1.44,2.75,2.75,0,0,1,2.16.15,2.79,2.79,0,0,1,1.26,3.69l-4,8.37a.25.25,0,0,0,0,.07,46,46,0,0,1-7.13,12c-3.82,4.56-7.26,7.54-10.5,9.08a4.6,4.6,0,0,1-2.37.84M377,134.92a14.08,14.08,0,0,0-3.57.45,14.26,14.26,0,0,0-8.76,6.52c-2.05,3.55-2.4,9.18-.81,13.39a1.93,1.93,0,0,0,1.56,1.34,3.45,3.45,0,0,0,1.56-.61l.08,0c3-1.43,6.3-4.27,10-8.66a44.37,44.37,0,0,0,6.86-11.56l0-.09,4-8.41a1.14,1.14,0,1,0-2.05-1l-4.13,8.66a.85.85,0,0,1-.93.45,17.6,17.6,0,0,0-3.85-.45"/><path d="M304.77,122.74c-6.28-.38-16.15,1.71-20,7.2-.08.11-.15.24-.22.36-3.4-1.7-8.09-2-11.56-1.64a23.4,23.4,0,0,0-7.35,1.91,1,1,0,0,0-.18,1.73l8.56,6.19a4.69,4.69,0,0,0,1.81.94,5,5,0,0,0,2.28-.32,4.11,4.11,0,0,1,2.29-.2,1.5,1.5,0,0,1,1.12,1.75c-.26.78-1.25,1-1.83,1.58a2.34,2.34,0,0,0-.49,2.19,4.77,4.77,0,0,0,1.19,2,11.26,11.26,0,0,0,5.06,3.26c1.87.58,4.12.58,5.55-.76a6.11,6.11,0,0,0,1.53-4.47,16.8,16.8,0,0,0-3.71-10.53c1.08-.52,2-1.28,3.09-1.84a9,9,0,0,1,10.36,1.71c3.81,4,3.17,11.22,8.14,14.28a7.83,7.83,0,0,0,10.69-2.92c7.1-11.72-5.59-21.77-16.31-22.42"/><path class="cls-1" d="M287.75,150.89a8.43,8.43,0,0,1-2.56-.41,12.05,12.05,0,0,1-5.44-3.5,5.62,5.62,0,0,1-1.37-2.34,3.13,3.13,0,0,1,.71-3A4.68,4.68,0,0,1,280,141c.33-.2.63-.39.7-.59a.34.34,0,0,0,0-.25,1,1,0,0,0-.53-.44,3.48,3.48,0,0,0-1.82.21,5.63,5.63,0,0,1-2.68.33,5.47,5.47,0,0,1-2.14-1.08L265,133a1.85,1.85,0,0,1-.75-1.68,1.82,1.82,0,0,1,1.08-1.48,24.07,24.07,0,0,1,7.61-2c1.62-.15,7-.46,11.34,1.41,4.43-6,14.93-7.68,20.59-7.33,7.26.44,14.69,4.88,17.66,10.55,2.2,4.2,2,8.74-.69,13.12a9.15,9.15,0,0,1-5.63,4.15,8.12,8.12,0,0,1-6.21-1c-3-1.87-4.12-5.07-5.18-8.18-.81-2.36-1.57-4.59-3.12-6.23a8.11,8.11,0,0,0-9.38-1.55c-.45.24-.88.52-1.34.82-.29.19-.58.38-.89.56a17.36,17.36,0,0,1,3.3,10.27,6.8,6.8,0,0,1-1.79,5.07,5.47,5.47,0,0,1-3.8,1.35M279.7,138a3.56,3.56,0,0,1,.91.12,2.63,2.63,0,0,1,1.54,1.27,2,2,0,0,1,.14,1.55,2.87,2.87,0,0,1-1.41,1.46,4.39,4.39,0,0,0-.62.43,1.53,1.53,0,0,0-.27,1.41,4.06,4.06,0,0,0,1,1.65,10.38,10.38,0,0,0,4.7,3c.73.23,3.22.85,4.73-.57a5.24,5.24,0,0,0,1.27-3.88,15.84,15.84,0,0,0-3.52-10,.83.83,0,0,1,.28-1.26,14.69,14.69,0,0,0,1.59-.94c.47-.3,1-.62,1.47-.89a9.8,9.8,0,0,1,11.35,1.87c1.8,1.9,2.66,4.41,3.49,6.84,1,3,2,5.75,4.48,7.3a6.45,6.45,0,0,0,5,.76,7.51,7.51,0,0,0,4.6-3.4c2.33-3.86,2.55-7.83.64-11.49-2.73-5.2-9.58-9.26-16.3-9.67-5.76-.35-15.55,1.54-19.29,6.85a1.89,1.89,0,0,0-.17.28.83.83,0,0,1-1.1.34c-4-2-9.53-1.7-11.12-1.55a22.54,22.54,0,0,0-7.09,1.83.2.2,0,0,0-.1.15.18.18,0,0,0,.07.16l8.56,6.19a4.31,4.31,0,0,0,1.48.8,4.27,4.27,0,0,0,1.83-.28,6.92,6.92,0,0,1,1.91-.35"/><path d="M513,27.54a30,30,0,0,0,21.85,27.93,21.07,21.07,0,0,0,9.56.63,16.58,16.58,0,0,0,12.76-12.35c.39-1.8.11-4.22-1.66-4.69-1.08-.28-2.15.34-3.19.72a7.7,7.7,0,0,1-8.54-2.56c-2.1-2.8-2-6.61-2.62-10a22.79,22.79,0,0,0-12.79-16.23,24.4,24.4,0,0,0-20.77.46,25.83,25.83,0,0,0-10.13,9.27c-.71,1.11-3.46,5.14-2.91,6.47s6.56.5,8,.49L513,27.54"/><path class="cls-1" d="M541.14,57.26a24.25,24.25,0,0,1-6.54-1,30.79,30.79,0,0,1-22.45-27.89l-9.64.08c-.27,0-.76,0-1.33.09-4.58.34-6.86.27-7.44-1.11s.69-3.73,2.73-6.88l.25-.39a26.49,26.49,0,0,1,10.47-9.57,25.13,25.13,0,0,1,21.52-.48A23.61,23.61,0,0,1,542,27c.17.9.29,1.83.4,2.73.33,2.6.64,5.05,2.06,7A6.84,6.84,0,0,0,552,39a6.44,6.44,0,0,0,.61-.24,4.91,4.91,0,0,1,3.1-.5c2.2.58,2.82,3.31,2.28,5.71a17.45,17.45,0,0,1-13.44,13,18.18,18.18,0,0,1-3.41.31M513,26.67a.87.87,0,0,1,.87.84,29.06,29.06,0,0,0,21.22,27.12,20.15,20.15,0,0,0,9.16.62A15.7,15.7,0,0,0,556.3,43.56c.3-1.33.17-3.34-1-3.66a3.47,3.47,0,0,0-2,.43l-.68.26a8.51,8.51,0,0,1-9.52-2.85c-1.71-2.27-2.06-5.07-2.4-7.79-.11-.87-.22-1.77-.38-2.62A21.88,21.88,0,0,0,528,11.72a23.7,23.7,0,0,0-20,.46,24.8,24.8,0,0,0-9.79,9l-.25.4c-2.41,3.72-2.64,4.87-2.6,5.22.76.48,4.48.19,5.72.1.63-.05,1.12-.09,1.44-.09L513,26.67Z"/><path d="M583.5,301.56h-532a1.43,1.43,0,0,1,0-2.85h532a1.43,1.43,0,0,1,0,2.85"/></g></g></svg>