<svg xmlns="http://www.w3.org/2000/svg" viewBox="0 0 477.21 430.33"><defs><style>.cls-1{fill:#f9ad73;}.cls-2,.cls-3,.cls-4{fill:none;stroke-linecap:round;}.cls-2{stroke:#000;stroke-width:3.22px;}.cls-2,.cls-3{stroke-miterlimit:10;}.cls-3,.cls-4{stroke:#f9ad73;stroke-width:1.89px;}.cls-4{stroke-linejoin:round;}</style></defs><title>Recurso 1</title><g id="Capa_2" data-name="Capa 2"><g id="Capa_1-2" data-name="Capa 1"><path d="M352.13,220.11c-1.06,0-2.15,0-3.22-.13a85.42,85.42,0,0,1-25.8-6.4c-19.14-8.35-31.92-23.39-45.45-39.32l-4.21-4.95c-1.35-1.57-2.78-3.16-4.26-4.71a14.68,14.68,0,0,1-3.71.47,15,15,0,0,1-2.12-.15,20.1,20.1,0,0,1-13.84-8.87,13.65,13.65,0,0,1-2.16-8.35,8,8,0,0,1,2.26-5.2,7.69,7.69,0,0,1,4.27-1.89,13.79,13.79,0,0,1,1.57-.1,11.56,11.56,0,0,1,6.5,2,6,6,0,0,1,.57.42,16.17,16.17,0,0,1,2.58,2.81c.32.42.65.84,1,1.25.7.82,1.15,1,1.4,1h.1c.51-.1.83-.9,1-1.37l.12-.4a6.58,6.58,0,0,1,.69-1.72,2.77,2.77,0,0,1,2.26-1.36,2.19,2.19,0,0,1,.36,0,2.64,2.64,0,0,1,1.91,1.62,6.2,6.2,0,0,1,.39,1.7l0,.18a32,32,0,0,0,1.61,6.16l0,.12a10.59,10.59,0,0,1,.82,4,3.25,3.25,0,0,1,0,.44c1.35,1.64,2.54,3,3.73,4.23a69.93,69.93,0,0,0,27.4,18c9.72,3.4,20.65,5.15,33.41,5.34h.95c2.34,0,4.74-.13,7.05-.25s4.77-.25,7.16-.25c1,0,1.95,0,2.86.07,4.52.22,10.74,1.47,14.68,6.1,5.7,6.7,3.38,17.11-2.36,22.64-4.62,4.44-11.55,6.88-19.53,6.88Z"/><path class="cls-1" d="M255.46,141.45a10.72,10.72,0,0,1,6,1.78l.5.38a27.2,27.2,0,0,1,3.46,3.94,3.1,3.1,0,0,0,2.11,1.32l.26,0c1-.17,1.45-1.18,1.71-2a7.8,7.8,0,0,1,.7-1.89,1.85,1.85,0,0,1,1.47-.92.65.65,0,0,1,.2,0,1.7,1.7,0,0,1,1.21,1.06,6.48,6.48,0,0,1,.35,1.64,32.53,32.53,0,0,0,1.66,6.34,10.6,10.6,0,0,1,.81,3.75,4.67,4.67,0,0,1-.09.74c1.28,1.56,2.61,3.11,4,4.61a71.32,71.32,0,0,0,27.77,18.28c10.77,3.76,22.25,5.22,33.7,5.39h1c4.74,0,9.48-.5,14.22-.5.93,0,1.87,0,2.81.06,5.19.26,10.65,1.82,14,5.78,5.11,6,3.38,15.88-2.3,21.35-4.94,4.75-12,6.62-18.88,6.62-1.05,0-2.1,0-3.14-.12a83.82,83.82,0,0,1-25.5-6.33c-20.95-9.13-34.5-26.73-49.33-44q-2.27-2.64-4.68-5.16a13.51,13.51,0,0,1-4,.6,13.33,13.33,0,0,1-2-.15,19.25,19.25,0,0,1-13.17-8.44,12.71,12.71,0,0,1-2-7.77,7.13,7.13,0,0,1,2-4.6,6.64,6.64,0,0,1,3.74-1.64,11.64,11.64,0,0,1,1.45-.09m0-1.87h0a13.69,13.69,0,0,0-1.69.1,8.51,8.51,0,0,0-4.79,2.14,9,9,0,0,0-2.56,5.79,14.59,14.59,0,0,0,2.31,8.94,21,21,0,0,0,14.49,9.3,16,16,0,0,0,5.67-.21c1.33,1.41,2.62,2.85,3.84,4.28,1.42,1.65,2.82,3.3,4.22,5,13.6,16,26.44,31.13,45.79,39.57a84.84,84.84,0,0,0,26.1,6.47c1.1.09,2.2.14,3.29.14,8.22,0,15.39-2.54,20.18-7.15,6.05-5.82,8.47-16.82,2.43-23.91-4.16-4.89-10.65-6.2-15.36-6.44-.92-.05-1.87-.07-2.9-.07-2.42,0-4.85.13-7.21.25s-4.69.25-7,.25h-.93c-12.66-.2-23.49-1.93-33.11-5.29a69,69,0,0,1-27-17.8c-1.11-1.16-2.21-2.41-3.44-3.89v-.1a11.63,11.63,0,0,0-.87-4.32l0-.11a31.14,31.14,0,0,1-1.57-6l0-.18a7,7,0,0,0-.46-1.95,3.55,3.55,0,0,0-2.61-2.17,3.05,3.05,0,0,0-.52-.05,3.71,3.71,0,0,0-3,1.8,7,7,0,0,0-.8,2c0,.12-.07.25-.11.37a2.71,2.71,0,0,1-.27.63,3.17,3.17,0,0,1-.6-.58c-.33-.39-.64-.79-1-1.22a16.63,16.63,0,0,0-2.72-3c-.2-.16-.41-.32-.63-.47a12.55,12.55,0,0,0-7-2.1"/><path d="M82.86,159.83A105.51,105.51,0,0,1,56,156.69c-20.7-5.37-37.33-18.59-46.84-37.22C-.87,99.73-1.78,76,6.72,54.24,17.51,26.67,44.47,5.53,73.82,1.62A80.4,80.4,0,0,1,84.26.94c26.49,0,52.58,13,68.08,33.92,17.63,23.79,21.22,57.86,8.94,84.8-5.55,12.17-13.6,21.89-23.29,28.1-12.07,7.74-26.66,10-38,11.16a170,170,0,0,1-17.11.91Z"/><path class="cls-1" d="M84.27,1.87c26,0,51.83,12.64,67.32,33.55,17.55,23.69,21.07,57,8.84,83.85-5,11.06-12.71,21.14-22.94,27.7-11.11,7.11-24.49,9.71-37.61,11-5.65.56-11.34.91-17,.91a105.69,105.69,0,0,1-26.59-3.12C11.57,144.18-9,97.1,7.59,54.58c10.75-27.45,37.13-48.14,66.35-52a79.41,79.41,0,0,1,10.33-.68m0-1.87A78.85,78.85,0,0,0,73.7.7,86.61,86.61,0,0,0,5.85,53.9c-8.6,22-7.68,46,2.52,66C18,138.77,34.84,152.15,55.8,157.6a107.06,107.06,0,0,0,27.06,3.17,171.92,171.92,0,0,0,17.2-.92c11.47-1.14,26.2-3.46,38.44-11.3,9.84-6.31,18-16.16,23.64-28.5A84.84,84.84,0,0,0,169,76,84.85,84.85,0,0,0,153.1,34.3C137.42,13.14,111.05,0,84.27,0"/><path d="M376.87,429.4a1.89,1.89,0,0,1-.8-3.6l18.27-8.54c-1.45-1.92-4.41-6.72-10.78-18.74-3.92-7.4-7.53-15.08-10.75-22.83a283.46,283.46,0,0,1-16-53.83l-15.23-.35c-5.15,13.87-8.12,26.68-9.08,53.43-.92,25.68,7.81,43.46,7.9,43.63l.47,1L313,429.3a1.91,1.91,0,0,1-.58.1,1.72,1.72,0,0,1-1.6-1.16,1.67,1.67,0,0,1,.56-1.87l13.33-10.78a120.78,120.78,0,0,1-24.61-53.19c-5-26.32-1.42-56.33,10.59-89.2C318.12,252.77,328,233,337.59,214l2.47-4.94c9.39-18.75,20-40,18.67-62.81a15.31,15.31,0,0,0-9.34-13.14l-8.1-3.37a5.4,5.4,0,0,1-2.17-8.32L345,114a.63.63,0,0,0-.05-.82l-3.29-3.29a3.28,3.28,0,0,1-.93-2.84,3.33,3.33,0,0,1,1.75-2.44l8.88-4.57c1.6-.82,3.2-1.68,4.79-2.54,3.19-1.71,6.48-3.49,9.83-5a20,20,0,0,1,8.2-2h.69A19.22,19.22,0,0,1,388.18,97a18.46,18.46,0,0,1,4.63,13.72c-.48,6.45-3.11,12.35-5.65,18-2,4.48-4.07,9.11-5,13.92-1.46,7.32,1.09,14.78,3.56,22,.84,2.45,1.71,5,2.39,7.44A252.64,252.64,0,0,1,395,206.76c2.67,20.59,3.36,43.39,2.09,69.72-.24,7.21-.58,14.6-.9,21.75-1.48,32.88-3,66.88,3.13,99.47a175.62,175.62,0,0,0,6.13,21.94c.91,2.79,1.86,5.67,2.74,8.55l.36,1.21Z"/><path class="cls-1" d="M374.13,91.44l.65,0a18,18,0,0,1,17.1,19.18c-.85,11.33-8.46,20.84-10.67,31.86-2,10.15,3.34,20.33,6,29.85A251.69,251.69,0,0,1,394,206.88c3,23,3.19,46.37,2.08,69.55-1.37,40.23-5.27,81.59,2.25,121.45,2,10.65,5.76,20.36,8.88,30.58H376.87a1,1,0,0,1-.4-1.81l19.36-9h0c-.92,0-10.52-17.83-11.42-19.52q-5.88-11.13-10.71-22.76a280.88,280.88,0,0,1-16.11-54.39l-16.65-.38c-5.63,15-8.44,28.11-9.38,54.35s8,44.08,8,44.08l-26.88,9.42a.86.86,0,0,1-.27,0,.76.76,0,0,1-.46-1.36Q319,421.43,326,415.73a120.06,120.06,0,0,1-25-53.51c-5.61-29.61.2-60.39,10.55-88.7,8.07-22.11,18.84-43.08,29.36-64.09,9.85-19.68,20.11-40.64,18.77-63.29a16.16,16.16,0,0,0-9.92-13.94l-8.1-3.38a4.44,4.44,0,0,1-1.79-6.86l5.83-7.43a1.56,1.56,0,0,0-.13-2.06l-3.28-3.29a2.36,2.36,0,0,1,.59-3.78l8.87-4.58c4.84-2.48,9.6-5.28,14.56-7.48a19.56,19.56,0,0,1,7.83-1.9m0-1.87h0a21.1,21.1,0,0,0-8.59,2.06c-3.37,1.49-6.68,3.27-9.88,5-1.56.85-3.18,1.72-4.78,2.54L342,103.73a4.25,4.25,0,0,0-1.06,6.78L344,113.6l-5.66,7.2a6.32,6.32,0,0,0,2.55,9.75l8.1,3.38a14.34,14.34,0,0,1,8.77,12.32c1.34,22.56-9.24,43.69-18.58,62.34l-2.47,4.94c-9.58,19.11-19.49,38.87-27,59.35-12.07,33-15.65,63.21-10.63,89.69a121.54,121.54,0,0,0,24.22,52.88l-12.62,10.19a2.59,2.59,0,0,0-.84,2.91,2.63,2.63,0,0,0,3.36,1.63l26.89-9.42,2-.7-1-1.91c-.08-.17-8.7-17.77-7.79-43.17.93-26.23,3.82-39,8.79-52.52l13.81.32A282.82,282.82,0,0,0,372,376.05c3.22,7.78,6.85,15.49,10.79,22.91.37.71,3,5.63,5.72,10.44,2.08,3.69,3.45,6,4.42,7.51l-17.2,8a2.82,2.82,0,0,0,1.19,5.38h32.9l-.74-2.42c-.88-2.89-1.82-5.77-2.74-8.56a171.65,171.65,0,0,1-6.09-21.82c-6.13-32.49-4.6-66.44-3.12-99.27.32-7.15.65-14.54.9-21.76,1.27-26.36.58-49.22-2.1-69.86a254.53,254.53,0,0,0-6.9-34.78c-.68-2.48-1.55-5-2.4-7.49-2.43-7.09-4.95-14.43-3.53-21.5.94-4.71,2.9-9.09,5-13.73,2.58-5.78,5.24-11.75,5.74-18.36a19.44,19.44,0,0,0-4.87-14.41,20.11,20.11,0,0,0-14-6.78l-.74,0"/><path class="cls-1" d="M364.43,103.69a2,2,0,1,1-2-2,2,2,0,0,1,2,2"/><line class="cls-2" x1="155.7" y1="428.46" x2="133.01" y2="428.46"/><line class="cls-2" x1="475.6" y1="428.46" x2="169.23" y2="428.46"/><path d="M214.77,149.73a1.78,1.78,0,0,1-1.41-2.87c1.62-2.09,2.37-5.65-.39-9.38a8.66,8.66,0,0,0-5.12-1.84,7,7,0,0,0-7,7,6.82,6.82,0,0,0,1.46,4.25,1.78,1.78,0,0,1-1.42,2.87H189a1.78,1.78,0,0,1-1.78-1.78V110.2a1.78,1.78,0,0,1,1.78-1.78h10.45a8.84,8.84,0,0,1,7.21-14,10.51,10.51,0,0,1,6.24,2.22,1.71,1.71,0,0,1,.38.38c3.29,4.42,2.45,8.76.55,11.4l12.92,0a1.79,1.79,0,0,1,1.79,1.78v12a8.67,8.67,0,0,1,5.53-2,10.51,10.51,0,0,1,6.24,2.22,1.71,1.71,0,0,1,.38.38c2.44,3.27,2.9,7,1.29,10.21A8.84,8.84,0,0,1,228.51,136v12a1.79,1.79,0,0,1-1.79,1.78Z"/><path class="cls-1" d="M206.63,95.4a9.5,9.5,0,0,1,5.68,2,.77.77,0,0,1,.18.18c2.81,3.77,2.47,7.73.48,10.4a.84.84,0,0,0,.68,1.34h13.07a.85.85,0,0,1,.85.85v12.18a.84.84,0,0,0,.85.85A.82.82,0,0,0,229,123a7.91,7.91,0,0,1,5.08-1.85,9.48,9.48,0,0,1,5.68,2,.69.69,0,0,1,.19.19c4.84,6.49.31,13.59-5.87,13.59a7.83,7.83,0,0,1-5.08-1.86.84.84,0,0,0-1.39.64V148a.85.85,0,0,1-.85.85H214.77a.85.85,0,0,1-.67-1.36c2.07-2.67,2.46-6.69-.37-10.51a.85.85,0,0,0-.19-.19,9.46,9.46,0,0,0-5.69-2,7.9,7.9,0,0,0-6.25,12.74.85.85,0,0,1-.68,1.36H189a.84.84,0,0,1-.84-.85V110.2a.84.84,0,0,1,.84-.85H199.6a.84.84,0,0,0,.68-1.34,7.9,7.9,0,0,1,6.35-12.61m0-1.88a9.79,9.79,0,0,0-8.85,14H189a2.72,2.72,0,0,0-2.72,2.72V148a2.72,2.72,0,0,0,2.72,2.72h11.95a2.72,2.72,0,0,0,2.16-4.38,5.92,5.92,0,0,1-1.26-3.68,6,6,0,0,1,6-6,7.6,7.6,0,0,1,4.45,1.58c2.35,3.26,1.72,6.33.32,8.13a2.72,2.72,0,0,0,2.15,4.38h11.95a2.72,2.72,0,0,0,2.72-2.72V137.7a9.79,9.79,0,0,0,13.35-4.24c1.75-3.5,1.24-7.68-1.37-11.19a2.85,2.85,0,0,0-.58-.57,11.41,11.41,0,0,0-6.8-2.4,9.8,9.8,0,0,0-4.6,1.15V110.2a2.72,2.72,0,0,0-2.72-2.72H215.46c1.38-2.91,1.56-6.93-1.46-11a3.18,3.18,0,0,0-.58-.58,11.41,11.41,0,0,0-6.79-2.4"/><path class="cls-3" d="M25.44,139.28l22.2-27.85a31.83,31.83,0,0,0,6.18-27.19c-2-8.67-4.56-19.63.59-27.8a23.19,23.19,0,0,1,42.24,7.43s.36,1.88.45,2.81l.14.78,4.9,5.42a2.06,2.06,0,0,1-.61,3.22l-2.72,1.36,1.54,9.78a5.23,5.23,0,0,1-5.46,6l-2.1-.12A16.49,16.49,0,0,0,76,104.64c-.07.25-.15.5-.21.76-1.56,6-.5,12.47,1.17,18.49a222.36,222.36,0,0,1,4.45,22.46A44.36,44.36,0,0,1,79.23,167"/><path class="cls-1" d="M93.41,67.71a1.73,1.73,0,1,1-3-1.65,1.72,1.72,0,0,1,2.34-.69,1.73,1.73,0,0,1,.69,2.34"/><path class="cls-3" d="M88.87,81.31c1.17,2.72,4,4.1,6.34,3.1"/><path class="cls-3" d="M345.39,119.59c2.41,1.73,5.56,1.45,7-.61"/><path d="M106.9,169.12c-2.15,0-4.31-.09-6.43-.27a85.09,85.09,0,0,1-25.73-6.67c-8.46-3.74-14.58-9.86-16.78-16.78-2.41-7.59.51-17.85,8.71-21a15.1,15.1,0,0,1,5.47-1A24.45,24.45,0,0,1,82.49,126,96.19,96.19,0,0,1,91.21,131c2.24,1.37,4.56,2.79,6.92,4,11.31,5.92,21.75,9.59,31.92,11.23a64.94,64.94,0,0,0,10.29.82,73.29,73.29,0,0,0,22.39-3.62c1.19-.38,2.45-.83,3.91-1.39a19.73,19.73,0,0,1,.64-2.14,33,33,0,0,0,1.62-6.16l0-.2a6.1,6.1,0,0,1,.4-1.68,2.6,2.6,0,0,1,1.9-1.62,2.46,2.46,0,0,1,.37,0,2.78,2.78,0,0,1,2.26,1.37,6.45,6.45,0,0,1,.69,1.72l.11.39c.15.47.47,1.28,1,1.37h.1c.25,0,.69-.17,1.4-1,.35-.41.67-.83,1-1.25a16.54,16.54,0,0,1,2.58-2.81l.57-.42a11.51,11.51,0,0,1,6.5-1.94,11.82,11.82,0,0,1,1.57.1,7.55,7.55,0,0,1,4.26,1.89,8,8,0,0,1,2.27,5.19,13.65,13.65,0,0,1-2.17,8.35A20.12,20.12,0,0,1,179.88,152a15.43,15.43,0,0,1-2.15.15,14,14,0,0,1-5.39-1c-2.27.71-4.6,1.53-7.11,2.49L159.16,156c-17.47,6.78-34,13.17-52.26,13.17"/><path class="cls-1" d="M72.14,124.33a23.39,23.39,0,0,1,9.94,2.53c5.41,2.58,10.3,6.17,15.61,8.94,10.16,5.31,20.94,9.5,32.21,11.33a66.39,66.39,0,0,0,10.44.82A74.21,74.21,0,0,0,163,144.29c1.52-.48,3-1,4.45-1.59a16.13,16.13,0,0,1,.71-2.53,33.25,33.25,0,0,0,1.66-6.34,6,6,0,0,1,.35-1.63,1.69,1.69,0,0,1,1.2-1.07l.21,0a1.88,1.88,0,0,1,1.47.93,7.65,7.65,0,0,1,.7,1.89c.26.83.74,1.84,1.7,2a1.24,1.24,0,0,0,.27,0,3.14,3.14,0,0,0,2.11-1.33,28.9,28.9,0,0,1,3.45-3.94c.17-.13.33-.25.51-.37a10.6,10.6,0,0,1,6-1.79,11.78,11.78,0,0,1,1.45.1,6.63,6.63,0,0,1,3.74,1.64,7.11,7.11,0,0,1,2,4.59,12.76,12.76,0,0,1-2,7.77,19.29,19.29,0,0,1-13.17,8.45,15.24,15.24,0,0,1-2,.14,13,13,0,0,1-5.34-1.11c-2.52.78-5,1.66-7.5,2.61-19.28,7.37-37.75,15.46-58,15.46q-3.15,0-6.35-.27a83.51,83.51,0,0,1-25.43-6.6c-7.22-3.19-13.87-8.69-16.27-16.2s.8-17,8.16-19.87a14.1,14.1,0,0,1,5.13-.92m0-1.87h0a16.11,16.11,0,0,0-5.81,1,15.63,15.63,0,0,0-8.8,9.26,19.8,19.8,0,0,0-.46,12.93c3.12,9.82,12.17,15.08,17.29,17.35a85,85,0,0,0,26,6.75c2.14.18,4.33.27,6.51.27,18.46,0,35-6.43,52.6-13.24l6.06-2.34c2.37-.91,4.59-1.69,6.74-2.37a15.13,15.13,0,0,0,5.43,1,16,16,0,0,0,2.29-.17,21,21,0,0,0,14.48-9.3,14.65,14.65,0,0,0,2.32-8.93,9,9,0,0,0-2.56-5.8,8.47,8.47,0,0,0-4.8-2.13,13.41,13.41,0,0,0-1.68-.11,12.5,12.5,0,0,0-7,2.1c-.22.15-.43.31-.63.47a17.09,17.09,0,0,0-2.73,3c-.33.43-.64.83-1,1.22a3.44,3.44,0,0,1-.59.59,2.84,2.84,0,0,1-.27-.64c0-.12-.08-.24-.11-.37a7,7,0,0,0-.8-2,3.71,3.71,0,0,0-3-1.8,3,3,0,0,0-.52,0,3.54,3.54,0,0,0-2.61,2.17,7,7,0,0,0-.46,2l0,.18a31.68,31.68,0,0,1-1.57,6c-.18.52-.38,1.11-.55,1.75-1.25.47-2.35.86-3.41,1.2a72.31,72.31,0,0,1-22.1,3.57,64.45,64.45,0,0,1-10.15-.8c-10.06-1.63-20.41-5.27-31.63-11.14-2.33-1.21-4.63-2.63-6.86-4a97.85,97.85,0,0,0-8.81-5,25.49,25.49,0,0,0-10.75-2.7"/><path d="M367,305.8c-.34,0-.68,0-1,0a8,8,0,0,1-5.19-2.27,7.62,7.62,0,0,1-1.89-4.27,11.71,11.71,0,0,1,1.85-8.07,6,6,0,0,1,.42-.57A15.67,15.67,0,0,1,364,288c.42-.33.85-.66,1.26-1,.71-.61,1.05-1.13,1-1.5s-.89-.83-1.37-1l-.39-.12a6.13,6.13,0,0,1-1.72-.69,2.65,2.65,0,0,1-1.33-2.62,2.62,2.62,0,0,1,1.62-1.91,6.13,6.13,0,0,1,1.69-.39l.19,0a32.23,32.23,0,0,0,6.16-1.61,19.79,19.79,0,0,1,2.34-.7,69.69,69.69,0,0,0,7.63-31.35c0-10.3-2-21.19-6.1-33.28-.84-2.52-1.89-5-2.89-7.47a96.31,96.31,0,0,1-3.52-9.38c-1.29-4.34-2.19-10.62.87-15.88,2.62-4.52,7.8-7.22,13.86-7.22a18.44,18.44,0,0,1,8.26,1.91C398.05,177,403.13,184,405.5,193a85.32,85.32,0,0,1,2.57,26.46c-1.49,20.83-11.42,37.89-21.93,55.95-1.08,1.87-2.17,3.74-3.25,5.63l-.5.88-.1.19a14.36,14.36,0,0,1,1,7.67,20.14,20.14,0,0,1-8.87,13.83A13.9,13.9,0,0,1,367,305.8Z"/><path class="cls-1" d="M383.29,172.82a17.64,17.64,0,0,1,7.84,1.8c7.05,3.54,11.44,11,13.47,18.6a83.78,83.78,0,0,1,2.53,26.15c-1.63,22.79-13.7,41.43-25.06,61.18-.28.49-.55,1-.83,1.5a13.27,13.27,0,0,1,1.08,7.57,19.29,19.29,0,0,1-8.44,13.17,13,13,0,0,1-6.84,2.07c-.31,0-.63,0-.94,0a7.08,7.08,0,0,1-4.59-2,6.64,6.64,0,0,1-1.64-3.74,10.78,10.78,0,0,1,1.69-7.42c.12-.18.25-.35.38-.51a27.2,27.2,0,0,1,3.94-3.46,2.8,2.8,0,0,0,1.3-2.37c-.18-1-1.18-1.45-2-1.71a7.8,7.8,0,0,1-1.89-.7,1.53,1.53,0,0,1,.16-2.88,6.4,6.4,0,0,1,1.63-.35,32.62,32.62,0,0,0,6.35-1.66,16.4,16.4,0,0,1,2.66-.74A71.33,71.33,0,0,0,382,245.11c0-11.42-2.49-22.72-6.15-33.58-1.91-5.68-4.69-11.07-6.4-16.82-1.48-5-1.83-10.64.78-15.14s7.8-6.75,13.05-6.75m0-1.88c-6.4,0-11.88,2.88-14.67,7.69-3.23,5.55-2.3,12.1-.95,16.62a98.77,98.77,0,0,0,3.54,9.47c1,2.42,2,4.92,2.88,7.41,4,12,6,22.79,6.05,33a68.86,68.86,0,0,1-7.34,30.54c-.69.17-1.35.4-2,.62a31.53,31.53,0,0,1-6,1.57l-.18,0a6.84,6.84,0,0,0-1.94.46,3.39,3.39,0,0,0-.42,6.18,7.11,7.11,0,0,0,2,.8l.38.11a2.71,2.71,0,0,1,.63.27,4,4,0,0,1-.58.6c-.39.33-.79.64-1.22,1a16.34,16.34,0,0,0-3,2.73,7.36,7.36,0,0,0-.47.63,12.62,12.62,0,0,0-2,8.71,8.45,8.45,0,0,0,2.14,4.79,8.88,8.88,0,0,0,5.79,2.56c.36,0,.73.05,1.1.05a14.78,14.78,0,0,0,7.84-2.36,21.08,21.08,0,0,0,9.3-14.49,15.4,15.4,0,0,0-.85-7.74c.12-.22.24-.44.37-.66,1.08-1.89,2.17-3.76,3.25-5.62,10.57-18.16,20.55-35.31,22.05-56.36a84.88,84.88,0,0,0-2.59-26.77C405,187.33,401.19,177.57,392,173a19.54,19.54,0,0,0-8.69-2"/><path d="M247.3,162.52a8.84,8.84,0,0,1-7.62-13.32l-11.25.05a1.79,1.79,0,0,1-1.79-1.78v-13a1.8,1.8,0,0,1,1.8-1.79,1.71,1.71,0,0,1,1.29.58,7,7,0,0,0,5.17,2.3,8.66,8.66,0,0,0,5.11-1.84c2-2.67,2.41-5.68,1.12-8.24a7,7,0,0,0-11.39-1.58,1.68,1.68,0,0,1-1.29.58,1.83,1.83,0,0,1-1.24-.49,1.76,1.76,0,0,1-.57-1.31v-13a1.79,1.79,0,0,1,1.79-1.78h37.75a1.78,1.78,0,0,1,1.78,1.78v11.68a1.79,1.79,0,0,1-2.81,1.46A7,7,0,0,0,255,125.47c-1.28,2.56-.88,5.56,1.11,8.23a8.63,8.63,0,0,0,5.12,1.86,7,7,0,0,0,4-1.23,1.77,1.77,0,0,1,2.8,1.45v11.69a1.78,1.78,0,0,1-1.78,1.78H255c1.9,3.25,1.52,7.23-1,10.67a2,2,0,0,1-.38.39,10.56,10.56,0,0,1-6.24,2.21"/><path class="cls-1" d="M266.18,108.87a.85.85,0,0,1,.84.85v11.67a.83.83,0,0,1-.84.85.87.87,0,0,1-.5-.16,7.82,7.82,0,0,0-4.48-1.39c-6.18,0-10.7,7.09-5.88,13.57a1.7,1.7,0,0,0,.19.19,9.46,9.46,0,0,0,5.69,2,7.86,7.86,0,0,0,4.49-1.39.82.82,0,0,1,.49-.16.83.83,0,0,1,.84.84v11.69a.85.85,0,0,1-.84.84h-11.4a.85.85,0,0,0-.72,1.29c1.6,2.63,1.71,6.25-.89,9.77a1.7,1.7,0,0,1-.19.19,9.53,9.53,0,0,1-5.68,2,7.9,7.9,0,0,1-6.76-12,.84.84,0,0,0-.72-1.28H228.43a.85.85,0,0,1-.85-.84v-13a.85.85,0,0,1,.86-.85.83.83,0,0,1,.6.27,7.89,7.89,0,0,0,5.86,2.6,9.46,9.46,0,0,0,5.66-2,.86.86,0,0,0,.19-.19c4.86-6.49.34-13.6-5.85-13.6a7.92,7.92,0,0,0-5.85,2.58.79.79,0,0,1-.6.27.86.86,0,0,1-.87-.86v-13a.85.85,0,0,1,.85-.85h37.75m0-1.88H228.43a2.74,2.74,0,0,0-2.73,2.73v13a2.75,2.75,0,0,0,2.75,2.74,2.68,2.68,0,0,0,2-.89,6,6,0,0,1,9.85,1.37c1.11,2.2.76,4.8-1,7.15a7.6,7.6,0,0,1-4.43,1.57,6,6,0,0,1-4.47-2,2.68,2.68,0,0,0-2-.89,2.73,2.73,0,0,0-2.74,2.72v13a2.73,2.73,0,0,0,2.73,2.72h9.74a9.65,9.65,0,0,0-.65,3.49,9.79,9.79,0,0,0,9.78,9.77,11.37,11.37,0,0,0,6.79-2.39,2.66,2.66,0,0,0,.58-.58,10.63,10.63,0,0,0,1.77-10.29h9.74a2.72,2.72,0,0,0,2.72-2.72V135.78a2.72,2.72,0,0,0-4.28-2.22,6,6,0,0,1-3.42,1.06,7.62,7.62,0,0,1-4.45-1.59,6.77,6.77,0,0,1-.94-7.14,6,6,0,0,1,8.81-2.27,2.72,2.72,0,0,0,4.28-2.23V109.72a2.73,2.73,0,0,0-2.72-2.73"/><path class="cls-4" d="M53.31,82.06a10.11,10.11,0,0,0,9.76-3.12,7.81,7.81,0,0,0,2.1-6.52c-.41-2.27-2.13-4-2.63-6.22a5.06,5.06,0,0,1,.22-3.1,2.6,2.6,0,0,1,.72-1,2.39,2.39,0,0,1,2.25-.22c1.41.5,2.38,1.68,3.9,2a4.81,4.81,0,0,0,4.17-1.16,35.43,35.43,0,0,0,3.27-3.54,17.34,17.34,0,0,1,13.77-5.44"/><path d="M387.2,133.12a10.1,10.1,0,0,1-7.46-7,7.78,7.78,0,0,1,.9-6.78c1.35-1.88,3.64-2.69,5.05-4.49a5,5,0,0,0,1.13-2.89,2.14,2.14,0,0,0-2.15-2.36c-1.49-.16-2.87.49-4.39.14a4.79,4.79,0,0,1-3.27-2.83,34.67,34.67,0,0,1-1.43-4.61,17.36,17.36,0,0,0-4.21-6.94c-1.94-2-4.86-2.77-6.49-5a8.27,8.27,0,0,1-1.37-3.83c-.65-4.9,1.37-10.5,6.07-12.66,6.27-2.88,14.66,1.1,16.39,7.77,1,3.89,0,8.18,1.51,11.91,1.22,3,3.88,5.22,5.76,7.89,3.4,4.84,4.08,11.27,2.63,17s-4.58,10.42-8.67,14.7"/><path class="cls-4" d="M387.2,133.12a10.1,10.1,0,0,1-7.46-7,7.78,7.78,0,0,1,.9-6.78c1.35-1.88,3.64-2.69,5.05-4.49a5,5,0,0,0,1.13-2.89,2.14,2.14,0,0,0-2.15-2.36c-1.49-.16-2.87.49-4.39.14a4.79,4.79,0,0,1-3.27-2.83,34.67,34.67,0,0,1-1.43-4.61,17.36,17.36,0,0,0-4.21-6.94c-1.94-2-4.86-2.77-6.49-5a8.27,8.27,0,0,1-1.37-3.83c-.65-4.9,1.37-10.5,6.07-12.66,6.27-2.88,14.66,1.1,16.39,7.77,1,3.89,0,8.18,1.51,11.91,1.22,3,3.88,5.22,5.76,7.89,3.4,4.84,4.08,11.27,2.63,17S391.29,128.84,387.2,133.12Z"/><path d="M50.08,54.67a15.29,15.29,0,0,1-9.92-3.73,12.67,12.67,0,0,1-4.29-9.13V41.7A14.9,14.9,0,0,1,50.33,28.06a12.3,12.3,0,0,1,8.84,3.69,15.16,15.16,0,0,1,4.25,9.5,12.13,12.13,0,0,1-3.32,9.63,15.49,15.49,0,0,1-10,3.79"/><path class="cls-1" d="M50.33,29a11.39,11.39,0,0,1,8.17,3.41c4.69,4.69,5.63,13.12.94,17.81a14.59,14.59,0,0,1-9.36,3.51,14.38,14.38,0,0,1-9.31-3.51,11.69,11.69,0,0,1-4-8.43A13.94,13.94,0,0,1,50.33,29m0-1.87h0a15.21,15.21,0,0,0-10.13,4,16.11,16.11,0,0,0-5.26,10.5v.22a13.53,13.53,0,0,0,4.58,9.78l0,0,0,0a16.21,16.21,0,0,0,10.52,4,16.39,16.39,0,0,0,10.56-4l.06,0,.07-.06a13,13,0,0,0,3.58-10.37,16,16,0,0,0-4.52-10.09,13.21,13.21,0,0,0-9.5-4"/></g></g></svg>