<svg xmlns="http://www.w3.org/2000/svg" viewBox="0 0 419.91 168.44"><defs><style>.cls-1,.cls-2,.cls-4{fill:none;stroke-miterlimit:10;}.cls-1,.cls-2{stroke:#000;}.cls-1{stroke-linecap:round;stroke-width:3.42px;}.cls-2{stroke-width:3.28px;}.cls-3{fill:#9898d3;}.cls-4{stroke:#9898d3;stroke-width:2.62px;}</style></defs><title>Recurso 5</title><g id="Capa_2" data-name="Capa 2"><g id="Capa_1-2" data-name="Capa 1"><line class="cls-1" x1="1.71" y1="166.73" x2="353.66" y2="166.73"/><line class="cls-1" x1="366.9" y1="166.73" x2="396.95" y2="166.73"/><line class="cls-1" x1="408.49" y1="166.73" x2="418.2" y2="166.73"/><path d="M42.89,39.86H30.43a.65.65,0,0,0-.65.65V159.2H43.54V40.51a.65.65,0,0,0-.65-.65"/><line class="cls-2" x1="36.66" y1="16.77" x2="36.66" y2="39.86"/><path d="M46.56,9.9a9.9,9.9,0,1,0-9.9,9.89,9.9,9.9,0,0,0,9.9-9.89"/><path d="M272.49,39.86H260a.65.65,0,0,0-.65.65V159.2h13.76V40.51a.65.65,0,0,0-.66-.65"/><line class="cls-2" x1="266.27" y1="16.77" x2="266.27" y2="39.86"/><path d="M276.16,9.9a9.9,9.9,0,1,0-9.89,9.89,9.89,9.89,0,0,0,9.89-9.89"/><path class="cls-2" d="M36.66,28.32a339,339,0,0,0,229.6,0"/><path d="M151.46,56.13A346.48,346.48,0,0,1,67.76,45.9l-1.28-.31,3.77-15.15,1.27.32a331.24,331.24,0,0,0,79.94,9.76,331.11,331.11,0,0,0,79.94-9.76l1.27-.32,3.77,15.15-1.27.31a346.56,346.56,0,0,1-83.71,10.23"/><path class="cls-3" d="M231.72,32l3.13,12.6a345.44,345.44,0,0,1-83.39,10.19A345.56,345.56,0,0,1,68.07,44.63L71.21,32a332.73,332.73,0,0,0,80.26,9.8A332.71,332.71,0,0,0,231.72,32m1.91-3.17-2.55.63a330,330,0,0,1-79.61,9.72,330,330,0,0,1-79.63-9.72l-2.54-.63-.64,2.54L65.53,44l-.63,2.54,2.54.64a348.67,348.67,0,0,0,84,10.25,348.55,348.55,0,0,0,84-10.25l2.55-.64L237.39,44l-3.13-12.6Z"/><line class="cls-4" x1="259.39" y1="79.83" x2="273.15" y2="79.83"/><line class="cls-4" x1="29.78" y1="79.83" x2="43.54" y2="79.83"/><path d="M57.5,166.73H14.6l2.88-9.25a.77.77,0,0,1,.73-.54H53.88a.76.76,0,0,1,.73.54Z"/><path d="M287.72,166.73h-42.9l2.88-9.25a.77.77,0,0,1,.73-.54H284.1a.76.76,0,0,1,.73.54Z"/></g></g></svg>